<svg width="44" height="45" viewBox="0 0 44 45" fill="none" xmlns="http://www.w3.org/2000/svg">
<rect opacity="0.01" y="0.461914" width="44" height="44" fill="#191919"/>
<path d="M20.3683 42.6286C20.1558 42.6283 19.9448 42.5911 19.745 42.5186C18.9517 42.2281 18.4596 41.4332 18.5533 40.5936L19.965 27.5953H9.16667C8.48795 27.5963 7.8642 27.2223 7.5454 26.6231C7.2266 26.0239 7.26492 25.2976 7.645 24.7353L22.11 3.10193C22.5807 2.40538 23.4648 2.11822 24.255 2.40527C25.0131 2.6867 25.4972 3.43156 25.4467 4.2386L24.035 17.3286H34.8333C35.5121 17.3276 36.1358 17.7016 36.4546 18.3008C36.7734 18.9 36.7351 19.6263 36.355 20.1886L21.89 41.8219C21.5485 42.3272 20.9781 42.6295 20.3683 42.6286Z" fill="#191919"/>
</svg>
