<svg width="663" height="663" viewBox="0 0 663 663" fill="none" xmlns="http://www.w3.org/2000/svg">
<g clip-path="url(#clip0_189_2572)">
<path d="M663 0H0V663H663V0Z" fill="#181D2B"/>
<path opacity="0.3" d="M291.778 58.2864C295.41 60.3619 298.292 65.4353 298.292 69.5862V180.97L331.327 200.053V314.954C331.327 319.105 328.387 320.777 324.812 318.701C321.18 316.626 318.298 311.552 318.298 307.401V207.548L285.205 188.523V62.0338C285.205 57.8828 288.146 56.2109 291.778 58.2864Z" fill="url(#paint0_linear_189_2572)"/>
<path opacity="0.3" d="M309.765 542.103C313.397 544.179 316.28 542.507 316.28 538.356V454.876L349.315 473.958V419.304C349.315 415.153 346.374 410.08 342.8 408.004C339.168 405.929 336.285 407.601 336.285 411.752V451.359L303.25 432.276V530.804C303.25 534.955 306.191 540.028 309.765 542.103Z" fill="url(#paint1_linear_189_2572)"/>
<path opacity="0.3" d="M360.557 140.037C364.189 142.113 367.072 147.186 367.072 151.337V340.84C367.072 344.991 364.131 346.663 360.557 344.587C356.925 342.512 354.042 337.438 354.042 333.287V143.785C354.042 139.634 356.982 137.962 360.557 140.037Z" fill="url(#paint2_linear_189_2572)"/>
<path fill-rule="evenodd" clip-rule="evenodd" d="M323.544 532.591C323.544 544.006 316.856 549.425 308.612 544.64C300.368 539.913 293.68 526.768 293.68 515.353C293.68 503.938 300.368 498.518 308.612 503.304C316.856 508.031 323.544 521.176 323.544 532.591Z" fill="#EEB035"/>
<path opacity="0.3" d="M433.256 235.048C429.624 232.972 426.741 234.644 426.741 238.795V295.064L393.707 275.981V345.106C393.707 349.257 396.647 354.33 400.221 356.406C403.854 358.481 406.736 356.809 406.736 352.658V298.581L439.771 317.663V246.348C439.771 242.197 436.831 237.123 433.256 235.048Z" fill="url(#paint3_linear_189_2572)"/>
<path fill-rule="evenodd" clip-rule="evenodd" d="M447.9 254.938C447.9 266.238 441.27 271.542 433.141 266.872C425.012 262.144 418.382 249.23 418.382 237.931C418.382 226.631 424.954 221.327 433.141 225.997C441.327 230.724 447.9 243.638 447.9 254.938Z" fill="#EEB035"/>
<path opacity="0.3" d="M496.443 542.738C496.443 538.587 493.503 533.513 489.928 531.438L438.618 501.805V458.854L387.653 429.451C384.021 427.376 381.139 429.048 381.139 433.199C381.139 437.35 384.079 442.423 387.653 444.498L425.588 466.406V509.357L489.986 546.485C493.56 548.561 496.443 546.889 496.443 542.738Z" fill="url(#paint4_linear_189_2572)"/>
<path opacity="0.3" d="M372.606 605.233C368.974 603.157 366.091 598.084 366.091 593.933V457.297C366.091 453.146 369.032 451.474 372.606 453.55C376.238 455.625 379.121 460.699 379.121 464.85V601.485C379.121 605.636 376.18 607.308 372.606 605.233Z" fill="url(#paint5_linear_189_2572)"/>
<path fill-rule="evenodd" clip-rule="evenodd" d="M504.399 547.696C504.399 559.111 497.711 564.53 489.467 559.745C481.223 555.018 474.535 541.873 474.535 530.458C474.535 519.043 481.223 513.623 489.467 518.409C497.711 523.136 504.399 536.281 504.399 547.696Z" fill="#EEB035"/>
<path opacity="0.3" d="M185.063 318.355L278.921 372.549V546.427L185.063 492.234V318.355Z" fill="url(#paint6_linear_189_2572)"/>
<path opacity="0.15" d="M199.938 428.932L255.86 461.217V468.078L199.938 435.793V428.932Z" fill="white"/>
<path opacity="0.15" d="M205.761 445.824L250.095 471.422V478.282L205.761 452.685V445.824Z" fill="white"/>
<path fill-rule="evenodd" clip-rule="evenodd" d="M220.866 476.784L155.603 439.079V458.508L220.923 496.212L220.866 476.784Z" fill="#EEB035"/>
<path opacity="0.2" d="M252.344 389.902L237.758 401.432L227.957 388.864L215.158 399.933L210.085 396.244L228.937 380.389L238.507 392.957L249.057 385.117L252.344 389.902Z" fill="white"/>
<path fill-rule="evenodd" clip-rule="evenodd" d="M263.298 389.613C263.298 396.128 259.493 399.184 254.823 396.474C250.153 393.764 246.348 386.327 246.348 379.813C246.348 373.298 250.153 370.242 254.823 372.952C259.493 375.662 263.298 383.156 263.298 389.613ZM219.597 402.182C219.597 408.696 215.792 411.752 211.122 409.042C206.453 406.333 202.647 398.895 202.647 392.381C202.647 385.866 206.453 382.811 211.122 385.52C215.792 388.23 219.597 395.667 219.597 402.182Z" fill="#EEB035"/>
<path opacity="0.2" d="M507.627 432.045L418.382 380.504V426.972L507.627 478.513V432.045Z" fill="url(#paint7_linear_189_2572)"/>
<path opacity="0.15" d="M441.212 404.949L468.078 420.457V426.05L441.212 410.484V404.949Z" fill="white"/>
<path opacity="0.15" d="M441.27 416.134L498.461 449.111V454.761L441.27 421.783V416.134Z" fill="white"/>
<path fill-rule="evenodd" clip-rule="evenodd" d="M436.542 406.563C436.542 410.368 434.294 412.213 431.469 410.599C428.644 408.985 426.396 404.545 426.396 400.74C426.396 396.935 428.644 395.091 431.469 396.705C434.294 398.319 436.542 402.758 436.542 406.563Z" fill="#EEB035"/>
<path opacity="0.2" d="M278.633 289.933L189.387 238.392V284.86L278.633 336.401V289.933Z" fill="url(#paint8_linear_189_2572)"/>
<path opacity="0.15" d="M212.218 262.836L239.084 278.345V283.937L212.218 268.429V262.836Z" fill="white"/>
<path opacity="0.15" d="M212.275 274.021L269.466 306.998V312.648L212.275 279.671V274.021Z" fill="white"/>
<path fill-rule="evenodd" clip-rule="evenodd" d="M207.548 264.451C207.548 268.256 205.299 270.1 202.475 268.486C199.65 266.872 197.401 262.433 197.401 258.628C197.401 254.823 199.65 252.978 202.475 254.592C205.242 256.206 207.548 260.645 207.548 264.451Z" fill="#EEB035"/>
<path opacity="0.2" d="M396.532 390.939C396.532 419.189 379.986 432.564 359.634 420.803C339.225 409.042 322.737 376.584 322.737 348.334C322.737 320.085 339.283 306.71 359.634 318.471C380.043 330.232 396.532 362.69 396.532 390.939Z" fill="url(#paint9_linear_189_2572)"/>
<g opacity="0.4">
<path d="M379.532 401.939C379.532 430.189 362.985 443.564 342.634 431.803C322.225 420.042 305.737 387.584 305.737 359.334C305.737 331.085 322.283 317.71 342.634 329.471C363.043 341.232 379.532 373.69 379.532 401.939Z" fill="white"/>
</g>
</g>
<defs>
<linearGradient id="paint0_linear_189_2572" x1="309.782" y1="103.626" x2="238.094" y2="227.838" gradientUnits="userSpaceOnUse">
<stop stop-color="white"/>
<stop offset="1" stop-color="white" stop-opacity="0"/>
</linearGradient>
<linearGradient id="paint1_linear_189_2572" x1="321.978" y1="522.486" x2="368.551" y2="441.797" gradientUnits="userSpaceOnUse">
<stop stop-color="white"/>
<stop offset="1" stop-color="white" stop-opacity="0"/>
</linearGradient>
<linearGradient id="paint2_linear_189_2572" x1="360.72" y1="171.231" x2="299.08" y2="277.992" gradientUnits="userSpaceOnUse">
<stop stop-color="white"/>
<stop offset="1" stop-color="white" stop-opacity="0"/>
</linearGradient>
<linearGradient id="paint3_linear_189_2572" x1="423.944" y1="207.623" x2="362.578" y2="313.936" gradientUnits="userSpaceOnUse">
<stop stop-color="white"/>
<stop offset="1" stop-color="white" stop-opacity="0"/>
</linearGradient>
<linearGradient id="paint4_linear_189_2572" x1="513.338" y1="487.976" x2="390.627" y2="487.963" gradientUnits="userSpaceOnUse">
<stop stop-color="white"/>
<stop offset="1" stop-color="white" stop-opacity="0"/>
</linearGradient>
<linearGradient id="paint5_linear_189_2572" x1="372.393" y1="580.601" x2="416.923" y2="503.572" gradientUnits="userSpaceOnUse">
<stop stop-color="white"/>
<stop offset="1" stop-color="white" stop-opacity="0"/>
</linearGradient>
<linearGradient id="paint6_linear_189_2572" x1="241.642" y1="333.675" x2="175.614" y2="448.066" gradientUnits="userSpaceOnUse">
<stop stop-color="white"/>
<stop offset="1" stop-color="white" stop-opacity="0"/>
</linearGradient>
<linearGradient id="paint7_linear_189_2572" x1="471.351" y1="412.071" x2="452.079" y2="445.457" gradientUnits="userSpaceOnUse">
<stop stop-color="white"/>
<stop offset="1" stop-color="white" stop-opacity="0"/>
</linearGradient>
<linearGradient id="paint8_linear_189_2572" x1="242.356" y1="269.958" x2="223.084" y2="303.345" gradientUnits="userSpaceOnUse">
<stop stop-color="white"/>
<stop offset="1" stop-color="white" stop-opacity="0"/>
</linearGradient>
<linearGradient id="paint9_linear_189_2572" x1="362.918" y1="327.426" x2="346.509" y2="420.871" gradientUnits="userSpaceOnUse">
<stop stop-color="white"/>
<stop offset="1" stop-color="white" stop-opacity="0"/>
</linearGradient>
<clipPath id="clip0_189_2572">
<rect width="663" height="663" fill="white"/>
</clipPath>
</defs>
</svg>
