<svg width="762" height="762" viewBox="0 0 762 762" fill="none" xmlns="http://www.w3.org/2000/svg">
<g clip-path="url(#clip0_170_1559)">
<path fill-rule="evenodd" clip-rule="evenodd" d="M401.408 469.525C412.805 483.771 425.461 499.408 434.34 510.341C444.213 480.656 431.027 439.177 416.317 408.167C412.805 427.449 407.902 447.857 401.408 469.525Z" fill="#EEB035"/>
<path fill-rule="evenodd" clip-rule="evenodd" d="M331.967 359.664C317.323 373.711 304.204 399.95 314.076 440.966C322.955 440.237 335.545 439.243 346.942 438.183C340.448 409.028 335.545 382.988 331.967 359.664Z" fill="#F2994A"/>
<path opacity="0.2" d="M363.507 505.769C281.609 191.295 348.996 164.592 374.44 153.858C399.884 194.012 467.205 298.439 385.241 518.292L363.507 505.769Z" fill="url(#paint0_linear_170_1559)"/>
<path opacity="0.1" d="M387.626 487.68C305.728 173.272 373.049 146.503 398.559 135.769C424.003 175.923 491.324 280.35 409.36 500.203L387.626 487.68Z" fill="url(#paint1_linear_170_1559)"/>
<path opacity="0.15" d="M385.24 518.292C467.205 298.439 399.884 194.012 374.44 153.858V512.064L385.24 518.292Z" fill="url(#paint2_linear_170_1559)"/>
<path opacity="0.1" d="M398.824 264.58C398.824 283.729 387.56 292.74 373.645 284.723C359.73 276.705 348.466 254.64 348.466 235.491C348.466 216.342 359.73 207.33 373.645 215.348C387.56 223.365 398.824 245.43 398.824 264.58Z" fill="white"/>
<path opacity="0.1" d="M393.854 589.457C388.09 580.048 385.307 568.121 382.855 557.651C380.006 545.592 377.621 535.322 371.657 532.737C364.832 529.756 361.784 537.309 357.477 547.779C354.959 553.941 351.978 561.23 347.604 567.922C342.9 562.952 337.93 558.844 332.696 555.862C310.763 543.207 292.475 554.14 288.168 580.246C285.187 577.994 282.205 575.94 279.157 574.15C243.972 553.875 215.48 576.867 215.48 625.635C215.48 674.337 243.972 730.261 279.091 750.537C313.215 770.216 341.111 749.079 342.701 703.293C349.128 715.22 357.676 725.225 367.151 730.659C369.603 732.05 371.988 733.11 374.241 733.773C387.891 763.789 408.233 789.631 430.961 802.75C472.042 826.472 505.372 799.702 505.438 742.983C505.438 686.264 472.109 620.997 431.027 597.276C417.443 589.457 404.788 587.071 393.854 589.457Z" fill="url(#paint3_linear_170_1559)"/>
<path opacity="0.3" d="M460.049 372.519L639.417 476.084L639.484 569.578L475.952 475.157L460.115 480.325L460.049 372.519Z" fill="url(#paint4_linear_170_1559)"/>
<path fill-rule="evenodd" clip-rule="evenodd" d="M587.27 492.517V467.139L654.989 506.233V531.611L587.27 492.517Z" fill="#EEB035"/>
<path opacity="0.1" d="M506.167 421.883L545.459 444.544V452.76L506.167 430.099V421.883Z" fill="white"/>
<path opacity="0.1" d="M506.233 438.316L577.132 479.265V487.481L506.233 446.532V438.316Z" fill="white"/>
<path opacity="0.15" d="M506.233 454.748L598.004 507.757V515.973L506.233 462.965V454.748Z" fill="white"/>
<path fill-rule="evenodd" clip-rule="evenodd" d="M496.493 424.865C496.493 432.551 491.921 436.195 486.289 432.948C480.656 429.702 476.084 420.823 476.084 413.136C476.084 405.45 480.656 401.806 486.289 405.053C491.987 408.299 496.493 417.178 496.493 424.865Z" fill="#EEB035"/>
<path opacity="0.3" d="M305.33 240.461L125.962 136.961L126.028 230.455L289.56 324.811L305.396 348.267L305.33 240.461Z" fill="url(#paint5_linear_170_1559)"/>
<path fill-rule="evenodd" clip-rule="evenodd" d="M106.812 173.405V148.027L174.531 187.121V212.498L106.812 173.405Z" fill="#F2994A"/>
<path opacity="0.15" d="M259.212 236.618L219.92 213.956V222.173L259.212 244.834V236.618Z" fill="white"/>
<path opacity="0.15" d="M259.212 253.05L183.476 209.318V217.534L259.212 261.267V253.05Z" fill="white"/>
<path opacity="0.15" d="M259.212 269.483L167.441 216.474V224.69L259.212 277.699V269.483Z" fill="white"/>
<path fill-rule="evenodd" clip-rule="evenodd" d="M268.887 250.731C268.887 258.417 273.459 267.296 279.091 270.543C284.723 273.79 289.295 270.146 289.295 262.459C289.295 254.773 284.723 245.894 279.091 242.647C273.459 239.467 268.887 243.045 268.887 250.731Z" fill="#F2994A"/>
<path opacity="0.2" d="M281.476 340.25L174.332 278.428V334.22L281.476 396.041V340.25Z" fill="url(#paint6_linear_170_1559)"/>
<path opacity="0.15" d="M201.764 307.649L238.473 328.853V335.545L201.764 314.342V307.649Z" fill="white"/>
<path opacity="0.15" d="M201.764 321.1L270.411 360.724V367.483L201.764 327.859V321.1Z" fill="white"/>
<path fill-rule="evenodd" clip-rule="evenodd" d="M196.132 309.637C196.132 314.209 193.415 316.396 190.036 314.474C186.657 312.552 183.94 307.252 183.94 302.613C183.94 298.041 186.657 295.855 190.036 297.776C193.349 299.764 196.132 305.065 196.132 309.637Z" fill="#F2994A"/>
<path opacity="0.2" d="M599.661 382.391L492.517 320.57V376.362L599.661 438.249V382.391Z" fill="url(#paint7_linear_170_1559)"/>
<path opacity="0.15" d="M519.949 349.857L556.657 371.061V377.753L519.949 356.55V349.857Z" fill="white"/>
<path opacity="0.15" d="M520.015 363.308L588.661 402.932V409.691L520.015 370.067V363.308Z" fill="white"/>
<path fill-rule="evenodd" clip-rule="evenodd" d="M514.317 351.845C514.317 356.417 511.6 358.604 508.221 356.682C504.841 354.761 502.125 349.46 502.125 344.822C502.125 340.25 504.841 338.063 508.221 339.985C511.6 341.972 514.317 347.273 514.317 351.845Z" fill="#EEB035"/>
</g>
<defs>
<linearGradient id="paint0_linear_170_1559" x1="381.668" y1="165.009" x2="223.255" y2="439.461" gradientUnits="userSpaceOnUse">
<stop stop-color="white"/>
<stop offset="1" stop-color="white" stop-opacity="0"/>
</linearGradient>
<linearGradient id="paint1_linear_170_1559" x1="405.781" y1="146.924" x2="247.365" y2="421.369" gradientUnits="userSpaceOnUse">
<stop stop-color="white"/>
<stop offset="1" stop-color="white" stop-opacity="0"/>
</linearGradient>
<linearGradient id="paint2_linear_170_1559" x1="400.149" y1="242.827" x2="277.793" y2="463.579" gradientUnits="userSpaceOnUse">
<stop stop-color="white" stop-opacity="0"/>
<stop offset="1" stop-color="white"/>
</linearGradient>
<linearGradient id="paint3_linear_170_1559" x1="416.592" y1="594.927" x2="332.436" y2="740.729" gradientUnits="userSpaceOnUse">
<stop stop-color="white"/>
<stop offset="1" stop-color="white" stop-opacity="0"/>
</linearGradient>
<linearGradient id="paint4_linear_170_1559" x1="539.271" y1="375.547" x2="562.403" y2="563.158" gradientUnits="userSpaceOnUse">
<stop stop-color="white"/>
<stop offset="1" stop-color="white" stop-opacity="0"/>
</linearGradient>
<linearGradient id="paint5_linear_170_1559" x1="252.128" y1="203.039" x2="175.523" y2="263.017" gradientUnits="userSpaceOnUse">
<stop stop-color="white"/>
<stop offset="1" stop-color="white" stop-opacity="0"/>
</linearGradient>
<linearGradient id="paint6_linear_170_1559" x1="237.932" y1="316.302" x2="214.793" y2="356.388" gradientUnits="userSpaceOnUse">
<stop stop-color="white"/>
<stop offset="1" stop-color="white" stop-opacity="0"/>
</linearGradient>
<linearGradient id="paint7_linear_170_1559" x1="556.116" y1="358.452" x2="532.966" y2="398.56" gradientUnits="userSpaceOnUse">
<stop stop-color="white"/>
<stop offset="1" stop-color="white" stop-opacity="0"/>
</linearGradient>
<clipPath id="clip0_170_1559">
<rect width="762" height="762" fill="white"/>
</clipPath>
</defs>
</svg>
