<svg width="663" height="663" viewBox="0 0 663 663" fill="none" xmlns="http://www.w3.org/2000/svg">
<g clip-path="url(#clip0_189_2637)">
<path d="M663 0H0V663H663V0Z" fill="#181D2B"/>
<path opacity="0.3" d="M68.8368 388.576C12.5683 339.687 4.66991 386.27 0.922516 386.962C0.922516 386.962 -0.749397 398.204 0.922516 439.194L549.425 755.762V532.994C487.046 421.322 445.767 343.319 405.18 379.351C334.844 441.673 300.598 483.529 216.945 397.051C167.364 345.798 136.405 447.266 68.8368 388.576Z" fill="url(#paint0_linear_189_2637)"/>
<path opacity="0.3" d="M141.306 427.895C85.037 379.005 77.1386 425.531 73.3336 426.28C73.3336 426.28 71.6617 437.522 73.3336 478.513L621.836 795.081V572.313C533.052 443.403 474.535 467.386 423.801 486.008C374.105 504.226 355.887 466.176 292.988 411.925C241.274 367.302 208.874 486.584 141.306 427.895Z" fill="url(#paint1_linear_189_2637)"/>
<path fill-rule="evenodd" clip-rule="evenodd" d="M442.077 376.469C442.077 371.857 439.367 366.61 436.081 364.708C432.737 362.805 430.085 364.938 430.085 369.55C430.085 374.163 432.795 379.409 436.081 381.311C439.367 383.272 442.077 381.081 442.077 376.469Z" fill="#EEB035"/>
<path opacity="0.8" fill-rule="evenodd" clip-rule="evenodd" d="M283.015 407.486C283.015 403.046 280.247 397.858 276.788 395.897C273.329 393.937 270.562 395.897 270.562 400.337C270.562 404.776 273.329 409.965 276.788 411.925C280.19 413.885 283.015 411.925 283.015 407.486Z" fill="#EEB035"/>
<path opacity="0.07" d="M403.681 81.4626L510.106 142.862V352.024L403.681 290.625V81.4626Z" fill="white"/>
<path opacity="0.3" d="M489.352 160.85L382.926 99.45L382.868 308.612L428.875 335.132L436.139 349.43L443.345 343.549L489.352 370.012V160.85Z" fill="url(#paint2_linear_189_2637)"/>
<path opacity="0.1" d="M475.4 226.054C475.4 232.742 474.42 238.853 472.575 243.984C470.73 249.115 468.02 253.151 464.619 255.918C461.217 258.685 457.124 260.069 452.685 260.069C448.246 260.069 443.403 258.628 438.618 255.803V204.781L475.4 226.054Z" fill="white"/>
<path opacity="0.3" d="M438.618 255.86C432.161 252.113 425.819 246.117 420.227 238.392C414.635 230.666 409.965 221.557 406.736 211.929C403.508 202.301 401.778 192.501 401.778 183.565C401.778 174.628 403.508 166.788 406.736 160.907L438.618 204.838V255.86Z" fill="white"/>
<path fill-rule="evenodd" clip-rule="evenodd" d="M475.4 226.054C475.4 214.812 472.748 202.359 467.79 190.598C462.832 178.837 455.913 168.46 448.13 161.023C440.29 153.585 431.988 149.55 424.493 149.55C416.998 149.55 410.772 153.528 406.679 160.907L438.56 204.838L475.4 226.054Z" fill="#EEB035"/>
<path opacity="0.15" d="M396.82 258.051L461.679 295.467V303.308L396.82 265.892V258.051Z" fill="white"/>
<path opacity="0.15" d="M396.82 273.387L475.458 318.759V326.6L396.82 281.227V273.387Z" fill="white"/>
<path opacity="0.15" d="M396.82 288.722L447.784 318.125V325.965L396.82 296.563V288.722Z" fill="white"/>
<path opacity="0.07" d="M244.042 112.71L350.468 174.11V383.272L244.042 321.872V112.71Z" fill="white"/>
<path opacity="0.3" d="M330.001 192.213L223.575 130.813L223.518 340.033L269.582 366.553L276.788 380.793L283.995 374.912L330.001 401.375V192.213Z" fill="url(#paint3_linear_189_2637)"/>
<path opacity="0.1" d="M316.049 257.475C316.049 266.411 314.32 274.251 311.091 280.132C307.863 286.013 303.193 289.76 297.601 291.028L279.209 236.201L316.049 257.475Z" fill="white"/>
<path opacity="0.3" d="M297.658 291.028C290.625 292.585 282.496 290.106 274.424 284.052C266.411 277.941 258.916 268.544 253.208 257.302L279.267 236.259L297.658 291.028Z" fill="white"/>
<path opacity="0.8" fill-rule="evenodd" clip-rule="evenodd" d="M316.049 257.475C316.049 249.057 314.55 239.948 311.725 230.897C308.843 221.846 304.749 213.14 299.734 205.588C294.718 198.035 288.895 191.809 282.899 187.485C276.846 183.161 270.792 180.913 265.2 180.913C259.608 180.913 254.65 183.103 250.845 187.37C246.982 191.636 244.388 197.805 243.177 205.357C242.024 212.91 242.312 221.557 244.042 230.609C245.771 239.66 248.942 248.769 253.266 257.186L279.325 236.143L316.049 257.475Z" fill="#EEB035"/>
<path opacity="0.15" d="M237.469 289.472L311.091 331.961V339.802L237.469 297.312V289.472Z" fill="white"/>
<path opacity="0.15" d="M237.469 304.75L313.916 348.911V356.752L237.469 312.59V304.75Z" fill="white"/>
<path opacity="0.15" d="M237.469 320.085L288.434 349.488V357.328L237.469 327.926V320.085Z" fill="white"/>
</g>
<defs>
<linearGradient id="paint0_linear_189_2637" x1="375.001" y1="406.707" x2="336.742" y2="528.263" gradientUnits="userSpaceOnUse">
<stop stop-color="white"/>
<stop offset="1" stop-color="white" stop-opacity="0"/>
</linearGradient>
<linearGradient id="paint1_linear_189_2637" x1="405.236" y1="470.819" x2="383.985" y2="567.009" gradientUnits="userSpaceOnUse">
<stop stop-color="white"/>
<stop offset="1" stop-color="white" stop-opacity="0"/>
</linearGradient>
<linearGradient id="paint2_linear_189_2637" x1="436.11" y1="134.447" x2="436.11" y2="392.934" gradientUnits="userSpaceOnUse">
<stop stop-color="white" stop-opacity="0"/>
<stop offset="1" stop-color="white"/>
</linearGradient>
<linearGradient id="paint3_linear_189_2637" x1="276.759" y1="164.238" x2="276.759" y2="430.173" gradientUnits="userSpaceOnUse">
<stop stop-color="white" stop-opacity="0"/>
<stop offset="1" stop-color="white"/>
</linearGradient>
<clipPath id="clip0_189_2637">
<rect width="663" height="663" fill="white"/>
</clipPath>
</defs>
</svg>
