<svg width="378" height="378" viewBox="0 0 378 378" fill="none" xmlns="http://www.w3.org/2000/svg">
<g clip-path="url(#clip0_176_2302)">
<path d="M378 0H0V378H378V0Z" fill="#181D2B"/>
<path opacity="0.07" d="M170.002 42.1388L316.896 206.454L169.969 201.195C168.884 201.162 167.701 199.387 167.964 198.203L182.755 132.53L256.777 169.607L181.867 120.664L167.996 42.8619C167.734 41.3499 168.917 40.9555 170.002 42.1388Z" fill="url(#paint0_linear_176_2302)"/>
<path opacity="0.4" d="M158.727 50.3233L305.621 214.638L158.694 209.379C157.61 209.346 156.426 207.571 156.689 206.388L171.448 140.748L245.47 177.824L170.626 128.849L156.722 51.0465C156.459 49.5345 157.642 49.14 158.727 50.3233Z" fill="url(#paint1_linear_176_2302)"/>
<path opacity="0.3" d="M169.541 223.908L71.7214 167.438L71.7543 218.418L160.929 269.892L169.574 282.678L169.541 223.908Z" fill="url(#paint2_linear_176_2302)"/>
<path fill-rule="evenodd" clip-rule="evenodd" d="M61.3018 187.324V173.486L98.2143 194.785V208.623L61.3018 187.324Z" fill="#F2994A"/>
<path opacity="0.15" d="M144.396 221.804L122.965 209.445V213.915L144.396 226.274V221.804Z" fill="white"/>
<path opacity="0.15" d="M144.396 230.744L103.079 206.914V211.384L144.396 235.215V230.744Z" fill="white"/>
<path opacity="0.15" d="M144.429 239.718L94.3687 210.825V215.296L144.429 244.188V239.718Z" fill="white"/>
<path fill-rule="evenodd" clip-rule="evenodd" d="M149.688 229.495C149.688 233.703 152.186 238.534 155.243 240.309C158.3 242.084 160.798 240.112 160.798 235.905C160.798 231.698 158.3 226.866 155.243 225.091C152.153 223.316 149.688 225.288 149.688 229.495Z" fill="#F2994A"/>
<path opacity="0.3" d="M177.989 181.802L275.809 238.271L275.841 289.252L186.633 237.746L178.022 240.572L177.989 181.802Z" fill="url(#paint3_linear_176_2302)"/>
<path fill-rule="evenodd" clip-rule="evenodd" d="M247.344 247.245V233.407L284.256 254.706V268.544L247.344 247.245Z" fill="#F2C94C"/>
<path opacity="0.15" d="M203.134 208.722L224.565 221.081V225.551L203.134 213.192V208.722Z" fill="white"/>
<path opacity="0.15" d="M203.134 217.695L241.821 240.014V244.484L203.134 222.165V217.695Z" fill="white"/>
<path opacity="0.15" d="M203.167 226.636L253.227 255.528V259.998L203.167 231.106V226.636Z" fill="white"/>
<path fill-rule="evenodd" clip-rule="evenodd" d="M197.875 210.332C197.875 214.54 195.377 216.512 192.32 214.737C189.263 212.962 186.765 208.13 186.765 203.923C186.765 199.715 189.263 197.743 192.32 199.518C195.377 201.293 197.875 206.158 197.875 210.332Z" fill="#F2C94C"/>
<path opacity="0.2" d="M289.187 306.443L230.777 272.719V303.156L289.187 336.88V306.443Z" fill="url(#paint4_linear_176_2302)"/>
<path opacity="0.15" d="M245.733 288.693L263.285 298.85V302.499L245.733 292.342V288.693Z" fill="white"/>
<path opacity="0.15" d="M245.733 296.023L283.138 317.619V321.333L245.733 299.738V296.023Z" fill="white"/>
<path fill-rule="evenodd" clip-rule="evenodd" d="M242.643 289.778C242.643 292.276 241.164 293.459 239.323 292.408C237.483 291.356 236.003 288.463 236.003 285.965C236.003 283.467 237.483 282.284 239.323 283.336C241.164 284.387 242.643 287.28 242.643 289.778Z" fill="#F2C94C"/>
<path opacity="0.2" d="M127.468 259.768L69.0591 226.044V256.481L127.468 290.205V259.768Z" fill="url(#paint5_linear_176_2302)"/>
<path opacity="0.15" d="M84.0146 242.019L101.567 252.175V255.824L84.0146 245.667V242.019Z" fill="white"/>
<path opacity="0.15" d="M84.0146 249.349L121.42 270.944V274.658L84.0146 253.063V249.349Z" fill="white"/>
<path fill-rule="evenodd" clip-rule="evenodd" d="M80.9248 243.103C80.9248 245.601 79.4457 246.785 77.605 245.733C75.7643 244.681 74.2852 241.789 74.2852 239.29C74.2852 236.792 75.7643 235.609 77.605 236.661C79.4457 237.713 80.9248 240.605 80.9248 243.103Z" fill="#F2994A"/>
<path opacity="0.2" d="M135.85 162.967L121.782 154.848V150.115L135.85 158.234C137 158.891 138.677 160.239 140.09 162.31C141.635 164.512 142.72 167.306 142.72 170.33C142.72 173.683 141.865 175.589 140.254 176.115C138.742 176.608 136.935 175.753 135.85 175.129L130.065 171.776L130.032 171.743C129.539 171.448 128.75 171.152 128.126 171.349C127.6 171.513 127.041 172.006 127.041 173.88C127.041 175.753 127.633 176.871 128.093 177.561C128.684 178.416 129.473 179.008 129.966 179.271L130.032 179.303L147.716 189.526V194.259L130.131 184.102C128.914 183.478 127.172 182.13 125.66 180.027C124.017 177.693 122.899 174.767 122.899 171.513C122.899 168.259 124.017 166.616 125.627 166.156C127.139 165.728 128.882 166.353 130.098 167.076L135.817 170.363C136.639 170.856 137.263 171.053 137.691 170.922C138.019 170.823 138.611 170.363 138.611 167.963C138.611 166.386 138.118 165.367 137.625 164.709C137.066 163.855 136.31 163.23 135.85 162.967Z" fill="white"/>
<path fill-rule="evenodd" clip-rule="evenodd" d="M124.346 153.83C124.346 158.07 121.847 160.075 118.791 158.333C115.734 156.558 113.236 151.693 113.236 147.42C113.236 143.18 115.734 141.175 118.791 142.917C121.847 144.692 124.346 149.589 124.346 153.83Z" fill="#F2994A"/>
<path fill-rule="evenodd" clip-rule="evenodd" d="M154.914 195.903C154.914 200.143 152.416 202.148 149.359 200.406C146.303 198.631 143.804 193.766 143.804 189.493C143.804 185.253 146.303 183.248 149.359 184.99C152.416 186.765 154.914 191.662 154.914 195.903Z" fill="#F2C94C"/>
<path opacity="0.2" d="M193.963 263.844V291.553C193.963 291.849 194.259 292.178 194.456 292.079L200.932 288.102L207.539 299.803C207.9 300.428 208.525 300.494 208.525 299.902V272.291L193.963 263.844Z" fill="url(#paint6_linear_176_2302)"/>
</g>
<defs>
<linearGradient id="paint0_linear_176_2302" x1="258.284" y1="98.5325" x2="195.859" y2="180.971" gradientUnits="userSpaceOnUse">
<stop stop-color="white"/>
<stop offset="1" stop-color="white" stop-opacity="0"/>
</linearGradient>
<linearGradient id="paint1_linear_176_2302" x1="247.012" y1="106.712" x2="184.587" y2="189.15" gradientUnits="userSpaceOnUse">
<stop stop-color="white"/>
<stop offset="1" stop-color="white" stop-opacity="0"/>
</linearGradient>
<linearGradient id="paint2_linear_176_2302" x1="140.524" y1="203.475" x2="98.7546" y2="236.177" gradientUnits="userSpaceOnUse">
<stop stop-color="white"/>
<stop offset="1" stop-color="white" stop-opacity="0"/>
</linearGradient>
<linearGradient id="paint3_linear_176_2302" x1="221.192" y1="183.443" x2="233.804" y2="285.745" gradientUnits="userSpaceOnUse">
<stop stop-color="white"/>
<stop offset="1" stop-color="white" stop-opacity="0"/>
</linearGradient>
<linearGradient id="paint4_linear_176_2302" x1="265.444" y1="293.38" x2="252.826" y2="315.241" gradientUnits="userSpaceOnUse">
<stop stop-color="white"/>
<stop offset="1" stop-color="white" stop-opacity="0"/>
</linearGradient>
<linearGradient id="paint5_linear_176_2302" x1="103.726" y1="246.705" x2="91.1077" y2="268.567" gradientUnits="userSpaceOnUse">
<stop stop-color="white"/>
<stop offset="1" stop-color="white" stop-opacity="0"/>
</linearGradient>
<linearGradient id="paint6_linear_176_2302" x1="202.249" y1="278.015" x2="195.618" y2="282.214" gradientUnits="userSpaceOnUse">
<stop stop-color="white"/>
<stop offset="1" stop-color="white" stop-opacity="0"/>
</linearGradient>
<clipPath id="clip0_176_2302">
<rect width="378" height="378" fill="white"/>
</clipPath>
</defs>
</svg>
