<svg width="419" height="476" viewBox="0 0 419 476" fill="none" xmlns="http://www.w3.org/2000/svg">
<g clip-path="url(#clip0_69_1657)">
<path d="M393.935 134.159L276.005 134.159C273.763 134.159 271.613 133.269 270.028 131.684C268.443 130.099 267.553 127.949 267.553 125.707V39.8557C267.553 37.6152 268.443 35.4665 270.027 33.8822C271.611 32.298 273.76 31.408 276.001 31.408L393.939 31.408C396.18 31.408 398.329 32.298 399.913 33.8822C401.497 35.4665 402.387 37.6152 402.387 39.8557V125.707C402.387 127.949 401.497 130.099 399.912 131.684C398.327 133.269 396.177 134.159 393.935 134.159V134.159Z" fill="white"/>
<path d="M267.2 125.707V39.8551C267.2 37.5209 268.127 35.2824 269.777 33.6319C271.428 31.9814 273.666 31.0542 276.001 31.0542H393.939C396.274 31.0542 398.512 31.9814 400.163 33.6319C401.813 35.2824 402.74 37.5209 402.74 39.8551V125.707C402.74 126.863 402.513 128.008 402.07 129.076C401.628 130.145 400.979 131.115 400.161 131.933C399.344 132.75 398.373 133.399 397.305 133.841C396.237 134.284 395.092 134.512 393.935 134.512H276.005C274.848 134.512 273.703 134.284 272.635 133.841C271.567 133.399 270.596 132.75 269.779 131.933C268.961 131.115 268.312 130.145 267.87 129.076C267.427 128.008 267.2 126.863 267.2 125.707V125.707ZM276.001 31.7604C273.854 31.761 271.796 32.6141 270.278 34.1321C268.761 35.6501 267.908 37.7086 267.908 39.8551V125.707C267.908 127.855 268.761 129.915 270.28 131.433C271.799 132.952 273.859 133.805 276.007 133.805H393.935C396.083 133.805 398.143 132.952 399.662 131.433C401.181 129.915 402.034 127.855 402.034 125.707V39.8551C402.034 37.7083 401.181 35.6493 399.663 34.1313C398.145 32.6133 396.086 31.7604 393.939 31.7604H276.001Z" fill="#292A2E"/>
<path d="M267.553 39.854V47.0074H402.386V39.854C402.386 37.6135 401.496 35.4648 399.912 33.8805C398.327 32.2963 396.179 31.4062 393.938 31.4062H276C274.891 31.4062 273.793 31.6248 272.768 32.0493C271.743 32.4739 270.812 33.0961 270.027 33.8806C269.243 34.665 268.621 35.5963 268.196 36.6212C267.772 37.6462 267.553 38.7447 267.553 39.854V39.854Z" fill="#292A2E"/>
<path d="M313.601 58.5704H307.239C307.164 58.5704 307.092 58.5406 307.039 58.4876C306.986 58.4346 306.956 58.3628 306.956 58.2879C306.956 58.2129 306.986 58.1411 307.039 58.0881C307.092 58.0351 307.164 58.0054 307.239 58.0054H313.601C313.676 58.0054 313.748 58.0351 313.801 58.0881C313.854 58.1411 313.883 58.2129 313.883 58.2879C313.883 58.3628 313.854 58.4346 313.801 58.4876C313.748 58.5406 313.676 58.5704 313.601 58.5704V58.5704Z" fill="#292A2E"/>
<path d="M302.65 58.5704H300.243C300.168 58.5704 300.096 58.5406 300.043 58.4876C299.99 58.4346 299.96 58.3628 299.96 58.2879C299.96 58.2129 299.99 58.1411 300.043 58.0881C300.096 58.0351 300.168 58.0054 300.243 58.0054H302.65C302.725 58.0054 302.797 58.0351 302.85 58.0881C302.903 58.1411 302.933 58.2129 302.933 58.2879C302.933 58.3628 302.903 58.4346 302.85 58.4876C302.797 58.5406 302.725 58.5704 302.65 58.5704Z" fill="#171DCE"/>
<path d="M302.65 63.6666H300.243C300.168 63.6666 300.096 63.6368 300.043 63.5838C299.99 63.5308 299.96 63.459 299.96 63.3841C299.96 63.3091 299.99 63.2373 300.043 63.1843C300.096 63.1313 300.168 63.1016 300.243 63.1016H302.65C302.725 63.1016 302.797 63.1313 302.85 63.1843C302.903 63.2373 302.933 63.3091 302.933 63.3841C302.933 63.459 302.903 63.5308 302.85 63.5838C302.797 63.6368 302.725 63.6666 302.65 63.6666Z" fill="#171DCE"/>
<path d="M302.65 68.7627H300.243C300.168 68.7627 300.096 68.733 300.043 68.68C299.99 68.627 299.96 68.5552 299.96 68.4803C299.96 68.4053 299.99 68.3335 300.043 68.2805C300.096 68.2275 300.168 68.1978 300.243 68.1978H302.65C302.725 68.1978 302.797 68.2275 302.85 68.2805C302.903 68.3335 302.933 68.4053 302.933 68.4803C302.933 68.5552 302.903 68.627 302.85 68.68C302.797 68.733 302.725 68.7627 302.65 68.7627Z" fill="#171DCE"/>
<path d="M302.65 73.8589H300.243C300.168 73.8589 300.096 73.8292 300.043 73.7762C299.99 73.7232 299.96 73.6514 299.96 73.5764C299.96 73.5015 299.99 73.4297 300.043 73.3767C300.096 73.3237 300.168 73.2939 300.243 73.2939H302.65C302.725 73.2939 302.797 73.3237 302.85 73.3767C302.903 73.4297 302.933 73.5015 302.933 73.5764C302.933 73.6514 302.903 73.7232 302.85 73.7762C302.797 73.8292 302.725 73.8589 302.65 73.8589Z" fill="#171DCE"/>
<path d="M302.65 78.9554H300.243C300.168 78.9554 300.096 78.9256 300.043 78.8726C299.99 78.8196 299.96 78.7478 299.96 78.6729C299.96 78.598 299.99 78.5261 300.043 78.4731C300.096 78.4201 300.168 78.3904 300.243 78.3904H302.65C302.725 78.3904 302.797 78.4201 302.85 78.4731C302.903 78.5261 302.933 78.598 302.933 78.6729C302.933 78.7478 302.903 78.8196 302.85 78.8726C302.797 78.9256 302.725 78.9554 302.65 78.9554Z" fill="#171DCE"/>
<path d="M302.65 84.0516H300.243C300.168 84.0516 300.096 84.0218 300.043 83.9688C299.99 83.9158 299.96 83.844 299.96 83.7691C299.96 83.6941 299.99 83.6223 300.043 83.5693C300.096 83.5163 300.168 83.4866 300.243 83.4866H302.65C302.725 83.4866 302.797 83.5163 302.85 83.5693C302.903 83.6223 302.933 83.6941 302.933 83.7691C302.933 83.844 302.903 83.9158 302.85 83.9688C302.797 84.0218 302.725 84.0516 302.65 84.0516Z" fill="#171DCE"/>
<path d="M302.65 89.1478H300.243C300.168 89.1478 300.096 89.118 300.043 89.065C299.99 89.012 299.96 88.9402 299.96 88.8653C299.96 88.7903 299.99 88.7185 300.043 88.6655C300.096 88.6125 300.168 88.5828 300.243 88.5828H302.65C302.725 88.5828 302.797 88.6125 302.85 88.6655C302.903 88.7185 302.933 88.7903 302.933 88.8653C302.933 88.9402 302.903 89.012 302.85 89.065C302.797 89.118 302.725 89.1478 302.65 89.1478Z" fill="#171DCE"/>
<path d="M302.65 94.2439H300.243C300.168 94.2439 300.096 94.2142 300.043 94.1612C299.99 94.1082 299.96 94.0364 299.96 93.9615C299.96 93.8865 299.99 93.8147 300.043 93.7617C300.096 93.7087 300.168 93.679 300.243 93.679H302.65C302.725 93.679 302.797 93.7087 302.85 93.7617C302.903 93.8147 302.933 93.8865 302.933 93.9615C302.933 94.0364 302.903 94.1082 302.85 94.1612C302.797 94.2142 302.725 94.2439 302.65 94.2439Z" fill="#171DCE"/>
<path d="M302.65 99.3401H300.243C300.168 99.3401 300.096 99.3104 300.043 99.2574C299.99 99.2044 299.96 99.1326 299.96 99.0576C299.96 98.9827 299.99 98.9109 300.043 98.8579C300.096 98.8049 300.168 98.7751 300.243 98.7751H302.65C302.725 98.7751 302.797 98.8049 302.85 98.8579C302.903 98.9109 302.933 98.9827 302.933 99.0576C302.933 99.1326 302.903 99.2044 302.85 99.2574C302.797 99.3104 302.725 99.3401 302.65 99.3401Z" fill="#171DCE"/>
<path d="M302.65 104.437H300.243C300.168 104.437 300.096 104.407 300.043 104.354C299.99 104.301 299.96 104.229 299.96 104.154C299.96 104.079 299.99 104.007 300.043 103.954C300.096 103.901 300.168 103.872 300.243 103.872H302.65C302.725 103.872 302.797 103.901 302.85 103.954C302.903 104.007 302.933 104.079 302.933 104.154C302.933 104.229 302.903 104.301 302.85 104.354C302.797 104.407 302.725 104.437 302.65 104.437Z" fill="#171DCE"/>
<path d="M302.65 109.533H300.243C300.168 109.533 300.096 109.503 300.043 109.45C299.99 109.397 299.96 109.325 299.96 109.25C299.96 109.175 299.99 109.103 300.043 109.051C300.096 108.998 300.168 108.968 300.243 108.968H302.65C302.725 108.968 302.797 108.998 302.85 109.051C302.903 109.103 302.933 109.175 302.933 109.25C302.933 109.325 302.903 109.397 302.85 109.45C302.797 109.503 302.725 109.533 302.65 109.533Z" fill="#171DCE"/>
<path d="M302.65 114.629H300.243C300.168 114.629 300.096 114.599 300.043 114.546C299.99 114.493 299.96 114.421 299.96 114.346C299.96 114.272 299.99 114.2 300.043 114.147C300.096 114.094 300.168 114.064 300.243 114.064H302.65C302.725 114.064 302.797 114.094 302.85 114.147C302.903 114.2 302.933 114.272 302.933 114.346C302.933 114.421 302.903 114.493 302.85 114.546C302.797 114.599 302.725 114.629 302.65 114.629Z" fill="#171DCE"/>
<path d="M302.65 119.725H300.243C300.168 119.725 300.096 119.695 300.043 119.642C299.99 119.589 299.96 119.518 299.96 119.443C299.96 119.368 299.99 119.296 300.043 119.243C300.096 119.19 300.168 119.16 300.243 119.16H302.65C302.725 119.16 302.797 119.19 302.85 119.243C302.903 119.296 302.933 119.368 302.933 119.443C302.933 119.518 302.903 119.589 302.85 119.642C302.797 119.695 302.725 119.725 302.65 119.725Z" fill="#171DCE"/>
<path d="M302.65 124.822H300.243C300.168 124.822 300.096 124.792 300.043 124.739C299.99 124.686 299.96 124.614 299.96 124.539C299.96 124.464 299.99 124.393 300.043 124.34C300.096 124.287 300.168 124.257 300.243 124.257H302.65C302.725 124.257 302.797 124.287 302.85 124.34C302.903 124.393 302.933 124.464 302.933 124.539C302.933 124.614 302.903 124.686 302.85 124.739C302.797 124.792 302.725 124.822 302.65 124.822Z" fill="#171DCE"/>
<path d="M318.686 63.6668H312.888C312.814 63.6668 312.742 63.637 312.689 63.5841C312.636 63.5311 312.606 63.4592 312.606 63.3843C312.606 63.3094 312.636 63.2375 312.689 63.1845C312.742 63.1316 312.814 63.1018 312.888 63.1018H318.686C318.761 63.1018 318.833 63.1316 318.886 63.1845C318.939 63.2375 318.968 63.3094 318.968 63.3843C318.968 63.4592 318.939 63.5311 318.886 63.5841C318.833 63.637 318.761 63.6668 318.686 63.6668V63.6668Z" fill="#292A2E"/>
<path d="M313.601 94.2442H307.239C307.164 94.2442 307.092 94.2144 307.039 94.1614C306.986 94.1085 306.956 94.0366 306.956 93.9617C306.956 93.8868 306.986 93.8149 307.039 93.7619C307.092 93.709 307.164 93.6792 307.239 93.6792H313.601C313.676 93.6792 313.748 93.709 313.801 93.7619C313.854 93.8149 313.883 93.8868 313.883 93.9617C313.883 94.0366 313.854 94.1085 313.801 94.1614C313.748 94.2144 313.676 94.2442 313.601 94.2442V94.2442Z" fill="#292A2E"/>
<path d="M318.686 99.3404H312.888C312.814 99.3404 312.742 99.3106 312.689 99.2576C312.636 99.2047 312.606 99.1328 312.606 99.0579C312.606 98.983 312.636 98.9111 312.689 98.8581C312.742 98.8051 312.814 98.7754 312.888 98.7754H318.686C318.761 98.7754 318.833 98.8051 318.886 98.8581C318.939 98.9111 318.968 98.983 318.968 99.0579C318.968 99.1328 318.939 99.2047 318.886 99.2576C318.833 99.3106 318.761 99.3404 318.686 99.3404V99.3404Z" fill="#292A2E"/>
<path d="M351.456 68.763H316.844C316.769 68.763 316.697 68.7332 316.644 68.6802C316.591 68.6273 316.561 68.5554 316.561 68.4805C316.561 68.4056 316.591 68.3337 316.644 68.2807C316.697 68.2278 316.769 68.198 316.844 68.198H351.456C351.53 68.198 351.602 68.2278 351.655 68.2807C351.708 68.3337 351.738 68.4056 351.738 68.4805C351.738 68.5554 351.708 68.6273 351.655 68.6802C351.602 68.7332 351.53 68.763 351.456 68.763V68.763Z" fill="#292A2E"/>
<path d="M382.014 68.763H357.573C357.498 68.763 357.426 68.7332 357.373 68.6802C357.32 68.6273 357.29 68.5554 357.29 68.4805C357.29 68.4056 357.32 68.3337 357.373 68.2807C357.426 68.2278 357.498 68.198 357.573 68.198H382.014C382.089 68.198 382.161 68.2278 382.214 68.2807C382.267 68.3337 382.297 68.4056 382.297 68.4805C382.297 68.5554 382.267 68.6273 382.214 68.6802C382.161 68.7332 382.089 68.763 382.014 68.763Z" fill="#0CBC8B"/>
<path d="M395.131 68.763H387.639C387.565 68.763 387.493 68.7332 387.44 68.6802C387.387 68.6273 387.357 68.5554 387.357 68.4805C387.357 68.4056 387.387 68.3337 387.44 68.2807C387.493 68.2278 387.565 68.198 387.639 68.198H395.131C395.206 68.198 395.278 68.2278 395.331 68.2807C395.384 68.3337 395.414 68.4056 395.414 68.4805C395.414 68.5554 395.384 68.6273 395.331 68.6802C395.278 68.7332 395.206 68.763 395.131 68.763Z" fill="#292A2E"/>
<path d="M368.405 78.9554H316.844C316.769 78.9554 316.697 78.9256 316.644 78.8726C316.591 78.8196 316.561 78.7478 316.561 78.6729C316.561 78.598 316.591 78.5261 316.644 78.4731C316.697 78.4201 316.769 78.3904 316.844 78.3904H368.405C368.48 78.3904 368.552 78.4201 368.605 78.4731C368.658 78.5261 368.688 78.598 368.688 78.6729C368.688 78.7478 368.658 78.8196 368.605 78.8726C368.552 78.9256 368.48 78.9554 368.405 78.9554V78.9554Z" fill="#292A2E"/>
<path d="M382.014 78.9554H374.522C374.447 78.9554 374.375 78.9256 374.323 78.8726C374.27 78.8196 374.24 78.7478 374.24 78.6729C374.24 78.598 374.27 78.5261 374.323 78.4731C374.375 78.4201 374.447 78.3904 374.522 78.3904H382.014C382.089 78.3904 382.161 78.4201 382.214 78.4731C382.267 78.5261 382.297 78.598 382.297 78.6729C382.297 78.7478 382.267 78.8196 382.214 78.8726C382.161 78.9256 382.089 78.9554 382.014 78.9554Z" fill="#171DCE"/>
<path d="M323.206 73.8592H316.844C316.769 73.8592 316.697 73.8294 316.644 73.7764C316.591 73.7235 316.561 73.6516 316.561 73.5767C316.561 73.5018 316.591 73.4299 316.644 73.3769C316.697 73.324 316.769 73.2942 316.844 73.2942H323.206C323.281 73.2942 323.353 73.324 323.406 73.3769C323.459 73.4299 323.488 73.5018 323.488 73.5767C323.488 73.6516 323.459 73.7235 323.406 73.7764C323.353 73.8294 323.281 73.8592 323.206 73.8592V73.8592Z" fill="#0CBC8B"/>
<path d="M365.064 73.8592H329.323C329.248 73.8592 329.176 73.8294 329.123 73.7764C329.07 73.7235 329.041 73.6516 329.041 73.5767C329.041 73.5018 329.07 73.4299 329.123 73.3769C329.176 73.324 329.248 73.2942 329.323 73.2942H365.064C365.139 73.2942 365.211 73.324 365.264 73.3769C365.317 73.4299 365.347 73.5018 365.347 73.5767C365.347 73.6516 365.317 73.7235 365.264 73.7764C365.211 73.8294 365.139 73.8592 365.064 73.8592Z" fill="#171DCE"/>
<path d="M395.18 73.8592H371.867C371.792 73.8592 371.72 73.8294 371.667 73.7764C371.614 73.7235 371.584 73.6516 371.584 73.5767C371.584 73.5018 371.614 73.4299 371.667 73.3769C371.72 73.324 371.792 73.2942 371.867 73.2942H395.179C395.254 73.2942 395.326 73.324 395.379 73.3769C395.432 73.4299 395.462 73.5018 395.462 73.5767C395.462 73.6516 395.432 73.7235 395.379 73.7764C395.326 73.8294 395.254 73.8592 395.179 73.8592H395.18Z" fill="#292A2E"/>
<path d="M351.456 84.0516H316.844C316.769 84.0516 316.697 84.0218 316.644 83.9688C316.591 83.9158 316.561 83.844 316.561 83.7691C316.561 83.6941 316.591 83.6223 316.644 83.5693C316.697 83.5163 316.769 83.4866 316.844 83.4866H351.456C351.53 83.4866 351.602 83.5163 351.655 83.5693C351.708 83.6223 351.738 83.6941 351.738 83.7691C351.738 83.844 351.708 83.9158 351.655 83.9688C351.602 84.0218 351.53 84.0516 351.456 84.0516V84.0516Z" fill="#292A2E"/>
<path d="M370.714 84.0516H357.573C357.498 84.0516 357.426 84.0218 357.373 83.9688C357.32 83.9158 357.29 83.844 357.29 83.7691C357.29 83.6941 357.32 83.6223 357.373 83.5693C357.426 83.5163 357.498 83.4866 357.573 83.4866H370.714C370.789 83.4866 370.861 83.5163 370.914 83.5693C370.967 83.6223 370.997 83.6941 370.997 83.7691C370.997 83.844 370.967 83.9158 370.914 83.9688C370.861 84.0218 370.789 84.0516 370.714 84.0516Z" fill="#0CBC8B"/>
<path d="M395.131 84.0516H376.34C376.265 84.0516 376.193 84.0218 376.14 83.9688C376.087 83.9158 376.057 83.844 376.057 83.7691C376.057 83.6941 376.087 83.6223 376.14 83.5693C376.193 83.5163 376.265 83.4866 376.34 83.4866H395.131C395.206 83.4866 395.278 83.5163 395.331 83.5693C395.384 83.6223 395.414 83.6941 395.414 83.7691C395.414 83.844 395.384 83.9158 395.331 83.9688C395.278 84.0218 395.206 84.0516 395.131 84.0516Z" fill="#292A2E"/>
<path d="M323.206 89.1478H316.844C316.769 89.1478 316.697 89.118 316.644 89.065C316.591 89.012 316.561 88.9402 316.561 88.8653C316.561 88.7903 316.591 88.7185 316.644 88.6655C316.697 88.6125 316.769 88.5828 316.844 88.5828H323.206C323.281 88.5828 323.353 88.6125 323.406 88.6655C323.459 88.7185 323.488 88.7903 323.488 88.8653C323.488 88.9402 323.459 89.012 323.406 89.065C323.353 89.118 323.281 89.1478 323.206 89.1478V89.1478Z" fill="#171DCE"/>
<path d="M365.064 89.1478H329.323C329.248 89.1478 329.176 89.118 329.123 89.065C329.07 89.012 329.041 88.9402 329.041 88.8653C329.041 88.7903 329.07 88.7185 329.123 88.6655C329.176 88.6125 329.248 88.5828 329.323 88.5828H365.064C365.139 88.5828 365.211 88.6125 365.264 88.6655C365.317 88.7185 365.347 88.7903 365.347 88.8653C365.347 88.9402 365.317 89.012 365.264 89.065C365.211 89.118 365.139 89.1478 365.064 89.1478Z" fill="#0CBC8B"/>
<path d="M350.325 109.533H315.713C315.638 109.533 315.566 109.503 315.513 109.45C315.46 109.397 315.431 109.325 315.431 109.25C315.431 109.175 315.46 109.103 315.513 109.051C315.566 108.998 315.638 108.968 315.713 108.968H350.325C350.4 108.968 350.472 108.998 350.525 109.051C350.578 109.103 350.608 109.175 350.608 109.25C350.608 109.325 350.578 109.397 350.525 109.45C350.472 109.503 350.4 109.533 350.325 109.533V109.533Z" fill="#292A2E"/>
<path d="M380.884 109.533H356.442C356.367 109.533 356.295 109.503 356.242 109.45C356.189 109.397 356.16 109.325 356.16 109.25C356.16 109.175 356.189 109.103 356.242 109.051C356.295 108.998 356.367 108.968 356.442 108.968H380.884C380.959 108.968 381.031 108.998 381.084 109.051C381.136 109.103 381.166 109.175 381.166 109.25C381.166 109.325 381.136 109.397 381.084 109.45C381.031 109.503 380.959 109.533 380.884 109.533Z" fill="#171DCE"/>
<path d="M333.375 104.437H315.713C315.638 104.437 315.566 104.407 315.513 104.354C315.46 104.301 315.431 104.229 315.431 104.154C315.431 104.079 315.46 104.007 315.513 103.954C315.566 103.901 315.638 103.872 315.713 103.872H333.375C333.45 103.872 333.522 103.901 333.575 103.954C333.628 104.007 333.658 104.079 333.658 104.154C333.658 104.229 333.628 104.301 333.575 104.354C333.522 104.407 333.45 104.437 333.375 104.437V104.437Z" fill="#0CBC8B"/>
<path d="M363.934 104.437H339.492C339.418 104.437 339.346 104.407 339.293 104.354C339.24 104.301 339.21 104.229 339.21 104.154C339.21 104.079 339.24 104.007 339.293 103.954C339.346 103.901 339.418 103.872 339.492 103.872H363.934C364.009 103.872 364.081 103.901 364.134 103.954C364.187 104.007 364.217 104.079 364.217 104.154C364.217 104.229 364.187 104.301 364.134 104.354C364.081 104.407 364.009 104.437 363.934 104.437Z" fill="#171DCE"/>
<path d="M394.05 104.437H370.737C370.662 104.437 370.59 104.407 370.537 104.354C370.484 104.301 370.454 104.229 370.454 104.154C370.454 104.079 370.484 104.007 370.537 103.954C370.59 103.901 370.662 103.872 370.737 103.872H394.049C394.124 103.872 394.196 103.901 394.248 103.954C394.301 104.007 394.331 104.079 394.331 104.154C394.331 104.229 394.301 104.301 394.248 104.354C394.196 104.407 394.124 104.437 394.049 104.437H394.05Z" fill="#292A2E"/>
<path d="M367.275 119.726H315.713C315.638 119.726 315.566 119.696 315.513 119.643C315.46 119.59 315.431 119.518 315.431 119.443C315.431 119.368 315.46 119.297 315.513 119.244C315.566 119.191 315.638 119.161 315.713 119.161H367.275C367.35 119.161 367.422 119.191 367.475 119.244C367.528 119.297 367.557 119.368 367.557 119.443C367.557 119.518 367.528 119.59 367.475 119.643C367.422 119.696 367.35 119.726 367.275 119.726V119.726Z" fill="#171DCE"/>
<path d="M380.884 119.726H373.392C373.317 119.726 373.245 119.696 373.192 119.643C373.139 119.59 373.109 119.518 373.109 119.443C373.109 119.368 373.139 119.297 373.192 119.244C373.245 119.191 373.317 119.161 373.392 119.161H380.884C380.959 119.161 381.03 119.191 381.083 119.244C381.136 119.297 381.166 119.368 381.166 119.443C381.166 119.518 381.136 119.59 381.083 119.643C381.03 119.696 380.959 119.726 380.884 119.726Z" fill="#292A2E"/>
<path d="M322.076 114.63H315.713C315.638 114.63 315.566 114.6 315.513 114.547C315.46 114.494 315.431 114.422 315.431 114.347C315.431 114.272 315.46 114.2 315.513 114.147C315.566 114.094 315.638 114.065 315.713 114.065H322.076C322.15 114.065 322.222 114.094 322.275 114.147C322.328 114.2 322.358 114.272 322.358 114.347C322.358 114.422 322.328 114.494 322.275 114.547C322.222 114.6 322.15 114.63 322.076 114.63V114.63Z" fill="#171DCE"/>
<path d="M363.934 114.63H328.193C328.118 114.63 328.046 114.6 327.993 114.547C327.94 114.494 327.91 114.422 327.91 114.347C327.91 114.272 327.94 114.2 327.993 114.147C328.046 114.094 328.118 114.065 328.193 114.065H363.934C364.009 114.065 364.081 114.094 364.134 114.147C364.187 114.2 364.217 114.272 364.217 114.347C364.217 114.422 364.187 114.494 364.134 114.547C364.081 114.6 364.009 114.63 363.934 114.63Z" fill="#292A2E"/>
<path d="M394.05 114.63H370.737C370.662 114.63 370.59 114.6 370.537 114.547C370.484 114.494 370.454 114.422 370.454 114.347C370.454 114.272 370.484 114.2 370.537 114.147C370.59 114.094 370.662 114.065 370.737 114.065H394.049C394.124 114.065 394.196 114.094 394.248 114.147C394.301 114.2 394.331 114.272 394.331 114.347C394.331 114.422 394.301 114.494 394.248 114.547C394.196 114.6 394.124 114.63 394.049 114.63H394.05Z" fill="#0CBC8B"/>
<path d="M350.325 124.822H315.713C315.638 124.822 315.566 124.792 315.513 124.739C315.46 124.686 315.431 124.614 315.431 124.54C315.431 124.465 315.46 124.393 315.513 124.34C315.566 124.287 315.638 124.257 315.713 124.257H350.325C350.4 124.257 350.472 124.287 350.525 124.34C350.578 124.393 350.608 124.465 350.608 124.54C350.608 124.614 350.578 124.686 350.525 124.739C350.472 124.792 350.4 124.822 350.325 124.822V124.822Z" fill="#0CBC8B"/>
<path d="M369.584 124.822H356.442C356.367 124.822 356.295 124.792 356.242 124.739C356.189 124.686 356.16 124.614 356.16 124.54C356.16 124.465 356.189 124.393 356.242 124.34C356.295 124.287 356.367 124.257 356.442 124.257H369.584C369.659 124.257 369.731 124.287 369.784 124.34C369.837 124.393 369.866 124.465 369.866 124.54C369.866 124.614 369.837 124.686 369.784 124.739C369.731 124.792 369.659 124.822 369.584 124.822Z" fill="#292A2E"/>
<path d="M394.001 124.822H375.209C375.134 124.822 375.062 124.792 375.01 124.739C374.957 124.686 374.927 124.614 374.927 124.54C374.927 124.465 374.957 124.393 375.01 124.34C375.062 124.287 375.134 124.257 375.209 124.257H394.001C394.076 124.257 394.148 124.287 394.201 124.34C394.254 124.393 394.283 124.465 394.283 124.54C394.283 124.614 394.254 124.686 394.201 124.739C394.148 124.792 394.076 124.822 394.001 124.822Z" fill="#171DCE"/>
<path d="M297.559 130.275C297.484 130.275 297.413 130.246 297.36 130.193C297.307 130.14 297.277 130.068 297.277 129.993V49.6741C297.277 49.5992 297.307 49.5273 297.36 49.4743C297.413 49.4214 297.484 49.3916 297.559 49.3916C297.634 49.3916 297.706 49.4214 297.759 49.4743C297.812 49.5273 297.842 49.5992 297.842 49.6741V129.993C297.842 130.068 297.812 130.14 297.759 130.193C297.706 130.246 297.634 130.275 297.559 130.275Z" fill="#292A2E"/>
<path d="M392.172 44.305C394.675 44.305 396.704 42.2758 396.704 39.7726C396.704 37.2694 394.675 35.2402 392.172 35.2402C389.668 35.2402 387.639 37.2694 387.639 39.7726C387.639 42.2758 389.668 44.305 392.172 44.305Z" fill="white"/>
<path d="M284.639 53.2029H272.406C272.331 53.2029 272.259 53.1732 272.206 53.1202C272.153 53.0672 272.123 52.9954 272.123 52.9204C272.123 52.8455 272.153 52.7737 272.206 52.7207C272.259 52.6677 272.331 52.6379 272.406 52.6379H284.639C284.714 52.6379 284.786 52.6677 284.839 52.7207C284.891 52.7737 284.921 52.8455 284.921 52.9204C284.921 52.9954 284.891 53.0672 284.839 53.1202C284.786 53.1732 284.714 53.2029 284.639 53.2029Z" fill="#292A2E"/>
<path d="M280.953 58.775H272.406C272.331 58.775 272.259 58.7452 272.206 58.6922C272.153 58.6392 272.123 58.5674 272.123 58.4925C272.123 58.4175 272.153 58.3457 272.206 58.2927C272.259 58.2397 272.331 58.21 272.406 58.21H280.953C281.028 58.21 281.1 58.2397 281.153 58.2927C281.206 58.3457 281.236 58.4175 281.236 58.4925C281.236 58.5674 281.206 58.6392 281.153 58.6922C281.1 58.7452 281.028 58.775 280.953 58.775V58.775Z" fill="#292A2E"/>
<path d="M288.471 64.3467H272.406C272.331 64.3467 272.259 64.317 272.206 64.264C272.153 64.211 272.123 64.1392 272.123 64.0642C272.123 63.9893 272.153 63.9175 272.206 63.8645C272.259 63.8115 272.331 63.7817 272.406 63.7817H288.471C288.545 63.7817 288.617 63.8115 288.67 63.8645C288.723 63.9175 288.753 63.9893 288.753 64.0642C288.753 64.1392 288.723 64.211 288.67 64.264C288.617 64.317 288.545 64.3467 288.471 64.3467V64.3467Z" fill="#292A2E"/>
<path d="M291.468 69.9188H278.055C277.981 69.9188 277.909 69.889 277.856 69.836C277.803 69.783 277.773 69.7112 277.773 69.6363C277.773 69.5613 277.803 69.4895 277.856 69.4365C277.909 69.3835 277.981 69.3538 278.055 69.3538H291.468C291.543 69.3538 291.615 69.3835 291.668 69.4365C291.721 69.4895 291.751 69.5613 291.751 69.6363C291.751 69.7112 291.721 69.783 291.668 69.836C291.615 69.889 291.543 69.9188 291.468 69.9188Z" fill="#292A2E"/>
<path d="M284.982 75.4913H278.055C277.981 75.4913 277.909 75.4615 277.856 75.4085C277.803 75.3555 277.773 75.2837 277.773 75.2088C277.773 75.1338 277.803 75.062 277.856 75.009C277.909 74.956 277.981 74.9263 278.055 74.9263H284.982C285.057 74.9263 285.129 74.956 285.182 75.009C285.235 75.062 285.265 75.1338 285.265 75.2088C285.265 75.2837 285.235 75.3555 285.182 75.4085C285.129 75.4615 285.057 75.4913 284.982 75.4913Z" fill="#292A2E"/>
<path d="M290.289 81.0633H278.055C277.981 81.0633 277.909 81.0335 277.856 80.9805C277.803 80.9276 277.773 80.8557 277.773 80.7808C277.773 80.7059 277.803 80.634 277.856 80.581C277.909 80.528 277.981 80.4983 278.055 80.4983H290.289C290.364 80.4983 290.435 80.528 290.488 80.581C290.541 80.634 290.571 80.7059 290.571 80.7808C290.571 80.8557 290.541 80.9276 290.488 80.9805C290.435 81.0335 290.364 81.0633 290.289 81.0633V81.0633Z" fill="#292A2E"/>
<path d="M281.838 86.6353H272.406C272.331 86.6353 272.259 86.6055 272.206 86.5526C272.153 86.4996 272.123 86.4277 272.123 86.3528C272.123 86.2779 272.153 86.206 272.206 86.153C272.259 86.1001 272.331 86.0703 272.406 86.0703H281.838C281.913 86.0703 281.985 86.1001 282.038 86.153C282.091 86.206 282.121 86.2779 282.121 86.3528C282.121 86.4277 282.091 86.4996 282.038 86.5526C281.985 86.6055 281.913 86.6353 281.838 86.6353Z" fill="#292A2E"/>
<path d="M278.596 92.2066H272.406C272.331 92.2066 272.259 92.1768 272.206 92.1239C272.153 92.0709 272.123 91.999 272.123 91.9241C272.123 91.8492 272.153 91.7773 272.206 91.7243C272.259 91.6714 272.331 91.6416 272.406 91.6416H278.596C278.671 91.6416 278.742 91.6714 278.795 91.7243C278.848 91.7773 278.878 91.8492 278.878 91.9241C278.878 91.999 278.848 92.0709 278.795 92.1239C278.742 92.1768 278.671 92.2066 278.596 92.2066V92.2066Z" fill="#292A2E"/>
<path d="M302.266 52.0074V52.1091L305.797 53.4199C305.848 53.4404 305.891 53.4757 305.921 53.521C305.951 53.5663 305.967 53.6197 305.967 53.6741V53.7702C305.968 53.8126 305.958 53.8546 305.938 53.8921C305.918 53.9297 305.889 53.9616 305.854 53.9849C305.818 54.0101 305.776 54.0259 305.733 54.0309C305.689 54.0358 305.645 54.0297 305.605 54.0131L301.616 52.4537C301.567 52.4339 301.524 52.3996 301.494 52.3553C301.463 52.311 301.447 52.2587 301.447 52.2051V51.917C301.446 51.8632 301.462 51.8106 301.493 51.7662C301.523 51.7217 301.566 51.6876 301.616 51.6684L305.605 50.1034C305.637 50.0923 305.672 50.0865 305.706 50.0864C305.759 50.0875 305.81 50.1032 305.854 50.1316C305.889 50.1561 305.918 50.189 305.938 50.2275C305.958 50.266 305.968 50.3088 305.967 50.352V50.448C305.968 50.502 305.952 50.5549 305.922 50.5995C305.891 50.6441 305.848 50.678 305.797 50.6966L302.266 52.0074Z" fill="#171DCE"/>
<path d="M309.266 48.9508L307.152 55.42C307.135 55.474 307.101 55.5211 307.056 55.5546C307.01 55.5881 306.955 55.6063 306.898 55.6065C306.857 55.6071 306.817 55.5976 306.78 55.5789C306.744 55.5602 306.713 55.5328 306.689 55.4991C306.664 55.4657 306.647 55.4269 306.639 55.3857C306.631 55.3445 306.633 55.3021 306.645 55.2618L308.757 48.7983C308.775 48.7433 308.81 48.6952 308.856 48.6608C308.903 48.6264 308.959 48.6073 309.017 48.6062C309.058 48.6061 309.098 48.6157 309.135 48.6344C309.171 48.6531 309.202 48.6802 309.226 48.7136C309.251 48.7469 309.268 48.786 309.275 48.8273C309.282 48.8687 309.279 48.911 309.266 48.9508V48.9508Z" fill="#171DCE"/>
<path d="M314.455 51.917V52.2052C314.455 52.2583 314.44 52.3104 314.411 52.3547C314.382 52.3991 314.34 52.4336 314.291 52.4538L310.296 54.0131C310.257 54.0296 310.214 54.0356 310.171 54.0306C310.129 54.0257 310.088 54.0099 310.053 53.9849C310.017 53.9619 309.987 53.9302 309.967 53.8927C309.946 53.8552 309.935 53.8131 309.935 53.7702V53.6741C309.934 53.6189 309.951 53.5649 309.982 53.5194C310.013 53.4739 310.058 53.4392 310.11 53.4199L313.641 52.1091V52.0074L310.11 50.6966C310.058 50.6794 310.013 50.6459 309.981 50.6012C309.95 50.5564 309.933 50.5028 309.935 50.448V50.352C309.935 50.3083 309.946 50.2654 309.966 50.227C309.987 50.1886 310.017 50.1558 310.053 50.1316C310.097 50.1033 310.148 50.0876 310.2 50.0864C310.233 50.0861 310.266 50.0918 310.296 50.1034L314.291 51.6684C314.34 51.688 314.383 51.7224 314.412 51.7669C314.441 51.8113 314.456 51.8638 314.455 51.917Z" fill="#171DCE"/>
<path d="M234.573 0H35.5688V199.005H234.573V0Z" fill="#F4F4F4"/>
<path d="M35.569 0H33.2881V199.005H35.569V0Z" fill="#F4F4F4"/>
<path opacity="0.05" d="M35.569 0H33.2881V199.005H35.569V0Z" fill="#292A2E"/>
<path opacity="0.05" d="M83.7785 137.131V85.0642H126.429V115.314H192.493V168.874H220.572V199.005H192.493H187.084H45.1421V137.131H83.7785Z" fill="#292A2E"/>
<path opacity="0.34" d="M120.954 90.7175H89.8955V96.3709H120.954V90.7175Z" fill="#FFFFFA"/>
<path opacity="0.34" d="M120.954 102.432H89.8955V108.085H120.954V102.432Z" fill="#FFFFFA"/>
<path opacity="0.34" d="M120.954 114.147H89.8955V119.8H120.954V114.147Z" fill="#FFFFFA"/>
<path opacity="0.34" d="M56.3734 142.618H50.6489V148.271H56.3734V142.618Z" fill="#FFFFFA"/>
<path opacity="0.34" d="M56.3734 154.332H50.6489V159.986H56.3734V154.332Z" fill="#FFFFFA"/>
<path opacity="0.34" d="M56.3734 166.047H50.6489V171.701H56.3734V166.047Z" fill="#FFFFFA"/>
<path opacity="0.34" d="M66.9638 142.618H61.2393V148.271H66.9638V142.618Z" fill="#FFFFFA"/>
<path opacity="0.34" d="M66.9638 154.332H61.2393V159.986H66.9638V154.332Z" fill="#FFFFFA"/>
<path opacity="0.34" d="M66.9638 166.047H61.2393V171.701H66.9638V166.047Z" fill="#FFFFFA"/>
<path opacity="0.34" d="M77.268 142.618H71.5435V148.271H77.268V142.618Z" fill="#FFFFFA"/>
<path opacity="0.34" d="M77.268 154.332H71.5435V159.986H77.268V154.332Z" fill="#FFFFFA"/>
<path opacity="0.34" d="M77.268 166.047H71.5435V171.701H77.268V166.047Z" fill="#FFFFFA"/>
<path d="M35.5688 98.3861H75.6121V0H78.9236V98.3861H187.084V0H190.395V98.3861H234.573V101.698H190.395V199.005H187.084V101.698H78.9236V199.005H75.6121V101.698H35.5688V98.3861Z" fill="white"/>
<path d="M242.501 198.764H27.6416V205.383H242.501V198.764Z" fill="#F4F4F4"/>
<path opacity="0.1" d="M242.501 198.764H27.6416V205.383H242.501V198.764Z" fill="#292A2E"/>
<path opacity="0.1" d="M27.6414 198.764H24.5391V205.383H27.6414V198.764Z" fill="#292A2E"/>
<path opacity="0.1" d="M27.6414 198.764H24.5391V205.383H27.6414V198.764Z" fill="#292A2E"/>
<path d="M33.2879 8.47241L234.573 8.47241V3.55189L33.2879 3.55189V8.47241Z" fill="white"/>
<path d="M33.2879 17.6638L234.573 17.6638V12.7433L33.2879 12.7433V17.6638Z" fill="white"/>
<path d="M33.2879 26.8545L234.573 26.8545V21.934L33.2879 21.934V26.8545Z" fill="white"/>
<path d="M33.2879 36.0454L234.573 36.0454V31.1249L33.2879 31.1249V36.0454Z" fill="white"/>
<path d="M33.2879 45.2354L234.573 45.2354V40.3148L33.2879 40.3148V45.2354Z" fill="white"/>
<path d="M54.6666 50.7854H57.6831L57.6831 -8.39233e-05H54.6666L54.6666 50.7854Z" fill="white"/>
<path d="M55.9191 58.079C58.2079 58.079 60.0633 56.2235 60.0633 53.9347C60.0633 51.646 58.2079 49.7905 55.9191 49.7905C53.6303 49.7905 51.7749 51.646 51.7749 53.9347C51.7749 56.2235 53.6303 58.079 55.9191 58.079Z" fill="white"/>
<path d="M35.0452 475.62L33.9355 475.406L51.2786 303.066L52.3882 303.279L35.0452 475.62Z" fill="#494949"/>
<path d="M99.6228 475.62L98.5132 475.406L115.856 303.066L116.965 303.279L99.6228 475.62Z" fill="#494949"/>
<path d="M242.367 475.62L243.477 475.406L226.134 303.066L225.024 303.279L242.367 475.62Z" fill="#494949"/>
<path d="M177.79 475.62L178.899 475.406L161.557 303.066L160.447 303.279L177.79 475.62Z" fill="#494949"/>
<path d="M154.79 227.219L153.67 227.368L163.802 303.249L164.922 303.099L154.79 227.219Z" fill="#494949"/>
<path d="M38.5009 227.218L37.3809 227.367L47.5123 303.248L48.6323 303.099L38.5009 227.218Z" fill="#494949"/>
<path d="M164.824 297.616H51.0797C48.0108 297.616 45.5229 300.104 45.5229 303.173V303.173C45.5229 306.242 48.0108 308.73 51.0797 308.73H164.824C167.893 308.73 170.381 306.242 170.381 303.173V303.173C170.381 300.104 167.893 297.616 164.824 297.616Z" fill="#292A2E"/>
<path opacity="0.8" d="M164.824 297.616H51.0797C48.0108 297.616 45.5229 300.104 45.5229 303.173V303.173C45.5229 306.242 48.0108 308.73 51.0797 308.73H164.824C167.893 308.73 170.381 306.242 170.381 303.173V303.173C170.381 300.104 167.893 297.616 164.824 297.616Z" fill="white"/>
<path d="M164.824 309.294H51.0802C50.2763 309.294 49.4802 309.136 48.7375 308.828C47.9948 308.521 47.32 308.07 46.7515 307.501C46.183 306.933 45.7321 306.258 45.4245 305.515C45.1168 304.773 44.9585 303.977 44.9585 303.173C44.9585 302.369 45.1168 301.573 45.4245 300.83C45.7321 300.087 46.183 299.412 46.7515 298.844C47.32 298.276 47.9948 297.825 48.7375 297.517C49.4802 297.209 50.2763 297.051 51.0802 297.051H164.824C165.628 297.051 166.424 297.209 167.167 297.517C167.909 297.825 168.584 298.276 169.153 298.844C169.721 299.412 170.172 300.087 170.48 300.83C170.787 301.573 170.946 302.369 170.946 303.173C170.946 303.977 170.787 304.773 170.48 305.515C170.172 306.258 169.721 306.933 169.153 307.501C168.584 308.07 167.909 308.521 167.167 308.828C166.424 309.136 165.628 309.294 164.824 309.294V309.294ZM51.0802 298.181C50.4247 298.181 49.7756 298.31 49.1699 298.561C48.5643 298.812 48.014 299.18 47.5505 299.643C47.087 300.107 46.7193 300.657 46.4685 301.262C46.2176 301.868 46.0885 302.517 46.0885 303.173C46.0885 303.828 46.2176 304.477 46.4685 305.083C46.7193 305.689 47.087 306.239 47.5505 306.702C48.014 307.166 48.5643 307.534 49.1699 307.784C49.7756 308.035 50.4247 308.164 51.0802 308.164H164.824C165.479 308.164 166.129 308.035 166.734 307.784C167.34 307.534 167.89 307.166 168.354 306.702C168.817 306.239 169.185 305.689 169.436 305.083C169.687 304.477 169.816 303.828 169.816 303.173C169.816 302.517 169.687 301.868 169.436 301.262C169.185 300.657 168.817 300.107 168.354 299.643C167.89 299.18 167.34 298.812 166.734 298.561C166.129 298.31 165.479 298.181 164.824 298.181H51.0802Z" fill="#292A2E"/>
<path d="M227.254 297.616H113.509C110.44 297.616 107.953 300.104 107.953 303.173V303.173C107.953 306.242 110.44 308.73 113.509 308.73H227.254C230.323 308.73 232.81 306.242 232.81 303.173V303.173C232.81 300.104 230.323 297.616 227.254 297.616Z" fill="white"/>
<path d="M227.254 309.294H113.509C112.705 309.294 111.909 309.136 111.167 308.828C110.424 308.521 109.749 308.07 109.181 307.501C108.612 306.933 108.161 306.258 107.854 305.515C107.546 304.773 107.388 303.977 107.388 303.173C107.388 302.369 107.546 301.573 107.854 300.83C108.161 300.087 108.612 299.412 109.181 298.844C109.749 298.276 110.424 297.825 111.167 297.517C111.909 297.209 112.705 297.051 113.509 297.051H227.254C228.058 297.051 228.854 297.209 229.596 297.517C230.339 297.825 231.014 298.276 231.582 298.844C232.151 299.412 232.602 300.087 232.909 300.83C233.217 301.573 233.375 302.369 233.375 303.173C233.375 303.977 233.217 304.773 232.909 305.515C232.602 306.258 232.151 306.933 231.582 307.501C231.014 308.07 230.339 308.521 229.596 308.828C228.854 309.136 228.058 309.294 227.254 309.294V309.294ZM113.509 298.181C112.854 298.181 112.205 298.31 111.599 298.561C110.994 298.812 110.443 299.18 109.98 299.643C109.516 300.107 109.149 300.657 108.898 301.262C108.647 301.868 108.518 302.517 108.518 303.173C108.518 303.828 108.647 304.477 108.898 305.083C109.149 305.689 109.516 306.239 109.98 306.702C110.443 307.166 110.994 307.534 111.599 307.784C112.205 308.035 112.854 308.164 113.509 308.164H227.254C227.909 308.164 228.558 308.035 229.164 307.784C229.77 307.534 230.32 307.166 230.783 306.702C231.247 306.239 231.615 305.689 231.865 305.083C232.116 304.477 232.245 303.828 232.245 303.173C232.245 302.517 232.116 301.868 231.865 301.262C231.615 300.657 231.247 300.107 230.783 299.643C230.32 299.18 229.77 298.812 229.164 298.561C228.558 298.31 227.909 298.181 227.254 298.181H113.509Z" fill="#292A2E"/>
<path d="M148.559 227.292H38.2462C36.4426 227.292 34.7006 226.636 33.3454 225.445C31.9902 224.255 31.1145 222.613 30.8815 220.824L23.5846 164.789C23.4482 163.741 23.5369 162.677 23.8447 161.666C24.1524 160.656 24.6723 159.722 25.3694 158.929C26.0665 158.135 26.925 157.499 27.8874 157.064C28.8498 156.628 29.8941 156.403 30.9504 156.403H141.262C143.066 156.403 144.808 157.059 146.163 158.249C147.518 159.44 148.394 161.082 148.627 162.871L155.923 218.907C156.06 219.954 155.971 221.018 155.664 222.029C155.356 223.039 154.836 223.972 154.139 224.766C153.442 225.56 152.584 226.196 151.622 226.631C150.66 227.067 149.616 227.292 148.559 227.292V227.292Z" fill="#292A2E"/>
<path opacity="0.8" d="M148.559 227.292H38.2462C36.4426 227.292 34.7006 226.636 33.3454 225.445C31.9902 224.255 31.1145 222.613 30.8815 220.824L23.5846 164.789C23.4482 163.741 23.5369 162.677 23.8447 161.666C24.1524 160.656 24.6723 159.722 25.3694 158.929C26.0665 158.135 26.925 157.499 27.8874 157.064C28.8498 156.628 29.8941 156.403 30.9504 156.403H141.262C143.066 156.403 144.808 157.059 146.163 158.249C147.518 159.44 148.394 161.082 148.627 162.871L155.923 218.907C156.06 219.954 155.971 221.018 155.664 222.029C155.356 223.039 154.836 223.972 154.139 224.766C153.442 225.56 152.584 226.196 151.622 226.631C150.66 227.067 149.616 227.292 148.559 227.292V227.292Z" fill="white"/>
<path d="M148.559 227.857H38.246C36.3063 227.853 34.4341 227.145 32.9767 225.865C31.5193 224.585 30.5757 222.82 30.3209 220.897L23.0245 164.861C22.8776 163.734 22.9729 162.589 23.304 161.501C23.6351 160.414 24.1944 159.409 24.9445 158.555C25.6947 157.701 26.6184 157.017 27.6541 156.548C28.6898 156.08 29.8135 155.837 30.9503 155.837H141.262C143.202 155.842 145.074 156.55 146.531 157.829C147.989 159.109 148.932 160.875 149.187 162.798L156.484 218.834C156.631 219.961 156.535 221.106 156.204 222.193C155.873 223.281 155.314 224.285 154.564 225.139C153.814 225.993 152.89 226.677 151.855 227.146C150.819 227.615 149.696 227.857 148.559 227.857V227.857ZM30.9503 156.967C29.9744 156.967 29.0097 157.176 28.1206 157.578C27.2316 157.981 26.4386 158.568 25.7946 159.301C25.1507 160.035 24.6705 160.897 24.3862 161.83C24.1019 162.764 24.0201 163.747 24.1461 164.715L31.4429 220.751C31.6615 222.402 32.4716 223.918 33.7229 225.017C34.9742 226.116 36.5818 226.723 38.2471 226.727H148.559C149.535 226.727 150.499 226.518 151.388 226.116C152.277 225.713 153.07 225.126 153.714 224.392C154.357 223.659 154.837 222.797 155.122 221.864C155.406 220.93 155.488 219.947 155.362 218.979L148.066 162.944C147.848 161.293 147.038 159.777 145.786 158.678C144.535 157.579 142.928 156.972 141.262 156.968L30.9503 156.967Z" fill="#292A2E"/>
<path d="M154.797 227.292H44.4837C42.6801 227.292 40.9383 226.636 39.5832 225.445C38.2281 224.255 37.3524 222.613 37.1196 220.824L29.8205 164.789C29.6841 163.741 29.7727 162.677 30.0804 161.666C30.3881 160.656 30.9079 159.723 31.6049 158.929C32.3019 158.135 33.1602 157.5 34.1225 157.064C35.0847 156.628 36.1289 156.403 37.1851 156.403H147.5C149.304 156.403 151.046 157.059 152.401 158.249C153.756 159.44 154.632 161.082 154.865 162.871L162.161 218.907C162.298 219.954 162.209 221.018 161.901 222.029C161.594 223.039 161.074 223.973 160.377 224.766C159.68 225.56 158.822 226.196 157.859 226.631C156.897 227.067 155.853 227.292 154.797 227.292V227.292Z" fill="white"/>
<path d="M154.797 227.857H44.4836C42.544 227.853 40.6719 227.145 39.2146 225.865C37.7573 224.585 36.8137 222.82 36.5591 220.897L29.2622 164.861C29.1155 163.734 29.2108 162.589 29.542 161.501C29.8731 160.414 30.4324 159.41 31.1824 158.556C31.9325 157.702 32.8561 157.017 33.8916 156.549C34.9271 156.08 36.0507 155.837 37.1873 155.837H147.5C149.44 155.842 151.312 156.55 152.769 157.83C154.227 159.11 155.17 160.875 155.425 162.798L162.722 218.834C162.869 219.961 162.773 221.106 162.442 222.193C162.111 223.281 161.551 224.285 160.801 225.139C160.051 225.993 159.128 226.677 158.092 227.146C157.057 227.614 155.933 227.857 154.797 227.857V227.857ZM37.1873 156.967C36.2116 156.968 35.2472 157.176 34.3584 157.579C33.4696 157.982 32.6769 158.569 32.0332 159.303C31.3895 160.036 30.9095 160.898 30.6254 161.831C30.3412 162.765 30.2594 163.748 30.3854 164.716L37.6794 220.751C37.8982 222.402 38.7084 223.917 39.9597 225.016C41.2109 226.115 42.8183 226.723 44.4836 226.727H154.797C155.773 226.727 156.737 226.519 157.626 226.116C158.515 225.714 159.308 225.126 159.952 224.393C160.596 223.66 161.077 222.798 161.361 221.864C161.645 220.93 161.727 219.947 161.601 218.979L154.304 162.944C154.085 161.293 153.275 159.777 152.024 158.678C150.773 157.579 149.165 156.972 147.5 156.968L37.1873 156.967Z" fill="#292A2E"/>
<path d="M240.546 240.086L239.422 240.2L263.24 475.999L264.365 475.886L240.546 240.086Z" fill="#494949"/>
<path d="M142.909 70.3771C142.909 70.3771 150.239 64.8442 152.056 52.1081C153.462 42.2473 144.366 48.6356 144.366 48.6356C144.366 48.6356 145.309 41.5252 140.128 42.2309C134.947 42.9366 132.049 50.4058 132.049 50.4058" fill="#0C0C0C"/>
<path d="M113.354 43.0632C113.354 43.0632 87.6495 45.821 96.9419 80.6494L99.2166 80.8019L103.834 81.1115" fill="#0C0C0C"/>
<path d="M138.604 117.025C138.491 117.01 137.236 137.816 113.063 136.004C96.3276 134.751 90.3607 116.995 89.9771 116.995C91.7816 116.612 94.0111 116.03 94.8976 115.83C96.8288 115.382 98.5778 114.356 99.9119 112.89C101.246 111.423 102.102 109.585 102.366 107.62C102.855 104.671 102.027 89.5807 102.28 86.5964L127.969 92.33C127.61 98.633 125.098 113.244 133.901 115.83C135.369 116.258 136.947 116.651 138.604 117.025Z" fill="#E98862"/>
<path opacity="0.52" d="M128.33 109.859C127.928 108.562 127.668 107.225 127.557 105.872C127.275 102.784 127.332 99.6741 127.727 96.5984C122.505 95.8939 117.586 93.7389 113.529 90.3784C113.052 92.1401 110.429 99.8375 111.156 101.512C112.526 104.677 118.976 109.859 128.33 109.859Z" fill="#0C0C0C"/>
<path d="M123.028 105.741C112.893 104.832 100.763 98.4286 100.589 84.6716L100.43 72.2587C100.256 58.5023 107.339 47.2583 120.292 47.0934C133.245 46.929 143.068 57.9576 143.243 71.7146L143.313 77.2097C143.304 79.097 143.166 80.9815 142.901 82.8501C142.236 87.7937 141.206 95.3098 137.852 100.394C134.683 105.194 129.502 106.321 123.028 105.741Z" fill="#E98862"/>
<path d="M127.73 93.1673C129.821 93.2621 131.906 92.864 133.815 92.0051C133.854 91.9883 133.89 91.9638 133.92 91.9331C133.95 91.9025 133.974 91.8662 133.99 91.8264C134.006 91.7866 134.014 91.744 134.013 91.7011C134.013 91.6582 134.004 91.6157 133.987 91.5763C133.97 91.5368 133.946 91.501 133.915 91.471C133.885 91.441 133.848 91.4173 133.809 91.4013C133.769 91.3853 133.726 91.3773 133.683 91.3777C133.64 91.3782 133.598 91.3871 133.558 91.404C129.445 93.1583 125.71 92.9012 122.757 90.661C122.698 90.6137 122.636 90.5698 122.572 90.5293C122.497 90.495 122.413 90.4896 122.335 90.5144C122.257 90.5391 122.191 90.5922 122.15 90.6631C122.11 90.734 122.097 90.8176 122.115 90.8974C122.133 90.9772 122.18 91.0475 122.247 91.0943C122.27 91.109 122.308 91.139 122.36 91.1802C123.912 92.3623 125.782 93.0542 127.73 93.1673V93.1673Z" fill="#0C0C0C"/>
<path d="M127.632 96.2653C128.01 96.2885 128.389 96.2795 128.766 96.2381C128.852 96.229 128.931 96.186 128.985 96.1186C129.04 96.0512 129.065 95.965 129.056 95.8788C129.047 95.7926 129.004 95.7136 128.936 95.6592C128.869 95.6047 128.783 95.5793 128.697 95.5884C126.433 95.8291 125.352 94.7918 125.307 94.7471C125.245 94.6858 125.162 94.6512 125.076 94.6511C124.989 94.651 124.906 94.6853 124.845 94.7466C124.783 94.8078 124.749 94.8908 124.749 94.9775C124.748 95.0642 124.783 95.1474 124.844 95.2087C125.623 95.8724 126.609 96.2458 127.632 96.2653V96.2653Z" fill="#0C0C0C"/>
<path d="M138.965 79.8549C139.846 79.8549 140.561 79.1406 140.561 78.2594C140.561 77.3782 139.846 76.6638 138.965 76.6638C138.084 76.6638 137.37 77.3782 137.37 78.2594C137.37 79.1406 138.084 79.8549 138.965 79.8549Z" fill="#0C0C0C"/>
<path d="M123.378 78.8769C124.259 78.8769 124.974 78.1625 124.974 77.2813C124.974 76.4001 124.259 75.6858 123.378 75.6858C122.497 75.6858 121.783 76.4001 121.783 77.2813C121.783 78.1625 122.497 78.8769 123.378 78.8769Z" fill="#0C0C0C"/>
<path d="M101.446 88.8526C97.5101 88.9029 94.2659 84.7321 94.2145 80.7958C94.1631 76.8595 97.3276 74.6481 101.264 74.5984L103.326 77.2098L104.83 88.8096L101.446 88.8526Z" fill="#E98862"/>
<path d="M105.36 82.5274C105.36 82.5274 106.69 63.0618 112.592 61.8595C116.523 61.0589 126.056 66.6353 134.886 64.9511C138.75 64.2166 142.417 65.1703 142.79 66.9952C142.937 67.7179 145.344 57.3339 139.295 49.4556C134.478 43.1814 118.716 41.4101 111.545 43.4667C91.6897 49.1629 100.452 75.4549 100.452 75.4549L101.337 82.1659L105.36 82.5274Z" fill="#0C0C0C"/>
<path d="M130.107 88.5724H130.133C131.401 88.5594 133.527 88.3967 133.519 87.4475C133.51 86.661 131.273 78.1958 131.017 77.233C130.992 77.1531 130.938 77.0857 130.865 77.0451C130.792 77.0045 130.706 76.9938 130.625 77.0152C130.544 77.0366 130.475 77.0885 130.431 77.16C130.388 77.2315 130.374 77.317 130.392 77.3986C131.386 81.1479 132.867 86.9198 132.873 87.4554C132.75 87.6814 131.44 87.9142 130.126 87.9278C130.044 87.9295 129.965 87.963 129.906 88.0214C129.847 88.0797 129.813 88.1584 129.81 88.2412C129.808 88.3241 129.837 88.4047 129.892 88.4664C129.948 88.5281 130.025 88.5663 130.107 88.573V88.5724Z" fill="#0C0C0C"/>
<path d="M134.437 69.6072C135.77 69.2403 137.177 69.2403 138.511 69.6072C139.165 69.7832 139.79 70.0567 140.364 70.4186C140.931 70.7728 141.451 71.1972 141.911 71.6819C141.999 71.7674 142.051 71.8841 142.054 72.0069C142.057 72.1297 142.012 72.249 141.929 72.3391C141.845 72.4292 141.73 72.483 141.607 72.489C141.484 72.495 141.364 72.4527 141.272 72.3712L141.243 72.3463C140.817 71.9516 140.342 71.612 139.831 71.3355C139.329 71.0608 138.789 70.8634 138.228 70.7502C137.124 70.5187 135.979 70.5828 134.908 70.9361L134.862 70.9519C134.686 71.0144 134.491 71.0041 134.322 70.9233C134.153 70.8425 134.023 70.6979 133.96 70.5211C133.898 70.3444 133.908 70.15 133.989 69.9809C134.07 69.8117 134.214 69.6816 134.391 69.6191L134.437 69.6072Z" fill="#0C0C0C"/>
<path d="M124.997 70.4089C123.983 69.9159 122.856 69.6997 121.731 69.7823C121.161 69.8194 120.599 69.9428 120.065 70.1484C119.522 70.3545 119.007 70.6278 118.532 70.962L118.502 70.9823C118.4 71.0476 118.277 71.0712 118.158 71.0481C118.039 71.0249 117.934 70.9569 117.864 70.8581C117.794 70.7594 117.765 70.6374 117.782 70.5177C117.8 70.3979 117.863 70.2895 117.958 70.2151C118.48 69.796 119.052 69.4444 119.661 69.1687C120.278 68.887 120.933 68.6992 121.605 68.6116C122.976 68.4248 124.371 68.6118 125.643 69.1529C125.816 69.2278 125.951 69.3681 126.02 69.5429C126.089 69.7178 126.086 69.9128 126.011 70.0851C125.936 70.2574 125.795 70.3929 125.621 70.4618C125.446 70.5307 125.251 70.5273 125.078 70.4524L125.04 70.4337L124.997 70.4089Z" fill="#0C0C0C"/>
<path d="M132.54 56.2077C135.453 55.599 137.089 51.6291 136.193 47.3407C135.297 43.0523 132.209 40.0693 129.295 40.6781C126.381 41.2868 124.746 45.2567 125.642 49.5451C126.538 53.8335 129.626 56.8165 132.54 56.2077Z" fill="#0C0C0C"/>
<path d="M295.04 446.197C295.04 446.197 298.069 461.9 312.772 462.775C327.474 463.65 324.286 475.363 324.286 475.363H268.101V447.292L295.04 446.197Z" fill="#171DCE"/>
<path d="M188.15 436.282C188.15 436.282 183.937 451.71 196.744 458.985C209.55 466.26 201.519 475.363 201.519 475.363L151.104 450.56L163.494 425.371L188.15 436.282Z" fill="#171DCE"/>
<path d="M156.924 431.924L199.44 297.801H122.375C106.894 297.801 100.44 284.673 100.44 269.193C100.44 253.714 115.659 240.144 131.139 240.144H235.148C244.59 240.144 255.177 245.918 260.359 253.811C265.541 261.704 264.14 273.934 260.385 282.598L192.304 447.952" fill="#262626"/>
<path opacity="0.8" d="M156.924 431.924L199.44 297.801H122.375C106.894 297.801 100.44 284.673 100.44 269.193C100.44 253.714 115.659 240.144 131.139 240.144H235.148C244.59 240.144 255.177 245.918 260.359 253.811C265.541 261.704 264.14 273.934 260.385 282.598L192.304 447.952" fill="#0A0A0A"/>
<path d="M264.87 460.78L193.781 297.801L100.439 297.795C78.5678 296.08 68.551 284.094 68.8697 268.617C69.1838 253.337 76.9208 238.244 92.1321 238.244H217.94C229.195 238.475 238.049 250.913 242.225 261.367L301.323 450.802" fill="#262626"/>
<path d="M62.5035 238.431C62.5035 238.431 58.3581 265.464 64.929 280.493C73.1321 299.257 103.884 297.795 103.884 297.795L102.151 238.244L62.5035 238.431Z" fill="#262626"/>
<path d="M244.899 237.9L178.965 224.237C176.217 223.668 173.658 222.415 171.523 220.594C169.388 218.773 167.747 216.443 166.752 213.82L140.819 145.482C140.029 143.431 139.652 141.245 139.71 139.048C139.768 136.851 140.26 134.687 141.156 132.68C142.053 130.674 143.337 128.864 144.936 127.356C146.534 125.847 148.414 124.669 150.469 123.889C152.523 123.11 154.712 122.744 156.909 122.812C159.105 122.881 161.267 123.382 163.269 124.289C165.271 125.195 167.074 126.488 168.575 128.094C170.076 129.699 171.245 131.585 172.015 133.643L194.7 193.42L251.671 205.225C251.671 205.225 246.043 238.136 244.899 237.9Z" fill="#171DCE"/>
<path d="M168.639 162.836C167.878 171.782 162.481 227.59 161.746 238.608H62.5471C61.977 228.671 60.1266 186.479 57.965 167.046C55.9022 148.502 55.1536 137.919 57.5299 132.157C61.7211 121.993 72.209 118.336 81.2432 117.112C86.7593 116.366 95.0562 115.83 95.0562 115.83C95.0562 115.83 95.759 130.042 112.51 130.833C135.312 131.906 133.79 115.83 133.903 115.83C137.597 115.83 157.705 118.517 162.733 121.794C169.835 126.423 171.933 132.73 172.016 138.526C172.112 145.199 169.502 152.691 168.639 162.836Z" fill="#171DCE"/>
<path d="M164.74 208.438H164.717C164.68 208.435 164.644 208.424 164.611 208.407C164.578 208.39 164.548 208.367 164.524 208.339C164.5 208.31 164.482 208.278 164.471 208.242C164.46 208.207 164.455 208.17 164.459 208.133L167.034 177.197C167.036 177.16 167.045 177.123 167.062 177.09C167.079 177.056 167.102 177.027 167.131 177.003C167.159 176.978 167.192 176.96 167.228 176.949C167.264 176.938 167.301 176.935 167.338 176.939C167.375 176.942 167.411 176.952 167.444 176.969C167.477 176.986 167.507 177.01 167.531 177.038C167.555 177.066 167.573 177.099 167.584 177.134C167.595 177.17 167.6 177.207 167.596 177.244L165.021 208.18C165.015 208.25 164.983 208.315 164.931 208.363C164.879 208.411 164.811 208.438 164.74 208.438Z" fill="#0C0C0C"/>
<path d="M211.985 227.004L233.751 160.096C234.133 158.92 234.878 157.895 235.878 157.169C236.879 156.442 238.083 156.051 239.32 156.051H333.646C334.571 156.051 335.482 156.27 336.306 156.689C337.129 157.109 337.842 157.718 338.385 158.466C338.928 159.214 339.287 160.08 339.431 160.993C339.575 161.906 339.502 162.84 339.216 163.719L311.8 230.63C311.417 231.806 310.673 232.83 309.672 233.557C308.672 234.283 307.467 234.675 306.231 234.675H217.554C216.629 234.675 215.718 234.456 214.894 234.036C214.07 233.617 213.357 233.008 212.814 232.259C212.271 231.511 211.912 230.645 211.768 229.731C211.624 228.818 211.698 227.884 211.985 227.004Z" fill="#292A2E"/>
<path d="M211.985 227.004L233.751 160.096C234.133 158.92 234.878 157.895 235.878 157.169C236.879 156.442 238.083 156.051 239.32 156.051H333.646C334.571 156.051 335.482 156.27 336.306 156.689C337.129 157.109 337.842 157.718 338.385 158.466C338.928 159.214 339.287 160.08 339.431 160.993C339.575 161.906 339.502 162.84 339.216 163.719L311.8 230.63C311.417 231.806 310.673 232.83 309.672 233.557C308.672 234.283 307.467 234.675 306.231 234.675H217.554C216.629 234.675 215.718 234.456 214.894 234.036C214.07 233.617 213.357 233.008 212.814 232.259C212.271 231.511 211.912 230.645 211.768 229.731C211.624 228.818 211.698 227.884 211.985 227.004Z" fill="#292A2E"/>
<path d="M229.74 229.247H170.38C168.901 229.247 167.702 230.446 167.702 231.925V231.994C167.702 233.473 168.901 234.672 170.38 234.672H229.74C231.219 234.672 232.418 233.473 232.418 231.994V231.925C232.418 230.446 231.219 229.247 229.74 229.247Z" fill="#292A2E"/>
<path d="M229.74 229.247H170.38C168.901 229.247 167.702 230.446 167.702 231.925V231.994C167.702 233.473 168.901 234.672 170.38 234.672H229.74C231.219 234.672 232.418 233.473 232.418 231.994V231.925C232.418 230.446 231.219 229.247 229.74 229.247Z" fill="#292A2E"/>
<path d="M272.775 207.926C277.911 207.926 282.075 203.762 282.075 198.626C282.075 193.49 277.911 189.326 272.775 189.326C267.639 189.326 263.475 193.49 263.475 198.626C263.475 203.762 267.639 207.926 272.775 207.926Z" fill="white"/>
<path d="M207.023 211.331L192.208 206.138L194.335 205.991C195.021 205.93 195.657 205.611 196.117 205.099C196.576 204.586 196.824 203.918 196.81 203.23C196.79 202.875 196.698 202.528 196.54 202.209C196.382 201.891 196.16 201.609 195.889 201.379C195.618 201.149 195.303 200.977 194.963 200.873C194.623 200.769 194.266 200.735 193.912 200.774L167.702 203.559L168.38 211.982C168.591 214.598 169.579 217.091 171.217 219.142C172.855 221.193 175.068 222.708 177.572 223.493L188.923 227.029C189.509 227.224 190.145 227.211 190.722 226.991C191.3 226.772 191.783 226.359 192.092 225.824C192.36 225.334 192.464 224.772 192.39 224.219C192.317 223.666 192.068 223.151 191.681 222.75C191.706 222.732 191.727 222.709 191.743 222.683C191.759 222.656 191.769 222.627 191.774 222.597C191.778 222.566 191.776 222.535 191.768 222.506C191.76 222.476 191.745 222.448 191.726 222.424L193.817 223.08C194.469 223.299 195.181 223.262 195.807 222.977C196.433 222.692 196.928 222.179 197.191 221.543C197.406 220.966 197.41 220.332 197.204 219.752C196.997 219.172 196.592 218.684 196.061 218.373C196.085 218.36 196.107 218.342 196.125 218.321L196.985 218.591C197.571 218.786 198.207 218.773 198.785 218.553C199.362 218.333 199.846 217.921 200.154 217.385C200.479 216.792 200.562 216.095 200.385 215.442C200.208 214.789 199.785 214.23 199.205 213.882C199.21 213.865 199.213 213.847 199.213 213.829L205.383 215.991C205.689 216.102 206.015 216.151 206.341 216.136C206.667 216.12 206.986 216.04 207.281 215.9C207.576 215.76 207.84 215.563 208.058 215.32C208.276 215.078 208.444 214.795 208.551 214.487C208.659 214.179 208.705 213.853 208.686 213.527C208.667 213.201 208.584 212.883 208.441 212.589C208.298 212.296 208.099 212.034 207.854 211.819C207.609 211.603 207.324 211.438 207.015 211.333L207.023 211.331Z" fill="#E98862"/>
<path opacity="0.2" d="M198.979 214.068C198.95 214.068 198.922 214.063 198.895 214.053L192.927 211.883C192.866 211.861 192.816 211.815 192.789 211.755C192.761 211.696 192.759 211.628 192.781 211.567C192.804 211.506 192.85 211.456 192.909 211.429C192.968 211.401 193.036 211.398 193.097 211.421L199.065 213.591C199.119 213.611 199.165 213.649 199.194 213.699C199.223 213.749 199.233 213.808 199.223 213.865C199.213 213.922 199.183 213.973 199.139 214.01C199.095 214.048 199.039 214.068 198.981 214.068H198.979Z" fill="#0A0A0A"/>
<path opacity="0.2" d="M195.962 218.407C195.933 218.407 195.906 218.402 195.879 218.392L191.176 216.723C191.144 216.713 191.116 216.697 191.091 216.675C191.066 216.654 191.046 216.628 191.032 216.598C191.017 216.569 191.009 216.537 191.007 216.504C191.005 216.472 191.01 216.439 191.02 216.408C191.031 216.377 191.048 216.349 191.07 216.324C191.092 216.3 191.119 216.281 191.149 216.267C191.178 216.253 191.211 216.245 191.243 216.244C191.276 216.243 191.309 216.249 191.339 216.26L196.044 217.929C196.098 217.948 196.144 217.987 196.173 218.037C196.203 218.087 196.213 218.145 196.204 218.202C196.194 218.259 196.164 218.311 196.12 218.349C196.076 218.386 196.02 218.407 195.962 218.407V218.407Z" fill="#0A0A0A"/>
<path opacity="0.2" d="M191.532 222.809C191.502 222.809 191.473 222.804 191.445 222.793L189.241 221.953C189.18 221.93 189.131 221.883 189.104 221.823C189.078 221.764 189.076 221.696 189.099 221.635C189.123 221.574 189.169 221.525 189.229 221.499C189.288 221.472 189.356 221.47 189.417 221.494L191.62 222.334C191.674 222.354 191.719 222.393 191.747 222.443C191.776 222.493 191.786 222.551 191.775 222.608C191.765 222.665 191.735 222.716 191.69 222.753C191.646 222.79 191.59 222.81 191.533 222.809H191.532Z" fill="#0A0A0A"/>
<path d="M179.303 198.574L117.154 198.532L93.642 141.179L58.5684 155.925L87.9016 223.995L88.1881 224.673C89.6232 227.981 92.0407 230.769 95.1129 232.658C98.1851 234.547 101.764 235.446 105.364 235.233L180.241 230.81L179.303 198.574Z" fill="#171DCE"/>
<path d="M104.335 235.545C100.851 235.539 97.4439 234.518 94.5306 232.607C91.6173 230.696 89.3238 227.978 87.9305 224.785L87.6435 224.107L62.6465 166.108L63.1651 165.882L88.4486 224.563C89.8673 227.813 92.2473 230.551 95.2684 232.408C98.2895 234.265 101.807 235.153 105.347 234.951L179.951 230.544L179.026 198.858L116.963 198.816L98.8834 154.717L99.4066 154.503L117.341 198.251L179.575 198.293L180.532 231.076L180.258 231.092L105.383 235.514C105.033 235.535 104.682 235.545 104.335 235.545Z" fill="#0C0C0C"/>
<path d="M35.2081 240.09L11.373 475.887L12.4973 476.001L36.3323 240.203L35.2081 240.09Z" fill="#494949"/>
<path d="M133.685 240.09L109.85 475.887L110.974 476.001L134.809 240.203L133.685 240.09Z" fill="#494949"/>
<path d="M339.023 240.086L337.899 240.2L361.717 475.999L362.842 475.886L339.023 240.086Z" fill="#494949"/>
<path d="M360.501 235.514H15.2892C12.7324 235.514 10.6597 237.587 10.6597 240.144C10.6597 242.7 12.7324 244.773 15.2892 244.773H360.501C363.058 244.773 365.131 242.7 365.131 240.144C365.131 237.587 363.058 235.514 360.501 235.514Z" fill="#292A2E"/>
<path opacity="0.8" d="M360.501 235.514H15.2892C12.7324 235.514 10.6597 237.587 10.6597 240.144C10.6597 242.7 12.7324 244.773 15.2892 244.773H360.501C363.058 244.773 365.131 242.7 365.131 240.144C365.131 237.587 363.058 235.514 360.501 235.514Z" fill="white"/>
<path d="M360.502 245.338H15.2917C14.605 245.345 13.9237 245.216 13.2872 244.958C12.6508 244.7 12.0717 244.319 11.5836 243.836C11.0955 243.353 10.708 242.778 10.4436 242.144C10.1791 241.51 10.043 240.83 10.043 240.144C10.043 239.457 10.1791 238.777 10.4436 238.143C10.708 237.51 11.0955 236.935 11.5836 236.452C12.0717 235.969 12.6508 235.587 13.2872 235.329C13.9237 235.071 14.605 234.942 15.2917 234.95H360.502C361.189 234.942 361.87 235.071 362.507 235.329C363.143 235.587 363.722 235.969 364.21 236.452C364.698 236.935 365.086 237.51 365.35 238.143C365.615 238.777 365.751 239.457 365.751 240.144C365.751 240.83 365.615 241.51 365.35 242.144C365.086 242.778 364.698 243.353 364.21 243.836C363.722 244.319 363.143 244.7 362.507 244.958C361.87 245.216 361.189 245.345 360.502 245.338ZM15.2917 236.079C14.7539 236.073 14.2203 236.174 13.7216 236.375C13.2229 236.576 12.7692 236.875 12.3867 237.253C12.0042 237.631 11.7005 238.081 11.4932 238.577C11.2859 239.074 11.1792 239.606 11.1792 240.144C11.1792 240.682 11.2859 241.214 11.4932 241.71C11.7005 242.207 12.0042 242.657 12.3867 243.035C12.7692 243.413 13.2229 243.711 13.7216 243.913C14.2203 244.114 14.7539 244.214 15.2917 244.208H360.502C361.04 244.214 361.574 244.114 362.072 243.913C362.571 243.711 363.025 243.413 363.407 243.035C363.79 242.657 364.093 242.207 364.301 241.71C364.508 241.214 364.615 240.682 364.615 240.144C364.615 239.606 364.508 239.074 364.301 238.577C364.093 238.081 363.79 237.631 363.407 237.253C363.025 236.875 362.571 236.576 362.072 236.375C361.574 236.174 361.04 236.073 360.502 236.079H15.2917Z" fill="#292A2E"/>
<path d="M360.501 235.514H117.531C114.974 235.514 112.901 237.587 112.901 240.144C112.901 242.7 114.974 244.773 117.531 244.773H360.501C363.058 244.773 365.131 242.7 365.131 240.144C365.131 237.587 363.058 235.514 360.501 235.514Z" fill="white"/>
<path d="M360.502 245.338H117.531C116.163 245.324 114.855 244.77 113.893 243.798C112.93 242.825 112.391 241.512 112.391 240.144C112.391 238.775 112.93 237.462 113.893 236.49C114.855 235.517 116.163 234.964 117.531 234.95H360.502C361.189 234.942 361.87 235.071 362.507 235.329C363.143 235.587 363.722 235.969 364.21 236.452C364.698 236.935 365.086 237.51 365.35 238.143C365.615 238.777 365.751 239.457 365.751 240.144C365.751 240.83 365.615 241.51 365.35 242.144C365.086 242.778 364.698 243.353 364.21 243.836C363.722 244.319 363.143 244.7 362.507 244.958C361.87 245.216 361.189 245.345 360.502 245.338ZM117.531 236.079C116.461 236.092 115.44 236.526 114.688 237.287C113.936 238.048 113.514 239.074 113.514 240.144C113.514 241.213 113.936 242.24 114.688 243.001C115.44 243.762 116.461 244.195 117.531 244.208H360.502C361.04 244.214 361.574 244.114 362.072 243.913C362.571 243.711 363.025 243.413 363.407 243.035C363.79 242.657 364.093 242.207 364.301 241.71C364.508 241.214 364.615 240.682 364.615 240.144C364.615 239.606 364.508 239.074 364.301 238.577C364.093 238.081 363.79 237.631 363.407 237.253C363.025 236.875 362.571 236.576 362.072 236.375C361.574 236.174 361.04 236.073 360.502 236.079H117.531Z" fill="#292A2E"/>
<path d="M369.813 400.828C369.739 400.829 369.665 400.814 369.597 400.786C369.528 400.757 369.466 400.715 369.413 400.663C368.617 399.867 367.32 385.262 363.825 341.778C362.395 323.985 361.044 307.179 360.058 296.965C359.988 296.236 359.705 296.151 359.612 296.123C358.262 295.716 354.159 298.952 351.868 301.786C351.773 301.902 351.637 301.977 351.488 301.992C351.339 302.008 351.189 301.964 351.073 301.87C350.956 301.776 350.882 301.639 350.866 301.49C350.85 301.341 350.894 301.192 350.988 301.075C352.504 299.201 357.442 294.29 359.937 295.041C360.44 295.192 361.067 295.63 361.183 296.857C362.17 307.079 363.521 323.89 364.951 341.687C367.075 368.112 369.481 398.049 370.272 399.934C370.332 400.018 370.368 400.118 370.376 400.221C370.384 400.325 370.363 400.429 370.315 400.521C370.268 400.614 370.196 400.691 370.107 400.745C370.019 400.8 369.917 400.828 369.813 400.828V400.828Z" fill="#494949"/>
<path d="M358.606 315.707C367.982 308.192 371.089 296.494 365.547 289.58C360.005 282.666 347.912 283.153 338.536 290.669C329.161 298.184 326.053 309.881 331.596 316.795C337.138 323.709 349.231 323.222 358.606 315.707Z" fill="#0CBC8B"/>
<path opacity="0.2" d="M358.606 315.707C367.982 308.192 371.089 296.494 365.547 289.58C360.005 282.666 347.912 283.153 338.536 290.669C329.161 298.184 326.053 309.881 331.596 316.795C337.138 323.709 349.231 323.222 358.606 315.707Z" fill="white"/>
<path d="M334.224 318.553C334.171 318.553 334.118 318.538 334.073 318.509C334.028 318.481 333.992 318.44 333.969 318.391C333.946 318.343 333.937 318.289 333.944 318.235C333.951 318.182 333.973 318.132 334.007 318.091L360.726 285.87C360.774 285.812 360.843 285.776 360.917 285.769C360.992 285.762 361.066 285.785 361.124 285.833C361.182 285.881 361.218 285.949 361.225 286.024C361.232 286.099 361.209 286.173 361.161 286.231L334.442 318.452C334.415 318.484 334.382 318.509 334.344 318.527C334.307 318.544 334.266 318.553 334.224 318.553V318.553Z" fill="white"/>
<path d="M375.64 393.921C375.55 393.921 375.461 393.9 375.381 393.858C375.301 393.817 375.232 393.757 375.18 393.683C375.128 393.61 375.094 393.525 375.081 393.436C375.069 393.347 375.077 393.256 375.107 393.17L385.144 364.307C385.44 363.459 385.943 362.699 386.609 362.096C387.274 361.493 388.08 361.067 388.953 360.856C389.826 360.645 390.738 360.657 391.605 360.89C392.473 361.123 393.268 361.57 393.917 362.19L399.224 367.258C399.332 367.362 399.395 367.504 399.399 367.654C399.402 367.804 399.346 367.949 399.242 368.057C399.139 368.166 398.996 368.229 398.846 368.232C398.697 368.235 398.551 368.179 398.443 368.076L393.137 363.007C392.624 362.517 391.997 362.164 391.312 361.98C390.627 361.797 389.907 361.787 389.218 361.954C388.529 362.12 387.893 362.457 387.367 362.933C386.842 363.409 386.444 364.009 386.211 364.678L376.175 393.542C376.136 393.653 376.064 393.749 375.968 393.817C375.873 393.885 375.758 393.921 375.64 393.921Z" fill="#494949"/>
<path d="M414.047 383.238C420.995 377.739 420.582 365.643 413.125 356.222C405.667 346.8 393.99 343.621 387.041 349.121C380.093 354.62 380.506 366.716 387.964 376.137C395.421 385.559 407.099 388.738 414.047 383.238Z" fill="#0CBC8B"/>
<path d="M365.256 398.988C365.13 398.988 365.006 398.945 364.907 398.866C364.807 398.787 364.737 398.678 364.707 398.554L347.861 328.131C347.746 327.651 347.501 327.212 347.152 326.862C346.804 326.513 346.366 326.266 345.886 326.149C345.407 326.033 344.905 326.05 344.434 326.2C343.964 326.351 343.545 326.628 343.222 327.001L338.029 333.001C337.981 333.058 337.922 333.105 337.855 333.139C337.789 333.172 337.716 333.193 337.642 333.199C337.568 333.204 337.493 333.195 337.422 333.172C337.351 333.149 337.285 333.111 337.229 333.062C337.172 333.014 337.126 332.954 337.093 332.887C337.06 332.82 337.04 332.748 337.035 332.673C337.03 332.599 337.04 332.524 337.064 332.453C337.088 332.383 337.126 332.317 337.175 332.261L342.367 326.262C342.826 325.731 343.423 325.337 344.091 325.124C344.759 324.911 345.474 324.886 346.155 325.052C346.837 325.218 347.46 325.57 347.955 326.067C348.45 326.564 348.798 327.188 348.961 327.871L365.803 398.294C365.837 398.439 365.812 398.592 365.734 398.719C365.656 398.846 365.53 398.937 365.385 398.972C365.343 398.982 365.3 398.987 365.256 398.988V398.988Z" fill="#494949"/>
<path d="M359.042 348.645C361.089 336.806 355.67 325.983 346.939 324.474C338.207 322.964 329.469 331.338 327.422 343.177C325.374 355.017 330.793 365.84 339.524 367.349C348.256 368.859 356.994 360.485 359.042 348.645Z" fill="#0CBC8B"/>
<path d="M369.813 400.828C369.79 400.828 369.767 400.827 369.744 400.824C369.67 400.815 369.599 400.792 369.534 400.755C369.47 400.719 369.413 400.67 369.367 400.611C369.322 400.553 369.288 400.486 369.268 400.414C369.248 400.343 369.243 400.268 369.252 400.194L380.007 312.871C380.124 311.92 380.514 311.022 381.129 310.287C381.743 309.552 382.558 309.01 383.473 308.726C384.389 308.443 385.367 308.429 386.289 308.688C387.212 308.947 388.041 309.467 388.675 310.185L400.968 324.109C401.067 324.221 401.118 324.368 401.109 324.518C401.099 324.667 401.031 324.807 400.919 324.906C400.806 325.005 400.659 325.056 400.509 325.047C400.36 325.037 400.22 324.969 400.121 324.857L387.828 310.933C387.337 310.378 386.697 309.976 385.984 309.776C385.271 309.576 384.515 309.586 383.807 309.805C383.1 310.025 382.47 310.443 381.995 311.012C381.52 311.58 381.219 312.273 381.129 313.009L370.374 400.332C370.357 400.469 370.291 400.595 370.188 400.686C370.084 400.778 369.951 400.828 369.813 400.828V400.828Z" fill="#494949"/>
<path d="M413.577 331.846C417.866 324.092 412.82 313.091 402.305 307.275C391.791 301.459 379.791 303.031 375.501 310.785C371.212 318.539 376.259 329.539 386.773 335.355C397.287 341.171 409.288 339.6 413.577 331.846Z" fill="#0CBC8B"/>
<path opacity="0.2" d="M414.047 383.238C420.995 377.739 420.582 365.643 413.125 356.222C405.667 346.8 393.99 343.621 387.041 349.121C380.093 354.62 380.506 366.716 387.964 376.137C395.421 385.559 407.099 388.738 414.047 383.238Z" fill="white"/>
<path opacity="0.5" d="M359.042 348.645C361.089 336.806 355.67 325.983 346.939 324.474C338.207 322.964 329.469 331.338 327.422 343.177C325.374 355.017 330.793 365.84 339.524 367.349C348.256 368.859 356.994 360.485 359.042 348.645Z" fill="white"/>
<path opacity="0.5" d="M413.577 331.846C417.866 324.092 412.82 313.091 402.305 307.275C391.791 301.459 379.791 303.031 375.501 310.785C371.212 318.539 376.259 329.539 386.773 335.355C397.287 341.171 409.288 339.6 413.577 331.846Z" fill="white"/>
<path d="M383.569 474.922H356.057L351.497 386.894H388.128L383.569 474.922Z" fill="#292A2E"/>
<path opacity="0.3" d="M383.569 474.922H356.057L351.497 386.894H388.128L383.569 474.922Z" fill="white"/>
<path d="M414.048 383.517C414.005 383.517 413.963 383.507 413.925 383.489C413.887 383.47 413.853 383.443 413.827 383.41L386.82 349.292C386.773 349.233 386.752 349.158 386.761 349.084C386.769 349.01 386.807 348.942 386.866 348.895C386.925 348.849 386.999 348.827 387.074 348.836C387.148 348.845 387.216 348.882 387.263 348.941L414.269 383.059C414.303 383.1 414.323 383.15 414.329 383.203C414.335 383.256 414.326 383.31 414.303 383.357C414.279 383.405 414.243 383.446 414.198 383.474C414.153 383.502 414.101 383.517 414.048 383.517V383.517Z" fill="white"/>
<path d="M411.781 334.579C411.721 334.579 411.662 334.559 411.614 334.523L377.056 309.289C376.995 309.245 376.955 309.179 376.943 309.105C376.932 309.03 376.95 308.955 376.994 308.894C377.039 308.834 377.105 308.793 377.179 308.782C377.253 308.77 377.329 308.788 377.389 308.833L411.948 334.067C411.995 334.103 412.03 334.152 412.048 334.209C412.065 334.265 412.065 334.326 412.046 334.382C412.027 334.439 411.991 334.487 411.943 334.522C411.895 334.557 411.837 334.575 411.778 334.575L411.781 334.579Z" fill="white"/>
<path d="M338.12 366.981C338.095 366.981 338.071 366.978 338.047 366.971C337.975 366.952 337.913 366.905 337.875 366.84C337.838 366.775 337.828 366.698 337.847 366.626L348.848 325.408C348.869 325.337 348.916 325.278 348.98 325.242C349.045 325.206 349.12 325.196 349.191 325.215C349.262 325.234 349.323 325.28 349.361 325.343C349.399 325.406 349.41 325.482 349.394 325.553L338.393 366.771C338.377 366.831 338.341 366.885 338.292 366.923C338.243 366.961 338.182 366.981 338.12 366.981V366.981Z" fill="white"/>
<path d="M396.852 475.716H1.11864C1.01375 475.716 0.913152 475.674 0.838982 475.6C0.764813 475.526 0.723145 475.425 0.723145 475.32C0.723145 475.215 0.764813 475.115 0.838982 475.041C0.913152 474.966 1.01375 474.925 1.11864 474.925H396.851C396.956 474.925 397.056 474.966 397.13 475.041C397.205 475.115 397.246 475.215 397.246 475.32C397.246 475.425 397.205 475.526 397.13 475.6C397.056 475.674 396.956 475.716 396.851 475.716H396.852Z" fill="#292A2E"/>
<g opacity="0.65">
<path d="M396.852 475.716H1.11864C1.01375 475.716 0.913152 475.674 0.838982 475.6C0.764813 475.526 0.723145 475.425 0.723145 475.32C0.723145 475.215 0.764813 475.115 0.838982 475.041C0.913152 474.966 1.01375 474.925 1.11864 474.925H396.851C396.956 474.925 397.056 474.966 397.13 475.041C397.205 475.115 397.246 475.215 397.246 475.32C397.246 475.425 397.205 475.526 397.13 475.6C397.056 475.674 396.956 475.716 396.851 475.716H396.852Z" fill="#292A2E"/>
</g>
</g>
<defs>
<clipPath id="clip0_69_1657">
<rect width="418.277" height="476" fill="white" transform="translate(0.723145)"/>
</clipPath>
</defs>
</svg>
