<svg width="483" height="314" viewBox="0 0 483 314" fill="none" xmlns="http://www.w3.org/2000/svg">
<g clip-path="url(#clip0_58_1519)">
<path d="M87.6597 251.878H81.4927C81.0025 251.879 80.5241 251.727 80.124 251.444C79.7238 251.161 79.4217 250.76 79.2594 250.297C78.7872 248.942 78.2287 247.618 77.5873 246.334C77.3661 245.89 77.2904 245.387 77.371 244.898C77.4517 244.408 77.6846 243.956 78.0366 243.606L82.422 239.222C82.8674 238.776 83.1176 238.172 83.1176 237.542C83.1176 236.911 82.8674 236.307 82.422 235.861L72.9529 226.397C72.5072 225.951 71.9029 225.701 71.2727 225.701C70.6426 225.701 70.0382 225.951 69.5925 226.397L65.1307 230.859C64.7833 231.207 64.3357 231.439 63.8505 231.521C63.3653 231.603 62.8667 231.531 62.4241 231.316C61.1646 230.701 59.8674 230.166 58.5403 229.715C58.0727 229.556 57.6667 229.254 57.3795 228.852C57.0923 228.45 56.9383 227.968 56.9392 227.474V221.153C56.9393 220.842 56.8779 220.533 56.7586 220.245C56.6393 219.956 56.4644 219.695 56.2438 219.474C56.0233 219.254 55.7615 219.079 55.4734 218.959C55.1852 218.84 54.8764 218.779 54.5645 218.779H41.1738C40.862 218.779 40.5531 218.84 40.265 218.959C39.9769 219.079 39.7151 219.254 39.4945 219.474C39.274 219.695 39.0991 219.956 38.9798 220.245C38.8605 220.533 38.7991 220.842 38.7992 221.153V227.475C38.8002 227.969 38.6462 228.451 38.359 228.853C38.0718 229.255 37.6658 229.557 37.1981 229.716C35.871 230.167 34.5738 230.702 33.3143 231.317C32.8717 231.532 32.373 231.604 31.8878 231.522C31.4026 231.44 30.955 231.209 30.6077 230.86L26.1453 226.398C25.6996 225.952 25.0952 225.702 24.4651 225.702C23.8349 225.702 23.2306 225.952 22.7848 226.398L13.3158 235.863C12.8703 236.308 12.6201 236.913 12.6201 237.543C12.6201 238.173 12.8703 238.777 13.3158 239.223L17.6987 243.606C18.0508 243.956 18.2837 244.408 18.3643 244.898C18.445 245.387 18.3693 245.89 18.148 246.334C17.5066 247.618 16.9494 248.942 16.4801 250.297C16.3165 250.76 16.0136 251.16 15.6129 251.443C15.2123 251.726 14.7338 251.878 14.2432 251.878H8.07508C7.76322 251.878 7.45439 251.939 7.16625 252.059C6.87811 252.178 6.6163 252.353 6.39578 252.573C6.17526 252.794 6.00035 253.056 5.88104 253.344C5.76173 253.632 5.70036 253.941 5.70044 254.253V267.644C5.70036 267.955 5.76173 268.264 5.88104 268.552C6.00035 268.84 6.17526 269.102 6.39578 269.323C6.6163 269.543 6.87811 269.718 7.16625 269.838C7.45439 269.957 7.76322 270.018 8.07508 270.018H14.0802C14.5798 270.018 15.0667 270.175 15.4715 270.468C15.8762 270.76 16.1781 271.174 16.334 271.648C16.7976 273.04 17.3519 274.4 17.9935 275.72C18.2113 276.164 18.2851 276.665 18.2046 277.153C18.124 277.642 17.8932 278.093 17.5442 278.444L13.3152 282.673C13.0946 282.893 12.9196 283.155 12.8003 283.443C12.6809 283.731 12.6194 284.039 12.6194 284.351C12.6194 284.663 12.6809 284.971 12.8003 285.259C12.9196 285.547 13.0946 285.809 13.3152 286.029L22.7842 295.499C23.23 295.944 23.8343 296.194 24.4645 296.194C25.0946 296.194 25.699 295.944 26.1447 295.499L30.2907 291.352C30.644 291 31.0993 290.768 31.5919 290.689C32.0845 290.61 32.5894 290.688 33.0352 290.912C34.3766 291.582 35.762 292.16 37.1818 292.642C37.6525 292.801 38.0616 293.103 38.3517 293.507C38.6417 293.91 38.7982 294.394 38.7992 294.891V300.739C38.7987 301.051 38.8598 301.36 38.9789 301.649C39.098 301.937 39.2729 302.199 39.4934 302.42C39.714 302.641 39.9759 302.816 40.2643 302.936C40.5526 303.055 40.8617 303.117 41.1738 303.117H54.5609C54.8731 303.117 55.1822 303.055 55.4705 302.936C55.7588 302.816 56.0208 302.641 56.2413 302.42C56.4619 302.199 56.6367 301.937 56.7559 301.649C56.875 301.36 56.936 301.051 56.9356 300.739V294.891C56.9365 294.394 57.093 293.91 57.3831 293.507C57.6731 293.103 58.0822 292.801 58.553 292.642C59.9728 292.16 61.3582 291.582 62.6995 290.912C63.1453 290.688 63.6503 290.61 64.1429 290.689C64.6355 290.768 65.0907 291 65.4441 291.352L69.5901 295.499C70.0358 295.944 70.6402 296.194 71.2703 296.194C71.9005 296.194 72.5048 295.944 72.9505 295.499L82.422 286.029C82.6426 285.809 82.8175 285.547 82.9369 285.259C83.0563 284.971 83.1177 284.663 83.1177 284.351C83.1177 284.039 83.0563 283.731 82.9369 283.443C82.8175 283.155 82.6426 282.893 82.422 282.673L78.193 278.444C77.8441 278.093 77.6133 277.642 77.5327 277.153C77.4522 276.665 77.526 276.164 77.7437 275.72C78.3852 274.4 78.9396 273.04 79.4032 271.648C79.5591 271.174 79.8609 270.76 80.2657 270.468C80.6705 270.175 81.1574 270.018 81.6569 270.018H87.6621C87.974 270.018 88.2828 269.957 88.5709 269.838C88.8591 269.718 89.1209 269.543 89.3414 269.323C89.5619 269.102 89.7368 268.84 89.8561 268.552C89.9755 268.264 90.0368 267.955 90.0367 267.644V254.253C90.0368 253.941 89.9754 253.632 89.8559 253.343C89.7365 253.055 89.5613 252.793 89.3406 252.573C89.1198 252.352 88.8577 252.177 88.5693 252.058C88.2809 251.939 87.9718 251.878 87.6597 251.878ZM47.8695 280.735C43.9557 280.735 40.1297 279.575 36.8755 277.4C33.6213 275.226 31.0849 272.135 29.5872 268.519C28.0894 264.904 27.6975 260.925 28.4611 257.086C29.2246 253.247 31.1093 249.721 33.8768 246.954C36.6443 244.186 40.1703 242.302 44.0089 241.538C47.8475 240.775 51.8264 241.167 55.4423 242.664C59.0582 244.162 62.1487 246.698 64.3231 249.953C66.4975 253.207 67.6581 257.033 67.6581 260.947C67.6581 263.545 67.1463 266.119 66.1518 268.519C65.1573 270.92 63.6997 273.102 61.8622 274.939C60.0246 276.777 57.8431 278.235 55.4423 279.229C53.0414 280.223 50.4682 280.735 47.8695 280.735Z" fill="#F4F4F4"/>
<path d="M14.8249 261.111L331.072 261.111C338.838 261.111 345.134 254.815 345.134 247.049L345.134 15.5073C345.134 7.74112 338.838 1.44537 331.072 1.44537L14.8249 1.44537C7.05872 1.44537 0.76297 7.74112 0.76297 15.5073L0.76297 247.049C0.76297 254.815 7.05872 261.111 14.8249 261.111Z" fill="white"/>
<path d="M0.293823 247.049V15.5073C0.29844 11.6549 1.8309 7.9616 4.55503 5.23758C7.27916 2.51356 10.9725 0.981264 14.8249 0.976807L331.073 0.976807C334.926 0.981264 338.619 2.51356 341.343 5.23758C344.067 7.9616 345.6 11.6549 345.604 15.5073V247.049C345.6 250.901 344.068 254.595 341.343 257.319C338.619 260.043 334.926 261.575 331.073 261.579H14.8249C10.9725 261.575 7.27901 260.043 4.55485 257.319C1.83068 254.595 0.298281 250.901 0.293823 247.049ZM14.8249 1.91451C11.221 1.91865 7.76588 3.35214 5.21752 5.9005C2.66916 8.44886 1.23567 11.904 1.23153 15.5079V247.049C1.23567 250.653 2.66916 254.108 5.21752 256.656C7.76588 259.205 11.221 260.638 14.8249 260.642H331.073C334.677 260.638 338.132 259.205 340.681 256.656C343.229 254.108 344.663 250.653 344.667 247.049V15.5073C344.663 11.9033 343.229 8.44812 340.681 5.89972C338.132 3.35133 334.677 1.91789 331.073 1.91391L14.8249 1.91451Z" fill="#292A2E"/>
<path d="M0.762939 15.5054V29.6552H345.133V15.5054C345.133 11.7764 343.652 8.20005 341.015 5.56299C338.378 2.92593 334.802 1.44412 331.073 1.44348H14.8249C11.0954 1.44348 7.51873 2.92501 4.8816 5.56214C2.24447 8.19926 0.762939 11.776 0.762939 15.5054Z" fill="#292A2E"/>
<path d="M61.3789 158.526C53.8487 158.526 46.4875 156.293 40.2263 152.11C33.9652 147.926 29.0852 141.98 26.2035 135.023C23.3218 128.066 22.5678 120.41 24.0369 113.025C25.506 105.639 29.1321 98.8551 34.4568 93.5304C39.7815 88.2057 46.5656 84.5796 53.9511 83.1105C61.3367 81.6414 68.992 82.3954 75.949 85.2771C82.9061 88.1588 88.8524 93.0388 93.0359 99.3C97.2195 105.561 99.4525 112.922 99.4525 120.452C99.4409 130.547 95.4258 140.224 88.2881 147.362C81.1505 154.499 71.4731 158.514 61.3789 158.526ZM61.3789 83.5819C54.0866 83.5819 46.958 85.7443 40.8947 89.7957C34.8313 93.8471 30.1055 99.6055 27.3149 106.343C24.5242 113.08 23.7941 120.493 25.2167 127.646C26.6394 134.798 30.151 141.368 35.3074 146.524C40.4639 151.68 47.0336 155.192 54.1858 156.615C61.338 158.037 68.7515 157.307 75.4887 154.517C82.2259 151.726 87.9843 147 92.0357 140.937C96.0871 134.873 98.2495 127.745 98.2495 120.452C98.2389 110.677 94.3509 101.305 87.4387 94.392C80.5265 87.4793 71.1545 83.5908 61.3789 83.5795V83.5819Z" fill="#292A2E"/>
<path d="M172.948 158.526C165.418 158.526 158.057 156.293 151.796 152.11C145.535 147.926 140.655 141.98 137.773 135.023C134.891 128.066 134.137 120.411 135.606 113.025C137.075 105.639 140.702 98.8553 146.026 93.5307C151.351 88.206 158.135 84.5798 165.521 83.1107C172.906 81.6417 180.561 82.3956 187.518 85.2773C194.476 88.159 200.422 93.039 204.605 99.3002C208.789 105.561 211.022 112.923 211.022 120.453C211.01 130.547 206.995 140.224 199.858 147.362C192.72 154.5 183.043 158.515 172.948 158.526ZM172.948 83.5821C165.656 83.5821 158.527 85.7445 152.464 89.7959C146.401 93.8473 141.675 99.6057 138.884 106.343C136.094 113.08 135.364 120.494 136.786 127.646C138.209 134.798 141.72 141.368 146.877 146.524C152.033 151.681 158.603 155.192 165.755 156.615C172.907 158.038 180.321 157.307 187.058 154.517C193.795 151.726 199.554 147 203.605 140.937C207.657 134.874 209.819 127.745 209.819 120.453C209.808 110.677 205.92 101.305 199.008 94.3922C192.096 87.4796 182.724 83.591 172.948 83.5797V83.5821Z" fill="#292A2E"/>
<path d="M284.519 158.526C276.989 158.526 269.628 156.293 263.366 152.11C257.105 147.926 252.225 141.98 249.344 135.023C246.462 128.066 245.708 120.411 247.177 113.025C248.646 105.639 252.272 98.8553 257.597 93.5307C262.922 88.206 269.706 84.5798 277.091 83.1107C284.477 81.6417 292.132 82.3956 299.089 85.2773C306.046 88.159 311.992 93.039 316.176 99.3002C320.36 105.561 322.592 112.923 322.592 120.453C322.581 130.547 318.566 140.224 311.428 147.362C304.291 154.5 294.613 158.515 284.519 158.526ZM284.519 83.5821C277.227 83.5821 270.098 85.7445 264.035 89.7959C257.971 93.8473 253.246 99.6057 250.455 106.343C247.664 113.08 246.934 120.494 248.357 127.646C249.779 134.798 253.291 141.368 258.447 146.524C263.604 151.681 270.174 155.192 277.326 156.615C284.478 158.038 291.891 157.307 298.629 154.517C305.366 151.726 311.124 147 315.176 140.937C319.227 134.874 321.39 127.745 321.39 120.453C321.379 110.677 317.491 101.305 310.579 94.3922C303.667 87.4796 294.295 83.591 284.519 83.5797V83.5821Z" fill="#292A2E"/>
<path opacity="0.6" d="M308.22 125.938V102.232H280.867V120.832H301.092L308.22 125.938Z" fill="#171DCE"/>
<path d="M260.817 143.165V111.104H297.81V136.26H270.458L260.817 143.165Z" fill="#171DCE"/>
<path d="M269.202 127.134C270.973 127.134 272.408 125.699 272.408 123.929C272.408 122.158 270.973 120.723 269.202 120.723C267.432 120.723 265.997 122.158 265.997 123.929C265.997 125.699 267.432 127.134 269.202 127.134Z" fill="white"/>
<path d="M279.314 127.134C281.084 127.134 282.52 125.699 282.52 123.929C282.52 122.158 281.084 120.723 279.314 120.723C277.543 120.723 276.108 122.158 276.108 123.929C276.108 125.699 277.543 127.134 279.314 127.134Z" fill="white"/>
<path d="M289.425 127.134C291.196 127.134 292.631 125.699 292.631 123.929C292.631 122.158 291.196 120.723 289.425 120.723C287.655 120.723 286.219 122.158 286.219 123.929C286.219 125.699 287.655 127.134 289.425 127.134Z" fill="white"/>
<path d="M80.3483 132.102C80.7167 132.348 80.9763 132.726 81.0734 133.159C81.1705 133.591 81.0976 134.044 80.8698 134.423L78.7959 137.879C78.2458 138.813 77.3572 139.501 76.3142 139.798C72.8671 140.743 65.2656 140.933 53.0809 128.75C40.8961 116.567 41.088 108.962 42.0335 105.516C42.3303 104.473 43.0169 103.584 43.9511 103.033L47.4077 100.96C47.7875 100.732 48.2404 100.66 48.6724 100.757C49.1043 100.854 49.4823 101.114 49.7277 101.483L55.2384 109.749C55.4792 110.111 55.5742 110.551 55.5045 110.98C55.4348 111.409 55.2055 111.796 54.8625 112.063L51.7673 114.469C51.4426 114.719 51.2185 115.078 51.1355 115.48C51.0525 115.881 51.1162 116.299 51.3149 116.658C52.2232 118.292 53.0839 120.217 57.346 124.485C61.6081 128.752 63.5412 129.607 65.1724 130.516C65.5311 130.714 65.9492 130.778 66.3508 130.695C66.7524 130.611 67.1107 130.387 67.3606 130.061L69.7665 126.968C70.0335 126.625 70.4205 126.395 70.8499 126.325C71.2792 126.256 71.7191 126.351 72.081 126.592L80.3483 132.102Z" fill="#171DCE"/>
<path opacity="0.6" d="M192.569 133.835H153.482C153.043 133.837 152.62 133.664 152.308 133.355C151.995 133.046 151.818 132.625 151.816 132.186L151.679 108.759C151.678 108.565 151.715 108.372 151.789 108.193C151.862 108.013 151.97 107.849 152.106 107.712C152.243 107.574 152.405 107.464 152.584 107.389C152.763 107.313 152.955 107.274 153.149 107.273L192.597 107.071C192.988 107.069 193.365 107.223 193.643 107.498C193.921 107.773 194.079 108.148 194.081 108.539L194.218 132.168C194.219 132.386 194.177 132.602 194.095 132.803C194.013 133.005 193.892 133.188 193.739 133.343C193.586 133.498 193.403 133.621 193.203 133.705C193.002 133.789 192.787 133.833 192.569 133.835Z" fill="#171DCE"/>
<path d="M193.661 107.514C191.327 109.228 174.378 121.703 174.36 121.715C173.9 121.973 173.379 122.104 172.851 122.093C172.324 122.083 171.808 121.931 171.359 121.655L152.081 107.743C152.218 107.596 152.384 107.478 152.568 107.398C152.752 107.317 152.951 107.275 153.152 107.274L192.596 107.069C192.794 107.068 192.991 107.108 193.174 107.184C193.356 107.26 193.522 107.373 193.661 107.514Z" fill="#171DCE"/>
<path d="M355.445 136.41C363.015 136.41 369.152 130.273 369.152 122.702C369.152 115.131 363.015 108.994 355.445 108.994C347.874 108.994 341.737 115.131 341.737 122.702C341.737 130.273 347.874 136.41 355.445 136.41Z" fill="#EEB035"/>
<path d="M349.021 121.403C348.668 121.403 348.323 121.3 348.029 121.106C347.734 120.913 347.503 120.637 347.363 120.313C347.116 119.74 341.378 106.045 347.61 85.956C354.361 64.1951 377.876 63.9419 378.113 63.9419C378.591 63.9419 379.05 64.132 379.389 64.4704C379.727 64.8088 379.917 65.2678 379.917 65.7463C379.917 66.2249 379.727 66.6839 379.389 67.0223C379.05 67.3607 378.591 67.5508 378.113 67.5508C377.254 67.5508 357.008 67.8341 351.054 87.0242C345.213 105.851 350.618 118.754 350.674 118.882C350.792 119.157 350.841 119.456 350.815 119.754C350.789 120.052 350.689 120.338 350.525 120.588C350.361 120.838 350.137 121.043 349.874 121.185C349.611 121.327 349.317 121.402 349.018 121.402L349.021 121.403Z" fill="#EEB035"/>
<path d="M350.482 136.41C358.052 136.41 364.189 130.273 364.189 122.702C364.189 115.132 358.052 108.995 350.482 108.995C342.911 108.995 336.774 115.132 336.774 122.702C336.774 130.273 342.911 136.41 350.482 136.41Z" fill="#EEB035"/>
<path opacity="0.3" d="M350.482 136.41C358.052 136.41 364.189 130.273 364.189 122.702C364.189 115.132 358.052 108.995 350.482 108.995C342.911 108.995 336.774 115.132 336.774 122.702C336.774 130.273 342.911 136.41 350.482 136.41Z" fill="white"/>
<path d="M353.77 136.41C361.341 136.41 367.478 130.273 367.478 122.702C367.478 115.132 361.341 108.995 353.77 108.995C346.2 108.995 340.063 115.132 340.063 122.702C340.063 130.273 346.2 136.41 353.77 136.41Z" fill="#EEB035"/>
<path d="M418.43 98.0376C418.43 98.0376 422.834 119.14 428.093 125.525C443.236 143.905 449.882 165.983 439.016 179.45C428.15 192.917 352.456 203.794 342.78 177.492C334.635 155.349 343.373 151.428 343.479 132.241C343.527 123.558 344.728 105.248 344.728 105.248" fill="#0A0A0A"/>
<path d="M355.167 166.328C355.306 166.31 356.841 191.788 386.44 189.567C406.932 188.032 414.238 166.29 414.71 166.29C412.501 165.821 408.781 165.137 407.8 164.614C404.573 162.88 400.582 161.076 399.54 154.81C398.939 151.201 399.958 132.723 399.645 129.067L368.191 136.087C368.631 143.804 371.707 161.695 360.925 164.861C359.129 165.389 357.196 165.871 355.167 166.328Z" fill="#E98862"/>
<path opacity="0.5" d="M367.747 157.553C368.24 155.966 368.557 154.329 368.693 152.672C369.039 148.891 368.97 145.083 368.488 141.317C374.88 140.454 380.902 137.816 385.87 133.701C386.455 135.858 389.667 145.283 388.777 147.333C387.097 151.208 379.198 157.553 367.747 157.553Z" fill="#0C0C0C"/>
<path d="M373.347 151.957C385.797 151.489 401.035 144.429 402.122 127.618L403.103 112.45C404.19 95.6398 396.242 81.4413 380.414 80.4176C364.586 79.3951 351.874 92.2565 350.787 109.067L350.353 115.782C349.936 122.235 351.133 152.79 373.347 151.957Z" fill="#E98862"/>
<path opacity="0.1" d="M378.264 129.46C380.319 129.429 381.967 128.181 381.944 126.674C381.921 125.167 380.236 123.97 378.181 124.002C376.126 124.033 374.479 125.28 374.502 126.788C374.525 128.295 376.209 129.491 378.264 129.46Z" fill="#0C0C0C"/>
<path opacity="0.1" d="M356.094 126.407C356.113 127.911 354.466 129.159 352.412 129.193C352.056 129.198 351.701 129.167 351.352 129.099C351.02 127.346 350.786 125.647 350.625 124.067C351.168 123.851 351.746 123.738 352.33 123.734C354.387 123.7 356.071 124.896 356.094 126.407Z" fill="#0C0C0C"/>
<path d="M355.534 115.084C356.61 115.084 357.481 114.213 357.481 113.137C357.481 112.062 356.61 111.19 355.534 111.19C354.459 111.19 353.587 112.062 353.587 113.137C353.587 114.213 354.459 115.084 355.534 115.084Z" fill="#0C0C0C"/>
<path d="M374.801 116.524C375.876 116.524 376.747 115.652 376.747 114.577C376.747 113.502 375.876 112.63 374.801 112.63C373.725 112.63 372.854 113.502 372.854 114.577C372.854 115.652 373.725 116.524 374.801 116.524Z" fill="#0C0C0C"/>
<path opacity="0.5" d="M365.65 129.781H365.62C364.978 129.735 364.339 129.653 363.706 129.537C362.761 129.357 361.51 129.019 361.564 128.178C361.625 127.22 364.918 117.055 365.294 115.899C365.329 115.802 365.401 115.722 365.495 115.677C365.588 115.632 365.695 115.624 365.793 115.656C365.892 115.688 365.974 115.757 366.023 115.849C366.072 115.94 366.083 116.047 366.055 116.146C364.65 120.477 362.405 127.585 362.364 128.23C362.502 128.509 364.08 128.878 365.672 128.982C365.775 128.99 365.87 129.036 365.939 129.113C366.008 129.189 366.045 129.289 366.043 129.392C366.04 129.495 365.998 129.593 365.925 129.665C365.852 129.738 365.754 129.78 365.651 129.782L365.65 129.781Z" fill="#0C0C0C"/>
<path opacity="0.5" d="M368.814 136.592C366.25 136.576 363.727 135.958 361.447 134.788C361.399 134.764 361.357 134.732 361.322 134.693C361.288 134.653 361.261 134.608 361.244 134.558C361.21 134.457 361.217 134.348 361.263 134.252C361.31 134.157 361.392 134.084 361.493 134.05C361.593 134.015 361.703 134.022 361.798 134.069C366.717 136.475 371.302 136.398 375.053 133.846C375.129 133.792 375.208 133.742 375.288 133.696C375.383 133.654 375.49 133.649 375.587 133.683C375.685 133.717 375.765 133.788 375.812 133.88C375.859 133.973 375.868 134.08 375.837 134.178C375.807 134.277 375.74 134.361 375.649 134.411C375.619 134.428 375.571 134.462 375.503 134.508C373.53 135.853 371.201 136.578 368.814 136.592Z" fill="#0C0C0C"/>
<path d="M415.918 116.078L401.74 115.242C390.716 112.285 385.302 94.4979 385.302 94.4979C385.302 94.4979 376.484 108.5 344.703 105.234C344.703 105.234 343.154 60.7435 390.398 68.2765C405.59 70.6992 418.014 84.0442 419.139 104.037C419.927 118.049 415.918 116.078 415.918 116.078Z" fill="#0A0A0A"/>
<path d="M400.808 132.676C405.62 132.987 409.85 128.093 410.161 123.283C410.472 118.473 406.744 115.569 401.934 115.258L399.247 118.32L396.672 132.409L400.808 132.676Z" fill="#E98862"/>
<path d="M360.946 108.734C359.662 108.064 358.224 107.745 356.777 107.81C356.05 107.839 355.331 107.976 354.645 108.219C353.952 108.46 353.293 108.787 352.682 109.193L352.663 109.205C352.594 109.246 352.513 109.26 352.435 109.242C352.357 109.224 352.289 109.177 352.245 109.109C352.202 109.042 352.187 108.961 352.203 108.883C352.219 108.804 352.264 108.735 352.331 108.69C352.974 108.231 353.673 107.855 354.41 107.57C355.153 107.28 355.934 107.104 356.729 107.046C358.338 106.919 359.952 107.227 361.401 107.936C361.51 107.99 361.593 108.086 361.632 108.202C361.671 108.317 361.662 108.443 361.607 108.553C361.553 108.662 361.457 108.744 361.341 108.783C361.226 108.822 361.1 108.813 360.991 108.758L360.979 108.752L360.946 108.734Z" fill="#0C0C0C"/>
<path d="M373.8 108.777C375.327 108.253 376.966 108.149 378.547 108.476C379.329 108.632 380.082 108.904 380.783 109.284C381.479 109.658 382.126 110.119 382.708 110.654C382.766 110.708 382.802 110.781 382.808 110.86C382.813 110.939 382.788 111.017 382.737 111.078C382.686 111.139 382.614 111.177 382.535 111.186C382.456 111.194 382.377 111.172 382.315 111.124L382.296 111.109C381.741 110.631 381.127 110.224 380.47 109.898C379.819 109.572 379.123 109.346 378.405 109.228C376.977 108.983 375.511 109.12 374.154 109.626L374.121 109.639C374.065 109.661 374.005 109.672 373.944 109.671C373.884 109.669 373.824 109.656 373.769 109.632C373.714 109.608 373.664 109.573 373.622 109.529C373.58 109.486 373.547 109.434 373.525 109.378C373.503 109.322 373.493 109.262 373.494 109.201C373.495 109.141 373.508 109.082 373.533 109.026C373.557 108.971 373.592 108.921 373.635 108.879C373.679 108.837 373.73 108.805 373.786 108.783L373.8 108.777Z" fill="#0C0C0C"/>
<path opacity="0.52" d="M368.736 140.387C368.273 140.392 367.81 140.356 367.353 140.282C367.301 140.274 367.251 140.256 367.206 140.228C367.162 140.201 367.123 140.165 367.092 140.122C367.061 140.08 367.039 140.031 367.027 139.98C367.014 139.929 367.012 139.876 367.021 139.824C367.029 139.772 367.047 139.723 367.075 139.678C367.102 139.633 367.138 139.594 367.181 139.563C367.223 139.532 367.272 139.51 367.323 139.498C367.374 139.486 367.427 139.484 367.479 139.492C370.231 139.93 371.618 138.73 371.676 138.679C371.755 138.608 371.859 138.571 371.965 138.576C372.071 138.581 372.17 138.629 372.241 138.707C372.313 138.786 372.35 138.89 372.344 138.996C372.339 139.102 372.292 139.201 372.213 139.272C371.218 140.034 369.989 140.429 368.736 140.387Z" fill="#0C0C0C"/>
<path d="M401.894 115.032C392.142 112.829 388.195 106.83 386.603 102.186C385.559 99.0859 385.175 95.8022 385.474 92.5452L385.775 92.5855C385.481 95.7999 385.862 99.0403 386.893 102.099C388.463 106.667 392.352 112.565 401.964 114.739L401.894 115.032Z" fill="#0C0C0C"/>
<path d="M251.927 176.135L242.275 157.935C242.062 157.535 241.769 157.184 241.414 156.904C241.058 156.624 240.649 156.421 240.21 156.307C239.772 156.194 239.315 156.174 238.869 156.247C238.422 156.32 237.995 156.485 237.616 156.732C236.93 157.21 236.445 157.925 236.256 158.74C236.067 159.554 236.188 160.41 236.594 161.14L238.663 165.043L226.522 155.758C225.19 154.702 222.881 154.258 221.794 155.83C221.337 156.408 221.089 157.123 221.091 157.86C221.092 158.597 221.344 159.311 221.803 159.887C221.79 159.897 221.778 159.908 221.767 159.921C221.759 159.931 221.758 159.944 221.751 159.955L219.698 158.323C219.317 158.022 218.874 157.809 218.401 157.7C217.928 157.592 217.436 157.59 216.962 157.696C216.488 157.801 216.044 158.011 215.662 158.31C215.279 158.609 214.968 158.99 214.752 159.424C214.424 160.115 214.344 160.898 214.524 161.641C214.705 162.384 215.135 163.043 215.742 163.507L216.617 164.2C216.608 164.234 216.606 164.27 216.61 164.305C215.911 163.974 215.117 163.903 214.37 164.103C213.623 164.304 212.972 164.763 212.533 165.4C212.073 166.111 211.898 166.969 212.043 167.804C212.188 168.638 212.642 169.387 213.315 169.901L215.485 171.622C215.438 171.619 215.39 171.628 215.346 171.647C215.302 171.667 215.263 171.696 215.233 171.734C215.2 171.78 215.181 171.835 215.178 171.891C214.473 171.769 213.748 171.882 213.114 172.213C212.48 172.543 211.972 173.073 211.668 173.72C211.363 174.406 211.298 175.175 211.485 175.903C211.671 176.631 212.098 177.274 212.695 177.729L231.012 192.25C233.574 194.281 236.685 195.5 239.945 195.752C243.206 196.004 246.467 195.277 249.311 193.663C251.763 192.272 253.576 189.979 254.365 187.273C255.154 184.566 254.856 181.658 253.535 179.167L251.927 176.135Z" fill="#E98862"/>
<g opacity="0.2">
<path d="M233.776 169.136C233.727 169.197 233.656 169.237 233.578 169.246C233.5 169.256 233.421 169.234 233.359 169.186L221.824 160.341C221.792 160.317 221.766 160.287 221.746 160.253C221.726 160.219 221.714 160.181 221.708 160.142C221.703 160.103 221.706 160.063 221.716 160.025C221.726 159.987 221.744 159.951 221.768 159.919C221.792 159.888 221.822 159.862 221.856 159.842C221.89 159.822 221.928 159.809 221.967 159.804C222.007 159.799 222.046 159.802 222.085 159.812C222.123 159.822 222.159 159.84 222.19 159.864L233.725 168.709C233.788 168.758 233.829 168.829 233.84 168.908C233.85 168.987 233.829 169.067 233.78 169.13L233.776 169.136Z" fill="#0C0C0C"/>
</g>
<g opacity="0.2">
<path d="M230.015 174.331C229.966 174.392 229.895 174.432 229.817 174.441C229.739 174.45 229.66 174.429 229.598 174.381L216.726 164.51C216.663 164.462 216.622 164.39 216.611 164.311C216.601 164.232 216.622 164.152 216.67 164.089C216.721 164.028 216.792 163.989 216.87 163.978C216.948 163.968 217.027 163.988 217.091 164.033L229.965 173.902C230.028 173.95 230.069 174.022 230.08 174.101C230.09 174.179 230.069 174.259 230.021 174.323L230.015 174.331Z" fill="#0C0C0C"/>
</g>
<g opacity="0.2">
<path d="M225.975 179.981C225.926 180.042 225.855 180.082 225.777 180.091C225.699 180.1 225.62 180.079 225.558 180.031L215.289 172.157C215.225 172.108 215.184 172.037 215.173 171.958C215.163 171.878 215.184 171.798 215.233 171.735C215.282 171.672 215.353 171.63 215.432 171.62C215.512 171.609 215.592 171.631 215.655 171.679L225.923 179.555C225.987 179.604 226.028 179.675 226.038 179.754C226.049 179.833 226.028 179.913 225.979 179.976L225.975 179.981Z" fill="#0C0C0C"/>
</g>
<path d="M320.675 177.144L289.465 231.85L257.567 173.606L219.449 194.889L270.766 285.063C272.428 287.96 274.745 290.428 277.533 292.268C282.208 295.332 287.91 296.413 293.383 295.274C298.856 294.135 303.652 290.868 306.716 286.193L306.98 285.79L361.715 202.266L320.675 177.144Z" fill="#EEB035"/>
<path d="M251.926 176.135L242.275 157.935C242.062 157.535 241.769 157.184 241.414 156.904C241.058 156.624 240.649 156.42 240.21 156.307C239.772 156.194 239.315 156.173 238.869 156.247C238.422 156.32 237.995 156.485 237.616 156.732C236.93 157.21 236.445 157.925 236.256 158.739C236.067 159.554 236.188 160.409 236.594 161.14L238.663 165.043L241.881 172.09" fill="#E98862"/>
<path d="M386.993 183.198C407.498 182.231 408.361 164.827 408.361 164.827C408.361 164.827 418.521 165.483 425.275 166.397C436.334 167.893 443.628 171.643 449.433 177.447C454.833 182.848 458.121 188.69 454.642 225.993C452.123 253 453.896 312.413 453.896 312.413H330.141C330.141 312.413 322.72 234.543 321.686 222.385C319.712 199.174 311.627 186.091 322.927 174.135C331.122 165.464 352.279 164.827 360.795 164.828C360.934 164.828 359.067 184.514 386.993 183.198Z" fill="#EEB035"/>
<path d="M322.407 218.503C322.402 218.424 322.365 218.349 322.305 218.296C322.245 218.243 322.167 218.217 322.087 218.222C322.007 218.227 321.933 218.263 321.88 218.323C321.827 218.383 321.8 218.461 321.805 218.541L324.322 258.737C324.326 258.809 324.357 258.877 324.408 258.929C324.458 258.98 324.526 259.012 324.598 259.018C324.612 259.019 324.626 259.019 324.641 259.018C324.68 259.015 324.719 259.005 324.754 258.988C324.79 258.97 324.822 258.946 324.848 258.916C324.874 258.887 324.894 258.852 324.907 258.815C324.919 258.777 324.925 258.738 324.922 258.698" fill="#0C0C0C"/>
<path d="M349.672 277.179L329.654 272.315C329.214 272.208 328.757 272.194 328.311 272.274C327.865 272.354 327.441 272.525 327.065 272.778C326.69 273.03 326.371 273.358 326.129 273.741C325.887 274.123 325.727 274.552 325.66 275C325.561 275.83 325.775 276.667 326.259 277.349C326.742 278.031 327.462 278.508 328.278 278.69L332.571 279.733L317.566 282.649C315.893 282.943 314.027 284.376 314.483 286.232C314.611 286.958 314.981 287.618 315.533 288.106C316.086 288.594 316.787 288.881 317.523 288.919C317.521 288.935 317.521 288.952 317.523 288.968C317.523 288.981 317.533 288.991 317.537 289.003L314.956 289.458C314.478 289.543 314.025 289.733 313.63 290.015C313.234 290.297 312.907 290.663 312.671 291.088C312.436 291.512 312.298 291.984 312.268 292.468C312.237 292.953 312.316 293.438 312.497 293.888C312.796 294.592 313.328 295.171 314.003 295.53C314.679 295.888 315.457 296.004 316.207 295.857L317.305 295.663C317.326 295.693 317.351 295.718 317.38 295.739C316.668 296.042 316.088 296.588 315.742 297.28C315.396 297.971 315.308 298.764 315.493 299.515C315.718 300.331 316.244 301.032 316.964 301.478C317.684 301.924 318.545 302.082 319.377 301.921L322.105 301.439C322.071 301.473 322.046 301.515 322.032 301.56C322.017 301.606 322.014 301.654 322.022 301.702C322.034 301.757 322.062 301.808 322.103 301.848C321.544 302.294 321.147 302.911 320.973 303.605C320.799 304.298 320.858 305.03 321.14 305.686C321.451 306.37 321.983 306.93 322.651 307.273C323.319 307.617 324.083 307.725 324.82 307.581L347.84 303.52C351.06 302.952 354.038 301.436 356.39 299.165C358.743 296.894 360.364 293.972 361.045 290.773C361.632 288.016 361.121 285.138 359.621 282.751C358.12 280.364 355.748 278.656 353.008 277.99L349.672 277.179Z" fill="#E98862"/>
<g opacity="0.2">
<path d="M332.389 286.107C332.402 286.184 332.384 286.264 332.339 286.329C332.294 286.394 332.226 286.438 332.148 286.453L317.876 289.207C317.837 289.215 317.797 289.215 317.758 289.207C317.72 289.199 317.683 289.183 317.65 289.161C317.617 289.139 317.589 289.111 317.568 289.078C317.546 289.045 317.531 289.008 317.523 288.969C317.516 288.93 317.516 288.89 317.524 288.852C317.532 288.813 317.548 288.776 317.57 288.743C317.592 288.711 317.62 288.683 317.653 288.661C317.686 288.639 317.723 288.624 317.762 288.617L332.034 285.861C332.073 285.854 332.113 285.854 332.152 285.862C332.191 285.87 332.228 285.886 332.261 285.908C332.293 285.931 332.322 285.959 332.343 285.993C332.365 286.026 332.38 286.063 332.387 286.102L332.389 286.107Z" fill="#0C0C0C"/>
</g>
<g opacity="0.2">
<path d="M333.78 292.368C333.793 292.445 333.775 292.525 333.73 292.589C333.685 292.654 333.617 292.698 333.539 292.713L317.611 295.788C317.572 295.795 317.532 295.795 317.493 295.787C317.455 295.779 317.418 295.763 317.385 295.741C317.352 295.718 317.324 295.69 317.303 295.656C317.281 295.623 317.266 295.586 317.259 295.547C317.247 295.469 317.265 295.389 317.31 295.323C317.354 295.258 317.422 295.212 317.5 295.195L333.428 292.121C333.467 292.113 333.507 292.113 333.546 292.122C333.585 292.13 333.621 292.145 333.654 292.168C333.687 292.19 333.715 292.219 333.736 292.252C333.758 292.285 333.773 292.322 333.78 292.361V292.368Z" fill="#0C0C0C"/>
</g>
<g opacity="0.2">
<path d="M335.32 299.141C335.333 299.218 335.315 299.298 335.27 299.362C335.225 299.427 335.157 299.471 335.08 299.486L322.374 301.939C322.335 301.946 322.295 301.946 322.257 301.938C322.218 301.93 322.181 301.915 322.148 301.893C322.116 301.871 322.088 301.842 322.066 301.809C322.044 301.776 322.029 301.739 322.022 301.701C322.014 301.662 322.014 301.622 322.022 301.583C322.03 301.545 322.046 301.508 322.068 301.475C322.09 301.442 322.118 301.414 322.151 301.392C322.184 301.371 322.221 301.356 322.26 301.348L334.965 298.895C335.004 298.888 335.044 298.888 335.083 298.896C335.122 298.904 335.159 298.92 335.192 298.942C335.224 298.965 335.252 298.993 335.274 299.026C335.296 299.06 335.311 299.097 335.318 299.136L335.32 299.141Z" fill="#0C0C0C"/>
</g>
<path d="M347.678 311.394L455.245 311.981C458.71 312.358 462.215 311.927 465.485 310.722C468.755 309.517 471.701 307.571 474.093 305.036C476.484 302.501 478.256 299.446 479.268 296.112C480.281 292.777 480.507 289.253 479.929 285.817L455.965 189.821C455.489 186.886 454.438 184.074 452.871 181.547C451.305 179.02 449.255 176.828 446.838 175.096C444.421 173.364 441.686 172.127 438.79 171.457C435.893 170.786 432.893 170.694 429.961 171.187C427.029 171.68 424.223 172.747 421.706 174.328C419.188 175.909 417.007 177.973 415.29 180.399C413.572 182.826 412.351 185.568 411.697 188.469C411.043 191.369 410.969 194.37 411.479 197.299L429.858 269.618L348.199 272.303L347.678 311.394Z" fill="#EEB035"/>
<path d="M443.918 269.315C443.993 269.315 444.066 269.286 444.121 269.234C444.176 269.182 444.21 269.112 444.215 269.036C444.221 268.961 444.198 268.886 444.151 268.827C444.104 268.768 444.036 268.729 443.962 268.717L430.031 269.223C429.992 269.217 429.952 269.218 429.913 269.227C429.875 269.237 429.839 269.254 429.807 269.277C429.775 269.301 429.748 269.33 429.728 269.365C429.708 269.399 429.695 269.436 429.689 269.476C429.678 269.555 429.698 269.635 429.745 269.699C429.792 269.763 429.863 269.806 429.942 269.817L443.873 269.312C443.888 269.314 443.903 269.315 443.918 269.315Z" fill="#0C0C0C"/>
<path d="M452.117 312.413C452.196 312.418 452.275 312.392 452.335 312.339C452.395 312.286 452.432 312.212 452.437 312.132C452.442 312.052 452.415 311.974 452.363 311.914C452.31 311.854 452.235 311.817 452.156 311.812L348.307 311.164L348.763 272.669L429.934 269.817C429.981 269.823 430.028 269.818 430.073 269.802C430.117 269.787 430.157 269.761 430.19 269.727C430.223 269.693 430.247 269.652 430.261 269.607C430.275 269.562 430.278 269.515 430.27 269.468L421.418 226C421.412 225.96 421.398 225.923 421.378 225.889C421.357 225.855 421.329 225.826 421.297 225.803C421.265 225.78 421.228 225.764 421.19 225.755C421.151 225.747 421.111 225.746 421.072 225.753C420.993 225.766 420.923 225.81 420.877 225.875C420.831 225.94 420.812 226.021 420.825 226.099L429.607 269.165L348.535 272.031C348.495 272.025 348.454 272.028 348.416 272.039C348.377 272.049 348.341 272.068 348.309 272.092C348.278 272.117 348.251 272.148 348.232 272.183C348.213 272.218 348.2 272.257 348.196 272.297L347.676 311.393C347.667 311.471 347.69 311.55 347.738 311.612C347.787 311.673 347.858 311.714 347.936 311.724L452.075 312.41C452.089 312.412 452.103 312.413 452.117 312.413Z" fill="#0C0C0C"/>
<path d="M297.011 301.118L267.584 210.662C267.067 209.073 266.06 207.688 264.708 206.706C263.356 205.723 261.727 205.194 260.056 205.194H140.17C138.92 205.194 137.688 205.49 136.575 206.057C135.462 206.625 134.498 207.448 133.764 208.459C133.029 209.47 132.545 210.641 132.35 211.875C132.154 213.109 132.254 214.372 132.641 215.561L162.068 306.017C162.585 307.607 163.591 308.992 164.944 309.974C166.296 310.956 167.925 311.485 169.596 311.485H289.482C290.731 311.485 291.963 311.189 293.077 310.622C294.19 310.054 295.154 309.231 295.888 308.22C296.622 307.209 297.107 306.038 297.302 304.804C297.497 303.57 297.398 302.307 297.011 301.118Z" fill="#292A2E"/>
<path d="M353.258 304.15H273.007C271.007 304.15 269.386 305.772 269.386 307.771V307.864C269.386 309.864 271.007 311.485 273.007 311.485H353.258C355.257 311.485 356.878 309.864 356.878 307.864V307.771C356.878 305.772 355.257 304.15 353.258 304.15Z" fill="#292A2E"/>
<path d="M213.022 273.522C219.966 273.522 225.596 267.892 225.596 260.948C225.596 254.003 219.966 248.374 213.022 248.374C206.077 248.374 200.448 254.003 200.448 260.948C200.448 267.892 206.077 273.522 213.022 273.522Z" fill="white"/>
<path d="M408.986 120.645C408.507 120.645 408.048 120.455 407.71 120.116C407.371 119.778 407.181 119.319 407.181 118.84V98.2853C407.181 87.8255 404.286 79.5378 398.809 74.3181C393.617 69.3704 386.167 67.095 376.674 67.5503C376.437 67.563 376.199 67.5286 375.975 67.4491C375.751 67.3697 375.545 67.2467 375.368 67.0873C375.192 66.928 375.049 66.7353 374.947 66.5203C374.845 66.3054 374.787 66.0725 374.776 65.835C374.764 65.5976 374.8 65.3602 374.881 65.1365C374.961 64.9128 375.085 64.7073 375.246 64.5317C375.406 64.3561 375.599 64.214 375.815 64.1134C376.03 64.0128 376.264 63.9558 376.501 63.9457C387.022 63.4374 395.367 66.0508 401.301 71.7047C407.51 77.6227 410.793 86.8139 410.793 98.2847V118.84C410.793 119.077 410.746 119.312 410.655 119.531C410.564 119.75 410.431 119.949 410.263 120.117C410.096 120.284 409.896 120.417 409.677 120.508C409.458 120.598 409.223 120.645 408.986 120.645Z" fill="#EEB035"/>
<path d="M406.289 136.41C413.859 136.41 419.996 130.273 419.996 122.702C419.996 115.132 413.859 108.994 406.289 108.994C398.718 108.994 392.581 115.132 392.581 122.702C392.581 130.273 398.718 136.41 406.289 136.41Z" fill="#EEB035"/>
<path d="M406.818 132.97C406.722 132.901 406.613 132.851 406.498 132.823C406.383 132.796 406.263 132.792 406.146 132.81C406.029 132.829 405.917 132.871 405.816 132.933C405.715 132.995 405.627 133.076 405.558 133.172L404.51 134.621C403.224 136.393 401.538 137.835 399.589 138.83C397.639 139.826 395.482 140.346 393.294 140.349H376.605V139.996C376.605 139.518 376.415 139.059 376.077 138.72C375.738 138.382 375.279 138.192 374.801 138.192H369.153C368.674 138.192 368.215 138.382 367.877 138.72C367.539 139.059 367.348 139.518 367.348 139.996V142.638C367.348 143.116 367.539 143.575 367.877 143.914C368.215 144.252 368.674 144.442 369.153 144.442H374.801C375.279 144.442 375.738 144.252 376.077 143.914C376.415 143.575 376.605 143.116 376.605 142.638V142.157H393.294C395.768 142.153 398.206 141.565 400.409 140.44C402.612 139.315 404.518 137.684 405.971 135.682L407.02 134.233C407.09 134.137 407.14 134.028 407.168 133.913C407.196 133.797 407.2 133.677 407.182 133.56C407.163 133.443 407.121 133.33 407.059 133.229C406.996 133.128 406.914 133.04 406.818 132.97Z" fill="#EEB035"/>
<path d="M409.578 136.41C417.148 136.41 423.285 130.273 423.285 122.702C423.285 115.132 417.148 108.994 409.578 108.994C402.007 108.994 395.87 115.132 395.87 122.702C395.87 130.273 402.007 136.41 409.578 136.41Z" fill="#EEB035"/>
<path opacity="0.3" d="M409.578 136.41C417.148 136.41 423.285 130.273 423.285 122.702C423.285 115.132 417.148 108.994 409.578 108.994C402.007 108.994 395.87 115.132 395.87 122.702C395.87 130.273 402.007 136.41 409.578 136.41Z" fill="white"/>
<path d="M149.233 313.015H481.851C482.01 313.015 482.163 312.952 482.276 312.839C482.389 312.726 482.452 312.573 482.452 312.413C482.452 312.254 482.389 312.101 482.276 311.988C482.163 311.875 482.01 311.812 481.851 311.812H149.233C149.074 311.812 148.921 311.875 148.808 311.988C148.695 312.101 148.632 312.254 148.632 312.413C148.632 312.573 148.695 312.726 148.808 312.839C148.921 312.952 149.074 313.015 149.233 313.015Z" fill="#292A2E"/>
</g>
<defs>
<clipPath id="clip0_58_1519">
<rect width="483" height="312.046" fill="white" transform="translate(0 0.977051)"/>
</clipPath>
</defs>
</svg>
