<svg width="48" height="49" viewBox="0 0 48 49" fill="none" xmlns="http://www.w3.org/2000/svg">
<g clip-path="url(#clip0_64_2376)">
<path d="M48 24.9315C48 11.6767 37.2548 0.931519 24 0.931519C10.7452 0.931519 0 11.6767 0 24.9315C0 36.9106 8.77645 46.8395 20.25 48.6399V31.869H14.1562V24.9315H20.25V19.644C20.25 13.629 23.8331 10.3065 29.3151 10.3065C31.941 10.3065 34.6875 10.7753 34.6875 10.7753V16.6815H31.6611C28.6798 16.6815 27.75 18.5315 27.75 20.4295V24.9315H34.4062L33.3422 31.869H27.75V48.6399C39.2235 46.8395 48 36.9106 48 24.9315Z" fill="#EEB035"/>
<path d="M33.3422 31.869L34.4062 24.9315H27.75V20.4295C27.75 18.5315 28.6798 16.6815 31.6611 16.6815H34.6875V10.7752C34.6875 10.7752 31.941 10.3065 29.3151 10.3065C23.8331 10.3065 20.25 13.6289 20.25 19.644V24.9315H14.1562V31.869H20.25V48.6398C22.7349 49.0287 25.2651 49.0287 27.75 48.6398V31.869H33.3422Z" fill="#F7F8F4"/>
</g>
<defs>
<clipPath id="clip0_64_2376">
<rect width="48" height="48" fill="white" transform="translate(0 0.931519)"/>
</clipPath>
</defs>
</svg>
