<svg width="48" height="49" viewBox="0 0 48 49" fill="none" xmlns="http://www.w3.org/2000/svg">
<g clip-path="url(#clip0_170_1416)">
<path opacity="0.4" d="M48 24.9314C48 11.6766 37.2548 0.931396 24 0.931396C10.7452 0.931396 0 11.6766 0 24.9314C0 36.9105 8.77645 46.8394 20.25 48.6397V31.8689H14.1562V24.9314H20.25V19.6439C20.25 13.6289 23.8331 10.3064 29.3151 10.3064C31.941 10.3064 34.6875 10.7751 34.6875 10.7751V16.6814H31.6611C28.6798 16.6814 27.75 18.5314 27.75 20.4294V24.9314H34.4062L33.3422 31.8689H27.75V48.6397C39.2235 46.8394 48 36.9105 48 24.9314Z" fill="url(#paint0_linear_170_1416)"/>
<path d="M33.3422 31.8689L34.4062 24.9314H27.75V20.4294C27.75 18.5314 28.6798 16.6814 31.6611 16.6814H34.6875V10.7751C34.6875 10.7751 31.941 10.3064 29.3151 10.3064C23.8331 10.3064 20.25 13.6289 20.25 19.6439V24.9314H14.1562V31.8689H20.25V48.6397C22.7349 49.0286 25.2651 49.0286 27.75 48.6397V31.8689H33.3422Z" fill="#F7F8F4"/>
</g>
<defs>
<linearGradient id="paint0_linear_170_1416" x1="29.1154" y1="17.4351" x2="11.682" y2="43.092" gradientUnits="userSpaceOnUse">
<stop stop-color="white"/>
<stop offset="1" stop-color="white" stop-opacity="0"/>
</linearGradient>
<clipPath id="clip0_170_1416">
<rect width="48" height="48" fill="white" transform="translate(0 0.931396)"/>
</clipPath>
</defs>
</svg>
