<svg width="60" height="60" viewBox="0 0 60 60" fill="none" xmlns="http://www.w3.org/2000/svg">
<rect width="60" height="60" rx="30" fill="#E7EBFC"/>
<path d="M41.25 41.25L35.6425 35.6325M38.75 28.125C38.75 30.9429 37.6306 33.6454 35.638 35.638C33.6454 37.6306 30.9429 38.75 28.125 38.75C25.3071 38.75 22.6046 37.6306 20.612 35.638C18.6194 33.6454 17.5 30.9429 17.5 28.125C17.5 25.3071 18.6194 22.6046 20.612 20.612C22.6046 18.6194 25.3071 17.5 28.125 17.5C30.9429 17.5 33.6454 18.6194 35.638 20.612C37.6306 22.6046 38.75 25.3071 38.75 28.125V28.125Z" stroke="#EEB035" stroke-width="2.5" stroke-linecap="round"/>
</svg>
