<svg width="60" height="60" viewBox="0 0 60 60" fill="none" xmlns="http://www.w3.org/2000/svg">
<rect width="60" height="60" rx="30" fill="#E7EBFC"/>
<path d="M25.1073 38.2637L32.6023 20.7587C32.7283 20.4664 32.9611 20.2331 33.2532 20.1065C33.5453 19.9799 33.8747 19.9695 34.1742 20.0774C34.4737 20.1854 34.7207 20.4036 34.8649 20.6875C35.009 20.9713 35.0394 21.2995 34.9498 21.605L34.8998 21.7425L27.4048 39.2475C27.2789 39.5399 27.0461 39.7732 26.754 39.8998C26.4618 40.0264 26.1324 40.0368 25.8329 39.9288C25.5334 39.8208 25.2864 39.6027 25.1423 39.3188C24.9982 39.0349 24.9678 38.7068 25.0573 38.4012L25.1073 38.2637L32.6023 20.7587L25.1073 38.2625V38.2637ZM17.8661 29.1162L22.8661 24.1163C23.091 23.8921 23.3929 23.7619 23.7103 23.7522C24.0277 23.7425 24.337 23.854 24.5752 24.0641C24.8134 24.2741 24.9627 24.5669 24.9928 24.8831C25.0229 25.1992 24.9316 25.515 24.7373 25.7662L24.6336 25.8837L20.5173 30L24.6336 34.1162C24.8601 34.3407 24.9924 34.6432 25.0032 34.9619C25.014 35.2807 24.9026 35.5915 24.6917 35.8307C24.4809 36.07 24.1866 36.2196 23.869 36.249C23.5515 36.2784 23.2347 36.1853 22.9836 35.9887L22.8661 35.8837L17.8661 30.8837C17.6509 30.6685 17.5216 30.3821 17.5025 30.0784C17.4834 29.7746 17.5758 29.4743 17.7623 29.2337L17.8661 29.1162L22.8661 24.1163L17.8661 29.1162ZM35.3661 24.115C35.5813 23.8998 35.8677 23.7705 36.1715 23.7514C36.4753 23.7323 36.7756 23.8247 37.0161 24.0113L37.1323 24.115L42.1336 29.1162C42.3488 29.3315 42.4781 29.6179 42.4972 29.9216C42.5163 30.2254 42.4239 30.5257 42.2373 30.7662L42.1336 30.885L37.1323 35.8787C36.9074 36.1029 36.6055 36.2331 36.2881 36.2428C35.9707 36.2525 35.6614 36.141 35.4232 35.9309C35.185 35.7209 35.0357 35.4281 35.0056 35.1119C34.9755 34.7958 35.0668 34.48 35.2611 34.2287L35.3661 34.11L39.4798 30L35.3636 25.8825C35.1292 25.6481 34.9976 25.3302 34.9976 24.9987C34.9976 24.6673 35.1292 24.3494 35.3636 24.115H35.3661Z" fill="#EEB035"/>
</svg>
