<svg width="60" height="60" viewBox="0 0 60 60" fill="none" xmlns="http://www.w3.org/2000/svg">
<rect width="60" height="60" rx="30" fill="#E7EBFC"/>
<path d="M28.7222 31.2778C28.4694 31.2778 28.2224 31.3527 28.0123 31.4931C27.8021 31.6335 27.6384 31.8331 27.5417 32.0666C27.4449 32.3001 27.4196 32.557 27.4689 32.8048C27.5182 33.0527 27.6399 33.2804 27.8186 33.4591C27.9973 33.6378 28.225 33.7595 28.4729 33.8088C28.7208 33.8581 28.9777 33.8328 29.2112 33.7361C29.4446 33.6394 29.6442 33.4756 29.7846 33.2654C29.925 33.0553 29.9999 32.8083 29.9999 32.5556C29.9999 32.2167 29.8653 31.8917 29.6257 31.652C29.3861 31.4124 29.0611 31.2778 28.7222 31.2778ZM23.6111 31.2778C23.3583 31.2778 23.1113 31.3527 22.9012 31.4931C22.691 31.6335 22.5273 31.8331 22.4305 32.0666C22.3338 32.3001 22.3085 32.557 22.3578 32.8048C22.4071 33.0527 22.5288 33.2804 22.7075 33.4591C22.8862 33.6378 23.1139 33.7595 23.3618 33.8088C23.6096 33.8581 23.8666 33.8328 24.1 33.7361C24.3335 33.6394 24.5331 33.4756 24.6735 33.2654C24.8139 33.0553 24.8888 32.8083 24.8888 32.5556C24.8888 32.2167 24.7542 31.8917 24.5146 31.652C24.275 31.4124 23.9499 31.2778 23.6111 31.2778ZM42.7777 19.7778C42.7777 18.7611 42.3739 17.7861 41.655 17.0672C40.9361 16.3483 39.9611 15.9444 38.9444 15.9444H21.0555C20.0388 15.9444 19.0638 16.3483 18.3449 17.0672C17.626 17.7861 17.2222 18.7611 17.2222 19.7778V24.8889C17.2278 25.8345 17.5828 26.7447 18.2188 27.4444C17.5828 28.1442 17.2278 29.0544 17.2222 30V35.1111C17.2222 36.1278 17.626 37.1028 18.3449 37.8217C19.0638 38.5406 20.0388 38.9444 21.0555 38.9444H28.7222V41.5H18.4999C18.1611 41.5 17.8361 41.6346 17.5964 41.8743C17.3568 42.1139 17.2222 42.4389 17.2222 42.7778C17.2222 43.1167 17.3568 43.4417 17.5964 43.6813C17.8361 43.9209 18.1611 44.0556 18.4999 44.0556H41.4999C41.8388 44.0556 42.1638 43.9209 42.4035 43.6813C42.6431 43.4417 42.7777 43.1167 42.7777 42.7778C42.7777 42.4389 42.6431 42.1139 42.4035 41.8743C42.1638 41.6346 41.8388 41.5 41.4999 41.5H31.2777V38.9444H38.9444C39.9611 38.9444 40.9361 38.5406 41.655 37.8217C42.3739 37.1028 42.7777 36.1278 42.7777 35.1111V30C42.7721 29.0544 42.4171 28.1442 41.7811 27.4444C42.4171 26.7447 42.7721 25.8345 42.7777 24.8889V19.7778ZM40.2222 35.1111C40.2222 35.45 40.0875 35.775 39.8479 36.0146C39.6083 36.2543 39.2833 36.3889 38.9444 36.3889H21.0555C20.7166 36.3889 20.3916 36.2543 20.152 36.0146C19.9123 35.775 19.7777 35.45 19.7777 35.1111V30C19.7777 29.6611 19.9123 29.3361 20.152 29.0965C20.3916 28.8568 20.7166 28.7222 21.0555 28.7222H38.9444C39.2833 28.7222 39.6083 28.8568 39.8479 29.0965C40.0875 29.3361 40.2222 29.6611 40.2222 30V35.1111ZM40.2222 24.8889C40.2222 25.2278 40.0875 25.5528 39.8479 25.7924C39.6083 26.032 39.2833 26.1667 38.9444 26.1667H21.0555C20.7166 26.1667 20.3916 26.032 20.152 25.7924C19.9123 25.5528 19.7777 25.2278 19.7777 24.8889V19.7778C19.7777 19.4389 19.9123 19.1139 20.152 18.8743C20.3916 18.6346 20.7166 18.5 21.0555 18.5H38.9444C39.2833 18.5 39.6083 18.6346 39.8479 18.8743C40.0875 19.1139 40.2222 19.4389 40.2222 19.7778V24.8889ZM28.7222 21.0556C28.4694 21.0556 28.2224 21.1305 28.0123 21.2709C27.8021 21.4113 27.6384 21.6109 27.5417 21.8443C27.4449 22.0778 27.4196 22.3347 27.4689 22.5826C27.5182 22.8305 27.6399 23.0582 27.8186 23.2369C27.9973 23.4156 28.225 23.5373 28.4729 23.5866C28.7208 23.6359 28.9777 23.6106 29.2112 23.5138C29.4446 23.4171 29.6442 23.2534 29.7846 23.0432C29.925 22.8331 29.9999 22.5861 29.9999 22.3333C29.9999 21.9944 29.8653 21.6694 29.6257 21.4298C29.3861 21.1902 29.0611 21.0556 28.7222 21.0556ZM23.6111 21.0556C23.3583 21.0556 23.1113 21.1305 22.9012 21.2709C22.691 21.4113 22.5273 21.6109 22.4305 21.8443C22.3338 22.0778 22.3085 22.3347 22.3578 22.5826C22.4071 22.8305 22.5288 23.0582 22.7075 23.2369C22.8862 23.4156 23.1139 23.5373 23.3618 23.5866C23.6096 23.6359 23.8666 23.6106 24.1 23.5138C24.3335 23.4171 24.5331 23.2534 24.6735 23.0432C24.8139 22.8331 24.8888 22.5861 24.8888 22.3333C24.8888 21.9944 24.7542 21.6694 24.5146 21.4298C24.275 21.1902 23.9499 21.0556 23.6111 21.0556Z" fill="#EEB035"/>
</svg>
