<svg width="60" height="60" viewBox="0 0 60 60" fill="none" xmlns="http://www.w3.org/2000/svg">
<rect width="60" height="60" rx="30" fill="#E7EBFC"/>
<path d="M27.5 42.5H32.5M25 33.75H35M21.25 26.25C21.25 23.9294 22.1719 21.7038 23.8128 20.0628C25.4538 18.4219 27.6794 17.5 30 17.5C32.3206 17.5 34.5462 18.4219 36.1872 20.0628C37.8281 21.7038 38.75 23.9294 38.75 26.25C38.7508 27.6588 38.4101 29.0469 37.757 30.2952C37.1039 31.5435 36.1579 32.6149 35 33.4175L34.3225 36.625C34.2328 37.2162 33.9342 37.7557 33.4808 38.1456C33.0274 38.5354 32.4492 38.7499 31.8513 38.75H28.1488C27.5508 38.7499 26.9726 38.5354 26.5192 38.1456C26.0658 37.7557 25.7672 37.2162 25.6775 36.625L25 33.4312C23.8418 32.6258 22.8957 31.5519 22.2427 30.3014C21.5897 29.0508 21.2491 27.6608 21.25 26.25Z" stroke="#EEB035" stroke-width="2.5" stroke-linecap="round" stroke-linejoin="round"/>
</svg>
