<svg width="182" height="182" viewBox="0 0 182 182" fill="none" xmlns="http://www.w3.org/2000/svg">
<path d="M178.149 27.6694H172.759C171.762 27.6694 170.863 27.0699 170.482 26.1483C170.1 25.2281 170.311 24.1678 171.017 23.4632L174.828 19.6517C176.007 18.4728 176.007 16.5624 174.828 15.3836L166.292 6.84728C165.726 6.28144 164.959 5.96347 164.159 5.96347C163.357 5.96347 162.591 6.28143 162.025 6.84728L158.212 10.6588V10.6601C157.507 11.3648 156.447 11.5749 155.527 11.1937C154.607 10.8124 154.006 9.91376 154.006 8.91676V3.5263C154.006 1.85974 152.655 0.508423 150.988 0.508423H138.916C137.25 0.508423 135.899 1.85974 135.899 3.5263V8.91676C135.899 9.91373 135.298 10.8124 134.378 11.1937C133.457 11.5749 132.397 11.3634 131.692 10.6588L127.88 6.84728C127.314 6.28144 126.547 5.96348 125.745 5.96348C124.945 5.96348 124.179 6.28143 123.613 6.84728L115.076 15.3836C113.898 16.5624 113.898 18.4729 115.076 19.6517L118.888 23.4632C119.593 24.1678 119.804 25.2281 119.423 26.1483C119.041 27.0685 118.143 27.6694 117.146 27.6694H111.755C110.089 27.6694 108.738 29.0207 108.738 30.6873V42.7588C108.738 44.4254 110.089 45.7767 111.755 45.7767H117.146C118.143 45.7767 119.041 46.3762 119.423 47.2978C119.804 48.218 119.594 49.2783 118.888 49.9829L115.076 53.7944C113.898 54.9733 113.898 56.8837 115.076 58.0625L123.613 66.5988C124.179 67.1647 124.945 67.4826 125.745 67.4826C126.547 67.4826 127.314 67.1647 127.88 66.5988L131.692 62.7873V62.786C132.397 62.0814 133.457 61.8712 134.378 62.2525C135.298 62.6338 135.899 63.5324 135.899 64.5294V69.9198C135.899 71.5864 137.25 72.9377 138.916 72.9377H150.988C152.655 72.9377 154.006 71.5864 154.006 69.9198V64.5294C154.006 63.5324 154.607 62.6338 155.527 62.2525C156.447 61.8712 157.507 62.0827 158.212 62.7873L162.025 66.5988C162.591 67.1647 163.357 67.4826 164.159 67.4826C164.959 67.4826 165.726 67.1647 166.292 66.5988L174.828 58.0625C176.007 56.8837 176.007 54.9733 174.828 53.7944L171.017 49.9829C170.312 49.2783 170.1 48.218 170.482 47.2978C170.863 46.3776 171.762 45.7767 172.759 45.7767H178.149C179.816 45.7767 181.167 44.4254 181.167 42.7588V30.6873C181.167 29.0207 179.816 27.6694 178.149 27.6694ZM175.131 39.7409H172.759C170.505 39.7409 168.342 40.6369 166.748 42.2307C165.155 43.8245 164.259 45.987 164.259 48.241C164.259 50.4949 165.155 52.6574 166.748 54.2512L168.427 55.9285L164.159 60.1967L162.48 58.518V58.5193C160.886 56.9255 158.724 56.0296 156.47 56.0296C154.216 56.0296 152.054 56.9242 150.46 58.5193C148.866 60.1132 147.97 62.2743 147.97 64.5296V66.9021H141.934V64.5296C141.934 62.2742 141.038 60.1131 139.444 58.5193C137.851 56.9255 135.689 56.0296 133.434 56.0296C131.18 56.0296 129.019 56.9242 127.424 58.5193L125.745 60.198L121.477 55.9299L123.156 54.2525V54.2512C124.751 52.6574 125.646 50.4949 125.646 48.241C125.646 45.987 124.751 43.8245 123.156 42.2307C121.562 40.6369 119.4 39.7409 117.146 39.7409H114.773V33.7052H117.146C119.4 33.7052 121.562 32.8092 123.156 31.2154C124.75 29.6216 125.646 27.4591 125.646 25.2052C125.646 22.9512 124.75 20.7887 123.156 19.1949L121.477 17.5176L125.745 13.2494L127.424 14.9281V14.9268C129.018 16.5206 131.18 17.4166 133.434 17.4166C135.688 17.4166 137.851 16.5219 139.444 14.9268C141.038 13.333 141.934 11.1719 141.934 8.91654V6.54401H147.97V8.91654C147.97 11.1719 148.866 13.333 150.46 14.9268C152.054 16.5206 154.215 17.4166 156.47 17.4166C158.724 17.4166 160.885 16.5219 162.48 14.9268L164.159 13.2481L168.427 17.5162L166.748 19.1936V19.1949C165.153 20.7888 164.259 22.9512 164.259 25.2052C164.259 27.4592 165.153 29.6216 166.748 31.2154C168.342 32.8092 170.505 33.7052 172.759 33.7052H175.131V39.7409Z" fill="#343336"/>
<path d="M144.952 24.6516C141.751 24.6516 138.681 25.9234 136.416 28.1868C134.153 30.4516 132.881 33.5221 132.881 36.7231C132.881 39.9242 134.153 42.9948 136.416 45.2594C138.681 47.5228 141.751 48.7947 144.952 48.7947C148.153 48.7947 151.224 47.5228 153.489 45.2594C155.752 42.9947 157.024 39.9242 157.024 36.7231C157.02 33.522 155.747 30.4542 153.485 28.191C151.221 25.9289 148.153 24.6558 144.952 24.6516V24.6516ZM144.952 42.7589C143.352 42.7589 141.816 42.123 140.684 40.9913C139.553 39.8596 138.917 38.3237 138.917 36.7231C138.917 35.1226 139.553 33.5867 140.684 32.455C141.816 31.3233 143.352 30.6874 144.952 30.6874C146.553 30.6874 148.089 31.3233 149.221 32.455C150.352 33.5867 150.988 35.1226 150.988 36.7231C150.987 38.3237 150.35 39.8569 149.218 40.9885C148.086 42.1202 146.553 42.7575 144.952 42.7588L144.952 42.7589Z" fill="#343336"/>
<path d="M9.1469 181.582H154.005C156.406 181.579 158.707 180.624 160.405 178.927C162.101 177.23 163.056 174.929 163.059 172.528V75.9556H157.023V172.528C157.022 174.194 155.672 175.544 154.005 175.546H9.14701C7.48045 175.544 6.13047 174.194 6.12913 172.528V48.7947H102.701V42.7589H6.12913V33.7053C6.13047 32.0387 7.48045 30.6887 9.14701 30.6874H102.701V24.6516H9.14701C6.74619 24.6543 4.44498 25.6095 2.74737 27.3057C1.05115 29.0033 0.0959519 31.3045 0.0932617 33.7054V172.528C0.0959561 174.929 1.05115 177.23 2.74737 178.928C4.44494 180.624 6.74615 181.579 9.14701 181.582L9.1469 181.582Z" fill="#343336"/>
<path d="M15.183 36.7234C15.183 38.39 13.8317 39.7413 12.1651 39.7413C10.4985 39.7413 9.14722 38.39 9.14722 36.7234C9.14722 35.0569 10.4985 33.7056 12.1651 33.7056C13.8317 33.7056 15.183 35.0569 15.183 36.7234Z" fill="#343336"/>
<path d="M24.2369 36.7234C24.2369 38.39 22.8856 39.7413 21.2191 39.7413C19.5525 39.7413 18.2012 38.39 18.2012 36.7234C18.2012 35.0569 19.5525 33.7056 21.2191 33.7056C22.8856 33.7056 24.2369 35.0569 24.2369 36.7234Z" fill="#343336"/>
<path d="M33.2903 36.7234C33.2903 38.39 31.939 39.7413 30.2724 39.7413C28.6058 39.7413 27.2545 38.39 27.2545 36.7234C27.2545 35.0569 28.6058 33.7056 30.2724 33.7056C31.939 33.7056 33.2903 35.0569 33.2903 36.7234Z" fill="#343336"/>
<path d="M129.863 85.0091H84.5943V78.9733H99.6837C101.35 78.9733 102.702 77.622 102.702 75.9554V60.866C102.702 59.1995 101.35 57.8481 99.6837 57.8481H63.4691C61.8026 57.8481 60.4513 59.1995 60.4513 60.866V75.9554C60.4513 77.622 61.8026 78.9733 63.4691 78.9733H78.5585V85.0091H33.2903C31.6238 85.0091 30.2724 86.3604 30.2724 88.027V100.098H15.183C13.5165 100.098 12.1652 101.45 12.1652 103.116V118.206C12.1652 119.872 13.5165 121.224 15.183 121.224H24.2367V133.295C24.2367 134.962 25.588 136.313 27.2546 136.313H33.2903V145.367H21.2188C19.5522 145.367 18.2009 146.718 18.2009 148.385V163.474C18.2009 165.141 19.5522 166.492 21.2188 166.492H51.3976C53.0642 166.492 54.4155 165.141 54.4155 163.474V148.385C54.4155 146.718 53.0642 145.367 51.3976 145.367H39.3261V133.295C39.3261 131.629 37.9748 130.277 36.3082 130.277H30.2724V121.224H51.3976C53.0642 121.224 54.4155 119.872 54.4155 118.206V103.116C54.4155 101.45 53.0642 100.098 51.3976 100.098H36.3082V91.0448H78.5585V100.098H63.4691C61.8026 100.098 60.4513 101.45 60.4513 103.116V118.206C60.4513 119.872 61.8026 121.224 63.4691 121.224H78.5585V130.277H63.4691C61.8026 130.277 60.4513 131.629 60.4513 133.295V148.385C60.4513 150.051 61.8026 151.402 63.4691 151.402H99.6837C101.35 151.402 102.702 150.051 102.702 148.385V133.295C102.702 131.629 101.35 130.277 99.6837 130.277H84.5943V121.224H99.6837C101.35 121.224 102.702 119.872 102.702 118.206V103.116C102.702 101.45 101.35 100.098 99.6837 100.098H84.5943V91.0448H126.845V100.098H111.755C110.089 100.098 108.737 101.45 108.737 103.116V118.206C108.737 119.872 110.089 121.224 111.755 121.224H132.88V130.277H126.845C125.178 130.277 123.827 131.629 123.827 133.295V145.367H111.755C110.089 145.367 108.737 146.718 108.737 148.385V163.474C108.737 165.141 110.089 166.492 111.755 166.492H141.934C143.601 166.492 144.952 165.141 144.952 163.474V148.385C144.952 146.718 143.601 145.367 141.934 145.367H129.863V136.313H135.898C137.565 136.313 138.916 134.962 138.916 133.295V121.224H147.97C149.636 121.224 150.988 119.872 150.988 118.206V103.116C150.988 101.45 149.636 100.098 147.97 100.098H132.88V88.027C132.88 86.3604 131.529 85.0091 129.863 85.0091ZM66.487 63.8839H96.6658V72.9375H66.487V63.8839ZM48.3797 160.456H24.2367V151.402H48.3797V160.456ZM48.3797 115.188H18.2009V106.134H48.3797V115.188ZM96.6658 145.367H66.487V136.313H96.6658V145.367ZM96.6658 115.188H66.487V106.134H96.6658V115.188ZM138.916 160.456H114.773V151.402H138.916V160.456ZM144.952 115.188H114.773V106.134H144.952V115.188Z" fill="#343336"/>
</svg>
