<svg width="180" height="179" viewBox="0 0 180 179" fill="none" xmlns="http://www.w3.org/2000/svg">
<path d="M172.821 83.758C171.006 66.3689 163.97 49.9374 152.639 36.6201C154.195 34.1896 154.525 31.1728 153.533 28.463C152.54 25.7545 150.34 23.664 147.583 22.812C144.826 21.9601 141.83 22.4446 139.482 24.1223C126.834 14.3741 111.71 8.35985 95.8218 6.75641C95.0607 4.19104 93.2247 2.08243 90.7902 0.973308C88.3542 -0.13596 85.5588 -0.13596 83.1242 0.973308C80.6882 2.08258 78.8537 4.19104 78.0912 6.75641C62.202 8.35703 47.0783 14.3713 34.4308 24.1209C32.0829 22.4446 29.0881 21.9615 26.3315 22.8134C23.5762 23.6653 21.3757 25.7559 20.3846 28.4644C19.3923 31.1729 19.7212 34.1897 21.275 36.6201C9.52844 50.3968 2.41178 67.5188 0.930949 85.5619C-0.549918 103.608 3.67939 121.661 13.0228 137.167C22.3665 152.677 36.3494 164.854 52.9944 171.979C69.639 179.103 88.1031 180.813 105.773 176.868C123.443 172.922 139.425 163.52 151.459 149.993C163.492 136.464 170.967 119.496 172.826 101.485C175.392 100.724 177.502 98.8876 178.611 96.4516C179.72 94.017 179.72 91.2203 178.611 88.7843C177.501 86.3496 175.392 84.5137 172.826 83.7527L172.821 83.758ZM95.2316 135.941C94.7774 136.093 94.3645 136.347 94.0259 136.686L86.5636 144.148L79.4181 139.385L79.4195 139.383C78.3019 138.639 76.8307 138.702 75.7834 139.542L60.3691 151.873C59.6369 152.458 59.2116 153.344 59.2116 154.28V165.334L57.4128 167.133C52.0039 164.981 46.8458 162.243 42.0302 158.97L43.5524 149.84L54.8956 141.332C55.6718 140.75 56.1287 139.836 56.1287 138.866V126.534C56.1287 125.717 55.8039 124.932 55.2259 124.354C54.6478 123.776 53.8634 123.452 53.0458 123.452H43.7972V114.203C43.7972 113.172 43.2825 112.21 42.4251 111.638L35.1351 106.778L37.4734 99.7646C37.7748 98.8617 37.6413 97.8708 37.1142 97.0794L30.9485 87.8308C30.1764 86.6748 28.7272 86.1766 27.4086 86.617L18.6336 89.5402H10.9141L7.03037 86.6266C7.39094 81.7589 8.19746 76.9334 9.43747 72.2129C11.5927 75.3247 14.8503 77.5006 18.5511 78.2986C22.252 79.0983 26.1167 78.461 29.3644 76.515L31.349 75.3245C34.6342 73.3537 38.5523 72.7275 42.2877 73.5753C46.0231 74.423 49.286 76.6802 51.3971 79.8759C53.5084 83.0717 54.3052 86.9595 53.6198 90.728L51.8472 100.471C51.0669 104.766 51.8802 109.2 54.1373 112.938C56.393 116.676 59.937 119.462 64.1029 120.772C68.2674 122.082 72.768 121.826 76.7592 120.054L88.1521 114.992C90.3239 114.037 92.7323 113.757 95.0651 114.191C97.3979 114.623 99.5463 115.749 101.231 117.419C103.804 119.977 105.042 123.585 104.581 127.183L103.844 133.071L95.2316 135.941ZM29.0645 40.8974C30.6086 40.8987 32.1294 40.5106 33.4851 39.7702C38.5664 43.8868 44.1071 47.4016 49.9948 50.2463C50.2109 52.7621 51.4454 55.0827 53.4149 56.6639C52.2781 61.284 51.4193 65.9675 50.8426 70.6908C49.7196 69.9283 48.525 69.2746 47.2767 68.7392C41.0683 66.0872 33.9668 66.5702 28.1739 70.0357L26.1893 71.2262C24.4139 72.29 22.3193 72.6891 20.2783 72.3533C18.2372 72.0161 16.3808 70.966 15.043 69.3874C13.7039 67.8102 12.9676 65.8092 12.9676 63.7407V61.7643C16.2074 54.0008 20.6515 46.7975 26.1344 40.4182C27.0799 40.7362 28.0695 40.8972 29.0659 40.8972L29.0645 40.8974ZM83.8725 18.1035V46.9105V46.9092C81.4076 47.7872 79.4286 49.6631 78.4171 52.0757C75.0493 51.7082 71.7091 51.1233 68.417 50.3265C68.4431 50.0416 68.4583 49.7539 68.4583 49.4622C68.4583 46.521 67.0572 43.7562 64.6859 42.015C68.5974 32.5448 73.7844 23.6556 80.1073 15.5933C81.1354 16.7273 82.429 17.5903 83.8729 18.1036L83.8725 18.1035ZM147.778 40.42C158.33 52.7363 164.911 67.9551 166.656 84.0804C164.238 85.0878 162.357 87.0697 161.476 89.5386H129.587C128.649 86.9058 126.576 84.8344 123.942 83.9C123.855 75.2405 122.823 66.6166 120.865 58.1815C122.668 57.5429 124.228 56.362 125.334 54.8C126.437 53.2393 127.032 51.3744 127.035 49.4615C127.035 49.1972 127.021 48.9371 126.999 48.6797C131.746 46.1405 136.24 43.1553 140.422 39.7669C142.676 40.9987 145.342 41.2354 147.778 40.4193L147.778 40.42ZM105.59 113.059H105.589C101.501 109.005 95.7248 107.147 90.0407 108.057V101.341C92.6708 100.403 94.7394 98.3348 95.6766 95.7047H112.152H112.151C113.087 98.3293 115.148 100.395 117.771 101.335C117.679 111.302 116.257 121.211 113.542 130.803C112.521 130.467 111.494 130.15 110.459 129.852L110.697 127.947C111.401 122.46 109.514 116.958 105.589 113.06L105.59 113.059ZM59.2131 46.3778C60.4601 46.3778 61.5845 47.1293 62.0606 48.2812C62.5382 49.4331 62.2753 50.7585 61.3932 51.6407C60.511 52.5229 59.1856 52.7858 58.0336 52.3082C56.8817 51.832 56.1303 50.7076 56.1303 49.4607C56.1316 47.7582 57.5107 46.3792 59.2131 46.3778ZM59.2627 58.7093C61.6904 58.6983 64.0149 57.7294 65.7325 56.0145C69.7913 57.0605 73.9213 57.8051 78.0886 58.2427C78.9336 61.0834 81.0834 63.3501 83.8759 64.345V83.9034V83.9021C81.2459 84.8393 79.1773 86.9078 78.2401 89.5379H59.974C60.3208 84.8696 59.0891 80.2206 56.4783 76.3351C56.9407 70.3966 57.871 64.5019 59.2625 58.7092L59.2627 58.7093ZM95.8272 58.2468C100.845 57.7197 105.805 56.7467 110.651 55.3401C111.675 56.5815 113.004 57.5367 114.51 58.1092C116.59 66.5542 117.687 75.2108 117.777 83.9077C115.153 84.8463 113.087 86.9121 112.151 89.5379H95.6769C94.7396 86.9078 92.6711 84.8393 90.0411 83.9021V64.3451C92.8322 63.3514 94.9807 61.086 95.827 58.2466L95.8272 58.2468ZM117.787 52.5434C116.54 52.5434 115.416 51.7919 114.94 50.64C114.462 49.4881 114.725 48.1627 115.607 47.2805C116.489 46.3983 117.815 46.1354 118.967 46.613C120.118 47.0892 120.87 48.2136 120.87 49.4605C120.869 51.163 119.49 52.542 117.787 52.5434ZM86.9584 95.7035C85.7115 95.7035 84.5871 94.952 84.1109 93.8001C83.6333 92.6482 83.8962 91.3228 84.7784 90.4406C85.6606 89.5584 86.9859 89.2955 88.1379 89.7731C89.2898 90.2493 90.0413 91.3737 90.0413 92.6206C90.0399 94.3231 88.6609 95.7021 86.9584 95.7035ZM86.9584 52.5434C88.2053 52.5434 89.3298 53.2948 89.8059 54.4467C90.2835 55.5987 90.0206 56.924 89.1384 57.8063C88.2563 58.6885 86.9309 58.9513 85.7789 58.4737C84.627 57.9975 83.8756 56.8731 83.8756 55.6262C83.8769 53.9238 85.256 52.5447 86.9584 52.5434ZM57.9161 101.573L58.9813 95.7049H78.2381C79.1754 98.3349 81.2453 100.404 83.8753 101.341V110.143L74.2565 114.418C71.6388 115.581 68.6879 115.749 65.956 114.889C63.2241 114.03 60.8994 112.202 59.4199 109.75C57.9391 107.299 57.4051 104.39 57.9171 101.573L57.9161 101.573ZM120.87 95.7049C119.623 95.7049 118.499 94.9534 118.022 93.8015C117.545 92.6496 117.808 91.3242 118.69 90.442C119.572 89.5598 120.897 89.2969 122.049 89.7745C123.201 90.2507 123.953 91.3751 123.953 92.622C123.951 94.3245 122.572 95.7035 120.87 95.7049ZM136.301 35.175C132.594 38.1519 128.625 40.7876 124.444 43.0503C123.288 41.8446 121.825 40.9748 120.212 40.5358C118.601 40.0968 116.899 40.105 115.29 40.5578C111.4 30.9129 106.255 21.8225 99.9889 13.5209C113.092 15.6542 125.452 21.034 135.94 29.172C135.387 31.1566 135.514 33.2706 136.302 35.1753L136.301 35.175ZM93.8066 15.592C100.632 24.2969 106.132 33.9627 110.131 44.2764C109.09 45.8054 108.536 47.6111 108.537 49.4609V49.5255C104.269 50.7408 99.9063 51.5941 95.4938 52.0758C94.4836 49.6632 92.5045 47.7859 90.0397 46.9079V18.1023C91.4835 17.5889 92.7771 16.726 93.8065 15.5919L93.8066 15.592ZM58.7571 40.2232C55.8958 40.3663 53.2629 41.8252 51.6281 44.1759C46.6515 41.6808 41.9542 38.6638 37.6136 35.1779C38.4022 33.2717 38.5302 31.1578 37.9755 29.1717C48.4615 21.0337 60.819 15.6526 73.9199 13.522C67.7296 21.7274 62.6317 30.7037 58.7589 40.2232H58.7571ZM111.701 136.687C111.215 138.1 110.701 139.506 110.157 140.905H110.156C109.613 139.597 109.421 138.168 109.596 136.761L109.685 136.051C110.359 136.255 111.031 136.467 111.701 136.687L111.701 136.687ZM117.479 138.85H117.477C119.944 139.888 122.354 141.051 124.702 142.334L123.854 143.278C122.758 144.486 121.328 145.344 119.746 145.74C118.163 146.136 116.499 146.054 114.963 145.503C115.87 143.303 116.708 141.086 117.479 138.85L117.479 138.85ZM131.453 134.83L128.932 137.632C125.837 135.874 122.636 134.31 119.345 132.953C122.3 122.675 123.844 112.042 123.938 101.347C126.575 100.414 128.65 98.3412 129.589 95.7055H161.478H161.477C162.356 98.1745 164.238 100.158 166.657 101.167C165.746 109.811 163.427 118.249 159.791 126.146C154.725 124.877 149.407 125.015 144.414 126.545C139.419 128.075 134.938 130.94 131.452 134.83L131.453 134.83ZM144.849 28.5649C146.096 28.5649 147.22 29.3163 147.696 30.4683C148.174 31.6202 147.911 32.9455 147.029 33.8278C146.147 34.71 144.821 34.9728 143.669 34.4953C142.518 34.019 141.766 32.8946 141.766 31.6477C141.768 29.9453 143.147 28.5663 144.849 28.5649ZM86.9581 6.30096C88.205 6.30096 89.3294 7.0524 89.8056 8.20434C90.2832 9.35627 90.0203 10.6816 89.1381 11.5638C88.2559 12.4461 86.9306 12.7089 85.7786 12.2313C84.6266 11.7551 83.8752 10.6307 83.8752 9.38382C83.8766 7.68138 85.2556 6.30233 86.9581 6.30096ZM29.0672 28.5649C30.3141 28.5649 31.4385 29.3163 31.9147 30.4683C32.3922 31.6202 32.1294 32.9455 31.2472 33.8278C30.365 34.71 29.0396 34.9728 27.8877 34.4953C26.7357 34.019 25.9843 32.8946 25.9843 31.6477C25.9857 29.9453 27.3647 28.5663 29.0672 28.5649ZM6.82226 94.1788L8.03613 95.0885C8.57012 95.489 9.21837 95.7051 9.88585 95.7051H19.1344C19.4661 95.7051 19.7951 95.6514 20.1088 95.5468L27.1223 93.2085L31.1451 99.2436L28.5399 107.062C28.1008 108.381 28.5977 109.83 29.7551 110.602L37.6314 115.852V126.533C37.6314 127.351 37.9562 128.135 38.5342 128.713C39.1123 129.291 39.8967 129.616 40.7143 129.616H49.9628V137.323L38.8645 145.647C38.2301 146.123 37.8034 146.825 37.6741 147.607L36.4712 154.828H36.4698C27.4083 147.489 20.0605 138.258 14.9394 127.782C9.81834 117.305 7.04799 105.837 6.82215 94.1783L6.82226 94.1788ZM63.8817 169.387L64.4762 168.792C65.0543 168.214 65.3791 167.43 65.3791 166.612V155.763L77.8758 145.764L85.2486 150.679C86.4721 151.495 88.1002 151.334 89.1393 150.293L97.8732 141.56L103.495 139.685V139.686C104.167 144.68 107.401 148.957 112.023 150.964C116.644 152.969 121.977 152.41 126.084 149.491L124.014 159.841H124.013C123.768 161.066 124.287 162.318 125.326 163.01H125.328C116.015 168.081 105.791 171.254 95.2429 172.348C84.6963 173.443 74.037 172.436 63.8815 169.387H63.8817ZM141.64 151.231C138.384 154.271 134.881 157.035 131.17 159.497L130.465 159.028L133.143 145.638V145.636C133.333 144.685 133.063 143.7 132.415 142.977L136.037 138.954C141.275 133.109 149.177 130.409 156.896 131.825C152.84 139.041 147.694 145.587 141.64 151.231L141.64 151.231ZM170.195 95.7076C168.949 95.7076 167.824 94.9561 167.348 93.8042C166.87 92.6523 167.133 91.3269 168.015 90.4447C168.898 89.5625 170.223 89.2996 171.375 89.7772C172.527 90.2534 173.278 91.3778 173.278 92.6247C173.277 94.3272 171.898 95.7062 170.195 95.7076Z" fill="#343336"/>
</svg>
