<svg width="218" height="218" viewBox="0 0 218 218" fill="none" xmlns="http://www.w3.org/2000/svg">
<g clip-path="url(#clip0_175_1871)">
<g clip-path="url(#clip1_175_1871)">
<path d="M229 -11H-11V229H229V-11Z" fill="#181D2B"/>
<path opacity="0.5" d="M113.863 71.8105C100.736 64.1513 89.8835 71.3096 87.9635 87.8383C87.6295 90.6974 89.8 94.4748 92.4504 96.0192L135.275 121.021C137.925 122.565 140.096 121.313 139.762 118.057C137.842 99.3374 126.969 79.4696 113.863 71.8105Z" fill="url(#paint0_linear_175_1871)"/>
<path opacity="0.5" d="M128.492 50.3563C128.492 61.772 121.897 67.1563 113.758 62.398C105.619 57.6398 99.0242 44.5546 99.0242 33.1389C99.0242 21.7233 105.619 16.3389 113.758 21.0972C121.897 25.8554 128.492 38.9407 128.492 50.3563Z" fill="url(#paint1_linear_175_1871)"/>
<path opacity="0.07" d="M122.294 64.965C109.167 57.3059 98.3146 64.4641 96.3946 80.9928C96.0607 83.852 98.2311 87.6293 100.882 89.1737L143.706 114.175C146.356 115.72 148.527 114.468 148.193 111.212C146.273 92.492 135.421 72.6241 122.294 64.965Z" fill="url(#paint2_linear_175_1871)"/>
<path opacity="0.07" d="M136.923 43.5113C136.923 54.927 130.329 60.3113 122.189 55.5531C114.05 50.7948 107.456 37.7096 107.456 26.2939C107.456 14.8783 114.05 9.49395 122.189 14.2522C130.329 19.0105 136.923 32.0957 136.923 43.5113Z" fill="url(#paint3_linear_175_1871)"/>
<path opacity="0.2" d="M165.285 129.431L128.2 108.019V127.344L165.285 148.756V129.431Z" fill="url(#paint4_linear_175_1871)"/>
<path fill-rule="evenodd" clip-rule="evenodd" d="M135.734 118.85C135.734 120.437 134.795 121.188 133.626 120.52C132.457 119.852 131.518 118.016 131.518 116.43C131.518 114.844 132.457 114.092 133.626 114.76C134.795 115.428 135.734 117.264 135.734 118.85Z" fill="#F2C94C"/>
<path opacity="0.15" d="M137.695 118.162L148.84 124.61V126.927L137.675 120.478L137.695 118.162Z" fill="white"/>
<path opacity="0.15" d="M137.696 122.816L161.445 136.527V138.885L137.696 125.174V122.816Z" fill="white"/>
<path opacity="0.2" d="M89.9461 107.101L52.8608 85.7095V105.035L89.9461 126.447V107.101Z" fill="url(#paint5_linear_175_1871)"/>
<path fill-rule="evenodd" clip-rule="evenodd" d="M60.3949 96.5202C60.3949 98.1062 59.4557 98.8575 58.287 98.1897C57.1183 97.5219 56.1792 95.6854 56.1792 94.0993C56.1792 92.5132 57.1183 91.7619 58.287 92.4297C59.4557 93.0975 60.3949 94.9341 60.3949 96.5202Z" fill="#F2994A"/>
<path opacity="0.15" d="M62.2937 95.9358L69.0137 99.8175V102.176L62.2937 98.2941V95.9358Z" fill="white"/>
<path opacity="0.15" d="M62.3564 100.59L86.106 114.301V116.659L62.3564 102.948V100.59Z" fill="white"/>
<path opacity="0.3" d="M113.842 128.471L184.11 169.042L184.13 205.668L120.061 168.687L113.863 170.711L113.842 128.471Z" fill="url(#paint6_linear_175_1871)"/>
<path fill-rule="evenodd" clip-rule="evenodd" d="M128.116 148.986C128.116 152.012 126.343 153.41 124.13 152.137C121.918 150.864 120.144 147.379 120.144 144.374C120.144 141.348 121.918 139.95 124.13 141.223C126.322 142.496 128.116 145.981 128.116 148.986Z" fill="#F2C94C"/>
<path opacity="0.15" d="M131.915 147.817L147.317 156.708V159.922L131.915 151.031V147.817Z" fill="white"/>
<path opacity="0.15" d="M131.915 154.266L177.911 180.812V184.026L131.915 157.48V154.266Z" fill="white"/>
<path opacity="0.15" d="M131.915 160.715L167.873 181.48V184.694L131.915 163.929V160.715Z" fill="white"/>
<path opacity="0.3" d="M104.346 138.99L34.0781 98.4399L34.099 135.066L98.1686 172.047L104.367 181.229L104.346 138.99Z" fill="url(#paint7_linear_175_1871)"/>
<path fill-rule="evenodd" clip-rule="evenodd" d="M90.0713 143.017C90.0713 146.043 91.8661 149.508 94.0574 150.781C96.2696 152.054 98.0435 150.635 98.0435 147.609C98.0435 144.583 96.2487 141.118 94.0574 139.845C91.8661 138.593 90.0713 140.012 90.0713 143.017Z" fill="#F2994A"/>
<path opacity="0.15" d="M86.2731 137.487L70.8713 128.596V131.81L86.2731 140.701V137.487Z" fill="white"/>
<path opacity="0.15" d="M86.2939 143.915L40.2974 117.369V120.583L86.273 147.129L86.2939 143.915Z" fill="white"/>
<path opacity="0.15" d="M86.2937 150.363L50.3354 129.598V132.812L86.2937 153.577V150.363Z" fill="white"/>
<path opacity="0.2" d="M63.3375 161.8C64.5897 162.51 65.5914 164.263 65.5914 165.724V172.089L69.8071 174.51C71.0592 175.219 72.061 176.972 72.061 178.412C72.061 179.852 71.0592 180.437 69.8071 179.727L65.5914 177.285V183.65C65.5914 185.09 64.5897 185.675 63.3375 184.965C62.0853 184.256 61.0836 182.503 61.0836 181.063V174.697L56.8679 172.277C55.6158 171.567 54.614 169.814 54.614 168.374C54.614 166.934 55.6158 166.35 56.8679 167.059L61.0836 169.48V163.115C61.0627 161.654 62.0853 161.07 63.3375 161.8Z" fill="url(#paint8_linear_175_1871)"/>
<path opacity="0.2" d="M154.016 80.2625L159.817 91.6572C160.61 93.2225 160.485 94.7877 159.525 95.1633C158.565 95.539 157.146 94.5581 156.353 92.9929L156.29 92.8468V105.494C156.29 106.934 155.289 107.518 154.037 106.809C152.784 106.078 151.783 104.346 151.783 102.906V90.259L151.72 90.3216C150.927 90.9685 149.487 90.3007 148.548 88.819C147.588 87.3372 147.463 85.6259 148.256 84.979L154.016 80.2625Z" fill="url(#paint9_linear_175_1871)"/>
<path opacity="0.2" d="M104.346 100.631L95.4138 95.4764V92.4712L104.346 97.626C105.076 98.0434 106.141 98.899 107.038 100.214C108.019 101.612 108.708 103.386 108.708 105.306C108.708 107.435 108.165 108.645 107.143 108.979C106.183 109.292 105.035 108.749 104.346 108.353L100.673 106.224L100.652 106.203C100.339 106.016 99.8382 105.828 99.4416 105.953C99.1077 106.057 98.7529 106.37 98.7529 107.56C98.7529 108.749 99.1286 109.459 99.4208 109.897C99.7964 110.44 100.297 110.816 100.61 110.983L100.652 111.003L111.88 117.494V120.499L100.715 114.05C99.9425 113.654 98.8364 112.798 97.8764 111.462C96.833 109.981 96.1234 108.123 96.1234 106.057C96.1234 103.991 96.833 102.948 97.8556 102.656C98.8156 102.384 99.9216 102.781 100.694 103.24L104.325 105.348C104.847 105.661 105.243 105.786 105.515 105.703C105.723 105.64 106.099 105.348 106.099 103.824C106.099 102.823 105.786 102.176 105.473 101.758C105.118 101.195 104.659 100.798 104.346 100.631Z" fill="white"/>
<path fill-rule="evenodd" clip-rule="evenodd" d="M97.0625 94.8296C97.0625 97.5217 95.4764 98.7948 93.5355 97.6887C91.5946 96.5617 90.0085 93.473 90.0085 90.76C90.0085 88.0678 91.5946 86.7948 93.5355 87.9009C95.4764 89.0278 97.0625 92.1374 97.0625 94.8296Z" fill="#F2994A"/>
<path fill-rule="evenodd" clip-rule="evenodd" d="M116.471 121.542C116.471 124.235 114.885 125.508 112.944 124.402C111.004 123.275 109.417 120.186 109.417 117.473C109.417 114.781 111.004 113.508 112.944 114.614C114.885 115.741 116.471 118.85 116.471 121.542Z" fill="#F2C94C"/>
</g>
</g>
<defs>
<linearGradient id="paint0_linear_175_1871" x1="165.837" y1="59.313" x2="113.923" y2="97.1833" gradientUnits="userSpaceOnUse">
<stop stop-color="white"/>
<stop offset="1" stop-color="white" stop-opacity="0"/>
</linearGradient>
<linearGradient id="paint1_linear_175_1871" x1="125.496" y1="21.9889" x2="91.9021" y2="46.4948" gradientUnits="userSpaceOnUse">
<stop stop-color="white"/>
<stop offset="1" stop-color="white" stop-opacity="0"/>
</linearGradient>
<linearGradient id="paint2_linear_175_1871" x1="174.272" y1="52.4649" x2="122.357" y2="90.3352" gradientUnits="userSpaceOnUse">
<stop stop-color="white"/>
<stop offset="1" stop-color="white" stop-opacity="0"/>
</linearGradient>
<linearGradient id="paint3_linear_175_1871" x1="133.929" y1="15.1417" x2="100.335" y2="39.6472" gradientUnits="userSpaceOnUse">
<stop stop-color="white"/>
<stop offset="1" stop-color="white" stop-opacity="0"/>
</linearGradient>
<linearGradient id="paint4_linear_175_1871" x1="150.211" y1="121.137" x2="142.199" y2="135.018" gradientUnits="userSpaceOnUse">
<stop stop-color="white"/>
<stop offset="1" stop-color="white" stop-opacity="0"/>
</linearGradient>
<linearGradient id="paint5_linear_175_1871" x1="74.8765" y1="98.8171" x2="66.8695" y2="112.69" gradientUnits="userSpaceOnUse">
<stop stop-color="white"/>
<stop offset="1" stop-color="white" stop-opacity="0"/>
</linearGradient>
<linearGradient id="paint6_linear_175_1871" x1="144.876" y1="129.663" x2="153.938" y2="203.164" gradientUnits="userSpaceOnUse">
<stop stop-color="white"/>
<stop offset="1" stop-color="white" stop-opacity="0"/>
</linearGradient>
<linearGradient id="paint7_linear_175_1871" x1="83.4981" y1="124.327" x2="53.4926" y2="147.822" gradientUnits="userSpaceOnUse">
<stop stop-color="white"/>
<stop offset="1" stop-color="white" stop-opacity="0"/>
</linearGradient>
<linearGradient id="paint8_linear_175_1871" x1="65.6818" y1="169.934" x2="57.8642" y2="176.104" gradientUnits="userSpaceOnUse">
<stop stop-color="white"/>
<stop offset="1" stop-color="white" stop-opacity="0"/>
</linearGradient>
<linearGradient id="paint9_linear_175_1871" x1="154.941" y1="91.7608" x2="150.652" y2="94.1516" gradientUnits="userSpaceOnUse">
<stop stop-color="white"/>
<stop offset="1" stop-color="white" stop-opacity="0"/>
</linearGradient>
<clipPath id="clip0_175_1871">
<rect width="218" height="218" fill="white"/>
</clipPath>
<clipPath id="clip1_175_1871">
<rect width="218" height="218" fill="white"/>
</clipPath>
</defs>
</svg>
