<svg width="44" height="62" viewBox="0 0 44 62" fill="none" xmlns="http://www.w3.org/2000/svg">
<rect opacity="0.01" width="44" height="44" fill="#F2C94C"/>
<path d="M16.5 5.5H9.16667C7.14162 5.5 5.5 7.14162 5.5 9.16667V16.5C5.5 18.525 7.14162 20.1667 9.16667 20.1667H16.5C18.525 20.1667 20.1667 18.525 20.1667 16.5V9.16667C20.1667 7.14162 18.525 5.5 16.5 5.5Z" fill="#F2C94C"/>
<path d="M34.8335 5.5H27.5002C25.4751 5.5 23.8335 7.14162 23.8335 9.16667V16.5C23.8335 18.525 25.4751 20.1667 27.5002 20.1667H34.8335C36.8585 20.1667 38.5002 18.525 38.5002 16.5V9.16667C38.5002 7.14162 36.8585 5.5 34.8335 5.5Z" fill="#F2C94C"/>
<path d="M16.5 23.8335H9.16667C7.14162 23.8335 5.5 25.4751 5.5 27.5002V34.8335C5.5 36.8585 7.14162 38.5002 9.16667 38.5002H16.5C18.525 38.5002 20.1667 36.8585 20.1667 34.8335V27.5002C20.1667 25.4751 18.525 23.8335 16.5 23.8335Z" fill="#F2C94C"/>
<path d="M34.8335 23.8335H27.5002C25.4751 23.8335 23.8335 25.4751 23.8335 27.5002V34.8335C23.8335 36.8585 25.4751 38.5002 27.5002 38.5002H34.8335C36.8585 38.5002 38.5002 36.8585 38.5002 34.8335V27.5002C38.5002 25.4751 36.8585 23.8335 34.8335 23.8335Z" fill="#F2C94C"/>
</svg>
