<svg width="190" height="180" viewBox="0 0 190 180" fill="none" xmlns="http://www.w3.org/2000/svg">
<path d="M161.809 146.985L148.995 142.716L150.618 136.659C152.232 130.655 149.127 124.282 143.407 121.84L139.573 120.202C132.874 117.342 125.161 119.416 120.803 125.242C119.227 127.348 118.802 130.089 119.664 132.573C120.523 135.057 122.558 136.946 125.099 137.625L129.769 138.877C127.882 140.104 126.404 141.977 125.775 144.315L124.146 150.389C123.492 152.823 123.826 155.366 125.087 157.544C125.665 158.547 126.423 159.399 127.294 160.109L126.086 167.503C125.828 169.097 126.816 170.628 128.379 171.045L137.49 173.487C137.757 173.56 138.031 173.594 138.305 173.594C138.852 173.594 139.396 173.452 139.877 173.173C140.598 172.754 141.126 172.069 141.343 171.264L143.236 164.206L157.908 170.978C159.975 171.93 162.157 172.471 164.356 172.643V176.294C164.356 178.028 165.762 179.437 167.501 179.437C169.241 179.437 170.647 178.028 170.647 176.294V172.065C171.854 171.745 173.046 171.323 174.19 170.754C179.332 168.208 182.994 163.539 184.239 157.941L187.133 145.335C188.713 139.023 189.515 132.512 189.515 125.995C189.515 110.395 176.818 97.7014 161.208 97.7014C159.469 97.7014 158.063 99.1105 158.063 100.845C158.063 102.58 159.469 103.989 161.208 103.989C173.345 103.989 183.224 113.861 183.224 125.995C183.224 131.808 182.519 137.608 181.155 143.25L169.68 136.861L170.055 133.948C170.53 130.229 169.231 126.421 166.58 123.772C165.35 122.542 163.362 122.542 162.134 123.772C160.904 125.001 160.904 126.988 162.134 128.216C163.417 129.502 164.046 131.344 163.816 133.145L161.809 146.985ZM132.445 155.866C131.634 155.648 130.954 155.128 130.536 154.401C130.115 153.675 130.004 152.829 130.221 152.015L131.85 145.945C132.304 144.269 134.026 143.276 135.703 143.719L141.78 145.347C143.456 145.796 144.456 147.522 144.007 149.195L142.374 155.272C142.156 156.083 141.638 156.76 140.908 157.177C140.185 157.595 139.33 157.704 138.521 157.491L132.445 155.866ZM125.612 130.513C125.508 130.209 125.398 129.608 125.845 129.007C128.465 125.514 133.094 124.273 137.107 125.983L140.941 127.621C143.8 128.843 145.35 132.027 144.546 135.031L143.407 139.277L137.349 137.652L137.4 137.341C137.658 135.746 136.67 134.215 135.107 133.798L126.729 131.554C126.004 131.358 125.716 130.818 125.612 130.513ZM132.754 165.713L133.264 162.594L136.894 163.565L136.079 166.602L132.754 165.713ZM178.095 156.58C177.265 160.315 174.823 163.428 171.396 165.122C167.971 166.823 164.014 166.873 160.542 165.273L147.436 159.224C147.86 158.499 148.228 157.734 148.453 156.902L150.086 150.825C150.18 150.47 150.205 150.118 150.259 149.762L163.364 154.128C164.245 154.418 165.204 154.311 166 153.83C166.789 153.345 167.327 152.541 167.468 151.623L168.714 143.518L179.653 149.608L178.095 156.58Z" fill="#343336"/>
<path d="M91.02 146.791C91.35 146.9 91.687 146.953 92.0141 146.953C93.3326 146.953 94.5583 146.12 94.9964 144.801C95.5468 143.153 94.6566 141.373 93.0082 140.823L89.2341 139.566L90.5651 130.921L101.449 134.549V138.22L99.4655 147.149C98.6357 150.884 96.194 153.997 92.7665 155.69C89.342 157.391 85.3853 157.442 81.9131 155.842L72.3641 151.438C70.7817 150.708 68.9199 151.4 68.1913 152.975C67.4654 154.549 68.1505 156.417 69.7287 157.145L79.2777 161.552C84.4854 163.954 90.4249 163.869 95.5595 161.329C97.8426 160.201 99.8308 158.651 101.451 156.786L101.45 176.294C101.45 178.028 102.855 179.438 104.595 179.438C106.335 179.438 107.74 178.028 107.74 176.294V125.995C107.74 124.26 106.335 122.851 104.595 122.851C102.855 122.851 101.45 124.26 101.45 125.995V127.922L91.537 124.621L92.2503 119.984C93.6783 110.717 101.523 103.989 110.904 103.989H120.321C120.321 104.98 120.787 105.91 121.579 106.504L134.159 115.935C134.72 116.353 135.382 116.564 136.047 116.564C136.711 116.564 137.373 116.353 137.934 115.935L150.514 106.504C151.306 105.913 151.772 104.98 151.772 103.989V92.9175C159.163 87.9634 164.076 79.617 164.315 70.1284C164.569 69.8983 164.812 69.6625 165.041 69.4085H170.643C175.846 69.4085 180.079 65.1773 180.079 59.9774V53.6901C180.079 53.4599 180.028 53.2466 180.01 53.0206C182.073 50.7134 183.224 47.7831 183.224 44.7181C183.224 39.1564 179.62 34.3342 174.26 32.7189C172.574 32.2122 170.838 33.1624 170.341 34.8226C169.839 36.4857 170.782 38.2372 172.442 38.7395C175.131 39.5493 176.934 41.9519 176.934 44.7182C176.934 45.3189 176.817 45.9069 176.647 46.4725C175.009 45.1112 172.936 44.2593 170.643 44.2593H165.045C164.825 44.0179 164.599 43.7877 164.353 43.5674V37.8146C164.353 36.8715 163.929 35.9789 163.202 35.3811C162.472 34.7875 161.52 34.5419 160.585 34.7299C160.277 34.7931 159.963 34.8281 159.635 34.8281C157.035 34.8281 154.918 32.7118 154.918 30.1126C154.918 29.7982 154.949 29.4811 155.012 29.1723C155.204 28.2475 154.964 27.2861 154.37 26.5535C153.773 25.8209 152.879 25.397 151.933 25.397H151.613C150.116 25.397 148.825 26.4496 148.531 27.9148C148.087 30.0999 146.142 31.6843 143.91 31.6843C142.426 31.6843 141.054 30.9826 140.141 29.763C138.956 28.1687 136.283 28.1687 135.097 29.763C134.185 30.9826 132.814 31.6843 131.33 31.6843C129.097 31.6843 127.153 30.0999 126.709 27.9148C126.414 26.4496 125.121 25.397 123.627 25.397H123.307C122.361 25.397 121.468 25.8209 120.869 26.5535C120.276 27.2861 120.035 28.2474 120.228 29.1723C120.291 29.4811 120.322 29.7982 120.322 30.1126C120.322 32.7118 118.204 34.8281 115.604 34.8281C114.336 34.8281 113.367 34.3004 112.783 33.857C111.83 33.137 110.551 33.0177 109.486 33.5524C108.418 34.0829 107.741 35.1706 107.741 36.3649V43.5702C107.5 43.7906 107.269 44.0165 107.049 44.2621H101.451C100.385 44.2621 99.3785 44.4797 98.4223 44.8066C98.6358 43.8762 99.1146 43.1744 99.5288 42.7099C100.545 41.5745 100.601 39.8778 99.6635 38.6763C99.0443 37.8777 98.3058 36.567 98.3058 34.8281C98.3058 32.678 99.4066 30.6978 101.25 29.5316C102.668 28.632 103.132 26.7809 102.3 25.3227C101.737 24.3318 101.451 23.3003 101.451 22.2533C101.451 18.7855 104.272 15.966 107.741 15.966C108.182 15.966 108.654 16.0319 109.225 16.1667C110.169 16.3926 111.181 16.1695 111.946 15.5534C112.751 14.8994 114.088 14.1205 115.875 14.1205C116.966 14.1205 118.033 14.4222 119.039 15.0158C119.881 15.5099 120.903 15.5913 121.816 15.2236C122.722 14.8559 123.407 14.0882 123.668 13.1451C124.231 11.1059 126.09 9.67859 128.185 9.67859C129.455 9.67859 130.647 10.181 131.54 11.0905C132.266 11.8259 133.314 12.1655 134.323 11.9858C135.343 11.8062 136.21 11.1438 136.641 10.2035C137.673 7.97486 139.906 6.53491 142.338 6.53491C144.489 6.53491 146.467 7.6352 147.637 9.4737C148.53 10.8856 150.379 11.3501 151.842 10.5263C152.839 9.9649 153.874 9.67859 154.918 9.67859C158.388 9.67859 161.209 12.4981 161.209 15.8467C161.196 15.9379 161.161 16.2803 161.155 16.3716C161.089 17.7638 161.944 19.0339 163.263 19.4928C165.797 20.3769 167.499 22.7501 167.499 25.3972C167.499 27.1318 168.904 28.5409 170.644 28.5409C172.384 28.5409 173.789 27.1318 173.789 25.3972C173.789 20.8444 171.301 16.7016 167.415 14.501C166.685 8.2542 161.36 3.39137 154.918 3.39137C153.666 3.39137 152.437 3.58364 151.241 3.95975C148.908 1.59918 145.732 0.247681 142.338 0.247681C138.715 0.247681 135.312 1.83497 132.958 4.47639C131.49 3.76624 129.867 3.39155 128.185 3.39155C124.471 3.39155 121.08 5.2904 119.076 8.26695C115.72 7.35191 112.147 7.92452 109.222 9.77564C108.72 9.71388 108.226 9.6788 107.741 9.6788C100.803 9.6788 95.1605 15.3191 95.1605 22.2535C95.1605 23.5082 95.3529 24.7376 95.7334 25.929C93.3703 28.2615 92.0153 31.436 92.0153 34.8283C92.0153 36.824 92.4899 38.7581 93.4053 40.5178C92.4997 42.1402 92.0153 43.9675 92.0153 45.8312C92.0153 47.236 92.2891 48.61 92.817 49.9151C92.3073 51.0715 92.0153 52.3444 92.0153 53.6904V59.9778C92.0153 65.1776 96.2485 69.4088 101.451 69.4088H104.596V89.4526C73.8831 104.162 38.7419 104.304 7.85113 89.7768L7.09572 89.4189V75.6963C7.09572 73.9617 5.69021 72.5526 3.95057 72.5526C2.21092 72.5526 0.80542 73.9617 0.80542 75.6963V91.4147C0.80542 92.6315 1.51026 93.7416 2.61106 94.2595L5.17071 95.4637C19.1513 102.04 33.9544 105.754 48.8613 106.646C45.0393 107.328 41.4927 109.372 39.0272 112.667C37.4519 114.774 37.0264 117.514 37.8885 119.998C38.7478 122.483 40.7823 124.372 43.3237 125.051L47.9979 126.302C46.108 127.529 44.6295 129.398 44.0005 131.741L42.3718 137.815C41.7175 140.248 42.0517 142.792 43.3125 144.969C43.891 145.973 44.6493 146.825 45.5198 147.535L44.3122 154.928C44.0539 156.522 45.0423 158.054 46.6051 158.47L55.7163 160.912C55.9831 160.985 56.2569 161.019 56.5307 161.019C57.0783 161.019 57.6217 160.877 58.1033 160.598C58.8235 160.18 59.3515 159.495 59.5691 158.689L61.8367 150.229C61.9813 150.156 62.1386 150.126 62.2804 150.044C64.4638 148.787 66.0237 146.753 66.6739 144.319L68.064 139.138L91.02 146.791ZM145.483 102.416L136.048 109.49L126.612 102.416V96.0501C129.569 97.0999 132.735 97.7005 136.048 97.7005C139.36 97.7005 142.526 97.0999 145.483 96.0501V102.416ZM136.048 91.4132C124.979 91.4132 115.818 83.1991 114.283 72.5511H123.095C126.461 72.5511 129.489 70.6804 130.999 67.6685C131.431 66.8012 132.304 66.2637 133.273 66.2637H138.821C139.793 66.2637 140.664 66.8012 141.098 67.6685C142.605 70.6803 145.635 72.5511 148.999 72.5511H157.811C156.278 83.1991 147.116 91.4132 136.048 91.4132ZM140.225 47.4016L150.373 57.543C150.987 58.1563 151.792 58.4636 152.598 58.4636C153.402 58.4636 154.208 58.1549 154.822 57.543C156.052 56.3136 156.052 54.3235 154.822 53.0984L149.118 47.402H158.064C159.799 47.402 161.209 48.8139 161.209 50.5457V63.1204C161.209 64.8523 159.799 66.2641 158.064 66.2641H148.999C148.027 66.2641 147.155 65.7266 146.722 64.8593C145.216 61.8475 142.186 59.9767 138.822 59.9767H135.017L122.436 47.4019L140.225 47.4016ZM110.887 63.1201V50.5453C110.887 48.958 112.089 47.6936 113.623 47.4831L127.974 61.8276C126.921 62.629 125.993 63.617 125.374 64.8576C124.939 65.7263 124.065 66.2639 123.097 66.2639H114.032C112.296 66.2639 110.887 64.852 110.887 63.1202V63.1201ZM170.644 50.5453C172.38 50.5453 173.79 51.9572 173.79 53.689V59.9764C173.79 61.7082 172.38 63.1201 170.644 63.1201H167.499V50.5453H170.644ZM114.032 41.0007C118.397 41.6393 122.744 39.457 124.948 35.9231C128.54 38.4759 133.93 38.5854 137.62 35.9862C141.31 38.5854 146.704 38.4787 150.292 35.9231C151.972 38.6134 154.79 40.5319 158.064 41.0036V41.1145H114.032V41.0007ZM101.451 63.1201C99.7157 63.1201 98.306 61.7082 98.306 59.9764V53.689C98.306 51.9572 99.7157 50.5453 101.451 50.5453H104.596V63.1201H101.451ZM55.9022 106.869C74.1035 106.869 92.2925 102.648 109.15 94.226C110.215 93.6913 110.887 92.6037 110.887 91.4122V82.3081C113.095 86.5899 116.344 90.2459 120.323 92.915V97.6992H110.906C98.398 97.6992 87.9363 106.669 86.0363 119.026L83.1832 137.551L67.9981 132.49C67.7594 131.856 67.4421 131.26 67.0728 130.692L68.8462 124.078C70.4595 118.074 67.355 111.701 61.635 109.259L57.8004 107.621C57.0394 107.294 56.2629 107.053 55.4823 106.854C55.6241 106.856 55.7631 106.869 55.9035 106.869L55.9022 106.869ZM43.8385 117.936C43.7346 117.631 43.6251 117.03 44.0716 116.43C46.6916 112.936 51.3209 111.696 55.3337 113.405L59.1683 115.043C62.027 116.265 63.5772 119.45 62.7724 122.453L61.6337 126.7L55.5764 125.075L55.6269 124.763C55.8852 123.169 54.8968 121.638 53.334 121.221L44.9557 118.977C44.2312 118.78 43.942 118.24 43.8381 117.935L43.8385 117.936ZM50.981 153.135L51.4907 150.017L55.1204 150.988L54.3061 154.025L50.981 153.135ZM62.2306 136.618L60.5976 142.695C60.38 143.506 59.8619 144.182 59.1318 144.599C58.4087 145.02 57.5494 145.127 56.7449 144.914L50.6681 143.286C49.8565 143.068 49.1769 142.548 48.7585 141.821C48.3373 141.095 48.2264 140.249 48.444 139.435L50.0727 133.365C50.5262 131.692 52.2463 130.698 53.9256 131.139L60.0024 132.767C61.6803 133.22 62.6814 134.949 62.2307 136.618L62.2306 136.618Z" fill="#343336"/>
<path d="M140.933 76.0271C137.873 77.5554 134.225 77.5554 131.168 76.0271C129.618 75.251 127.727 75.8797 126.947 77.4319C126.171 78.9855 126.8 80.8746 128.353 81.6506C130.765 82.8548 133.403 83.4582 136.049 83.4582C138.694 83.4582 141.335 82.8547 143.744 81.6506C145.299 80.8745 145.928 78.9841 145.15 77.4319C144.371 75.8826 142.491 75.2538 140.934 76.0271H140.933Z" fill="#343336"/>
<path d="M3.95134 66.2654C5.69098 66.2654 7.09649 64.8564 7.09649 63.1218V27.1867C31.3803 38.0801 58.8495 40.5375 84.6972 34.0971C86.3793 33.6789 87.4057 31.9723 86.99 30.2869C86.566 28.6014 84.8572 27.5671 83.1753 27.9951C58.0493 34.2574 31.3001 31.6386 7.85344 20.6102L5.2938 19.406C4.31938 18.9499 3.18065 19.0159 2.26798 19.5983C1.35532 20.1751 0.804932 21.1785 0.804932 22.2536V63.1215C0.804932 64.8561 2.21044 66.2652 3.95008 66.2652L3.95134 66.2654Z" fill="#343336"/>
<path d="M41.6928 47.4042C33.0212 47.4042 25.967 54.455 25.967 63.1226V85.1284C25.967 86.863 27.3725 88.2721 29.1122 88.2721H38.5476C39.9026 88.2721 41.1017 87.4076 41.5299 86.122L44.018 78.6612C48.0463 78.0452 51.7238 75.8446 54.209 72.5535H54.3381C56.8234 75.8446 60.4994 78.0451 64.5291 78.6612L67.0172 86.122C67.4426 87.4076 68.6445 88.2721 69.9995 88.2721H79.4349C81.1746 88.2721 82.5801 86.863 82.5801 85.1284V63.1226C82.5801 54.455 75.5259 47.4042 66.8543 47.4042H41.6928ZM76.2894 63.1226V81.9847H72.2669L69.8392 74.7036C69.4082 73.418 68.209 72.5535 66.8541 72.5535C63.4955 72.5535 60.4599 70.7866 58.7371 67.8283C58.1699 66.8599 57.1351 66.2662 56.0188 66.2662H52.5311C51.4148 66.2662 50.3772 66.8599 49.8142 67.8283C48.0871 70.7867 45.0515 72.5535 41.6929 72.5535C40.3379 72.5535 39.136 73.418 38.7106 74.7036L36.2801 81.9847H32.2576V63.1226C32.2576 57.9228 36.4907 53.6915 41.693 53.6915H66.8542C72.0564 53.6915 76.2896 57.9228 76.2896 63.1226H76.2894Z" fill="#343336"/>
<path d="M44.8383 59.9779C44.8383 58.2433 43.4328 56.8342 41.6931 56.8342C39.9535 56.8342 38.548 58.2433 38.548 59.9779C36.8083 59.9779 35.4028 61.387 35.4028 63.1216C35.4028 64.8562 36.8083 66.2653 38.548 66.2653C38.548 67.9999 39.9535 69.409 41.6931 69.409C43.4328 69.409 44.8383 67.9999 44.8383 66.2653C46.5779 66.2653 47.9834 64.8562 47.9834 63.1216C47.9834 61.387 46.5779 59.9779 44.8383 59.9779Z" fill="#343336"/>
<path d="M66.8546 59.9779C66.8546 61.7139 65.4463 63.1216 63.7095 63.1216C61.9726 63.1216 60.5643 61.7139 60.5643 59.9779C60.5643 58.2419 61.9726 56.8342 63.7095 56.8342C65.4463 56.8342 66.8546 58.2419 66.8546 59.9779Z" fill="#343336"/>
<path d="M73.1452 66.2656C73.1452 68.0017 71.7368 69.4093 70 69.4093C68.2632 69.4093 66.8549 68.0017 66.8549 66.2656C66.8549 64.5296 68.2632 63.1219 70 63.1219C71.7368 63.1219 73.1452 64.5296 73.1452 66.2656Z" fill="#343336"/>
</svg>
