<svg width="48" height="48" viewBox="0 0 48 48" fill="none" xmlns="http://www.w3.org/2000/svg">
<path d="M31.081 13.0505H17.1093C14.8781 13.0505 13.0649 14.8637 13.0649 17.0949V31.0644C13.0649 33.2957 14.878 35.1113 17.1093 35.1113H31.0811C33.3098 35.1113 35.1255 33.2957 35.1255 31.0644V17.0949C35.1254 14.8636 33.3098 13.0505 31.081 13.0505ZM24.0939 31.3424C20.0903 31.3424 16.8313 28.0833 16.8313 24.0798C16.8313 20.0762 20.0904 16.8172 24.0939 16.8172C28.1 16.8172 31.3564 20.0762 31.3564 24.0798C31.3564 28.0833 28.0975 31.3424 24.0939 31.3424ZM31.5911 18.3189C30.6424 18.3189 29.8723 17.5491 29.8723 16.6005C29.8723 15.6541 30.6424 14.8818 31.5911 14.8818C32.5371 14.8818 33.3098 15.6541 33.3098 16.6005C33.3098 17.5491 32.5371 18.3189 31.5911 18.3189V18.3189Z" fill="#EEB035"/>
<path d="M24.0937 19.8875C21.7833 19.8875 19.9014 21.7669 19.9014 24.0798C19.9014 26.3927 21.7833 28.2746 24.0937 28.2746C26.4066 28.2746 28.2885 26.3927 28.2885 24.0798C28.2885 21.7694 26.4066 19.8875 24.0937 19.8875Z" fill="#EEB035"/>
<path d="M24.0938 0.578522C11.1497 0.578522 0.65625 11.072 0.65625 24.016C0.65625 36.9601 11.1497 47.4535 24.0938 47.4535C37.0378 47.4535 47.5312 36.9601 47.5312 24.016C47.5312 11.0721 37.0378 0.578522 24.0938 0.578522V0.578522ZM38.193 31.0644C38.193 34.9889 35.003 38.179 31.0809 38.179H17.1092C13.1873 38.179 9.99459 34.989 9.99459 31.0644V17.0949C9.99459 13.1733 13.1873 9.98062 17.1092 9.98062H31.0809C35.003 9.98062 38.193 13.1733 38.193 17.0949V31.0644V31.0644Z" fill="#EEB035"/>
</svg>
