<svg width="503" height="476" viewBox="0 0 503 476" fill="none" xmlns="http://www.w3.org/2000/svg">
<g clip-path="url(#clip0_64_2385)">
<path d="M130.869 317.881H90.1499V329.729H130.869V317.881Z" fill="#F4F4F4"/>
<path opacity="0.05" d="M100.954 317.881H95.6182V329.729H100.954V317.881Z" fill="#292A2E"/>
<path d="M125.666 320.457H103.481V327.477H125.666V320.457Z" fill="white"/>
<path d="M163.348 319.427L125.513 302.902L120.771 313.759L158.606 330.284L163.348 319.427Z" fill="#F4F4F4"/>
<path opacity="0.05" d="M163.348 319.427L125.513 302.902L120.771 313.759L158.606 330.284L163.348 319.427Z" fill="#292A2E"/>
<path d="M158.267 317.208L153.31 315.042L148.567 325.9L153.525 328.065L158.267 317.208Z" fill="white"/>
<path d="M149.93 316.376L129.316 307.373L126.506 313.807L147.12 322.81L149.93 316.376Z" fill="white"/>
<path opacity="0.05" d="M163.419 467.965H153.187V474.798H163.419V467.965Z" fill="#292A2E"/>
<path opacity="0.05" d="M58.7999 467.965H48.5671V474.798H58.7999V467.965Z" fill="#292A2E"/>
<path d="M172.799 330.284H39.187V467.733H172.799V330.284Z" fill="#F4F4F4"/>
<path opacity="0.03" d="M172.799 330.284H39.187V467.733H172.799V330.284Z" fill="#292A2E"/>
<path d="M197.56 330.284H63.9473V467.733H197.56V330.284Z" fill="#F4F4F4"/>
<path opacity="0.05" d="M188.18 467.965H177.947V474.798H188.18V467.965Z" fill="#292A2E"/>
<path opacity="0.05" d="M83.5604 467.965H73.3276V474.798H83.5604V467.965Z" fill="#292A2E"/>
<path opacity="0.7" d="M192.545 336.722H68.9634V363.129H192.545V336.722Z" fill="white"/>
<path opacity="0.7" d="M192.545 369.592H68.9634V395.999H192.545V369.592Z" fill="white"/>
<path opacity="0.7" d="M192.545 402.461H68.9634V428.868H192.545V402.461Z" fill="white"/>
<path opacity="0.05" d="M130.754 353.62C132.795 353.62 134.449 351.966 134.449 349.925C134.449 347.884 132.795 346.23 130.754 346.23C128.713 346.23 127.059 347.884 127.059 349.925C127.059 351.966 128.713 353.62 130.754 353.62Z" fill="#292A2E"/>
<path opacity="0.05" d="M130.754 386.49C132.795 386.49 134.449 384.836 134.449 382.795C134.449 380.755 132.795 379.101 130.754 379.101C128.713 379.101 127.059 380.755 127.059 382.795C127.059 384.836 128.713 386.49 130.754 386.49Z" fill="#292A2E"/>
<path opacity="0.05" d="M130.754 419.36C132.795 419.36 134.449 417.706 134.449 415.665C134.449 413.625 132.795 411.97 130.754 411.97C128.713 411.97 127.059 413.625 127.059 415.665C127.059 417.706 128.713 419.36 130.754 419.36Z" fill="#292A2E"/>
<path opacity="0.7" d="M192.545 436.073H68.9634V462.479H192.545V436.073Z" fill="white"/>
<path opacity="0.05" d="M130.754 452.971C132.795 452.971 134.449 451.317 134.449 449.276C134.449 447.235 132.795 445.581 130.754 445.581C128.713 445.581 127.059 447.235 127.059 449.276C127.059 451.317 128.713 452.971 130.754 452.971Z" fill="#292A2E"/>
<path d="M0.574574 475.745H502.643C502.737 475.745 502.828 475.708 502.894 475.641C502.961 475.575 502.998 475.484 502.998 475.39C502.998 475.296 502.961 475.206 502.894 475.139C502.828 475.073 502.737 475.035 502.643 475.035H0.574574C0.480463 475.035 0.390206 475.073 0.323659 475.139C0.257112 475.206 0.219727 475.296 0.219727 475.39C0.219727 475.484 0.257112 475.575 0.323659 475.641C0.390206 475.708 0.480463 475.745 0.574574 475.745Z" fill="#292A2E"/>
<g opacity="0.65">
<path d="M0.574574 475.745H502.643C502.737 475.745 502.828 475.708 502.894 475.641C502.961 475.575 502.998 475.484 502.998 475.39C502.998 475.296 502.961 475.206 502.894 475.139C502.828 475.073 502.737 475.035 502.643 475.035H0.574574C0.480463 475.035 0.390206 475.073 0.323659 475.139C0.257112 475.206 0.219727 475.296 0.219727 475.39C0.219727 475.484 0.257112 475.575 0.323659 475.641C0.390206 475.708 0.480463 475.745 0.574574 475.745Z" fill="#292A2E"/>
</g>
<path d="M468.669 475.538L469.665 475.347L454.104 320.724L453.109 320.916L468.669 475.538Z" fill="#494949"/>
<path d="M410.729 475.538L411.725 475.347L396.165 320.724L395.169 320.916L410.729 475.538Z" fill="#494949"/>
<path d="M282.655 475.538L281.66 475.347L297.22 320.724L298.216 320.916L282.655 475.538Z" fill="#494949"/>
<path d="M340.596 475.538L339.6 475.347L355.16 320.724L356.156 320.916L340.596 475.538Z" fill="#494949"/>
<path d="M361.227 252.67L352.137 320.75L353.142 320.884L362.232 252.804L361.227 252.67Z" fill="#494949"/>
<path d="M465.564 252.67L456.474 320.75L457.479 320.884L466.569 252.804L465.564 252.67Z" fill="#494949"/>
<path d="M352.228 325.805H454.282C457.036 325.805 459.268 323.573 459.268 320.82V320.819C459.268 318.066 457.036 315.834 454.282 315.834H352.228C349.475 315.834 347.243 318.066 347.243 320.819V320.82C347.243 323.573 349.475 325.805 352.228 325.805Z" fill="#292A2E"/>
<path opacity="0.8" d="M352.228 325.805H454.282C457.036 325.805 459.268 323.573 459.268 320.82V320.819C459.268 318.066 457.036 315.834 454.282 315.834H352.228C349.475 315.834 347.243 318.066 347.243 320.819V320.82C347.243 323.573 349.475 325.805 352.228 325.805Z" fill="white"/>
<path d="M346.736 320.822C346.737 319.366 347.316 317.969 348.346 316.939C349.375 315.909 350.772 315.329 352.228 315.328H454.283C455.739 315.328 457.136 315.906 458.166 316.936C459.196 317.966 459.775 319.363 459.775 320.82C459.775 322.277 459.196 323.674 458.166 324.704C457.136 325.734 455.739 326.312 454.283 326.312H352.228C350.773 326.311 349.377 325.732 348.347 324.702C347.318 323.673 346.738 322.278 346.736 320.822ZM352.228 316.343C351.041 316.343 349.901 316.815 349.061 317.655C348.222 318.495 347.75 319.634 347.75 320.822C347.75 322.01 348.222 323.149 349.061 323.989C349.901 324.829 351.041 325.301 352.228 325.301H454.283C455.47 325.301 456.61 324.829 457.449 323.989C458.289 323.149 458.761 322.01 458.761 320.822C458.761 319.634 458.289 318.495 457.449 317.655C456.61 316.815 455.47 316.343 454.283 316.343H352.228Z" fill="#292A2E"/>
<path d="M296.216 325.805H398.27C401.023 325.805 403.255 323.573 403.255 320.82V320.819C403.255 318.066 401.023 315.834 398.27 315.834H296.216C293.462 315.834 291.23 318.066 291.23 320.819V320.82C291.23 323.573 293.462 325.805 296.216 325.805Z" fill="white"/>
<path d="M290.723 320.822C290.724 319.366 291.304 317.97 292.333 316.94C293.363 315.91 294.759 315.331 296.216 315.33H398.27C399.727 315.33 401.124 315.908 402.154 316.938C403.184 317.968 403.762 319.365 403.762 320.822C403.762 322.279 403.184 323.676 402.154 324.706C401.124 325.736 399.727 326.314 398.27 326.314H296.216C294.76 326.313 293.363 325.733 292.334 324.704C291.304 323.674 290.725 322.278 290.723 320.822ZM296.216 316.343C295.028 316.343 293.889 316.815 293.049 317.655C292.209 318.495 291.737 319.634 291.737 320.822C291.737 322.01 292.209 323.149 293.049 323.989C293.889 324.829 295.028 325.3 296.216 325.3H398.27C399.458 325.3 400.597 324.829 401.437 323.989C402.277 323.149 402.749 322.01 402.749 320.822C402.749 319.634 402.277 318.495 401.437 317.655C400.597 316.815 399.458 316.343 398.27 316.343H296.216Z" fill="#292A2E"/>
<path d="M366.822 252.74H465.797C467.416 252.74 468.979 252.151 470.194 251.083C471.41 250.015 472.196 248.542 472.405 246.937L478.952 196.662C479.074 195.722 478.995 194.767 478.719 193.861C478.443 192.954 477.976 192.117 477.351 191.405C476.726 190.693 475.956 190.122 475.092 189.731C474.229 189.341 473.292 189.138 472.344 189.138H373.367C371.748 189.139 370.186 189.727 368.97 190.795C367.754 191.863 366.968 193.337 366.759 194.942L360.212 245.216C360.09 246.156 360.169 247.111 360.445 248.018C360.722 248.925 361.188 249.762 361.814 250.474C362.439 251.186 363.21 251.757 364.073 252.147C364.937 252.538 365.874 252.74 366.822 252.74Z" fill="#292A2E"/>
<path opacity="0.8" d="M366.822 252.74H465.797C467.416 252.74 468.979 252.151 470.194 251.083C471.41 250.015 472.196 248.542 472.405 246.937L478.952 196.662C479.074 195.722 478.995 194.767 478.719 193.861C478.443 192.954 477.976 192.117 477.351 191.405C476.726 190.693 475.956 190.122 475.092 189.731C474.229 189.341 473.292 189.138 472.344 189.138H373.367C371.748 189.139 370.186 189.727 368.97 190.795C367.754 191.863 366.968 193.337 366.759 194.942L360.212 245.216C360.09 246.156 360.169 247.111 360.445 248.018C360.722 248.925 361.188 249.762 361.814 250.474C362.439 251.186 363.21 251.757 364.073 252.147C364.937 252.538 365.874 252.74 366.822 252.74Z" fill="white"/>
<path d="M361.434 250.808C360.761 250.042 360.259 249.141 359.962 248.166C359.665 247.19 359.579 246.162 359.711 245.151L366.258 194.876C366.486 193.151 367.332 191.568 368.64 190.419C369.947 189.271 371.627 188.636 373.367 188.632H472.344C473.364 188.632 474.372 188.849 475.301 189.27C476.23 189.69 477.059 190.304 477.732 191.07C478.405 191.836 478.907 192.737 479.204 193.713C479.501 194.689 479.586 195.716 479.455 196.727L472.908 247.003C472.679 248.728 471.833 250.311 470.525 251.46C469.218 252.608 467.538 253.243 465.797 253.247H366.822C365.802 253.247 364.794 253.029 363.865 252.609C362.936 252.188 362.107 251.574 361.434 250.808ZM373.367 189.645C371.873 189.649 370.431 190.195 369.309 191.181C368.186 192.167 367.46 193.526 367.264 195.007L360.717 245.283C360.604 246.151 360.677 247.033 360.932 247.871C361.188 248.708 361.618 249.482 362.196 250.14C362.774 250.798 363.485 251.325 364.283 251.686C365.081 252.047 365.946 252.233 366.822 252.233H465.797C467.292 252.23 468.734 251.685 469.857 250.699C470.979 249.713 471.706 248.353 471.902 246.872L478.449 196.597C478.562 195.729 478.489 194.847 478.234 194.009C477.979 193.171 477.548 192.398 476.97 191.74C476.392 191.082 475.681 190.555 474.883 190.194C474.086 189.833 473.22 189.646 472.344 189.646L373.367 189.645Z" fill="#292A2E"/>
<path d="M361.225 252.74H460.203C461.821 252.74 463.384 252.151 464.6 251.083C465.816 250.015 466.602 248.542 466.811 246.937L473.358 196.662C473.48 195.722 473.401 194.767 473.125 193.861C472.849 192.954 472.382 192.117 471.757 191.405C471.132 190.693 470.361 190.122 469.498 189.731C468.635 189.341 467.698 189.138 466.75 189.138H367.772C366.154 189.139 364.591 189.727 363.375 190.795C362.159 191.863 361.374 193.337 361.165 194.942L354.618 245.216C354.495 246.156 354.575 247.111 354.851 248.017C355.127 248.924 355.593 249.761 356.219 250.473C356.844 251.185 357.614 251.756 358.477 252.147C359.341 252.537 360.277 252.74 361.225 252.74Z" fill="white"/>
<path d="M355.838 250.808C355.165 250.042 354.663 249.141 354.366 248.165C354.068 247.19 353.983 246.162 354.114 245.151L360.661 194.876C360.889 193.151 361.736 191.567 363.044 190.419C364.351 189.271 366.031 188.636 367.771 188.632H466.748C467.767 188.632 468.776 188.849 469.705 189.27C470.634 189.69 471.462 190.304 472.135 191.07C472.808 191.836 473.31 192.737 473.607 193.713C473.904 194.689 473.99 195.716 473.858 196.727L467.311 247.003C467.083 248.727 466.236 250.311 464.929 251.459C463.622 252.607 461.943 253.242 460.203 253.247H361.225C360.205 253.247 359.197 253.029 358.268 252.608C357.339 252.188 356.511 251.574 355.838 250.808ZM367.772 189.645C366.278 189.649 364.836 190.194 363.713 191.18C362.59 192.166 361.863 193.526 361.667 195.007L355.12 245.283C355.007 246.151 355.081 247.033 355.336 247.871C355.591 248.708 356.022 249.482 356.599 250.14C357.177 250.798 357.889 251.325 358.686 251.686C359.484 252.047 360.35 252.233 361.225 252.233H460.203C461.697 252.23 463.14 251.685 464.262 250.699C465.385 249.713 466.112 248.353 466.308 246.872L472.855 196.598C472.968 195.729 472.895 194.847 472.64 194.009C472.385 193.172 471.954 192.398 471.376 191.74C470.798 191.082 470.087 190.555 469.289 190.194C468.491 189.833 467.626 189.646 466.75 189.646L367.772 189.645Z" fill="#292A2E"/>
<path d="M375.279 108.201C375.279 108.201 369.437 102.39 369.373 90.8481C369.323 81.9113 376.631 88.6973 376.631 88.6973C376.631 88.6973 376.659 82.2621 381.176 83.5202C385.693 84.7784 387.365 91.7707 387.365 91.7707" fill="#0C0C0C"/>
<path d="M404.878 87.5203C404.878 87.5203 427.392 93.0993 414.89 122.929L412.85 122.787L408.708 122.5" fill="#0C0C0C"/>
<path d="M375.981 153.93C376.082 153.916 377.208 172.584 398.897 170.958C413.912 169.833 419.266 153.903 419.61 153.903C417.991 153.56 415.991 153.037 415.195 152.858C413.463 152.455 411.894 151.535 410.697 150.219C409.501 148.903 408.733 147.254 408.497 145.492C408.057 142.846 408.801 129.307 408.573 126.63L385.525 131.774C385.847 137.429 388.101 150.538 380.202 152.858C378.884 153.242 377.468 153.593 375.981 153.93Z" fill="#E98862"/>
<path opacity="0.52" d="M385.199 147.501C385.56 146.337 385.793 145.138 385.893 143.923C386.146 141.153 386.095 138.363 385.741 135.604C390.425 134.972 394.839 133.038 398.479 130.023C398.907 131.603 401.261 138.51 400.608 140.009C399.379 142.851 393.59 147.501 385.199 147.501Z" fill="#0C0C0C"/>
<path d="M388.646 142.055C397.766 142.482 409.329 138.267 411.158 126.06L412.81 115.045C414.641 102.839 409.713 91.981 398.22 90.2576C386.726 88.5341 376.651 97.1419 374.82 109.349L374.089 114.225C373.867 115.903 373.76 117.595 373.768 119.289C373.757 123.764 373.757 130.57 376.121 135.499C378.352 140.151 382.82 141.782 388.646 142.055Z" fill="#E98862"/>
<path d="M385.997 130.306C384.127 130.135 382.323 129.527 380.73 128.532C380.695 128.513 380.665 128.487 380.64 128.456C380.616 128.425 380.598 128.389 380.587 128.351C380.577 128.313 380.574 128.273 380.58 128.234C380.585 128.195 380.599 128.157 380.619 128.123C380.639 128.089 380.666 128.06 380.698 128.037C380.73 128.013 380.766 127.997 380.805 127.988C380.843 127.979 380.883 127.978 380.922 127.985C380.961 127.992 380.998 128.007 381.031 128.028C384.474 130.089 387.824 130.315 390.723 128.684C390.782 128.649 390.842 128.617 390.904 128.589C390.976 128.562 391.055 128.565 391.124 128.596C391.194 128.627 391.249 128.683 391.278 128.754C391.306 128.825 391.306 128.904 391.278 128.975C391.249 129.045 391.194 129.102 391.124 129.133C391.101 129.143 391.064 129.165 391.011 129.195C389.488 130.056 387.742 130.443 385.997 130.306Z" fill="#0C0C0C"/>
<path d="M385.707 133.072C385.368 133.047 385.032 132.993 384.703 132.91C384.666 132.901 384.63 132.884 384.599 132.862C384.568 132.839 384.542 132.81 384.522 132.777C384.502 132.744 384.489 132.708 384.483 132.67C384.478 132.632 384.479 132.593 384.489 132.555C384.498 132.518 384.514 132.483 384.537 132.452C384.56 132.421 384.589 132.395 384.622 132.375C384.654 132.355 384.691 132.341 384.729 132.336C384.767 132.33 384.806 132.332 384.843 132.341C386.826 132.83 387.913 132.04 387.959 132.006C388.021 131.959 388.099 131.938 388.176 131.949C388.253 131.959 388.323 132 388.37 132.062C388.417 132.124 388.437 132.202 388.427 132.279C388.416 132.356 388.376 132.426 388.314 132.473C387.54 132.968 386.619 133.18 385.707 133.072Z" fill="#0C0C0C"/>
<path d="M378.098 114.677C378.889 114.677 379.53 114.036 379.53 113.246C379.53 112.455 378.889 111.814 378.098 111.814C377.307 111.814 376.667 112.455 376.667 113.246C376.667 114.036 377.307 114.677 378.098 114.677Z" fill="#0C0C0C"/>
<path d="M391.409 115.565C392.2 115.565 392.841 114.924 392.841 114.133C392.841 113.343 392.2 112.702 391.409 112.702C390.618 112.702 389.978 113.343 389.978 114.133C389.978 114.924 390.618 115.565 391.409 115.565Z" fill="#0C0C0C"/>
<path d="M409.887 129.672C413.38 130.195 416.772 126.884 417.296 123.39C417.819 119.897 415.276 117.547 411.784 117.023L409.633 119.093L406.884 129.221L409.887 129.672Z" fill="#E98862"/>
<path d="M407.176 123.572C407.176 123.572 408.364 106.107 403.264 104.32C399.867 103.13 390.714 106.926 383.069 104.354C379.724 103.229 376.349 103.632 375.795 105.209C375.576 105.833 374.701 96.3109 381.038 90.043C386.083 85.0525 400.31 85.3972 406.435 88.099C423.391 95.58 412.401 117.884 412.401 117.884L410.797 123.741L407.176 123.572Z" fill="#0C0C0C"/>
<path d="M384.441 125.933H384.419C383.293 125.767 381.423 125.363 381.546 124.521C381.647 123.823 384.669 116.57 385.014 115.746C385.027 115.709 385.048 115.676 385.075 115.647C385.102 115.619 385.134 115.596 385.17 115.581C385.206 115.565 385.244 115.557 385.283 115.557C385.322 115.556 385.361 115.564 385.397 115.579C385.433 115.594 385.466 115.616 385.493 115.644C385.52 115.672 385.542 115.705 385.556 115.742C385.57 115.778 385.577 115.817 385.575 115.856C385.574 115.895 385.565 115.933 385.549 115.969C384.208 119.181 382.19 124.13 382.12 124.605C382.201 124.82 383.336 125.187 384.502 125.359C384.576 125.371 384.642 125.41 384.687 125.469C384.732 125.529 384.753 125.603 384.745 125.677C384.737 125.751 384.701 125.819 384.644 125.867C384.588 125.915 384.515 125.939 384.44 125.935L384.441 125.933Z" fill="#0C0C0C"/>
<path d="M382.904 108.549C381.763 108.061 380.512 107.89 379.283 108.054C378.679 108.131 378.09 108.298 377.536 108.55C376.989 108.796 376.475 109.11 376.007 109.484C375.921 109.551 375.864 109.648 375.847 109.755C375.831 109.863 375.856 109.972 375.919 110.061C375.981 110.15 376.075 110.212 376.182 110.233C376.288 110.254 376.399 110.234 376.491 110.175L376.52 110.157C376.946 109.857 377.409 109.613 377.897 109.43C378.376 109.246 378.88 109.137 379.392 109.105C380.402 109.034 381.412 109.23 382.322 109.674L382.36 109.694C382.509 109.771 382.683 109.785 382.843 109.734C383.004 109.683 383.137 109.57 383.214 109.42C383.291 109.271 383.305 109.097 383.254 108.936C383.203 108.776 383.09 108.643 382.94 108.566L382.904 108.549Z" fill="#0C0C0C"/>
<path d="M391.198 110.41C392.159 110.095 393.187 110.04 394.177 110.25C394.68 110.353 395.165 110.531 395.614 110.779C396.071 111.028 396.496 111.333 396.877 111.688L396.902 111.71C396.984 111.782 397.092 111.818 397.201 111.813C397.31 111.807 397.412 111.759 397.487 111.679C397.561 111.6 397.602 111.494 397.6 111.385C397.599 111.276 397.555 111.171 397.478 111.094C397.066 110.658 396.6 110.276 396.092 109.957C395.579 109.631 395.019 109.385 394.432 109.225C393.236 108.893 391.973 108.889 390.776 109.214C390.614 109.26 390.477 109.368 390.394 109.514C390.312 109.661 390.291 109.834 390.337 109.996C390.382 110.158 390.49 110.296 390.636 110.378C390.783 110.46 390.956 110.481 391.118 110.436L391.155 110.424L391.198 110.41Z" fill="#0C0C0C"/>
<path d="M393.165 91.785C394.483 88.0822 393.513 84.3542 390.997 83.4584C388.481 82.5625 385.373 84.838 384.054 88.5408C382.735 92.2436 383.706 95.9716 386.222 96.8675C388.738 97.7634 391.846 95.4879 393.165 91.785Z" fill="#0C0C0C"/>
<path d="M235.623 449.261C235.623 449.261 232.905 463.349 219.713 464.134C206.522 464.92 209.382 475.428 209.382 475.428H259.793V450.243L235.623 449.261Z" fill="#171DCE"/>
<path d="M331.527 440.365C331.527 440.365 335.307 454.207 323.817 460.735C312.326 467.262 319.532 475.429 319.532 475.429L364.766 453.176L353.648 430.578L331.527 440.365Z" fill="#171DCE"/>
<path d="M359.544 436.456L321.398 316.121H390.542C404.432 316.121 410.222 304.343 410.222 290.455C410.222 276.566 396.568 264.391 382.679 264.391H289.359C280.888 264.391 271.389 269.572 266.74 276.653C262.091 283.735 263.347 294.708 266.716 302.481L327.8 450.836" fill="#262626"/>
<path opacity="0.8" d="M359.544 436.456L321.398 316.121H390.542C404.432 316.121 410.222 304.343 410.222 290.455C410.222 276.566 396.568 264.391 382.679 264.391H289.359C280.888 264.391 271.389 269.572 266.74 276.653C262.091 283.735 263.347 294.708 266.716 302.481L327.8 450.836" fill="#0A0A0A"/>
<path d="M262.692 462.345L326.473 316.121L410.222 316.115C429.845 314.577 438.832 303.823 438.546 289.938C438.265 276.228 431.323 262.687 417.675 262.687H304.798C294.7 262.895 286.756 274.054 283.01 283.432L229.985 453.393" fill="#262626"/>
<path d="M444.26 262.855C444.26 262.855 447.979 287.109 442.084 300.593C434.724 317.427 407.133 316.116 407.133 316.116L408.688 262.688L444.26 262.855Z" fill="#262626"/>
<path d="M280.61 262.378L339.768 250.12C342.233 249.609 344.53 248.485 346.445 246.851C348.36 245.217 349.833 243.127 350.726 240.774L373.994 179.462C374.702 177.621 375.04 175.66 374.988 173.688C374.936 171.717 374.495 169.776 373.691 167.976C372.886 166.176 371.734 164.552 370.3 163.199C368.866 161.845 367.179 160.788 365.336 160.089C363.492 159.389 361.528 159.061 359.558 159.122C357.587 159.184 355.647 159.634 353.851 160.447C352.055 161.26 350.437 162.42 349.09 163.861C347.744 165.301 346.695 166.993 346.004 168.84L325.65 222.471L274.536 233.063C274.536 233.063 279.586 262.59 280.61 262.378Z" fill="#171DCE"/>
<path d="M349.035 195.031C349.718 203.057 354.56 253.128 355.219 263.014H444.221C444.733 254.098 446.393 216.243 448.332 198.808C450.183 182.17 450.855 172.676 448.723 167.506C444.962 158.387 435.552 155.106 427.446 154.008C422.497 153.339 415.053 152.858 415.053 152.858C415.053 152.858 414.423 165.607 399.393 166.316C378.934 167.279 380.3 152.856 380.199 152.856C376.885 152.856 358.843 155.267 354.332 158.207C347.961 162.36 346.077 168.019 346.003 173.218C345.917 179.207 348.258 185.929 349.035 195.031Z" fill="#171DCE"/>
<path d="M352.533 235.945H352.554C352.621 235.939 352.683 235.907 352.726 235.856C352.77 235.804 352.791 235.738 352.785 235.671L350.475 207.916C350.473 207.882 350.464 207.85 350.449 207.82C350.434 207.79 350.413 207.763 350.388 207.741C350.362 207.72 350.332 207.703 350.3 207.693C350.268 207.684 350.235 207.68 350.201 207.684C350.168 207.687 350.136 207.696 350.106 207.711C350.077 207.727 350.05 207.748 350.029 207.773C350.007 207.798 349.991 207.828 349.981 207.859C349.971 207.891 349.967 207.925 349.97 207.958L352.279 235.712C352.284 235.776 352.313 235.835 352.36 235.878C352.407 235.921 352.469 235.945 352.533 235.945Z" fill="#0C0C0C"/>
<path d="M310.142 252.603L290.613 192.574C290.27 191.52 289.602 190.6 288.705 189.948C287.808 189.296 286.727 188.945 285.618 188.944H206.053C205.224 188.944 204.406 189.141 203.667 189.517C202.928 189.894 202.289 190.44 201.802 191.111C201.314 191.782 200.993 192.559 200.863 193.378C200.734 194.197 200.8 195.035 201.057 195.824L220.586 255.854C220.929 256.909 221.597 257.828 222.495 258.48C223.392 259.132 224.473 259.483 225.583 259.483H305.145C305.975 259.483 306.792 259.286 307.531 258.91C308.27 258.533 308.909 257.987 309.397 257.316C309.884 256.645 310.206 255.868 310.335 255.049C310.465 254.23 310.398 253.391 310.142 252.603Z" fill="#292A2E"/>
<path d="M310.142 252.603L290.613 192.574C290.27 191.52 289.602 190.6 288.705 189.948C287.808 189.296 286.727 188.945 285.618 188.944H206.053C205.224 188.944 204.406 189.141 203.667 189.517C202.928 189.894 202.289 190.44 201.802 191.111C201.314 191.782 200.993 192.559 200.863 193.378C200.734 194.197 200.8 195.035 201.057 195.824L220.586 255.854C220.929 256.909 221.597 257.828 222.495 258.48C223.392 259.132 224.473 259.483 225.583 259.483H305.145C305.975 259.483 306.792 259.286 307.531 258.91C308.27 258.533 308.909 257.987 309.397 257.316C309.884 256.645 310.206 255.868 310.335 255.049C310.465 254.23 310.398 253.391 310.142 252.603Z" fill="#292A2E"/>
<path d="M347.471 254.615H294.211C292.884 254.615 291.809 255.69 291.809 257.017V257.079C291.809 258.406 292.884 259.482 294.211 259.482H347.471C348.798 259.482 349.874 258.406 349.874 257.079V257.017C349.874 255.69 348.798 254.615 347.471 254.615Z" fill="#292A2E"/>
<path d="M347.471 254.615H294.211C292.884 254.615 291.809 255.69 291.809 257.017V257.079C291.809 258.406 292.884 259.482 294.211 259.482H347.471C348.798 259.482 349.874 258.406 349.874 257.079V257.017C349.874 255.69 348.798 254.615 347.471 254.615Z" fill="#292A2E"/>
<path d="M255.599 235.486C260.208 235.486 263.944 231.75 263.944 227.142C263.944 222.533 260.208 218.798 255.599 218.798C250.991 218.798 247.255 222.533 247.255 227.142C247.255 231.75 250.991 235.486 255.599 235.486Z" fill="white"/>
<path d="M314.593 238.541L327.886 233.882L325.978 233.75C325.362 233.695 324.791 233.409 324.379 232.949C323.966 232.489 323.744 231.89 323.757 231.272C323.775 230.954 323.857 230.642 323.999 230.357C324.141 230.071 324.34 229.818 324.583 229.612C324.827 229.405 325.109 229.251 325.414 229.158C325.719 229.064 326.04 229.034 326.357 229.069L349.873 231.568L349.263 239.125C349.073 241.472 348.186 243.709 346.717 245.549C345.248 247.389 343.262 248.748 341.015 249.452L330.831 252.625C330.305 252.8 329.735 252.788 329.216 252.591C328.698 252.394 328.264 252.024 327.987 251.543C327.747 251.104 327.653 250.6 327.719 250.104C327.786 249.608 328.009 249.146 328.357 248.785C328.326 248.763 328.301 248.732 328.286 248.697C328.274 248.663 328.27 248.627 328.275 248.591C328.281 248.556 328.294 248.523 328.315 248.494L326.44 249.082C325.854 249.279 325.216 249.246 324.654 248.99C324.092 248.734 323.648 248.274 323.412 247.704C323.219 247.186 323.215 246.617 323.4 246.097C323.586 245.576 323.949 245.138 324.426 244.859C324.404 244.848 324.384 244.832 324.368 244.813L323.596 245.054C323.07 245.231 322.499 245.22 321.979 245.023C321.46 244.826 321.025 244.456 320.748 243.975C320.457 243.442 320.382 242.818 320.541 242.232C320.7 241.646 321.079 241.144 321.6 240.832C321.595 240.816 321.593 240.8 321.593 240.784L316.057 242.725C315.783 242.821 315.492 242.862 315.202 242.846C314.911 242.83 314.627 242.756 314.365 242.63C313.836 242.376 313.429 241.921 313.235 241.367C313.041 240.813 313.075 240.204 313.329 239.675C313.584 239.146 314.038 238.739 314.592 238.545L314.593 238.541Z" fill="#E98862"/>
<path opacity="0.2" d="M321.813 240.996C321.839 240.996 321.864 240.992 321.888 240.983L327.242 239.036C327.27 239.026 327.295 239.011 327.316 238.991C327.337 238.971 327.355 238.948 327.367 238.921C327.379 238.895 327.386 238.867 327.387 238.838C327.388 238.809 327.384 238.78 327.374 238.752C327.364 238.725 327.349 238.7 327.329 238.679C327.309 238.658 327.286 238.64 327.259 238.628C327.233 238.616 327.205 238.609 327.176 238.608C327.147 238.607 327.118 238.611 327.09 238.621L321.736 240.568C321.687 240.586 321.646 240.62 321.62 240.665C321.594 240.71 321.585 240.763 321.594 240.814C321.603 240.865 321.629 240.911 321.669 240.945C321.709 240.978 321.759 240.996 321.811 240.996H321.813Z" fill="#0A0A0A"/>
<path opacity="0.2" d="M324.518 244.887C324.543 244.887 324.568 244.883 324.592 244.874L328.812 243.377C328.84 243.367 328.866 243.353 328.888 243.333C328.91 243.314 328.929 243.291 328.942 243.264C328.954 243.238 328.962 243.209 328.964 243.18C328.965 243.151 328.961 243.121 328.952 243.094C328.942 243.066 328.927 243.04 328.907 243.019C328.887 242.997 328.863 242.979 328.836 242.967C328.81 242.955 328.781 242.948 328.751 242.947C328.722 242.946 328.693 242.95 328.665 242.961L324.445 244.459C324.396 244.476 324.354 244.51 324.328 244.555C324.302 244.6 324.292 244.653 324.301 244.704C324.31 244.755 324.336 244.802 324.376 244.835C324.416 244.869 324.466 244.887 324.518 244.887Z" fill="#0A0A0A"/>
<path opacity="0.2" d="M328.492 248.841C328.519 248.841 328.546 248.836 328.571 248.826L330.548 248.073C330.603 248.052 330.647 248.01 330.671 247.957C330.694 247.903 330.696 247.842 330.675 247.788C330.654 247.733 330.613 247.689 330.559 247.665C330.506 247.641 330.445 247.64 330.39 247.661L328.413 248.415C328.365 248.433 328.325 248.468 328.3 248.513C328.275 248.558 328.266 248.61 328.276 248.661C328.285 248.711 328.312 248.757 328.351 248.79C328.391 248.823 328.44 248.841 328.492 248.841H328.492Z" fill="#0A0A0A"/>
<path d="M339.465 227.095L395.227 227.057L416.323 175.6L447.791 188.83L421.471 249.903L421.214 250.511C419.926 253.479 417.757 255.98 415.001 257.675C412.244 259.37 409.034 260.177 405.803 259.986L338.622 256.017L339.465 227.095Z" fill="#171DCE"/>
<path d="M406.728 260.266C409.854 260.26 412.911 259.344 415.525 257.63C418.138 255.915 420.196 253.476 421.446 250.611L421.704 250.003L444.13 197.966L443.665 197.763L420.98 250.412C419.707 253.329 417.572 255.785 414.861 257.451C412.15 259.117 408.995 259.914 405.818 259.733L338.882 255.779L339.711 227.35L395.396 227.313L411.618 187.748L411.149 187.555L395.057 226.806L339.22 226.844L338.361 256.256L338.607 256.271L405.789 260.239C406.102 260.257 406.419 260.266 406.728 260.266Z" fill="#0C0C0C"/>
<path d="M122.301 264.342L100.931 475.9L101.939 476.002L123.31 264.444L122.301 264.342Z" fill="#494949"/>
<path d="M468.751 264.34L467.743 264.442L489.128 475.998L490.137 475.896L468.751 264.34Z" fill="#494949"/>
<path d="M380.396 264.34L379.387 264.442L400.773 475.998L401.781 475.896L380.396 264.34Z" fill="#494949"/>
<path d="M33.9451 264.342L12.5745 475.899L13.5832 476.001L34.9538 264.443L33.9451 264.342Z" fill="#494949"/>
<path d="M14.6729 268.545L486.622 268.545C488.916 268.545 490.775 266.686 490.775 264.392C490.775 262.098 488.916 260.238 486.622 260.238L14.6729 260.238C12.3789 260.238 10.5192 262.098 10.5192 264.392C10.5192 266.686 12.3789 268.545 14.6729 268.545Z" fill="#292A2E"/>
<path opacity="0.8" d="M14.6729 268.545L486.622 268.545C488.916 268.545 490.775 266.686 490.775 264.392C490.775 262.098 488.916 260.238 486.622 260.238L14.6729 260.238C12.3789 260.238 10.5192 262.098 10.5192 264.392C10.5192 266.686 12.3789 268.545 14.6729 268.545Z" fill="white"/>
<path d="M10.012 264.391C10.0128 263.156 10.5041 261.971 11.3779 261.097C12.2518 260.223 13.4368 259.732 14.6726 259.731H486.62C487.856 259.731 489.041 260.222 489.915 261.096C490.789 261.97 491.281 263.155 491.281 264.391C491.281 265.628 490.789 266.813 489.915 267.687C489.041 268.561 487.856 269.052 486.62 269.052H14.6726C13.4368 269.051 12.2518 268.56 11.3779 267.686C10.5041 266.812 10.0128 265.627 10.012 264.391ZM14.6726 260.745C13.7054 260.745 12.7779 261.129 12.0939 261.813C11.41 262.497 11.0258 263.424 11.0258 264.391C11.0258 265.359 11.41 266.286 12.0939 266.97C12.7779 267.654 13.7054 268.038 14.6726 268.038H486.62C487.587 268.038 488.515 267.654 489.199 266.97C489.882 266.286 490.267 265.359 490.267 264.391C490.267 263.424 489.882 262.497 489.199 261.813C488.515 261.129 487.587 260.745 486.62 260.745H14.6726Z" fill="#292A2E"/>
<path d="M14.6732 268.545L394.888 268.545C397.182 268.545 399.042 266.686 399.042 264.392C399.042 262.098 397.182 260.238 394.888 260.238L14.6732 260.238C12.3792 260.238 10.5194 262.098 10.5194 264.392C10.5194 266.686 12.3792 268.545 14.6732 268.545Z" fill="white"/>
<path d="M10.012 264.391C10.0128 263.156 10.5041 261.971 11.3779 261.097C12.2518 260.223 13.4368 259.732 14.6726 259.731H394.888C396.124 259.731 397.31 260.222 398.184 261.096C399.058 261.97 399.549 263.155 399.549 264.391C399.549 265.628 399.058 266.813 398.184 267.687C397.31 268.561 396.124 269.052 394.888 269.052H14.6726C13.4368 269.051 12.2518 268.56 11.3779 267.686C10.5041 266.812 10.0128 265.627 10.012 264.391ZM14.6726 260.745C13.7054 260.745 12.7779 261.129 12.0939 261.813C11.41 262.497 11.0258 263.424 11.0258 264.391C11.0258 265.359 11.41 266.286 12.0939 266.97C12.7779 267.654 13.7054 268.038 14.6726 268.038H394.888C395.855 268.038 396.783 267.654 397.467 266.97C398.151 266.286 398.535 265.359 398.535 264.391C398.535 263.424 398.151 262.497 397.467 261.813C396.783 261.129 395.855 260.745 394.888 260.745H14.6726Z" fill="#292A2E"/>
<path d="M69.178 435.332C69.178 435.332 59.5784 449.46 68.0866 459.632C76.5949 469.804 66.9531 474.95 66.9531 474.95L32.248 438.144L50.6362 420.805L69.178 435.332Z" fill="#171DCE"/>
<path d="M119.557 208.175C119.557 208.175 151.961 319.624 144.324 335.916C136.815 351.934 68.2848 445.505 68.2848 445.505L43.6396 424.028L104.592 325.184C104.592 325.184 86.5488 268.104 76.7941 238.168C70.9137 220.122 61.0196 220.697 60.0797 201.741L119.557 208.175Z" fill="#262626"/>
<path d="M83.6774 333.812L91.6934 324.684L89.6069 378.266L80.6729 386.757L83.6774 333.812Z" fill="#0A0A0A"/>
<path d="M82.3496 255.324C82.3496 255.324 78.5117 232.544 82.6163 237.423C95.9631 253.289 97.2917 302.114 97.2917 302.114L82.3496 255.324Z" fill="#0A0A0A"/>
<path d="M104.772 448.078C104.772 448.078 107.5 462.216 120.74 463.004C133.98 463.791 131.107 474.337 131.107 474.337H80.5166V449.064L104.772 448.078Z" fill="#171DCE"/>
<path d="M29.2405 205.382C29.2405 205.382 29.0165 204.341 28.8857 210.432C28.7919 214.733 27.0451 229.957 33.0846 253.969C44.3981 298.957 78.286 457.1 78.286 457.1L111.528 456.821L80.1794 204L29.2405 205.382Z" fill="#262626"/>
<path d="M28.7262 205.565L28.6177 205.571C28.6177 205.571 28.6957 203.477 28.7262 205.565Z" fill="#333333"/>
<path d="M210.69 105.911C210.49 105.515 210.172 105.191 209.78 104.983C209.388 104.776 208.941 104.695 208.501 104.752C208.505 104.713 208.496 104.673 208.477 104.639C208.456 104.613 208.429 104.593 208.398 104.58C208.367 104.567 208.334 104.563 208.301 104.568L209.786 103.503C210.23 103.199 210.549 102.745 210.684 102.224C210.819 101.703 210.761 101.15 210.521 100.669C210.268 100.201 209.85 99.843 209.348 99.6656C208.846 99.4881 208.296 99.5035 207.805 99.7087C207.809 99.6879 207.795 99.6676 207.792 99.6463L208.4 99.2089C208.817 98.9206 209.122 98.497 209.263 98.0097C209.404 97.5224 209.372 97.0014 209.173 96.5349C209.042 96.245 208.848 95.9879 208.606 95.7819C208.364 95.5759 208.079 95.4263 207.771 95.3439C207.464 95.2615 207.142 95.2482 206.829 95.3052C206.517 95.3621 206.22 95.4878 205.962 95.6732L204.554 96.6824C204.55 96.6738 204.554 96.6642 204.548 96.6566C204.543 96.649 204.528 96.6459 204.519 96.6373C204.843 96.2737 205.033 95.811 205.058 95.3251C205.084 94.8393 204.944 94.3591 204.661 93.9634C203.996 92.8938 202.462 93.1123 201.551 93.7647L193.264 99.4892L194.745 96.9952C195.044 96.5153 195.149 95.9402 195.039 95.3859C194.93 94.8316 194.614 94.3395 194.156 94.009C193.913 93.8467 193.64 93.7354 193.353 93.6821C193.067 93.6288 192.772 93.6345 192.487 93.6989C192.203 93.7632 191.934 93.8849 191.698 94.0565C191.462 94.2281 191.263 94.446 191.114 94.6969L183.03 108.311C182.082 109.908 181.793 111.812 182.226 113.619C182.659 115.426 183.779 116.992 185.349 117.986C187.169 119.139 189.292 119.722 191.446 119.66C193.6 119.598 195.686 118.894 197.438 117.639L209.953 108.669C210.368 108.36 210.667 107.919 210.801 107.419C210.935 106.918 210.896 106.387 210.69 105.911Z" fill="#E98862"/>
<g opacity="0.25">
<path d="M196.355 102.338C196.385 102.38 196.431 102.408 196.482 102.417C196.533 102.425 196.586 102.414 196.628 102.384L204.502 96.9304C204.524 96.9156 204.542 96.8966 204.556 96.8747C204.57 96.8528 204.58 96.8284 204.584 96.8027C204.589 96.7771 204.589 96.7508 204.583 96.7254C204.578 96.6999 204.567 96.6758 204.552 96.6544C204.537 96.633 204.518 96.6147 204.497 96.6006C204.475 96.5865 204.45 96.5769 204.425 96.5723C204.399 96.5676 204.373 96.5681 204.347 96.5736C204.322 96.5791 204.298 96.5896 204.276 96.6045L196.402 102.058C196.381 102.073 196.362 102.092 196.348 102.114C196.334 102.136 196.324 102.16 196.32 102.186C196.315 102.211 196.315 102.238 196.321 102.263C196.326 102.288 196.337 102.313 196.351 102.334L196.355 102.338Z" fill="#0C0C0C"/>
</g>
<g opacity="0.25">
<path d="M198.665 105.877C198.695 105.919 198.741 105.947 198.792 105.955C198.843 105.964 198.895 105.952 198.938 105.923L207.725 99.8365C207.747 99.8217 207.765 99.8029 207.779 99.781C207.793 99.7592 207.803 99.7347 207.808 99.7091C207.813 99.6835 207.812 99.6572 207.807 99.6318C207.801 99.6063 207.791 99.5822 207.776 99.5607C207.745 99.519 207.699 99.4906 207.648 99.4812C207.597 99.4718 207.544 99.4821 207.5 99.51L198.713 105.596C198.691 105.611 198.673 105.63 198.659 105.652C198.645 105.674 198.635 105.698 198.63 105.724C198.626 105.749 198.626 105.776 198.631 105.801C198.637 105.827 198.647 105.851 198.662 105.872L198.665 105.877Z" fill="#0C0C0C"/>
</g>
<g opacity="0.25">
<path d="M201.144 109.724C201.175 109.766 201.22 109.794 201.271 109.803C201.322 109.811 201.375 109.8 201.417 109.77L208.427 104.916C208.47 104.886 208.5 104.84 208.509 104.788C208.519 104.736 208.507 104.683 208.477 104.639C208.447 104.596 208.401 104.567 208.349 104.557C208.298 104.548 208.244 104.56 208.201 104.59L201.191 109.444C201.17 109.459 201.151 109.478 201.137 109.5C201.123 109.522 201.113 109.546 201.109 109.572C201.104 109.597 201.104 109.623 201.11 109.649C201.115 109.674 201.126 109.699 201.141 109.72L201.144 109.724Z" fill="#0C0C0C"/>
</g>
<path d="M178.258 105.21L154.506 145.661L125.523 107.648L101.453 129.347L142.558 182.578L142.828 182.957C144.473 185.21 146.665 187.008 149.197 188.18C151.729 189.352 154.518 189.86 157.3 189.656C160.083 189.453 162.768 188.544 165.102 187.016C167.437 185.487 169.343 183.39 170.643 180.921L204.419 119.758L178.258 105.21Z" fill="#171DCE"/>
<path d="M152.177 150.525C152.125 150.525 152.074 150.512 152.029 150.487C151.984 150.461 151.946 150.425 151.919 150.381C151.892 150.337 151.877 150.287 151.875 150.235C151.873 150.183 151.885 150.132 151.908 150.086L154.236 145.524C154.278 145.463 154.341 145.419 154.413 145.401C154.484 145.382 154.56 145.391 154.626 145.424C154.692 145.458 154.744 145.515 154.771 145.584C154.798 145.653 154.799 145.729 154.774 145.799L152.445 150.361C152.42 150.41 152.381 150.451 152.334 150.48C152.287 150.509 152.232 150.525 152.177 150.525Z" fill="#0C0C0C"/>
<path d="M123.852 145.43L123.126 158.207L123.729 158.241L124.454 145.464L123.852 145.43Z" fill="#0C0C0C"/>
<path d="M47.317 52.9658C47.317 52.9658 46.2018 67.1871 42.9423 72.3135C33.5515 87.0721 30.6858 103.764 39.8176 112.608C48.9493 121.451 107.827 122.254 112.52 102.21C116.471 85.3359 108.433 83.4239 106.634 69.4449C105.82 63.1197 103.532 49.8499 103.532 49.8499" fill="#0A0A0A"/>
<path d="M97.5309 99.0066C97.4295 98.9929 96.3011 117.708 74.5591 116.077C59.507 114.949 54.1396 98.9797 53.7949 98.9797C55.4171 98.635 58.1504 98.1337 58.8713 97.7489C61.2417 96.4751 64.1742 95.15 64.9381 90.5473C65.3787 87.8947 64.6315 74.3232 64.8616 71.6396L87.9683 76.7964C87.6454 82.4652 85.386 95.6068 93.3057 97.9345C94.6211 98.3167 96.0405 98.6705 97.5309 99.0066Z" fill="#E98862"/>
<path opacity="0.52" d="M88.29 92.5613C87.9285 91.3949 87.6954 90.1925 87.595 88.9754C87.3415 86.1981 87.3925 83.4015 87.7471 80.6353C83.051 80.0012 78.6268 78.0629 74.9772 75.0405C74.5483 76.6251 72.1891 83.548 72.842 85.054C74.0784 87.9003 79.8786 92.5613 88.29 92.5613Z" fill="#0C0C0C"/>
<path d="M85.2277 86.6711C76.1091 87.4467 64.3657 83.6672 62.0647 71.509L59.9864 60.539C57.6854 48.3808 62.2062 37.3166 73.6536 35.15C85.1014 32.9835 95.5233 41.2203 97.8243 53.3784L98.7433 58.2351C99.6274 62.9002 101.498 85.2868 85.2277 86.6711Z" fill="#E98862"/>
<path d="M95.483 58.7649C96.2755 58.7649 96.9181 58.1224 96.9181 57.3298C96.9181 56.5373 96.2755 55.8948 95.483 55.8948C94.6904 55.8948 94.0479 56.5373 94.0479 57.3298C94.0479 58.1224 94.6904 58.7649 95.483 58.7649Z" fill="#0C0C0C"/>
<path d="M80.7813 60.728C81.5739 60.728 82.2164 60.0855 82.2164 59.293C82.2164 58.5004 81.5739 57.8579 80.7813 57.8579C79.9887 57.8579 79.3462 58.5004 79.3462 59.293C79.3462 60.0855 79.9887 60.728 80.7813 60.728Z" fill="#0C0C0C"/>
<path d="M88.8496 69.8134C88.8571 69.8129 88.8645 69.8119 88.8719 69.8104C89.3356 69.7191 89.7938 69.6023 90.2446 69.4606C90.9178 69.2441 91.7994 68.8858 91.6848 68.278C91.554 67.585 88.2413 60.4716 87.8641 59.6605C87.8478 59.6256 87.8247 59.5941 87.7962 59.5681C87.7677 59.542 87.7344 59.5218 87.6981 59.5086C87.6618 59.4954 87.6233 59.4895 87.5847 59.4913C87.5461 59.493 87.5083 59.5023 87.4733 59.5186C87.4383 59.5349 87.4069 59.558 87.3808 59.5865C87.3548 59.615 87.3346 59.6483 87.3214 59.6846C87.3082 59.7209 87.3023 59.7594 87.304 59.798C87.3057 59.8366 87.315 59.8744 87.3314 59.9094C88.7442 62.9392 91.0187 67.9211 91.1069 68.3875C91.0309 68.6034 89.9136 69.0145 88.7624 69.2325C88.6881 69.2471 88.6223 69.2897 88.5787 69.3516C88.5351 69.4135 88.517 69.4898 88.5283 69.5646C88.5395 69.6395 88.5792 69.7071 88.639 69.7535C88.6989 69.7998 88.7743 69.8213 88.8496 69.8134Z" fill="#0C0C0C"/>
<path d="M87.1544 75.0624C89.0215 74.8205 90.8057 74.1433 92.3631 73.0854C92.4276 73.0425 92.4726 72.9759 92.4882 72.9C92.5038 72.8241 92.4889 72.7451 92.4466 72.6802C92.4043 72.6153 92.3381 72.5697 92.2624 72.5533C92.1867 72.5369 92.1075 72.5511 92.0422 72.5927C88.6722 74.7881 85.3234 75.1435 82.3599 73.6197C82.3 73.5873 82.2384 73.5581 82.1754 73.532C82.1022 73.5062 82.0218 73.5104 81.9517 73.5437C81.8816 73.5769 81.8275 73.6365 81.8012 73.7095C81.7748 73.7824 81.7784 73.8628 81.8111 73.9332C81.8437 74.0036 81.9029 74.0581 81.9757 74.0851C81.999 74.0947 82.0375 74.1155 82.0913 74.1434C83.65 74.9466 85.4129 75.2665 87.1544 75.0624Z" fill="#0C0C0C"/>
<path d="M50.8306 64.362L61.0928 62.4809C68.8645 59.3381 71.2151 45.8822 71.2151 45.8822C71.2151 45.8822 80.655 55.0826 103.533 49.8498C103.533 49.8498 98.9454 17.9465 65.1477 27.2229C54.2488 30.2137 46.428 41.1959 47.4023 55.8729C48.0851 66.1585 50.8306 64.362 50.8306 64.362Z" fill="#0A0A0A"/>
<path d="M63.4767 75.0786C59.9976 75.7376 56.4735 72.5492 55.815 69.0703C55.1565 65.5914 57.6136 63.1394 61.0926 62.4805L63.3261 64.4721L66.469 74.5119L63.4767 75.0786Z" fill="#E98862"/>
<path d="M89.9599 53.8462C90.9754 53.1908 92.1485 52.8207 93.3563 52.7746C93.9505 52.7483 94.5453 52.8112 95.1209 52.9612C95.6908 53.1077 96.2401 53.3254 96.7557 53.609C96.826 53.6461 96.8792 53.7091 96.904 53.7846C96.9289 53.8602 96.9235 53.9424 96.8889 54.014C96.8544 54.0856 96.7934 54.1411 96.7189 54.1687C96.6443 54.1963 96.5619 54.1939 96.4891 54.162L96.4668 54.1519C95.9901 53.9178 95.486 53.7445 94.9663 53.6359C94.4525 53.5258 93.9251 53.4942 93.4019 53.5421C92.3636 53.6289 91.3667 53.9888 90.5124 54.5853L90.485 54.6056C90.3858 54.6713 90.2649 54.6961 90.1477 54.6748C90.0306 54.6535 89.9262 54.5877 89.8564 54.4911C89.7867 54.3946 89.757 54.2748 89.7735 54.1569C89.7901 54.039 89.8516 53.932 89.9452 53.8584L89.9599 53.8462Z" fill="#0C0C0C"/>
<path d="M80.808 56.0012C79.7964 55.7534 78.7372 55.7777 77.738 56.0717C77.2329 56.2162 76.7525 56.4362 76.3131 56.7241C75.8675 57.0132 75.4601 57.3572 75.1005 57.748L75.0843 57.7643C75.028 57.8207 74.952 57.853 74.8723 57.8544C74.7927 57.8559 74.7156 57.8263 74.6573 57.772C74.599 57.7177 74.5641 57.6428 74.56 57.5633C74.5559 57.4837 74.5828 57.4056 74.6351 57.3455C75.0132 56.8948 75.4467 56.4935 75.9253 56.1513C76.4078 55.8036 76.9397 55.5302 77.5033 55.3402C78.6457 54.9475 79.8727 54.869 81.0558 55.1131C81.1755 55.1389 81.28 55.2111 81.3464 55.3139C81.4128 55.4167 81.4357 55.5417 81.4099 55.6613C81.3842 55.781 81.312 55.8855 81.2091 55.9519C81.1063 56.0183 80.9813 56.0412 80.8617 56.0154L80.8429 56.0109L80.808 56.0012Z" fill="#0C0C0C"/>
<path d="M87.5511 77.823C87.8895 77.7838 88.2239 77.716 88.5508 77.6202C88.5879 77.6095 88.6226 77.5917 88.6528 77.5676C88.683 77.5435 88.7081 77.5137 88.7268 77.4799C88.7455 77.4461 88.7573 77.409 88.7617 77.3706C88.766 77.3322 88.7627 77.2934 88.7521 77.2563C88.7414 77.2192 88.7235 77.1845 88.6994 77.1543C88.6753 77.1241 88.6455 77.099 88.6117 77.0803C88.5779 77.0616 88.5408 77.0497 88.5024 77.0454C88.4641 77.0411 88.4252 77.0443 88.3881 77.055C86.4207 77.6212 85.3019 76.871 85.2548 76.8386C85.1909 76.7937 85.1119 76.7761 85.035 76.7896C84.9581 76.803 84.8898 76.8465 84.8449 76.9103C84.8001 76.9742 84.7825 77.0532 84.7959 77.1301C84.8094 77.2069 84.8528 77.2753 84.9167 77.3201C85.7104 77.7871 86.6413 77.9648 87.5511 77.823Z" fill="#0C0C0C"/>
<path d="M61.1151 62.3497L61.0137 62.0658C74.0158 57.3982 70.8364 44.6394 70.8029 44.5111L71.0944 44.4346C71.1283 44.5664 74.3828 57.5888 61.1151 62.3497Z" fill="#0C0C0C"/>
<path opacity="0.1" d="M79.6228 70.7091C81.124 70.5476 82.2449 69.524 82.1264 68.4229C82.008 67.3217 80.6949 66.56 79.1937 66.7215C77.6925 66.883 76.5716 67.9066 76.6901 69.0077C76.8086 70.1089 78.1216 70.8706 79.6228 70.7091Z" fill="#0C0C0C"/>
<path opacity="0.1" d="M95.5124 66.4966C95.634 67.5961 96.9465 68.3569 98.4475 68.1973C98.7069 68.1693 98.9628 68.1145 99.2109 68.0335C99.2956 66.7252 99.3123 65.466 99.2895 64.2996C98.8744 64.1911 98.4427 64.1608 98.0166 64.2104C96.5151 64.3696 95.3948 65.391 95.5124 66.4966Z" fill="#0C0C0C"/>
<path d="M124.545 140.211C123.86 148.256 120.528 198.45 119.87 208.36H28.9142C28.4017 199.422 26.3091 160.339 24.3651 142.861C22.5097 126.184 18.869 117.833 21.5374 112.903C25.897 104.843 37.8143 100.188 45.9393 99.0878C50.9011 98.4161 58.3635 97.9346 58.3635 97.9346C58.3635 97.9346 58.9957 110.716 74.0615 111.427C94.5712 112.395 93.2014 97.9346 93.3033 97.9346C96.6257 97.9346 115.608 100.038 120.25 102.79C132.904 110.281 125.998 123.159 124.545 140.211Z" fill="#171DCE"/>
<path d="M181.098 145.829L172.699 186.647C172.529 187.476 172.079 188.221 171.426 188.758C170.772 189.296 169.954 189.593 169.108 189.601L111.279 190.093C110.727 190.097 110.182 189.978 109.682 189.745C109.182 189.511 108.741 189.169 108.391 188.743C108.04 188.317 107.79 187.818 107.657 187.282C107.524 186.747 107.513 186.189 107.624 185.648L116.023 144.831C116.193 144.002 116.643 143.257 117.297 142.719C117.95 142.182 118.768 141.884 119.614 141.877L177.443 141.385C177.995 141.38 178.54 141.499 179.04 141.733C179.54 141.966 179.981 142.309 180.331 142.735C180.682 143.161 180.932 143.66 181.065 144.195C181.197 144.731 181.209 145.289 181.098 145.829Z" fill="#292A2E"/>
<path d="M127.174 174.823C127.205 175.36 127.041 175.891 126.711 176.317C126.382 176.743 125.909 177.035 125.381 177.14L123.601 177.532C123.633 177.543 123.662 177.561 123.685 177.585C123.708 177.609 123.725 177.639 123.734 177.671C123.738 177.709 123.73 177.747 123.71 177.78C124.138 177.9 124.518 178.15 124.797 178.496C125.076 178.843 125.24 179.267 125.267 179.711C125.269 180.228 125.097 180.731 124.778 181.138C124.46 181.545 124.013 181.833 123.511 181.956L108.478 185.293C107.709 185.465 106.924 185.552 106.136 185.552C104.382 185.552 102.654 185.125 101.101 184.308C99.5479 183.491 98.2171 182.309 97.223 180.863C96.1688 179.334 95.753 177.453 96.0641 175.622C96.3752 173.79 97.3886 172.153 98.8887 171.057L111.676 161.71C111.958 161.504 112.285 161.369 112.63 161.317L111.453 167.032L111.767 166.96L111.833 166.948L121.64 164.95C122.732 164.709 124.229 165.107 124.422 166.35C124.526 166.826 124.465 167.323 124.25 167.76C124.035 168.197 123.679 168.549 123.239 168.758C123.245 168.764 123.257 168.77 123.257 168.782C123.257 168.794 123.251 168.8 123.251 168.812L124.947 168.438C125.257 168.369 125.579 168.37 125.889 168.441C126.198 168.511 126.489 168.65 126.739 168.846C126.989 169.042 127.192 169.291 127.334 169.576C127.476 169.86 127.553 170.172 127.56 170.49C127.56 170.997 127.384 171.489 127.063 171.881C126.742 172.274 126.295 172.544 125.798 172.644L125.067 172.807C125.062 172.831 125.067 172.858 125.056 172.873C125.588 172.877 126.099 173.079 126.491 173.44C126.882 173.8 127.126 174.293 127.174 174.823Z" fill="#E98862"/>
<g opacity="0.25">
<path d="M113.489 170.793C113.5 170.844 113.53 170.888 113.574 170.917C113.618 170.945 113.671 170.955 113.722 170.945L123.105 169.019C123.156 169.008 123.202 168.978 123.23 168.934C123.259 168.89 123.27 168.836 123.259 168.785C123.248 168.733 123.218 168.688 123.174 168.659C123.13 168.63 123.076 168.62 123.025 168.631L113.642 170.557C113.591 170.568 113.546 170.598 113.517 170.642C113.489 170.686 113.479 170.739 113.49 170.79L113.489 170.793Z" fill="#0C0C0C"/>
</g>
<g opacity="0.25">
<path d="M114.223 174.955C114.235 175.005 114.266 175.049 114.309 175.077C114.353 175.105 114.406 175.115 114.457 175.104L124.928 172.957C124.979 172.946 125.024 172.915 125.052 172.871C125.081 172.827 125.091 172.774 125.08 172.723C125.068 172.672 125.037 172.628 124.993 172.6C124.95 172.572 124.897 172.561 124.846 172.571L114.374 174.718C114.323 174.729 114.279 174.76 114.25 174.804C114.222 174.848 114.212 174.901 114.222 174.952L114.223 174.955Z" fill="#0C0C0C"/>
</g>
<g opacity="0.25">
<path d="M114.993 179.467C115.004 179.518 115.035 179.562 115.078 179.59C115.122 179.619 115.175 179.629 115.226 179.619L123.579 177.906C123.604 177.901 123.629 177.891 123.651 177.876C123.673 177.862 123.692 177.843 123.706 177.821C123.721 177.8 123.731 177.775 123.736 177.749C123.741 177.724 123.741 177.697 123.736 177.671C123.731 177.646 123.72 177.621 123.705 177.6C123.691 177.578 123.672 177.559 123.65 177.545C123.628 177.531 123.603 177.521 123.577 177.516C123.551 177.511 123.525 177.512 123.499 177.518L115.146 179.23C115.095 179.241 115.05 179.272 115.022 179.316C114.993 179.36 114.983 179.413 114.994 179.465L114.993 179.467Z" fill="#0C0C0C"/>
</g>
<path d="M107.547 191.24L25.9897 205.978C23.4447 206.255 20.8702 205.939 18.4681 205.054C16.066 204.168 13.9017 202.739 12.1451 200.877C10.3884 199.014 9.08706 196.771 8.34324 194.321C7.59942 191.872 7.43331 189.283 7.85797 186.759L19.2759 118.896C20.0052 114.562 22.4261 110.696 26.0059 108.148C27.7784 106.886 29.7821 105.986 31.9026 105.499C34.0231 105.011 36.2188 104.946 38.3645 105.307C40.5101 105.668 42.5636 106.448 44.4077 107.603C46.2518 108.758 47.8504 110.264 49.1123 112.037C50.3741 113.809 51.2745 115.813 51.7619 117.933C52.2494 120.054 52.3145 122.249 51.9533 124.395L44.17 171.11L103.963 163.601L107.547 191.24Z" fill="#171DCE"/>
<path d="M25.9891 206.28C25.9169 206.275 25.8489 206.244 25.7974 206.193C25.7459 206.142 25.7142 206.075 25.7081 206.002C25.702 205.93 25.7218 205.858 25.7641 205.799C25.8063 205.741 25.8681 205.699 25.9384 205.681L107.213 190.995L103.703 163.938L44.2055 171.409C44.1591 171.415 44.112 171.41 44.0679 171.395C44.0239 171.379 43.9842 171.353 43.952 171.319C43.9193 171.285 43.8951 171.244 43.8812 171.199C43.8673 171.154 43.8641 171.107 43.8719 171.061L48.821 141.204C48.8271 141.164 48.841 141.127 48.8618 141.093C48.8827 141.059 48.9101 141.03 48.9424 141.007C48.9748 140.984 49.0114 140.967 49.0502 140.958C49.089 140.95 49.1291 140.949 49.1683 140.956C49.2074 140.962 49.2448 140.976 49.2785 140.997C49.3121 141.018 49.3413 141.046 49.3643 141.078C49.3874 141.11 49.4038 141.147 49.4127 141.185C49.4216 141.224 49.4228 141.264 49.4162 141.303L44.5329 170.761L103.925 163.302C104.004 163.293 104.084 163.315 104.147 163.364C104.21 163.412 104.251 163.484 104.262 163.563L107.847 191.203C107.857 191.279 107.837 191.357 107.791 191.419C107.745 191.481 107.678 191.524 107.602 191.538L26.0434 206.275C26.0254 206.278 26.0073 206.28 25.9891 206.28Z" fill="#0C0C0C"/>
<path d="M44.1213 170.813L38.875 171.653L38.9704 172.249L44.2167 171.409L44.1213 170.813Z" fill="#0C0C0C"/>
<path d="M320.556 46.0714C320.563 39.9343 319.342 33.8579 316.966 28.1995C314.589 22.5412 311.105 17.4154 306.718 13.1237C302.331 8.83195 297.13 5.46105 291.42 3.20935C285.711 0.957648 279.609 -0.129373 273.473 0.0122567C248.565 0.57239 228.445 21.2395 228.516 46.154C228.528 52.5852 229.891 58.942 232.519 64.8121C235.146 70.6822 238.978 75.9344 243.766 80.2279C254.069 89.4946 260.185 102.528 260.169 116.385V116.436L288.74 116.469V116.418C288.755 102.579 294.87 89.5519 305.191 80.3292C310.023 76.0255 313.89 70.7482 316.538 64.844C319.186 58.9398 320.555 52.5422 320.556 46.0714Z" fill="#0CBC8B"/>
<path d="M288.305 50.6403C287.832 50.032 287.01 49.6538 285.863 49.5251C283.918 49.3076 281.698 50.4091 279.79 52.5554L279.605 52.7581L279.461 52.528C279.205 52.1131 278.914 51.7211 278.59 51.3565C277.216 49.8186 274.742 48.2482 270.732 49.4855C269.385 49.8778 268.146 50.5741 267.11 51.5208L266.971 51.6526L266.831 51.5208C266.51 51.2287 266.162 50.9685 265.79 50.7437C263.538 49.3705 261.025 49.6995 259.315 50.2175C258.841 50.3622 258.436 50.6753 258.176 51.0978C257.916 51.5203 257.82 52.0232 257.905 52.5118L269.104 116.514C269.123 116.622 269.183 116.718 269.272 116.781C269.362 116.844 269.472 116.869 269.58 116.85C269.687 116.831 269.783 116.771 269.846 116.682C269.909 116.593 269.934 116.482 269.915 116.375L258.714 52.3739C258.663 52.0827 258.72 51.7828 258.874 51.5306C259.028 51.2785 259.27 51.0916 259.553 51.0052C261.103 50.5369 263.368 50.2322 265.362 51.4493C265.69 51.6472 265.997 51.8771 266.279 52.1356L266.419 52.2634L266.303 52.4114C265.35 53.6704 264.817 55.1983 264.783 56.7774C264.676 59.4579 265.839 62.1385 267.377 62.7467C267.673 62.8683 267.998 62.9062 268.314 62.8562C268.631 62.8062 268.928 62.6704 269.173 62.4634C269.695 62.0356 270.491 60.9052 269.979 58.1466C269.523 55.717 268.738 53.7872 267.64 52.3992L267.521 52.2512L267.66 52.1194C268.608 51.2573 269.742 50.6256 270.974 50.2733C273.815 49.3978 276.237 49.957 277.972 51.9055C278.361 52.3446 278.701 52.826 278.983 53.3406L279.049 53.4556L278.97 53.5626C278.818 53.7654 278.67 53.9737 278.526 54.1876C276.866 56.6542 275.542 60.1651 276.562 62.0482C276.762 62.4133 277.064 62.7126 277.431 62.9104C277.798 63.1082 278.214 63.1961 278.629 63.1634H278.666C279.513 63.1513 280.225 62.5881 280.665 61.5849C281.526 59.6237 281.273 56.2979 280.068 53.6711L280.015 53.556L280.097 53.4572C281.762 51.4427 283.653 50.3204 285.347 50.3204C285.491 50.3204 285.631 50.3285 285.771 50.3407C287.933 50.5876 287.9 51.7093 287.892 51.8371L278.748 116.401C278.741 116.455 278.744 116.509 278.757 116.562C278.771 116.614 278.794 116.663 278.827 116.706C278.859 116.749 278.9 116.786 278.947 116.813C278.993 116.84 279.045 116.858 279.098 116.866C279.205 116.877 279.313 116.848 279.399 116.783C279.486 116.718 279.544 116.623 279.563 116.516L288.702 51.9628C288.746 51.4872 288.604 51.0129 288.305 50.6403ZM269.169 58.2946C269.621 60.7242 268.959 61.5753 268.651 61.8262C268.481 61.9732 268.264 62.0548 268.039 62.0563C267.916 62.0548 267.795 62.0311 267.681 61.9864C266.62 61.5626 265.501 59.3348 265.602 56.8104C265.644 55.4843 266.064 54.1978 266.811 53.1018L266.972 52.8717L267.144 53.0978C268.199 54.657 268.891 56.4328 269.169 58.2946ZM279.912 61.2544C279.6 61.9641 279.176 62.3316 278.654 62.3397H278.576C278.317 62.368 278.056 62.3182 277.826 62.1966C277.596 62.0749 277.407 61.8871 277.285 61.6574C276.575 60.342 277.4 57.3284 279.211 54.6479L279.433 54.3189L279.598 54.656C280.476 56.9538 280.607 59.6673 279.912 61.2539V61.2544Z" fill="white"/>
<path d="M260.187 116.395L288.757 116.424L288.756 118.093C288.752 121.882 287.243 125.514 284.562 128.19C281.88 130.866 278.245 132.368 274.456 132.364C270.668 132.36 267.036 130.851 264.359 128.17C261.683 125.488 260.182 121.853 260.185 118.065L260.187 116.395Z" fill="#262626"/>
</g>
<defs>
<clipPath id="clip0_64_2385">
<rect width="502.78" height="476" fill="white" transform="translate(0.219727)"/>
</clipPath>
</defs>
</svg>
