<svg width="48" height="49" viewBox="0 0 48 49" fill="none" xmlns="http://www.w3.org/2000/svg">
<g clip-path="url(#clip0_170_1406)">
<circle opacity="0.4" cx="23.5" cy="25.5" r="23.5" fill="url(#paint0_linear_170_1406)"/>
<path d="M22.9989 20.6064C21.5682 20.6064 20.196 21.1748 19.1843 22.1865C18.1726 23.1982 17.6042 24.5704 17.6042 26.0011C17.6042 27.4319 18.1726 28.804 19.1843 29.8157C20.196 30.8274 21.5682 31.3958 22.9989 31.3958C24.4297 31.3958 25.8018 30.8274 26.8135 29.8157C27.8252 28.804 28.3936 27.4319 28.3936 26.0011C28.3936 24.5704 27.8252 23.1982 26.8135 22.1865C25.8018 21.1748 24.4297 20.6064 22.9989 20.6064ZM22.9989 29.5046C22.0694 29.5046 21.178 29.1354 20.5207 28.4781C19.8635 27.8209 19.4942 26.9294 19.4942 25.9999C19.4942 25.0704 19.8635 24.179 20.5207 23.5218C21.178 22.8645 22.0694 22.4953 22.9989 22.4953C23.9284 22.4953 24.8198 22.8645 25.4771 23.5218C26.1343 24.179 26.5036 25.0704 26.5036 25.9999C26.5036 26.9294 26.1343 27.8209 25.4771 28.4781C24.8198 29.1354 23.9284 29.5046 22.9989 29.5046Z" fill="#F7F8F4"/>
<path d="M28.607 21.6657C29.3016 21.6657 29.8647 21.1026 29.8647 20.4081C29.8647 19.7135 29.3016 19.1504 28.607 19.1504C27.9124 19.1504 27.3494 19.7135 27.3494 20.4081C27.3494 21.1026 27.9124 21.6657 28.607 21.6657Z" fill="#F7F8F4"/>
<path d="M32.9553 19.1295C32.6852 18.4321 32.2725 17.7987 31.7435 17.2699C31.2145 16.7412 30.581 16.3287 29.8834 16.0589C29.0672 15.7524 28.2048 15.5868 27.3331 15.5689C26.2096 15.5199 25.8538 15.5059 23.0048 15.5059C20.1558 15.5059 19.7906 15.5059 18.6764 15.5689C17.8054 15.5858 16.9437 15.7516 16.1284 16.0589C15.4307 16.3284 14.797 16.7407 14.268 17.2695C13.739 17.7983 13.3264 18.4319 13.0566 19.1295C12.7501 19.9457 12.5848 20.8082 12.5678 21.6799C12.5176 22.8022 12.5024 23.158 12.5024 26.0082C12.5024 28.8572 12.5024 29.22 12.5678 30.3365C12.5853 31.2092 12.7498 32.0702 13.0566 32.888C13.3271 33.5854 13.7402 34.2187 14.2693 34.7474C14.7984 35.2762 15.432 35.6887 16.1296 35.9587C16.9433 36.2774 17.8054 36.455 18.6788 36.4837C19.8023 36.5327 20.1581 36.5479 23.0071 36.5479C25.8561 36.5479 26.2213 36.5479 27.3354 36.4837C28.2071 36.466 29.0694 36.3007 29.8858 35.9949C30.5832 35.7244 31.2165 35.3116 31.7454 34.7827C32.2743 34.2538 32.6872 33.6204 32.9576 32.923C33.2644 32.1064 33.4289 31.2454 33.4464 30.3727C33.4966 29.2504 33.5118 28.8945 33.5118 26.0444C33.5118 23.1942 33.5118 22.8325 33.4464 21.716C33.4329 20.832 33.2667 19.957 32.9553 19.1295ZM31.5343 30.2502C31.5268 30.9225 31.404 31.5886 31.1714 32.2195C30.9962 32.6732 30.728 33.0852 30.384 33.429C30.04 33.7728 29.6279 34.0408 29.1741 34.2157C28.5502 34.4472 27.8912 34.5699 27.2258 34.5785C26.1174 34.6299 25.8048 34.6427 22.9628 34.6427C20.1184 34.6427 19.8279 34.6427 18.6986 34.5785C18.0335 34.5704 17.3748 34.4476 16.7514 34.2157C16.2961 34.0418 15.8823 33.7743 15.5368 33.4305C15.1913 33.0866 14.9219 32.6741 14.7459 32.2195C14.5166 31.5954 14.394 30.9372 14.3831 30.2724C14.3329 29.164 14.3213 28.8514 14.3213 26.0094C14.3213 23.1662 14.3213 22.8757 14.3831 21.7452C14.3906 21.0732 14.5134 20.4075 14.7459 19.777C15.1018 18.8565 15.8309 18.132 16.7514 17.7797C17.3751 17.5489 18.0336 17.4262 18.6986 17.4169C19.8081 17.3667 20.1196 17.3527 22.9628 17.3527C25.8059 17.3527 26.0976 17.3527 27.2258 17.4169C27.8913 17.4249 28.5504 17.5476 29.1741 17.7797C29.6279 17.955 30.0399 18.2233 30.3839 18.5672C30.7279 18.9112 30.9961 19.3233 31.1714 19.777C31.4008 20.4011 31.5234 21.0594 31.5343 21.7242C31.5844 22.8337 31.5973 23.1452 31.5973 25.9884C31.5973 28.8304 31.5973 29.136 31.5471 30.2514H31.5343V30.2502Z" fill="#F7F8F4"/>
</g>
<defs>
<linearGradient id="paint0_linear_170_1406" x1="28.5088" y1="18.2587" x2="11.296" y2="43.4371" gradientUnits="userSpaceOnUse">
<stop stop-color="white"/>
<stop offset="1" stop-color="white" stop-opacity="0"/>
</linearGradient>
<clipPath id="clip0_170_1406">
<rect width="48" height="48" fill="white" transform="translate(0 0.931396)"/>
</clipPath>
</defs>
</svg>
