<svg width="48" height="49" viewBox="0 0 48 49" fill="none" xmlns="http://www.w3.org/2000/svg">
<g clip-path="url(#clip0_64_2361)">
<circle cx="23.2689" cy="24.1067" r="19.1625" fill="#F7F8F4"/>
<path d="M24 0.93158C10.7451 0.93158 0 11.6766 0 24.9315C0 38.1864 10.7451 48.9315 24 48.9315C37.2548 48.9315 48 38.1864 48 24.9315C47.9999 11.6766 37.2547 0.93158 24 0.93158ZM17.5967 36.5344H12.3273V19.5104H17.5967V36.5344ZM14.9369 17.2809C13.216 17.2809 11.8208 15.8744 11.8208 14.1397C11.8208 12.4048 13.2161 10.9984 14.9369 10.9984C16.6576 10.9984 18.0528 12.4048 18.0528 14.1397C18.0529 15.8745 16.6577 17.2809 14.9369 17.2809ZM37.3439 36.5344H32.1V27.5982C32.1 25.1473 31.169 23.7791 29.231 23.7791C27.1218 23.7791 26.0199 25.204 26.0199 27.5982V36.5344H20.9659V19.5104H26.0199V21.8032C26.0199 21.8032 27.5402 18.9911 31.15 18.9911C34.7599 18.9911 37.344 21.1953 37.344 25.755L37.3439 36.5344Z" fill="#EEB035"/>
</g>
<defs>
<clipPath id="clip0_64_2361">
<rect width="48" height="48" fill="white" transform="translate(0 0.931503)"/>
</clipPath>
</defs>
</svg>
