<svg width="48" height="49" viewBox="0 0 48 49" fill="none" xmlns="http://www.w3.org/2000/svg">
<g clip-path="url(#clip0_170_1401)">
<circle opacity="0.4" cx="24" cy="25" r="24" fill="url(#paint0_linear_170_1401)"/>
<path d="M13.5001 36.2H17.7001V20.66H13.5001V36.2ZM15.6001 13.8C14.2001 13.8 13.0801 14.92 13.0801 16.32C13.0801 17.72 14.2001 18.84 15.6001 18.84C17.0001 18.84 18.1201 17.72 18.1201 16.32C18.1201 14.92 17.0001 13.8 15.6001 13.8ZM24.8401 23.04V20.66H20.6401V36.2H24.8401V28.22C24.8401 23.74 30.5801 23.46 30.5801 28.22V36.2H34.7801V26.68C34.7801 19.12 26.8001 19.4 24.8401 23.04Z" fill="#F7F8F4"/>
</g>
<defs>
<linearGradient id="paint0_linear_170_1401" x1="29.1154" y1="17.6046" x2="11.5363" y2="43.3187" gradientUnits="userSpaceOnUse">
<stop stop-color="white"/>
<stop offset="1" stop-color="white" stop-opacity="0"/>
</linearGradient>
<clipPath id="clip0_170_1401">
<rect width="48" height="48" fill="white" transform="translate(0 0.931396)"/>
</clipPath>
</defs>
</svg>
