<svg width="262" height="60" viewBox="0 0 262 60" fill="none" xmlns="http://www.w3.org/2000/svg">
<g clip-path="url(#clip0_43_1264)">
<path d="M254.273 11.6174L260.494 17.8801C260.711 18.0532 260.872 18.2867 260.956 18.5512C261.082 20.0926 259.915 20.177 258.723 20.2631C258.208 20.3004 257.688 20.3381 257.266 20.4942C255.174 21.0604 253.308 22.2561 251.92 23.9192C250.532 25.5822 249.69 27.6321 249.506 29.7905C249.372 30.0398 249.17 30.245 248.921 30.3814C248.673 30.5179 248.392 30.5796 248.109 30.5595C247.781 30.5304 247.474 30.3869 247.241 30.154L245.2 28.0984C245.215 28.2391 245.215 28.3784 245.215 28.4905V29.8464C245.215 29.9321 245.218 30.0147 245.207 30.0971C245.194 30.1895 245.162 30.2816 245.089 30.3775V30.5034C245.089 30.5677 245.097 30.6274 245.104 30.6881C245.119 30.8122 245.136 30.9401 245.089 31.1186C245.045 31.2851 245.04 31.4792 245.034 31.6525C245.033 31.7555 245.03 31.8512 245.019 31.9293C245.004 32.0376 245.004 32.1532 244.996 32.2687C244.987 32.3769 244.969 32.485 244.921 32.5863C244.855 32.7282 244.833 32.8636 244.827 33.0013C244.823 33.0672 244.823 33.1335 244.823 33.2014L244.739 33.6348L241.567 48.7604L241.315 49.8927L241.216 51.5423L239.819 58.6857L239.595 59.8041H126.461L125.915 59.2589L125.817 59.7342H113.711L106.973 52.9543L107.616 49.8927H103.814L101.451 47.5023C98.5195 49.6373 94.9706 50.7564 91.3444 50.6896C87.4463 50.843 83.6462 49.4455 80.7761 46.8034L77.0995 43.0989L76.3027 46.8172C76.2049 47.3485 76.079 47.8519 75.9392 48.3411L75.8134 48.8025L75.6038 49.4733C75.5865 49.5316 75.5631 49.5879 75.5339 49.6411C75.3257 50.2575 75.0783 50.8598 74.7929 51.4444C74.8004 51.4671 74.8004 51.4917 74.7929 51.5143C74.7563 51.5918 74.7143 51.6665 74.667 51.738C74.456 52.1557 74.2228 52.5616 73.9681 52.9543C73.9209 53.0257 73.8789 53.1005 73.8423 53.178L73.6886 53.3456C73.3469 53.8357 72.9733 54.3026 72.5702 54.7436C72.4596 54.8541 72.349 54.958 72.2367 55.0599C72.1219 55.1643 72.0054 55.2666 71.8851 55.3726L71.5777 55.6662C71.3838 55.8272 71.1855 55.9827 70.983 56.1324C70.8159 56.256 70.646 56.3755 70.4733 56.491C67.5923 58.198 64.269 59.0104 60.9255 58.8255C56.3123 58.8255 52.6217 57.4834 50.2871 55.135L43.7168 48.5227C41.0925 50.0079 38.1209 50.7701 35.1056 50.7315C31.2193 50.8518 27.4421 49.4353 24.5932 46.7894L20.9167 43.0849L19.7284 48.8025L19.4907 49.9347H7.11905L0.353027 43.1127L0.70251 41.4632L8.13952 5.74605L8.36314 4.62771H20.7768L21.0983 4.93531V4.62771H104.737L105.044 4.93531V4.62771H117.15L123.916 11.4496L123.581 13.0852L123.217 14.8746H126.698L127.243 15.4198C128.775 14.5222 130.515 14.0403 132.29 14.0219C133.595 13.9961 134.892 14.244 136.095 14.7497C137.299 15.2553 138.384 16.0073 139.28 16.9574L139.098 16.7477L142.383 20.0609C144.382 16.3005 148.869 14.0219 154.964 14.0219C159.689 14.0219 163.17 15.224 165.28 17.4048L167.657 19.7953L168.455 15.9509L168.692 14.8326H180.811L184.279 18.3135L184.768 15.9649L185.006 14.8466H208.855L209.498 15.4897C211.113 14.5365 212.962 14.0524 214.838 14.0917C215.967 14.0477 217.09 14.2543 218.13 14.6966C219.169 15.1389 220.097 15.8061 220.848 16.65C220.81 16.606 220.772 16.5621 220.735 16.5189C220.668 16.4387 220.601 16.3604 220.529 16.288L221.744 17.5027C222.802 16.4069 224.075 15.5392 225.48 14.9527C226.887 14.3662 228.398 14.0731 229.921 14.0917C230.73 14.042 231.538 14.1108 232.321 14.294L230.998 12.9594C230.818 12.7665 230.696 12.5265 230.646 12.2672C230.597 12.0079 230.623 11.7398 230.718 11.4942C230.815 11.2484 230.979 11.0351 231.192 10.8788C231.405 10.7225 231.657 10.6296 231.921 10.6109H232.983C233.269 10.5836 233.554 10.5416 233.835 10.485C235.321 10.1728 236.719 9.53421 237.928 8.61545C239.138 7.69679 240.127 6.52095 240.826 5.17293C240.887 5.06866 240.942 4.96141 240.993 4.85142V4.78155C241.474 3.74616 241.766 2.63397 241.86 1.49636C241.884 1.14287 242.043 0.811898 242.303 0.570605C242.562 0.329226 242.903 0.19544 243.258 0.196293H243.37C243.581 0.216429 243.787 0.284858 243.969 0.39629C244.151 0.507807 244.304 0.659341 244.419 0.839373C245.425 1.81794 251.016 7.50744 251.016 7.50744C251.482 8.00846 251.448 8.65889 251.412 9.31697C251.39 9.72389 251.368 10.1338 251.463 10.513C251.718 10.5587 251.976 10.5932 252.232 10.6166C252.479 10.6389 252.727 10.651 252.974 10.6528C253.263 10.6589 253.545 10.7549 253.777 10.9278C254.01 11.1006 254.184 11.3416 254.273 11.6174Z" fill="black"/>
<path d="M64.3362 16.2166H73.1711L68.2224 39.6878C67.3139 44.1332 65.5803 46.6776 62.9522 48.4808C60.294 50.0233 57.2416 50.7524 54.1733 50.5777C48.33 50.5777 42.7241 48.1314 42.165 42.1901H51.0558C51.3354 43.5881 52.6216 44.3849 54.5787 44.3849C57.2208 44.3849 58.4369 42.7913 58.9822 40.2889L59.5133 37.7027H59.3176C58.5375 38.5603 57.5912 39.2503 56.5363 39.7309C55.4813 40.2115 54.3398 40.4727 53.1807 40.4986C48.0364 40.4986 43.9543 36.4027 44.0382 30.4055C44.1501 23.4159 48.7073 15.4757 56.3541 15.4757C57.8031 15.3781 59.2498 15.6974 60.5232 16.396C61.7966 17.0945 62.8431 18.1431 63.5394 19.4179H63.6931L64.3362 16.2166ZM56.7454 33.9423C60.1425 33.9423 62.0296 30.0282 62.0855 26.6592C62.0855 24.4085 61.2048 22.1018 58.6047 22.1018C55.0539 22.1018 53.2506 26.058 53.1947 29.4549C53.1947 31.7476 54.0754 33.9423 56.6755 33.9423M155.929 34.6973C155.929 36.193 154.642 36.7941 152.951 36.7941C150.155 36.7941 149.219 35.3962 149.205 33.4391H140.412C140.258 40.7363 146.772 42.5396 152.56 42.5396C159.954 42.5396 164.75 39.3383 164.848 32.9499C164.848 27.8473 160.5 26.2957 156.223 25.3031C152.937 24.5483 151.498 24.003 151.511 22.7589C151.526 21.5147 152.994 21.0115 154.433 21.0115C156.236 21.0115 157.466 21.6545 157.592 23.3041H166.134C166.036 17.2091 160.542 15.4198 154.95 15.4198C148.156 15.4198 142.858 18.5091 142.774 24.3525C142.774 28.9517 145.878 30.6432 150.56 31.8455C153.566 32.6423 155.956 32.8938 155.929 34.6973ZM221.254 20.005H221.1C220.72 18.6283 219.88 17.4232 218.72 16.5892C217.561 15.7552 216.151 15.3426 214.725 15.4198C210.924 15.4198 208.603 17.307 206.408 20.1588H206.255L207.066 16.2166H198.174L192.848 41.6869H202.145L204.94 27.9452C205.583 24.9536 207.107 22.8568 209.414 22.8568C211.721 22.8568 212.028 24.7019 211.552 26.9527L208.477 41.6869H217.773L220.57 27.9452C221.212 24.758 222.736 22.8568 225.042 22.8568C227.349 22.8568 227.657 24.6042 227.182 26.9527L224.106 41.6869H233.402L236.729 26.5472C238.127 20.1588 235.989 15.3638 229.852 15.3638C228.144 15.3568 226.463 15.7779 224.961 16.5887C223.459 17.3995 222.185 18.5741 221.254 20.005ZM2.05835 41.6869H11.6621L19.0852 5.96973H9.49535L2.05835 41.6869ZM30.9675 15.4617C37.4539 15.4617 43.6469 19.0124 43.549 27.0505C43.4651 35.8435 37.4819 42.4278 28.3394 42.4278C22.0487 42.4278 15.7582 38.933 15.8699 30.9368C16.0237 22.3535 21.9229 15.4617 30.9675 15.4617ZM28.6051 36.193C32.7011 36.193 34.1968 30.2517 34.1968 26.7569C34.1968 24.2547 33.428 21.8083 30.7299 21.8083C26.6759 21.8083 25.292 28.099 25.292 31.3423C25.292 33.9423 26.0189 36.193 28.661 36.193M22.2864 5.96973L20.8885 13.1132H101.535L102.933 5.96973H22.2864ZM87.1505 15.4617C93.6368 15.4617 99.8297 19.0124 99.7319 27.0505C99.648 35.8435 93.6509 42.4278 84.5084 42.4278C78.2176 42.4278 71.9269 38.933 72.0528 30.9368C72.2485 22.3535 78.1478 15.4617 87.1505 15.4617ZM84.8299 36.193C88.9259 36.193 90.4216 30.2517 90.4216 26.7569C90.4216 24.2547 89.6388 21.8083 86.9408 21.8083C82.9007 21.8083 81.5028 28.099 81.5028 31.3423C81.5028 33.9423 82.2297 36.193 84.8858 36.193M106.232 5.96973L104.834 13.1132H114.117L115.515 5.96973H106.232ZM98.7953 41.6869H108.091L113.418 16.2166H104.065L98.7953 41.6869ZM128.459 42.5396C126.98 42.6446 125.5 42.3354 124.186 41.6465C122.873 40.9576 121.777 39.9162 121.022 38.6394H120.869L118.073 51.5283H108.665L116.213 16.2166H125.048L124.349 19.6135C125.272 18.3588 126.467 17.3295 127.845 16.603C129.223 15.8767 130.747 15.4721 132.304 15.4198C137.895 15.4198 141.181 20.2147 141.083 26.4495C140.957 34.2918 136.889 42.5396 128.403 42.5396H128.459ZM128.096 22.6331C124.503 22.6331 122.295 27.2323 122.239 30.7691C122.239 33.2294 123.105 35.9693 126.055 35.9693C129.899 35.9693 131.479 30.8809 131.521 27.4838C131.521 25.1773 130.85 22.6331 128.096 22.6331ZM181.847 37.6748H182L181.19 41.7149H190.024L195.351 16.2445H186.069L183.105 30.4754C182.504 33.4251 180.686 34.9768 178.394 34.9768C176.101 34.9768 175.597 32.824 176.059 30.5733L179.065 16.2445H169.782L166.496 31.9713C165.099 38.8211 168.286 42.5117 173.627 42.5117C175.303 42.4953 176.947 42.0371 178.39 41.1829C179.832 40.3287 181.026 39.109 181.847 37.6468V37.6748ZM231.71 51.6542L233.108 44.5107H122.868L121.47 51.6542H231.71Z" fill="white"/>
<path d="M241.705 23.2059C241.614 23.1989 241.525 23.1737 241.443 23.1318C241.36 23.0901 241.287 23.0324 241.227 22.9622C241.167 22.892 241.123 22.8108 241.094 22.723C241.066 22.6353 241.056 22.5429 241.063 22.4509C241.179 21.206 241.032 19.9504 240.629 18.7666C240.227 17.5828 239.579 16.4972 238.726 15.5813C237.875 14.6653 236.84 13.9396 235.689 13.4516C234.537 12.9635 233.296 12.7242 232.046 12.7494C231.861 12.7494 231.684 12.6757 231.553 12.5446C231.421 12.4136 231.347 12.2358 231.347 12.0504C231.347 11.865 231.421 11.6872 231.553 11.5562C231.684 11.4251 231.861 11.3514 232.046 11.3514C232.381 11.3731 232.718 11.3731 233.053 11.3514C235.536 11.0869 237.849 9.96509 239.594 8.17904C241.34 6.393 242.407 4.05443 242.614 1.56589C242.629 1.39037 242.708 1.22665 242.838 1.10743C242.967 0.988211 243.137 0.92229 243.313 0.922855C243.406 0.929911 243.495 0.955078 243.577 0.996894C243.659 1.03871 243.732 1.09636 243.792 1.16652C243.853 1.23668 243.897 1.31796 243.926 1.4057C243.954 1.49343 243.964 1.58588 243.957 1.67773C243.841 2.92154 243.988 4.17591 244.389 5.3588C244.791 6.54168 245.438 7.62643 246.288 8.54216C247.139 9.45787 248.171 10.1839 249.32 10.6728C250.471 11.1618 251.71 11.4025 252.959 11.3794C253.144 11.3794 253.323 11.453 253.454 11.5841C253.585 11.7152 253.658 11.893 253.658 12.0784C253.658 12.2637 253.585 12.4415 253.454 12.5726C253.323 12.7037 253.144 12.7773 252.959 12.7773C250.304 12.8212 247.757 13.8443 245.809 15.6503C243.862 17.4562 242.649 19.9179 242.406 22.5628C242.391 22.7384 242.312 22.9022 242.182 23.0214C242.052 23.1406 241.883 23.2065 241.705 23.2059Z" fill="white"/>
</g>
<defs>
<clipPath id="clip0_43_1264">
<rect width="260.784" height="59.6078" fill="white" transform="translate(0.353027 0.196289)"/>
</clipPath>
</defs>
</svg>
