<svg width="256" height="48" viewBox="0 0 256 48" fill="none" xmlns="http://www.w3.org/2000/svg">
<g clip-path="url(#clip0_43_1248)">
<path d="M101.024 9.52148H95.6863V33.6079H110.464V28.8883H101.024V9.52148Z" fill="#F7F8F4"/>
<path d="M110.974 25.4373C110.974 30.5801 114.424 33.9977 119.632 33.9977C124.807 33.9977 128.257 30.5801 128.257 25.4373C128.257 20.2945 124.807 16.8442 119.632 16.8442C114.424 16.8442 110.974 20.2945 110.974 25.4373ZM116.019 25.4047C116.019 22.9636 117.451 21.3361 119.632 21.3361C121.78 21.3361 123.212 22.9636 123.212 25.4047C123.212 27.8785 121.78 29.506 119.632 29.506C117.451 29.506 116.019 27.8785 116.019 25.4047Z" fill="#F7F8F4"/>
<path d="M129.063 25.1775C129.063 30.0923 132.253 33.4123 136.778 33.4123C138.958 33.4123 140.846 32.6311 141.79 31.3618V33.6077C141.79 35.8535 140.391 37.3507 137.917 37.3507C135.703 37.3507 134.174 36.3092 134.076 34.454H128.998C129.454 38.9132 132.904 41.9076 137.624 41.9076C143.19 41.9076 146.705 38.2948 146.705 32.566V17.3331H142.181L141.92 18.993C141.009 17.6586 139.089 16.7798 136.875 16.7798C132.318 16.7798 129.063 20.1974 129.063 25.1775ZM134.141 25.0472C134.141 22.7036 135.703 21.1413 137.689 21.1413C140 21.1413 141.693 22.6711 141.693 25.0472C141.693 27.4234 140.032 29.0508 137.721 29.0508C135.736 29.0508 134.141 27.4234 134.141 25.0472Z" fill="#F7F8F4"/>
<path d="M148.166 25.4373C148.166 30.5801 151.616 33.9977 156.825 33.9977C162 33.9977 165.45 30.5801 165.45 25.4373C165.45 20.2945 162 16.8442 156.825 16.8442C151.616 16.8442 148.166 20.2945 148.166 25.4373ZM153.211 25.4047C153.211 22.9636 154.643 21.3361 156.825 21.3361C158.972 21.3361 160.404 22.9636 160.404 25.4047C160.404 27.8785 158.972 29.506 156.825 29.506C154.643 29.506 153.211 27.8785 153.211 25.4047Z" fill="#F7F8F4"/>
<path d="M169.771 14.7943C171.333 14.7943 172.603 13.5248 172.603 11.9299C172.603 10.335 171.333 9.09814 169.771 9.09814C168.177 9.09814 166.907 10.335 166.907 11.9299C166.907 13.5248 168.177 14.7943 169.771 14.7943ZM167.232 33.6077H172.278V17.3331H167.232V33.6077Z" fill="#F7F8F4"/>
<path d="M175.215 41.4197H180.163V31.9805C181.106 33.2173 183.255 34.0636 185.5 34.0636C190.35 34.0636 193.279 30.353 193.15 25.2102C193.018 19.9698 189.992 16.8125 185.468 16.8125C183.156 16.8125 180.976 17.8215 180.064 19.3189L179.803 17.3333H175.215V41.4197ZM180.259 25.4705C180.259 23.0294 181.887 21.402 184.231 21.402C186.606 21.402 188.104 23.0619 188.104 25.4705C188.104 27.8793 186.606 29.5392 184.231 29.5392C181.887 29.5392 180.259 27.9118 180.259 25.4705Z" fill="#F7F8F4"/>
<path d="M193.683 28.4651C193.813 31.7526 196.418 34.031 200.519 34.031C204.457 34.031 207.192 31.9478 207.192 28.5953C207.192 26.1867 205.76 24.5918 203.089 23.9407L200.194 23.2247C199.152 22.9643 198.501 22.7038 198.501 21.8576C198.501 21.0113 199.183 20.458 200.194 20.458C201.332 20.458 202.08 21.2066 202.049 22.3133H206.573C206.442 18.9281 203.872 16.8125 200.291 16.8125C196.678 16.8125 193.977 18.9608 193.977 22.2157C193.977 24.3964 195.181 26.1867 198.403 27.033L201.267 27.7815C202.113 28.0094 202.471 28.4 202.471 28.9533C202.471 29.7671 201.723 30.2879 200.453 30.2879C198.988 30.2879 198.207 29.6043 198.207 28.4651H193.683Z" fill="#F7F8F4"/>
<path d="M214.863 34.0302C216.85 34.0302 218.834 33.1188 219.843 31.7843L220.17 33.6071H224.889V17.3325H219.876V25.7953C219.876 28.2364 219.161 29.5709 216.85 29.5709C215.058 29.5709 213.887 28.7573 213.887 25.7302V17.3325H208.874V27.5529C208.874 31.4263 211.023 34.0302 214.863 34.0302Z" fill="#F7F8F4"/>
<path d="M232.838 33.6077V24.7218C232.838 21.9876 234.303 21.2064 235.735 21.2064C237.329 21.2064 238.371 22.1829 238.371 24.201V33.6077H243.319V24.7218C243.319 21.9551 244.751 21.1739 246.183 21.1739C247.777 21.1739 248.852 22.1503 248.852 24.201V33.6077H253.735V22.9641C253.735 19.2535 251.781 16.7798 247.582 16.7798C245.239 16.7798 243.319 17.9189 242.472 19.6766C241.496 17.9189 239.803 16.7798 237.102 16.7798C235.312 16.7798 233.652 17.5934 232.676 18.8954L232.48 17.3331H227.792V33.6077H232.838Z" fill="#F7F8F4"/>
<path d="M0.313721 23.9999C0.313721 10.8317 10.9887 0.156738 24.1569 0.156738H55.451C68.6192 0.156738 79.2941 10.8317 79.2941 23.9999V47.843H24.1569C10.9887 47.843 0.313721 37.1681 0.313721 23.9999Z" fill="#F7F8F4"/>
<path d="M24.1568 9.47069H55.451C63.4753 9.47069 69.9804 15.9757 69.9804 24.0001C69.9804 32.0245 63.4753 38.5295 55.451 38.5295H24.1568C16.1325 38.5295 9.62743 32.0245 9.62743 24.0001C9.62743 15.9757 16.1325 9.47069 24.1568 9.47069Z" stroke="black" stroke-width="0.745098"/>
<path d="M24.1569 31.4508C28.272 31.4508 31.6079 28.1149 31.6079 23.9998C31.6079 19.8847 28.272 16.5488 24.1569 16.5488C20.0418 16.5488 16.7059 19.8847 16.7059 23.9998C16.7059 28.1149 20.0418 31.4508 24.1569 31.4508Z" fill="#343336"/>
<path d="M21.1765 22.5097C21.9995 22.5097 22.6667 21.8425 22.6667 21.0195C22.6667 20.1965 21.9995 19.5293 21.1765 19.5293C20.3535 19.5293 19.6863 20.1965 19.6863 21.0195C19.6863 21.8425 20.3535 22.5097 21.1765 22.5097Z" fill="white"/>
<path d="M56.9412 31.4508C61.0563 31.4508 64.3922 28.1149 64.3922 23.9998C64.3922 19.8847 61.0563 16.5488 56.9412 16.5488C52.8262 16.5488 49.4902 19.8847 49.4902 23.9998C49.4902 28.1149 52.8262 31.4508 56.9412 31.4508Z" fill="#343336"/>
<path d="M53.9608 22.5097C54.7838 22.5097 55.451 21.8425 55.451 21.0195C55.451 20.1965 54.7838 19.5293 53.9608 19.5293C53.1378 19.5293 52.4706 20.1965 52.4706 21.0195C52.4706 21.8425 53.1378 22.5097 53.9608 22.5097Z" fill="white"/>
</g>
<defs>
<clipPath id="clip0_43_1248">
<rect width="254.824" height="47.6863" fill="white" transform="translate(0.313721 0.156738)"/>
</clipPath>
</defs>
</svg>
