<svg width="254" height="62" viewBox="0 0 254 62" fill="none" xmlns="http://www.w3.org/2000/svg">
<g clip-path="url(#clip0_43_1285)">
<path d="M76.4723 44.1479H94.2831V38.7832H82.8026V18.5762H76.4723V44.1479Z" fill="#F7F8F4"/>
<path d="M104.835 40.5717C102.296 40.5717 100.973 38.3543 100.973 35.0282C100.973 31.7021 102.296 29.4489 104.835 29.4489C107.375 29.4489 108.734 31.7021 108.734 35.0282C108.734 38.3543 107.375 40.5717 104.835 40.5717ZM104.871 44.7204C110.772 44.7204 114.635 40.5359 114.635 35.0282C114.635 29.5204 110.772 25.3359 104.871 25.3359C99.0057 25.3359 95.0715 29.5204 95.0715 35.0282C95.0715 40.5359 99.0057 44.7204 104.871 44.7204Z" fill="#F7F8F4"/>
<path d="M124.849 50.4786C127.567 50.4786 129.964 49.8706 131.573 48.4401C133.039 47.1168 134.005 45.1139 134.005 42.3601V25.8368H128.426V27.8038H128.354C127.281 26.2659 125.636 25.3003 123.204 25.3003C118.662 25.3003 115.515 29.0914 115.515 34.4561C115.515 40.0711 119.342 43.1469 123.455 43.1469C125.672 43.1469 127.067 42.2528 128.14 41.0368H128.283V42.8608C128.283 45.0782 127.246 46.3657 124.778 46.3657C122.847 46.3657 121.881 45.5431 121.559 44.5775H115.908C116.48 48.4043 119.807 50.4786 124.849 50.4786ZM124.814 38.8194C122.632 38.8194 121.201 37.0311 121.201 34.2772C121.201 31.4876 122.632 29.6994 124.814 29.6994C127.246 29.6994 128.533 31.7737 128.533 34.2415C128.533 36.8165 127.353 38.8194 124.814 38.8194Z" fill="#F7F8F4"/>
<path d="M145.477 40.5717C142.938 40.5717 141.615 38.3543 141.615 35.0282C141.615 31.7021 142.938 29.4489 145.477 29.4489C148.016 29.4489 149.375 31.7021 149.375 35.0282C149.375 38.3543 148.016 40.5717 145.477 40.5717ZM145.513 44.7204C151.413 44.7204 155.276 40.5359 155.276 35.0282C155.276 29.5204 151.413 25.3359 145.513 25.3359C139.647 25.3359 135.713 29.5204 135.713 35.0282C135.713 40.5359 139.647 44.7204 145.513 44.7204Z" fill="#F7F8F4"/>
<path d="M156.979 44.1479H162.809V25.8364H156.979V44.1479ZM156.979 23.2971H162.809V18.5762H156.979V23.2971Z" fill="#F7F8F4"/>
<path d="M165.338 50.1925H171.168V42.2528H171.239C172.384 43.7906 174.065 44.7205 176.425 44.7205C181.218 44.7205 184.401 40.9295 184.401 34.9925C184.401 29.4848 181.432 25.3003 176.568 25.3003C174.065 25.3003 172.276 26.409 171.025 28.0542H170.917V25.8368H165.338V50.1925ZM174.923 40.2142C172.419 40.2142 170.989 38.1756 170.989 35.2071C170.989 32.2386 172.276 29.9855 174.816 29.9855C177.319 29.9855 178.499 32.0598 178.499 35.2071C178.499 38.3186 177.14 40.2142 174.923 40.2142Z" fill="#F7F8F4"/>
<path d="M193.892 44.7205C198.684 44.7205 202.225 42.6462 202.225 38.6405C202.225 33.9554 198.434 33.1328 195.215 32.5963C192.89 32.1671 190.816 31.9883 190.816 30.7008C190.816 29.5563 191.924 29.0198 193.355 29.0198C194.964 29.0198 196.073 29.5205 196.288 31.1657H201.652C201.366 27.5535 198.577 25.3003 193.391 25.3003C189.063 25.3003 185.487 27.3031 185.487 31.1657C185.487 35.4575 188.884 36.3158 192.068 36.8523C194.5 37.2815 196.717 37.4603 196.717 39.1055C196.717 40.2857 195.608 40.9295 193.856 40.9295C191.924 40.9295 190.708 40.0354 190.494 38.2114H184.986C185.165 42.2528 188.527 44.7205 193.892 44.7205Z" fill="#F7F8F4"/>
<path d="M210.144 44.6849C212.683 44.6849 214.292 43.6835 215.616 41.8953H215.723V44.1484H221.302V25.8369H215.473V36.0656C215.473 38.2473 214.257 39.7494 212.254 39.7494C210.394 39.7494 209.5 38.6407 209.5 36.6379V25.8369H203.706V37.8539C203.706 41.931 205.923 44.6849 210.144 44.6849Z" fill="#F7F8F4"/>
<path d="M223.839 44.1483H229.668V33.8838C229.668 31.7022 230.741 30.1643 232.565 30.1643C234.318 30.1643 235.14 31.3088 235.14 33.2758V44.1483H240.97V33.8838C240.97 31.7022 242.007 30.1643 243.867 30.1643C245.619 30.1643 246.442 31.3088 246.442 33.2758V44.1483H252.271V32.2386C252.271 28.1257 250.197 25.3003 246.048 25.3003C243.688 25.3003 241.721 26.3017 240.29 28.5191H240.219C239.289 26.5521 237.465 25.3003 235.069 25.3003C232.422 25.3003 230.67 26.5521 229.525 28.4476H229.418V25.8368H223.839V44.1483Z" fill="#F7F8F4"/>
<path fill-rule="evenodd" clip-rule="evenodd" d="M30.0138 60.5404C46.4742 60.5404 59.8177 47.1967 59.8177 30.7365C59.8177 14.2763 46.4742 0.932617 30.0138 0.932617C13.5536 0.932617 0.209961 14.2763 0.209961 30.7365C0.209961 47.1967 13.5536 60.5404 30.0138 60.5404ZM34.6141 23.96C37.1545 21.4193 37.1545 17.3003 34.6141 14.7596C32.0734 12.219 27.9544 12.219 25.4137 14.7596C22.8732 17.3003 22.8732 21.4193 25.4137 23.96L30.0138 28.56L34.6141 23.96ZM36.7905 35.3367C39.3311 37.8773 43.4502 37.8773 45.9908 35.3367C48.5313 32.7961 48.5313 28.677 45.9908 26.1364C43.4502 23.5959 39.3311 23.5959 36.7905 26.1364L32.1904 30.7366L36.7905 35.3367ZM34.6141 46.7135C37.1545 44.1728 37.1545 40.0538 34.6141 37.5131L30.0138 32.9131L25.4137 37.5131C22.8732 40.0538 22.8732 44.1728 25.4137 46.7135C27.9544 49.2541 32.0734 49.2541 34.6141 46.7135ZM14.0369 35.3367C11.4964 32.7961 11.4964 28.677 14.0369 26.1364C16.5776 23.5959 20.6967 23.5959 23.2373 26.1364L27.8374 30.7366L23.2373 35.3367C20.6967 37.8773 16.5776 37.8773 14.0369 35.3367Z" fill="#F7F8F4"/>
</g>
<defs>
<clipPath id="clip0_43_1285">
<rect width="253.333" height="61.098" fill="white" transform="translate(0.0588379 0.451172)"/>
</clipPath>
</defs>
</svg>
