<svg width="150" height="76" viewBox="0 0 150 76" fill="none" xmlns="http://www.w3.org/2000/svg">
<path d="M4.26416 43.9854H8.48577V64.6852H4.26416V43.9854Z" fill="#F7F8F4"/>
<path d="M10.9344 57.5925C10.9316 56.1057 11.37 54.6515 12.194 53.4138C13.018 52.1762 14.1906 51.2109 15.5635 50.64C16.9362 50.0691 18.4476 49.9183 19.9062 50.2066C21.3648 50.495 22.7051 51.2095 23.7573 52.26C24.8097 53.3103 25.5268 54.6492 25.8178 56.1072C26.109 57.5652 25.961 59.0769 25.3926 60.4509C24.8243 61.8247 23.8612 62.9991 22.6251 63.8254C21.3891 64.6519 19.9357 65.0928 18.4489 65.0928C17.46 65.1041 16.479 64.918 15.5632 64.5452C14.6473 64.1725 13.8151 63.6206 13.1152 62.922C12.4153 62.2236 11.862 61.3924 11.4875 60.4771C11.113 59.5619 10.925 58.5813 10.9344 57.5925ZM21.7135 57.5925C21.697 56.9507 21.4915 56.3279 21.1228 55.8023C20.7541 55.2766 20.2387 54.8714 19.6408 54.6371C19.0429 54.4029 18.3893 54.3503 17.7618 54.4856C17.1341 54.6209 16.5604 54.9383 16.1122 55.398C15.664 55.8578 15.3614 56.4395 15.2421 57.0705C15.1228 57.7013 15.1922 58.3534 15.4416 58.945C15.691 59.5366 16.1093 60.0416 16.6442 60.3968C17.1791 60.7519 17.8068 60.9414 18.4489 60.9416C18.8881 60.9539 19.3252 60.8751 19.7324 60.71C20.1397 60.5449 20.5084 60.2972 20.8152 59.9825C21.1219 59.6678 21.3602 59.293 21.5147 58.8817C21.6694 58.4702 21.737 58.0314 21.7135 57.5925Z" fill="#F7F8F4"/>
<path d="M42.9337 50.5004V63.9813C42.9337 68.7517 39.2046 70.764 35.4334 70.764C34.1073 70.8627 32.7795 70.5945 31.5955 69.9888C30.4116 69.3832 29.4172 68.4635 28.7211 67.3305L32.3517 65.2338C32.6397 65.8144 33.0956 66.2952 33.6601 66.6138C34.2245 66.9324 34.8717 67.0743 35.5179 67.0208C35.9429 67.0918 36.3786 67.064 36.7914 66.9397C37.2042 66.8156 37.5829 66.5983 37.8983 66.3046C38.2137 66.0109 38.4574 65.6486 38.6108 65.2458C38.7641 64.843 38.8228 64.4104 38.7825 63.9813V62.6726C38.2862 63.2833 37.6529 63.7683 36.9342 64.0886C36.2154 64.4088 35.4313 64.5553 34.6454 64.5161C32.7345 64.5161 30.902 63.757 29.5507 62.4058C28.1995 61.0547 27.4404 59.222 27.4404 57.3111C27.4404 55.4003 28.1995 53.5678 29.5507 52.2166C30.902 50.8655 32.7345 50.1063 34.6454 50.1063C35.4309 50.0704 36.2138 50.2184 36.9321 50.5384C37.6504 50.8585 38.284 51.3417 38.7825 51.9497V50.5425L42.9337 50.5004ZM38.7825 57.3111C38.8106 56.6268 38.6333 55.9497 38.2736 55.3667C37.9137 54.7839 37.3878 54.322 36.7634 54.0405C36.139 53.7588 35.4446 53.6704 34.7695 53.7867C34.0945 53.9028 33.4696 54.2182 32.9753 54.6923C32.4809 55.1665 32.1396 55.7776 31.9954 56.4471C31.851 57.1167 31.9103 57.8142 32.1655 58.4498C32.4208 59.0855 32.8603 59.6302 33.4276 60.0141C33.9949 60.3981 34.664 60.6034 35.3489 60.604C35.7961 60.6356 36.2448 60.5733 36.6662 60.4209C37.0878 60.2684 37.4727 60.0296 37.7962 59.7193C38.1196 59.409 38.3746 59.0344 38.5445 58.6197C38.7144 58.205 38.7954 57.7592 38.7825 57.3111Z" fill="#F7F8F4"/>
<path d="M45.3683 57.5925C45.3654 56.1057 45.8038 54.6515 46.6278 53.4138C47.4519 52.1762 48.6245 51.2109 49.9973 50.64C51.37 50.0691 52.8814 49.9183 54.34 50.2066C55.7986 50.495 57.1389 51.2095 58.1913 52.26C59.2435 53.3103 59.9606 54.6492 60.2517 56.1072C60.5428 57.5652 60.3948 59.0769 59.8264 60.4509C59.2581 61.8247 58.295 62.9991 57.059 63.8254C55.8229 64.6519 54.3695 65.0928 52.8827 65.0928C51.894 65.1041 50.9128 64.918 49.997 64.5452C49.0811 64.1725 48.2488 63.6206 47.549 62.922C46.8492 62.2236 46.2958 61.3924 45.9213 60.4771C45.5468 59.5619 45.3587 58.5813 45.3683 57.5925ZM56.1474 57.5925C56.1308 56.9507 55.9253 56.3279 55.5566 55.8023C55.1879 55.2766 54.6725 54.8714 54.0746 54.6371C53.4769 54.4029 52.8233 54.3503 52.1956 54.4856C51.5679 54.6209 50.9942 54.9383 50.5459 55.398C50.0978 55.8578 49.7952 56.4395 49.6758 57.0705C49.5566 57.7013 49.6261 58.3534 49.8754 58.945C50.1248 59.5366 50.5431 60.0416 51.078 60.3968C51.6129 60.7519 52.2406 60.9414 52.8827 60.9416C53.3197 60.9499 53.7536 60.8683 54.1576 60.7014C54.5614 60.5345 54.9267 60.2862 55.2304 59.9719C55.5341 59.6578 55.7697 59.2842 55.9227 58.8748C56.0756 58.4655 56.1425 58.0288 56.1193 57.5925H56.1474Z" fill="#F7F8F4"/>
<path d="M62.3535 46.7017C62.3535 46.1952 62.5037 45.7 62.7851 45.2789C63.0666 44.8577 63.4665 44.5294 63.9345 44.3356C64.4025 44.1417 64.9174 44.091 65.4142 44.1898C65.9111 44.2886 66.3674 44.5326 66.7256 44.8907C67.0838 45.2489 67.3276 45.7052 67.4264 46.202C67.5254 46.6989 67.4746 47.2139 67.2808 47.6818C67.087 48.1497 66.7587 48.5499 66.3376 48.8312C65.9163 49.1126 65.4212 49.2628 64.9146 49.2628C64.2365 49.2592 63.5872 48.9881 63.1077 48.5086C62.6282 48.0292 62.3572 47.3799 62.3535 46.7017ZM62.7897 50.5011H67.0113V64.6857H62.7897V50.5011Z" fill="#F7F8F4"/>
<path d="M85.4171 57.5931C85.4682 58.5307 85.3335 59.4692 85.0206 60.3545C84.7075 61.2399 84.2226 62.0546 83.5934 62.7517C82.9642 63.4488 82.2035 64.0146 81.3548 64.4165C80.5062 64.8184 79.5864 65.0485 78.6485 65.0935C77.8611 65.1312 77.0748 64.9959 76.3455 64.6968C75.6161 64.3977 74.9611 63.9423 74.4269 63.3627V70.3986H70.2053V50.5008H74.4269V51.8376C74.9611 51.2579 75.6161 50.8025 76.3455 50.5035C77.0748 50.2044 77.8611 50.0691 78.6485 50.1068C79.5852 50.1518 80.5038 50.3814 81.3514 50.7824C82.1992 51.1836 82.9593 51.7481 83.5882 52.4437C84.2172 53.1393 84.7024 53.9522 85.0162 54.8359C85.3302 55.7196 85.4664 56.6566 85.4171 57.5931ZM81.1955 57.5931C81.1788 56.9326 80.9687 56.2915 80.5912 55.7492C80.2138 55.2071 79.6857 54.7873 79.0721 54.5423C78.4586 54.2972 77.7865 54.2374 77.1395 54.3705C76.4923 54.5034 75.8983 54.8234 75.4311 55.2906C74.964 55.7577 74.6442 56.3516 74.5111 56.9988C74.3782 57.646 74.4379 58.3179 74.6829 58.9314C74.9281 59.5449 75.3477 60.0732 75.89 60.4505C76.4323 60.828 77.0733 61.0381 77.7338 61.0548C78.1947 61.0841 78.6565 61.0144 79.0884 60.8505C79.5201 60.6864 79.9117 60.4319 80.237 60.104C80.5622 59.776 80.8136 59.3823 80.9741 58.9493C81.1344 58.5162 81.2004 58.0538 81.1673 57.5931H81.1955Z" fill="#F7F8F4"/>
<path d="M98.5605 60.4359C98.5605 63.7006 95.7461 65.0936 92.6502 65.0936C91.4135 65.2032 90.1723 64.94 89.0864 64.3381C88.0007 63.7362 87.1197 62.8232 86.5571 61.7164L90.244 59.6197C90.3936 60.1316 90.714 60.5768 91.1517 60.8814C91.5895 61.186 92.1182 61.3318 92.6502 61.2942C93.6776 61.2942 94.1841 60.9706 94.1841 60.4077C94.1841 58.8457 87.1481 59.676 87.1481 54.7789C87.1481 51.6831 89.7655 50.121 92.7769 50.121C93.8881 50.0873 94.9882 50.3513 95.9631 50.8858C96.938 51.4202 97.7521 52.2057 98.3213 53.1606L94.6204 55.1026C94.457 54.731 94.189 54.4147 93.8493 54.1924C93.5095 53.9701 93.1126 53.8511 92.7066 53.8501C91.9749 53.8501 91.5245 54.1316 91.5245 54.6523C91.5809 56.2705 98.5605 55.187 98.5605 60.4359Z" fill="#F7F8F4"/>
<path d="M114.096 50.501V64.6856H109.874V63.3629C109.383 63.9506 108.76 64.4137 108.056 64.7146C107.352 65.0155 106.586 65.1453 105.822 65.0937C103.007 65.0937 100.517 63.0532 100.517 59.2116V50.501H104.738V58.5924C104.701 58.9373 104.741 59.286 104.856 59.6134C104.97 59.9408 105.156 60.2385 105.4 60.4851C105.644 60.7318 105.94 60.9209 106.266 61.0389C106.592 61.1571 106.94 61.2009 107.285 61.1677C108.833 61.1677 109.917 60.267 109.917 58.2548V50.501H114.096Z" fill="#F7F8F4"/>
<path d="M138.497 55.9886V64.6851H134.275V56.3546C134.275 54.9474 133.585 54.0185 132.235 54.0185C130.884 54.0185 130.011 55.0177 130.011 56.6923V64.6851H125.79V56.3546C125.79 54.9474 125.114 54.0185 123.749 54.0185C122.384 54.0185 121.54 55.0177 121.54 56.6923V64.6851H117.318V50.5006H121.54V51.8093C121.981 51.2313 122.56 50.7728 123.223 50.4755C123.887 50.178 124.614 50.0512 125.339 50.1066C126.067 50.0712 126.792 50.2251 127.443 50.5529C128.094 50.8809 128.649 51.372 129.054 51.9782C129.525 51.3444 130.149 50.8403 130.868 50.513C131.586 50.1858 132.376 50.0458 133.163 50.1066C136.372 50.1066 138.497 52.4425 138.497 55.9886Z" fill="#F7F8F4"/>
<path d="M142.099 50.4166C143.84 50.4166 145.251 49.0052 145.251 47.2644C145.251 45.5235 143.84 44.1123 142.099 44.1123C140.358 44.1123 138.947 45.5235 138.947 47.2644C138.947 49.0052 140.358 50.4166 142.099 50.4166Z" fill="#F7F8F4"/>
<path d="M52.0387 33.2487C60.1912 33.2487 66.8001 26.6396 66.8001 18.4871C66.8001 10.3345 60.1912 3.72559 52.0387 3.72559C43.8861 3.72559 37.2771 10.3345 37.2771 18.4871C37.2771 26.6396 43.8861 33.2487 52.0387 33.2487Z" fill="#F7F8F4"/>
<path d="M85.0372 33.2487C93.1898 33.2487 99.7987 26.6396 99.7987 18.4871C99.7987 10.3345 93.1898 3.72559 85.0372 3.72559C76.8847 3.72559 70.2756 10.3345 70.2756 18.4871C70.2756 26.6396 76.8847 33.2487 85.0372 33.2487Z" fill="#F7F8F4"/>
<path d="M33.8012 3.72559H4.29224V33.2345H33.8012V3.72559Z" fill="#F7F8F4"/>
</svg>
