<svg width="105" height="260" viewBox="0 0 105 260" fill="none" xmlns="http://www.w3.org/2000/svg">
<path opacity="0.4" d="M5.53049 180.79L5.52979 161.237L50.3255 136.579C53.8649 134.782 56.4642 132.879 58.1232 130.869C59.7823 128.859 60.8883 126.816 61.4413 124.739C62.1049 122.719 62.4366 120.715 62.4365 118.729C62.4364 113.515 60.8324 108.725 57.6245 104.36C54.5273 99.9263 49.9369 96.1597 43.8533 93.0599C38.9864 90.58 34.4514 89.3245 30.2483 89.2932C26.1558 89.3183 22.6716 90.8327 19.7959 93.8365L0.217256 69.7086C4.64143 64.5144 10.8354 61.7739 18.7993 61.4868C26.7631 61.1998 35.9437 63.7052 46.3412 69.003C54.9688 73.3991 62.4904 78.8454 68.906 85.342C75.4321 91.7708 80.4651 98.7422 84.0048 106.256C87.6552 113.827 89.4805 121.584 89.4808 129.53C89.481 133.75 88.9834 137.718 87.988 141.431C87.1033 145.077 85.2231 148.464 82.3473 151.592C79.5822 154.776 75.4898 157.843 70.0701 160.791L32.9062 181.145L27.7624 167.538L93.2994 200.931L93.3003 225.512L5.53049 180.79Z" fill="url(#paint0_linear_176_2122)"/>
<path opacity="0.07" d="M16.8623 180.79L16.8616 161.237L61.6573 136.579C65.1967 134.782 67.796 132.879 69.455 130.869C71.1141 128.859 72.2201 126.816 72.7731 124.739C73.4367 122.719 73.7684 120.715 73.7683 118.729C73.7681 113.515 72.1641 108.725 68.9563 104.36C65.8591 99.9263 61.2687 96.1597 55.1851 93.0599C50.3182 90.58 45.7832 89.3245 41.5801 89.2932C37.4875 89.3183 34.0034 90.8327 31.1277 93.8365L11.549 69.7086C15.9732 64.5144 22.1672 61.7739 30.131 61.4868C38.0949 61.1998 47.2755 63.7052 57.6729 69.003C66.3006 73.3991 73.8222 78.8454 80.2378 85.342C86.7639 91.7708 91.7969 98.7422 95.3366 106.256C98.987 113.827 100.812 121.584 100.813 129.53C100.813 133.75 100.315 137.718 99.3198 141.431C98.4351 145.077 96.5548 148.464 93.6791 151.592C90.914 154.776 86.8216 157.843 81.4019 160.791L44.238 181.145L39.0942 167.538L104.631 200.931L104.632 225.512L16.8623 180.79Z" fill="url(#paint1_linear_176_2122)"/>
<defs>
<linearGradient id="paint0_linear_176_2122" x1="55.3062" y1="83.3118" x2="10.393" y2="92.8721" gradientUnits="userSpaceOnUse">
<stop stop-color="white"/>
<stop offset="1" stop-color="white" stop-opacity="0"/>
</linearGradient>
<linearGradient id="paint1_linear_176_2122" x1="66.6387" y1="83.3122" x2="21.725" y2="92.8724" gradientUnits="userSpaceOnUse">
<stop stop-color="white"/>
<stop offset="1" stop-color="white" stop-opacity="0"/>
</linearGradient>
</defs>
</svg>
