<svg width="104" height="260" viewBox="0 0 104 260" fill="none" xmlns="http://www.w3.org/2000/svg">
<path opacity="0.4" d="M44.4721 202.722C36.3975 198.608 28.3781 193.342 20.4141 186.926C12.45 180.385 5.70258 173.471 0.171869 166.184L10.6238 148.42C15.0483 154.274 20.1919 159.75 26.0543 164.848C31.9168 169.945 37.8345 174.016 43.8075 177.059C50.5548 180.497 55.864 181.713 59.7353 180.706C63.6066 179.699 65.5421 176.589 65.5419 171.375C65.5418 166.409 63.8271 161.625 60.3981 157.023C56.9691 152.42 51.4385 148.174 43.8063 144.286L31.5285 138.03L31.5278 118.105L63.88 93.4371L66.8669 105.759L5.97554 74.7329L5.97467 50.5252L87.2737 91.9499L87.2744 111.502L55.0881 136.255L41.4827 120.57L49.2807 124.544C63.5495 131.814 74.3342 140.909 81.6348 151.829C88.9354 162.749 92.5859 173.858 92.5863 185.155C92.5866 192.479 90.8724 198.495 87.4437 203.204C84.0149 207.788 78.7611 210.262 71.6821 210.628C64.6032 210.993 55.5332 208.358 44.4721 202.722Z" fill="url(#paint0_linear_176_2127)"/>
<path opacity="0.07" d="M55.8038 202.722C47.7292 198.608 39.7099 193.342 31.7458 186.926C23.7818 180.385 17.0344 173.471 11.5037 166.184L21.9556 148.42C26.3801 154.274 31.5236 159.75 37.3861 164.848C43.2486 169.945 49.1663 174.016 55.1393 177.059C61.8865 180.497 67.1958 181.713 71.0671 180.706C74.9384 179.699 76.8739 176.589 76.8737 171.375C76.8735 166.409 75.1589 161.625 71.7299 157.023C68.3008 152.42 62.7702 148.174 55.1381 144.286L42.8603 138.03L42.8596 118.105L75.2118 93.4371L78.1987 105.759L17.3073 74.7329L17.3065 50.5252L98.6055 91.9499L98.6062 111.502L66.4199 136.255L52.8144 120.57L60.6125 124.544C74.8813 131.814 85.666 140.909 92.9666 151.829C100.267 162.749 103.918 173.858 103.918 185.155C103.918 192.479 102.204 198.495 98.7754 203.204C95.3467 207.788 90.0929 210.262 83.0139 210.628C75.935 210.993 66.8649 208.358 55.8038 202.722Z" fill="url(#paint1_linear_176_2127)"/>
<defs>
<linearGradient id="paint0_linear_176_2127" x1="55.5892" y1="83.3118" x2="10.6759" y2="92.8721" gradientUnits="userSpaceOnUse">
<stop stop-color="white"/>
<stop offset="1" stop-color="white" stop-opacity="0"/>
</linearGradient>
<linearGradient id="paint1_linear_176_2127" x1="66.9217" y1="83.3121" x2="22.008" y2="92.8724" gradientUnits="userSpaceOnUse">
<stop stop-color="white"/>
<stop offset="1" stop-color="white" stop-opacity="0"/>
</linearGradient>
</defs>
</svg>
