<svg width="60" height="60" viewBox="0 0 60 60" fill="none" xmlns="http://www.w3.org/2000/svg">
<path d="M41.2501 41.25L35.6426 35.6325M38.7501 28.125C38.7501 30.9429 37.6307 33.6454 35.6381 35.638C33.6456 37.6306 30.943 38.75 28.1251 38.75C25.3072 38.75 22.6047 37.6306 20.6121 35.638C18.6195 33.6454 17.5001 30.9429 17.5001 28.125C17.5001 25.3071 18.6195 22.6046 20.6121 20.612C22.6047 18.6194 25.3072 17.5 28.1251 17.5C30.943 17.5 33.6456 18.6194 35.6381 20.612C37.6307 22.6046 38.7501 25.3071 38.7501 28.125V28.125Z" stroke="#F7F8F4" stroke-width="2.5" stroke-linecap="round"/>
<path opacity="0.4" d="M30 60C46.5685 60 60 46.5685 60 30C60 13.4315 46.5685 0 30 0C13.4315 0 0 13.4315 0 30C0 46.5685 13.4315 60 30 60Z" fill="url(#paint0_linear_189_3154)"/>
<defs>
<linearGradient id="paint0_linear_189_3154" x1="36.3942" y1="20.7558" x2="14.4204" y2="52.8984" gradientUnits="userSpaceOnUse">
<stop stop-color="white"/>
<stop offset="1" stop-color="white" stop-opacity="0"/>
</linearGradient>
</defs>
</svg>
