<svg width="60" height="60" viewBox="0 0 60 60" fill="none" xmlns="http://www.w3.org/2000/svg">
<path d="M28.7224 31.2778C28.4697 31.2778 28.2226 31.3527 28.0125 31.4931C27.8024 31.6335 27.6386 31.8331 27.5419 32.0666C27.4452 32.3001 27.4199 32.557 27.4692 32.8049C27.5185 33.0527 27.6402 33.2804 27.8189 33.4591C27.9976 33.6378 28.2253 33.7595 28.4731 33.8088C28.721 33.8581 28.9779 33.8328 29.2114 33.7361C29.4449 33.6394 29.6444 33.4756 29.7848 33.2655C29.9252 33.0553 30.0002 32.8083 30.0002 32.5556C30.0002 32.2167 29.8656 31.8917 29.6259 31.652C29.3863 31.4124 29.0613 31.2778 28.7224 31.2778ZM23.6113 31.2778C23.3586 31.2778 23.1115 31.3527 22.9014 31.4931C22.6913 31.6335 22.5275 31.8331 22.4308 32.0666C22.3341 32.3001 22.3088 32.557 22.3581 32.8049C22.4074 33.0527 22.5291 33.2804 22.7078 33.4591C22.8865 33.6378 23.1142 33.7595 23.362 33.8088C23.6099 33.8581 23.8668 33.8328 24.1003 33.7361C24.3338 33.6394 24.5333 33.4756 24.6737 33.2655C24.8141 33.0553 24.8891 32.8083 24.8891 32.5556C24.8891 32.2167 24.7545 31.8917 24.5148 31.652C24.2752 31.4124 23.9502 31.2778 23.6113 31.2778ZM42.778 19.7778C42.778 18.7611 42.3741 17.7861 41.6552 17.0672C40.9363 16.3483 39.9613 15.9445 38.9446 15.9445H21.0557C20.0391 15.9445 19.0641 16.3483 18.3452 17.0672C17.6263 17.7861 17.2224 18.7611 17.2224 19.7778V24.8889C17.228 25.8345 17.583 26.7447 18.2191 27.4445C17.583 28.1442 17.228 29.0544 17.2224 30V35.1111C17.2224 36.1278 17.6263 37.1028 18.3452 37.8217C19.0641 38.5406 20.0391 38.9445 21.0557 38.9445H28.7224V41.5H18.5002C18.1613 41.5 17.8363 41.6346 17.5967 41.8743C17.357 42.1139 17.2224 42.4389 17.2224 42.7778C17.2224 43.1167 17.357 43.4417 17.5967 43.6813C17.8363 43.9209 18.1613 44.0556 18.5002 44.0556H41.5002C41.8391 44.0556 42.1641 43.9209 42.4037 43.6813C42.6433 43.4417 42.778 43.1167 42.778 42.7778C42.778 42.4389 42.6433 42.1139 42.4037 41.8743C42.1641 41.6346 41.8391 41.5 41.5002 41.5H31.278V38.9445H38.9446C39.9613 38.9445 40.9363 38.5406 41.6552 37.8217C42.3741 37.1028 42.778 36.1278 42.778 35.1111V30C42.7723 29.0544 42.4174 28.1442 41.7813 27.4445C42.4174 26.7447 42.7723 25.8345 42.778 24.8889V19.7778ZM40.2224 35.1111C40.2224 35.45 40.0878 35.775 39.8482 36.0147C39.6085 36.2543 39.2835 36.3889 38.9446 36.3889H21.0557C20.7169 36.3889 20.3919 36.2543 20.1522 36.0147C19.9126 35.775 19.778 35.45 19.778 35.1111V30C19.778 29.6611 19.9126 29.3361 20.1522 29.0965C20.3919 28.8569 20.7169 28.7222 21.0557 28.7222H38.9446C39.2835 28.7222 39.6085 28.8569 39.8482 29.0965C40.0878 29.3361 40.2224 29.6611 40.2224 30V35.1111ZM40.2224 24.8889C40.2224 25.2278 40.0878 25.5528 39.8482 25.7924C39.6085 26.0321 39.2835 26.1667 38.9446 26.1667H21.0557C20.7169 26.1667 20.3919 26.0321 20.1522 25.7924C19.9126 25.5528 19.778 25.2278 19.778 24.8889V19.7778C19.778 19.4389 19.9126 19.1139 20.1522 18.8743C20.3919 18.6346 20.7169 18.5 21.0557 18.5H38.9446C39.2835 18.5 39.6085 18.6346 39.8482 18.8743C40.0878 19.1139 40.2224 19.4389 40.2224 19.7778V24.8889ZM28.7224 21.0556C28.4697 21.0556 28.2226 21.1305 28.0125 21.2709C27.8024 21.4113 27.6386 21.6109 27.5419 21.8444C27.4452 22.0778 27.4199 22.3348 27.4692 22.5826C27.5185 22.8305 27.6402 23.0582 27.8189 23.2369C27.9976 23.4156 28.2253 23.5373 28.4731 23.5866C28.721 23.6359 28.9779 23.6106 29.2114 23.5139C29.4449 23.4171 29.6444 23.2534 29.7848 23.0432C29.9252 22.8331 30.0002 22.5861 30.0002 22.3333C30.0002 21.9945 29.8656 21.6695 29.6259 21.4298C29.3863 21.1902 29.0613 21.0556 28.7224 21.0556ZM23.6113 21.0556C23.3586 21.0556 23.1115 21.1305 22.9014 21.2709C22.6913 21.4113 22.5275 21.6109 22.4308 21.8444C22.3341 22.0778 22.3088 22.3348 22.3581 22.5826C22.4074 22.8305 22.5291 23.0582 22.7078 23.2369C22.8865 23.4156 23.1142 23.5373 23.362 23.5866C23.6099 23.6359 23.8668 23.6106 24.1003 23.5139C24.3338 23.4171 24.5333 23.2534 24.6737 23.0432C24.8141 22.8331 24.8891 22.5861 24.8891 22.3333C24.8891 21.9945 24.7545 21.6695 24.5148 21.4298C24.2752 21.1902 23.9502 21.0556 23.6113 21.0556Z" fill="#F7F8F4"/>
<path opacity="0.4" d="M30 60C46.5685 60 60 46.5685 60 30C60 13.4315 46.5685 0 30 0C13.4315 0 0 13.4315 0 30C0 46.5685 13.4315 60 30 60Z" fill="url(#paint0_linear_189_3176)"/>
<defs>
<linearGradient id="paint0_linear_189_3176" x1="36.3942" y1="20.7558" x2="14.4204" y2="52.8984" gradientUnits="userSpaceOnUse">
<stop stop-color="white"/>
<stop offset="1" stop-color="white" stop-opacity="0"/>
</linearGradient>
</defs>
</svg>
