<svg width="60" height="60" viewBox="0 0 60 60" fill="none" xmlns="http://www.w3.org/2000/svg">
<path d="M25.1074 38.2637L32.6024 20.7587C32.7284 20.4664 32.9612 20.2331 33.2533 20.1065C33.5454 19.9798 33.8748 19.9695 34.1743 20.0774C34.4738 20.1854 34.7208 20.4036 34.865 20.6874C35.0091 20.9713 35.0395 21.2995 34.9499 21.605L34.8999 21.7425L27.4049 39.2475C27.279 39.5399 27.0462 39.7732 26.7541 39.8998C26.462 40.0264 26.1326 40.0368 25.8331 39.9288C25.5336 39.8208 25.2865 39.6026 25.1424 39.3188C24.9983 39.0349 24.9679 38.7067 25.0574 38.4012L25.1074 38.2637L32.6024 20.7587L25.1074 38.2625V38.2637ZM17.8662 29.1162L22.8662 24.1162C23.0911 23.892 23.393 23.7619 23.7104 23.7522C24.0279 23.7425 24.3371 23.854 24.5753 24.064C24.8135 24.2741 24.9628 24.5669 24.9929 24.8831C25.0231 25.1992 24.9317 25.515 24.7374 25.7662L24.6337 25.8837L20.5174 30L24.6337 34.1162C24.8603 34.3407 24.9925 34.6432 25.0033 34.9619C25.0141 35.2806 24.9027 35.5914 24.6919 35.8307C24.481 36.07 24.1867 36.2196 23.8692 36.249C23.5516 36.2784 23.2349 36.1853 22.9837 35.9887L22.8662 35.8837L17.8662 30.8837C17.651 30.6685 17.5217 30.3821 17.5026 30.0783C17.4835 29.7746 17.5759 29.4742 17.7624 29.2337L17.8662 29.1162L22.8662 24.1162L17.8662 29.1162V29.1162ZM35.3662 24.115C35.5814 23.8998 35.8678 23.7705 36.1716 23.7514C36.4754 23.7323 36.7757 23.8247 37.0162 24.0112L37.1324 24.115L42.1337 29.1162C42.3489 29.3315 42.4782 29.6178 42.4973 29.9216C42.5164 30.2254 42.424 30.5257 42.2374 30.7662L42.1337 30.885L37.1324 35.8787C36.9075 36.1029 36.6057 36.2331 36.2882 36.2428C35.9708 36.2525 35.6616 36.141 35.4234 35.9309C35.1851 35.7209 35.0358 35.428 35.0057 35.1119C34.9756 34.7957 35.0669 34.48 35.2612 34.2287L35.3662 34.11L39.4799 30L35.3637 25.8825C35.1294 25.6481 34.9977 25.3302 34.9977 24.9987C34.9977 24.6673 35.1294 24.3494 35.3637 24.115H35.3662Z" fill="#F7F8F4"/>
<path opacity="0.4" d="M30 60C46.5685 60 60 46.5685 60 30C60 13.4315 46.5685 0 30 0C13.4315 0 0 13.4315 0 30C0 46.5685 13.4315 60 30 60Z" fill="url(#paint0_linear_189_3169)"/>
<defs>
<linearGradient id="paint0_linear_189_3169" x1="36.3942" y1="20.7558" x2="14.4204" y2="52.8984" gradientUnits="userSpaceOnUse">
<stop stop-color="white"/>
<stop offset="1" stop-color="white" stop-opacity="0"/>
</linearGradient>
</defs>
</svg>
