<svg width="60" height="60" viewBox="0 0 60 60" fill="none" xmlns="http://www.w3.org/2000/svg">
<path d="M27.5001 42.5H32.5001M25.0001 33.75H35.0001M21.2501 26.25C21.2501 23.9294 22.172 21.7038 23.8129 20.0628C25.4539 18.4219 27.6795 17.5 30.0001 17.5C32.3208 17.5 34.5464 18.4219 36.1873 20.0628C37.8283 21.7038 38.7501 23.9294 38.7501 26.25C38.7509 27.6588 38.4102 29.0469 37.7571 30.2952C37.104 31.5435 36.158 32.6149 35.0001 33.4175L34.3226 36.625C34.2329 37.2162 33.9343 37.7557 33.4809 38.1456C33.0275 38.5354 32.4494 38.7499 31.8514 38.75H28.1489C27.5509 38.7499 26.9728 38.5354 26.5194 38.1456C26.066 37.7557 25.7673 37.2162 25.6776 36.625L25.0001 33.4312C23.8419 32.6258 22.8958 31.5519 22.2428 30.3014C21.5898 29.0508 21.2492 27.6608 21.2501 26.25Z" stroke="#F7F8F4" stroke-width="2.5" stroke-linecap="round" stroke-linejoin="round"/>
<path opacity="0.4" d="M30 60C46.5685 60 60 46.5685 60 30C60 13.4315 46.5685 0 30 0C13.4315 0 0 13.4315 0 30C0 46.5685 13.4315 60 30 60Z" fill="url(#paint0_linear_189_3161)"/>
<defs>
<linearGradient id="paint0_linear_189_3161" x1="36.3942" y1="20.7558" x2="14.4204" y2="52.8984" gradientUnits="userSpaceOnUse">
<stop stop-color="white"/>
<stop offset="1" stop-color="white" stop-opacity="0"/>
</linearGradient>
</defs>
</svg>
