<svg width="575" height="476" viewBox="0 0 575 476" fill="none" xmlns="http://www.w3.org/2000/svg">
<g clip-path="url(#clip0_69_1043)">
<path d="M164.574 194.534L400.97 194.534C406.775 194.534 411.481 189.828 411.481 184.022V10.9443C411.481 5.13918 406.775 0.433182 400.97 0.433182L164.574 0.433182C158.768 0.433182 154.062 5.13918 154.062 10.9443V184.022C154.062 189.828 158.768 194.534 164.574 194.534Z" fill="white"/>
<path d="M400.97 194.967H164.574C161.673 194.964 158.891 193.81 156.839 191.758C154.787 189.706 153.633 186.924 153.63 184.023V10.9444C153.633 8.04275 154.787 5.26086 156.839 3.20908C158.891 1.1573 161.673 0.0032011 164.574 0L400.97 0C403.872 0.00320084 406.654 1.15728 408.706 3.20904C410.757 5.26081 411.912 8.0427 411.915 10.9444V184.023C411.912 186.924 410.757 189.706 408.706 191.758C406.654 193.81 403.872 194.964 400.97 194.967V194.967ZM164.574 0.86655C161.902 0.869612 159.341 1.93237 157.452 3.82167C155.562 5.71097 154.499 8.27253 154.496 10.9444V184.023C154.499 186.694 155.562 189.256 157.452 191.145C159.341 193.035 161.902 194.097 164.574 194.1H400.97C403.642 194.097 406.204 193.035 408.093 191.145C409.982 189.256 411.045 186.694 411.048 184.023V10.9444C411.045 8.27248 409.982 5.71092 408.093 3.82163C406.204 1.93235 403.642 0.869612 400.97 0.86655H164.574Z" fill="#292A2E"/>
<path d="M184.696 16.7387L167.801 18.3409C166.056 18.5064 164.775 20.0551 164.941 21.8002L166.543 38.6957C166.708 40.4408 168.257 41.7212 170.002 41.5558L186.898 39.9536C188.643 39.7881 189.923 38.2394 189.758 36.4943L188.156 19.5988C187.99 17.8537 186.441 16.5732 184.696 16.7387Z" fill="#292A2E"/>
<path d="M232.81 53.3898L215.936 51.5743C214.193 51.3868 212.628 52.6476 212.441 54.3904L210.625 71.2643C210.438 73.0071 211.699 74.572 213.441 74.7595L230.315 76.575C232.058 76.7625 233.623 75.5017 233.81 73.7589L235.626 56.8849C235.813 55.1421 234.553 53.5773 232.81 53.3898Z" fill="white"/>
<path d="M230.661 77.1199C230.527 77.1198 230.393 77.1126 230.259 77.0984L213.386 75.2827C212.41 75.1767 211.517 74.6881 210.902 73.9243C210.286 73.1604 209.999 72.1836 210.103 71.2081L211.919 54.3351C211.97 53.852 212.117 53.3838 212.35 52.9573C212.583 52.5308 212.897 52.1544 213.276 51.8495C213.654 51.5446 214.089 51.3172 214.555 51.1804C215.021 51.0435 215.51 50.9999 215.993 51.0519L232.867 52.8676C233.842 52.9728 234.736 53.4611 235.352 54.2252C235.967 54.9893 236.254 55.9665 236.149 56.9421L234.334 73.8151C234.236 74.7216 233.808 75.5601 233.13 76.17C232.452 76.7799 231.574 77.1181 230.662 77.1199H230.661ZM230.371 76.0525C231.069 76.1277 231.769 75.9224 232.316 75.4818C232.863 75.0412 233.212 74.4014 233.287 73.7031L235.104 56.8296C235.179 56.1312 234.973 55.4317 234.532 54.8847C234.092 54.3378 233.452 53.9882 232.754 53.9129L215.88 52.0978C215.534 52.0605 215.184 52.0918 214.85 52.1898C214.517 52.2877 214.206 52.4505 213.935 52.6687C213.664 52.8869 213.439 53.1563 213.272 53.4615C213.105 53.7668 213.001 54.1019 212.963 54.4476L211.148 71.3207C211.074 72.0189 211.279 72.7181 211.72 73.2649C212.161 73.8117 212.8 74.1614 213.498 74.2374L230.371 76.0525V76.0525Z" fill="#292A2E"/>
<path d="M307.684 80.1434C307.598 80.1435 307.513 80.1223 307.437 80.0818C307.36 80.0413 307.295 79.9826 307.247 79.911C296.54 63.986 280.299 61.0866 268.555 61.4547C260.614 61.757 252.773 63.3383 245.336 66.1377C245.207 66.1897 245.063 66.1889 244.935 66.1354C244.807 66.0819 244.706 65.98 244.653 65.852C244.599 65.7239 244.599 65.58 244.651 65.4516C244.704 65.3232 244.805 65.2208 244.932 65.1665C252.488 62.3208 260.454 60.7125 268.522 60.4036C280.527 60.0261 297.145 63.0001 308.12 79.3236C308.173 79.4027 308.204 79.4948 308.209 79.59C308.214 79.6851 308.193 79.7799 308.148 79.864C308.103 79.9482 308.036 80.0186 307.955 80.0677C307.873 80.1168 307.779 80.1428 307.684 80.1428V80.1434Z" fill="#292A2E"/>
<path d="M307.879 80.3583C307.83 80.3581 307.782 80.3514 307.735 80.3383L296.961 77.2954C296.827 77.2576 296.713 77.1679 296.645 77.0462C296.577 76.9246 296.56 76.7808 296.598 76.6466C296.636 76.5123 296.725 76.3987 296.847 76.3305C296.969 76.2624 297.112 76.2454 297.247 76.2832L307.515 79.1826L310.415 68.9144C310.455 68.7832 310.546 68.6731 310.666 68.6075C310.787 68.542 310.928 68.5262 311.06 68.5635C311.192 68.6009 311.305 68.6884 311.373 68.8074C311.441 68.9264 311.461 69.0675 311.427 69.2004L308.384 79.9745C308.353 80.0848 308.287 80.1819 308.196 80.2512C308.105 80.3205 307.993 80.3581 307.879 80.3583V80.3583Z" fill="#292A2E"/>
<path d="M324.777 85.0754L307.881 86.6775C306.136 86.843 304.856 88.3918 305.021 90.1368L306.623 107.032C306.789 108.777 308.338 110.058 310.083 109.892L326.978 108.29C328.723 108.125 330.004 106.576 329.838 104.831L328.236 87.9354C328.071 86.1904 326.522 84.9099 324.777 85.0754Z" fill="#171DCE"/>
<path d="M379.996 33.1342L363.06 32.0452C361.311 31.9327 359.801 33.2596 359.689 35.0089L358.6 51.9452C358.487 53.6945 359.814 55.2037 361.564 55.3162L378.5 56.4052C380.249 56.5177 381.758 55.1908 381.871 53.4415L382.96 36.5052C383.072 34.7559 381.746 33.2467 379.996 33.1342Z" fill="#292A2E"/>
<path d="M389.565 88.4027L372.691 86.5872C370.948 86.3997 369.384 87.6605 369.196 89.4033L367.381 106.277C367.193 108.02 368.454 109.585 370.197 109.772L387.071 111.588C388.813 111.775 390.378 110.515 390.566 108.772L392.381 91.8979C392.569 90.1551 391.308 88.5902 389.565 88.4027Z" fill="#0CBC8B"/>
<path d="M296.938 143.37L280.042 144.972C278.297 145.138 277.017 146.687 277.182 148.432L278.785 165.327C278.95 167.072 280.499 168.353 282.244 168.187L299.139 166.585C300.884 166.42 302.165 164.871 301.999 163.126L300.397 146.23C300.232 144.485 298.683 143.205 296.938 143.37Z" fill="white"/>
<path d="M281.943 168.728C281.023 168.726 280.136 168.382 279.456 167.763C278.775 167.143 278.35 166.293 278.262 165.377L276.66 148.482C276.568 147.505 276.868 146.532 277.493 145.776C278.118 145.02 279.017 144.543 279.994 144.449L296.888 142.847C297.372 142.801 297.86 142.851 298.325 142.994C298.789 143.136 299.221 143.369 299.595 143.679C299.97 143.988 300.28 144.369 300.507 144.798C300.734 145.227 300.875 145.697 300.921 146.181L302.523 163.076C302.615 164.053 302.315 165.026 301.69 165.782C301.065 166.538 300.166 167.015 299.189 167.109V167.109L282.295 168.711C282.176 168.722 282.058 168.728 281.943 168.728ZM297.244 143.882C297.16 143.882 297.075 143.886 296.99 143.894L280.093 145.494C279.394 145.561 278.75 145.903 278.302 146.444C277.855 146.985 277.64 147.682 277.706 148.381L279.308 165.276C279.375 165.975 279.717 166.618 280.258 167.065C280.799 167.513 281.496 167.727 282.194 167.662L299.09 166.06C299.789 165.993 300.432 165.651 300.88 165.11C301.327 164.569 301.542 163.873 301.476 163.173L299.874 146.278C299.812 145.623 299.507 145.014 299.021 144.571C298.534 144.128 297.9 143.881 297.242 143.88L297.244 143.882Z" fill="#292A2E"/>
<path d="M187.997 137.656L171.102 139.258C169.357 139.423 168.076 140.972 168.242 142.717L169.844 159.613C170.009 161.358 171.558 162.638 173.303 162.473L190.199 160.871C191.944 160.705 193.224 159.156 193.059 157.411L191.456 140.516C191.291 138.771 189.742 137.49 187.997 137.656Z" fill="#171DCE"/>
<path d="M323.172 76.4672C323.152 76.4672 323.132 76.4661 323.112 76.4641C323.043 76.4562 322.977 76.4348 322.916 76.4013C322.856 76.3677 322.803 76.3226 322.76 76.2685C322.717 76.2144 322.685 76.1524 322.666 76.0859C322.647 76.0195 322.642 75.95 322.649 75.8814C323.44 70.5728 325.081 65.4264 327.51 60.6406C332.768 50.4486 341.014 44.6031 351.351 43.7323C351.49 43.7206 351.628 43.7646 351.734 43.8546C351.841 43.9446 351.907 44.0732 351.919 44.2121C351.931 44.3511 351.887 44.489 351.797 44.5956C351.707 44.7021 351.578 44.7686 351.439 44.7803C327.331 46.8078 323.728 75.71 323.694 76.0019C323.679 76.1299 323.618 76.248 323.521 76.3338C323.425 76.4195 323.301 76.467 323.172 76.4672Z" fill="#292A2E"/>
<path d="M346.351 49.9913C346.247 49.9914 346.145 49.9607 346.058 49.903C345.972 49.8453 345.904 49.7633 345.865 49.6673C345.825 49.5713 345.814 49.4656 345.834 49.3636C345.854 49.2616 345.904 49.1679 345.978 49.0943L350.836 44.2141L345.957 39.3556C345.906 39.3072 345.866 39.2492 345.839 39.1851C345.811 39.121 345.796 39.0521 345.795 38.9823C345.795 38.9125 345.808 38.8432 345.834 38.7785C345.86 38.7139 345.899 38.6551 345.949 38.6056C345.998 38.5561 346.057 38.517 346.121 38.4904C346.186 38.4638 346.255 38.4504 346.325 38.4508C346.394 38.4513 346.464 38.4656 346.528 38.493C346.592 38.5204 346.65 38.5604 346.699 38.6105L351.951 43.8403C352.049 43.9389 352.104 44.0726 352.104 44.212C352.104 44.3515 352.049 44.4852 351.951 44.5838L346.721 49.8362C346.673 49.8852 346.615 49.9242 346.551 49.9508C346.488 49.9774 346.419 49.9912 346.351 49.9913V49.9913Z" fill="#292A2E"/>
<path d="M288.988 135.516C288.875 135.516 288.766 135.48 288.675 135.413C288.585 135.346 288.518 135.252 288.485 135.144C288.407 134.887 280.845 109.35 300.421 98.7574C300.482 98.723 300.549 98.701 300.619 98.6928C300.688 98.6846 300.759 98.6904 300.826 98.7097C300.893 98.729 300.956 98.7615 301.01 98.8054C301.065 98.8492 301.11 98.9035 301.143 98.965C301.176 99.0265 301.197 99.094 301.204 99.1636C301.211 99.2331 301.203 99.3034 301.183 99.3702C301.162 99.437 301.128 99.499 301.084 99.5526C301.039 99.6062 300.984 99.6503 300.921 99.6824C282.108 109.861 289.417 134.585 289.492 134.834C289.516 134.913 289.522 134.996 289.508 135.077C289.494 135.158 289.461 135.234 289.412 135.301C289.363 135.367 289.3 135.42 289.226 135.457C289.153 135.494 289.072 135.514 288.99 135.514L288.988 135.516Z" fill="#292A2E"/>
<path d="M298.422 105.772C298.336 105.772 298.252 105.751 298.176 105.711C298.101 105.671 298.036 105.613 297.988 105.543C297.94 105.472 297.909 105.391 297.9 105.306C297.89 105.221 297.901 105.135 297.932 105.055L300.126 99.4199L294.491 97.2241C294.363 97.1719 294.261 97.0717 294.207 96.9451C294.152 96.8185 294.15 96.6756 294.2 96.5471C294.25 96.4187 294.348 96.3149 294.474 96.2582C294.599 96.2015 294.742 96.1964 294.871 96.244L300.997 98.628C301.061 98.6531 301.12 98.6906 301.17 98.7383C301.22 98.7861 301.26 98.8433 301.288 98.9065C301.316 98.9697 301.331 99.0378 301.332 99.1069C301.334 99.1759 301.321 99.2446 301.296 99.309L298.912 105.434C298.874 105.533 298.806 105.619 298.719 105.679C298.632 105.739 298.528 105.772 298.422 105.772V105.772Z" fill="#292A2E"/>
<path d="M223.59 48.6603C223.451 48.6603 223.317 48.6049 223.218 48.5063C223.12 48.4077 223.064 48.274 223.064 48.1345C223.064 40.1468 220.707 34.0494 216.056 30.0122C207.801 22.8468 194.961 24.5741 194.832 24.5925C194.694 24.6123 194.554 24.5764 194.442 24.4927C194.331 24.409 194.257 24.2844 194.237 24.1464C194.217 24.0083 194.253 23.8681 194.337 23.7565C194.421 23.6449 194.545 23.5712 194.683 23.5514C195.228 23.4731 208.119 21.7342 216.741 29.2134C221.635 33.4594 224.117 39.8255 224.116 48.1345C224.116 48.2036 224.103 48.272 224.076 48.3357C224.05 48.3995 224.011 48.4575 223.962 48.5063C223.913 48.5552 223.855 48.5939 223.792 48.6203C223.728 48.6467 223.659 48.6603 223.59 48.6603Z" fill="#292A2E"/>
<path d="M223.615 48.8487C223.599 48.8487 223.582 48.8487 223.566 48.8487C223.497 48.8423 223.43 48.8223 223.369 48.79C223.308 48.7577 223.254 48.7137 223.21 48.6605L218.481 42.9506C218.392 42.8431 218.35 42.7047 218.363 42.5659C218.376 42.427 218.443 42.2989 218.551 42.21C218.658 42.121 218.797 42.0784 218.936 42.0914C219.075 42.1045 219.203 42.1722 219.291 42.2796L223.687 47.5867L228.991 43.1951C229.044 43.1511 229.106 43.118 229.172 43.0977C229.238 43.0774 229.307 43.0702 229.376 43.0767C229.445 43.0832 229.511 43.1032 229.573 43.1355C229.634 43.1678 229.688 43.2118 229.732 43.265C229.776 43.3182 229.809 43.3796 229.829 43.4456C229.849 43.5116 229.856 43.5809 229.85 43.6497C229.844 43.7184 229.824 43.7852 229.791 43.8463C229.759 43.9073 229.715 43.9614 229.662 44.0054L223.95 48.7299C223.855 48.807 223.737 48.8491 223.615 48.8487Z" fill="#292A2E"/>
<path d="M235.241 106.667H218.27C216.517 106.667 215.096 108.088 215.096 109.841V126.812C215.096 128.565 216.517 129.986 218.27 129.986H235.241C236.994 129.986 238.415 128.565 238.415 126.812V109.841C238.415 108.088 236.994 106.667 235.241 106.667Z" fill="#0CBC8B"/>
<path d="M278.465 137.683C278.348 137.682 278.234 137.643 278.142 137.571C278.05 137.499 277.984 137.398 277.956 137.285C272.094 113.833 243.429 115.478 243.144 115.497C243.075 115.502 243.006 115.493 242.94 115.471C242.875 115.449 242.814 115.414 242.762 115.368C242.71 115.323 242.667 115.268 242.636 115.206C242.606 115.143 242.587 115.076 242.583 115.007C242.578 114.938 242.587 114.869 242.609 114.803C242.631 114.737 242.666 114.677 242.712 114.625C242.757 114.573 242.813 114.53 242.875 114.499C242.937 114.469 243.004 114.45 243.073 114.446C248.353 114.267 253.625 114.961 258.679 116.5C266.183 118.844 275.796 124.309 278.975 137.027C278.992 137.094 278.996 137.164 278.985 137.232C278.975 137.3 278.952 137.366 278.916 137.425C278.881 137.484 278.834 137.536 278.778 137.577C278.723 137.618 278.66 137.648 278.593 137.665C278.551 137.676 278.508 137.682 278.465 137.683V137.683Z" fill="#292A2E"/>
<path d="M278.538 137.86C278.429 137.86 278.323 137.826 278.234 137.763L272.283 133.54C272.169 133.459 272.093 133.336 272.069 133.199C272.046 133.061 272.078 132.92 272.159 132.807C272.24 132.693 272.363 132.616 272.5 132.593C272.638 132.57 272.779 132.602 272.893 132.683L278.408 136.597L282.339 130.896C282.419 130.782 282.54 130.705 282.677 130.68C282.814 130.655 282.955 130.686 283.069 130.765C283.183 130.844 283.261 130.965 283.287 131.101C283.312 131.237 283.283 131.378 283.205 131.493L278.971 137.633C278.931 137.69 278.881 137.739 278.822 137.777C278.764 137.814 278.698 137.84 278.63 137.852C278.6 137.857 278.569 137.86 278.538 137.86V137.86Z" fill="#292A2E"/>
<path d="M537.042 476L538.075 475.801L521.934 315.41L520.901 315.609L537.042 476Z" fill="#494949"/>
<path d="M476.942 476L477.974 475.801L461.834 315.41L460.802 315.609L476.942 476Z" fill="#494949"/>
<path d="M344.095 476L343.062 475.801L359.203 315.41L360.235 315.609L344.095 476Z" fill="#494949"/>
<path d="M404.195 476L403.162 475.801L419.302 315.41L420.335 315.609L404.195 476Z" fill="#494949"/>
<path d="M425.594 244.817L416.165 315.437L417.207 315.576L426.636 244.956L425.594 244.817Z" fill="#494949"/>
<path d="M533.82 244.817L524.391 315.437L525.433 315.576L534.862 244.956L533.82 244.817Z" fill="#494949"/>
<path d="M416.261 320.681H522.119C524.975 320.681 527.29 318.365 527.29 315.509V315.509C527.29 312.653 524.975 310.337 522.119 310.337H416.261C413.405 310.337 411.089 312.653 411.089 315.509V315.509C411.089 318.365 413.405 320.681 416.261 320.681Z" fill="#292A2E"/>
<path opacity="0.8" d="M416.261 320.681H522.119C524.975 320.681 527.29 318.365 527.29 315.509V315.509C527.29 312.653 524.975 310.337 522.119 310.337H416.261C413.405 310.337 411.089 312.653 411.089 315.509V315.509C411.089 318.365 413.405 320.681 416.261 320.681Z" fill="white"/>
<path d="M410.563 315.509C410.565 313.999 411.166 312.551 412.234 311.483C413.302 310.415 414.75 309.814 416.261 309.813H522.119C523.63 309.813 525.079 310.413 526.147 311.481C527.216 312.55 527.816 313.999 527.816 315.51C527.816 317.021 527.216 318.47 526.147 319.539C525.079 320.607 523.63 321.207 522.119 321.207H416.261C414.75 321.205 413.302 320.605 412.234 319.536C411.166 318.468 410.565 317.02 410.563 315.509V315.509ZM416.261 310.864C415.029 310.864 413.847 311.353 412.976 312.225C412.105 313.096 411.615 314.277 411.615 315.509C411.615 316.742 412.105 317.923 412.976 318.794C413.847 319.666 415.029 320.155 416.261 320.155H522.119C523.351 320.155 524.532 319.666 525.404 318.794C526.275 317.923 526.764 316.742 526.764 315.509C526.764 314.277 526.275 313.096 525.404 312.225C524.532 311.353 523.351 310.864 522.119 310.864H416.261Z" fill="#292A2E"/>
<path d="M358.16 320.681H464.018C466.874 320.681 469.189 318.365 469.189 315.509V315.509C469.189 312.653 466.874 310.337 464.018 310.337H358.16C355.304 310.337 352.989 312.653 352.989 315.509V315.509C352.989 318.365 355.304 320.681 358.16 320.681Z" fill="white"/>
<path d="M352.46 315.509C352.462 313.999 353.064 312.55 354.132 311.482C355.201 310.414 356.65 309.814 358.16 309.813H464.018C465.529 309.813 466.978 310.413 468.047 311.481C469.115 312.55 469.716 313.999 469.716 315.51C469.716 317.021 469.115 318.47 468.047 319.539C466.978 320.607 465.529 321.207 464.018 321.207H358.16C356.649 321.206 355.201 320.605 354.132 319.537C353.063 318.469 352.462 317.02 352.46 315.509ZM358.16 310.864C357.55 310.864 356.946 310.985 356.383 311.218C355.819 311.451 355.307 311.794 354.875 312.225C354.444 312.656 354.102 313.169 353.868 313.732C353.635 314.296 353.515 314.9 353.515 315.51C353.515 316.12 353.635 316.724 353.868 317.288C354.102 317.851 354.444 318.364 354.875 318.795C355.307 319.226 355.819 319.568 356.383 319.802C356.946 320.035 357.55 320.156 358.16 320.156H464.018C465.25 320.156 466.432 319.666 467.303 318.795C468.174 317.924 468.664 316.742 468.664 315.51C468.664 314.278 468.174 313.096 467.303 312.225C466.432 311.354 465.25 310.864 464.018 310.864H358.16Z" fill="#292A2E"/>
<path d="M431.398 244.89H534.063C535.742 244.89 537.363 244.279 538.624 243.171C539.885 242.064 540.7 240.535 540.917 238.87L547.708 186.719C547.835 185.744 547.752 184.753 547.466 183.813C547.179 182.872 546.696 182.004 546.047 181.265C545.399 180.527 544.6 179.935 543.704 179.53C542.809 179.124 541.837 178.914 540.854 178.914H438.189C436.51 178.914 434.888 179.525 433.627 180.633C432.365 181.741 431.55 183.27 431.333 184.935L424.542 237.086C424.415 238.061 424.498 239.052 424.784 239.992C425.071 240.933 425.555 241.801 426.204 242.54C426.853 243.279 427.652 243.87 428.547 244.276C429.443 244.681 430.415 244.89 431.398 244.89Z" fill="#292A2E"/>
<path opacity="0.8" d="M431.398 244.89H534.063C535.742 244.89 537.363 244.279 538.624 243.171C539.885 242.064 540.7 240.535 540.917 238.87L547.708 186.719C547.835 185.744 547.752 184.753 547.466 183.813C547.179 182.872 546.696 182.004 546.047 181.265C545.399 180.527 544.6 179.935 543.704 179.53C542.809 179.124 541.837 178.914 540.854 178.914H438.189C436.51 178.914 434.888 179.525 433.627 180.633C432.365 181.741 431.55 183.27 431.333 184.935L424.542 237.086C424.415 238.061 424.498 239.052 424.784 239.992C425.071 240.933 425.555 241.801 426.204 242.54C426.853 243.279 427.652 243.87 428.547 244.276C429.443 244.681 430.415 244.89 431.398 244.89Z" fill="white"/>
<path d="M425.812 242.886C425.114 242.091 424.594 241.157 424.285 240.145C423.977 239.133 423.888 238.067 424.025 237.018L430.815 184.867C431.052 183.078 431.93 181.435 433.287 180.243C434.643 179.052 436.385 178.394 438.191 178.39H540.855C541.913 178.389 542.959 178.615 543.923 179.051C544.886 179.488 545.746 180.124 546.444 180.919C547.142 181.714 547.662 182.649 547.97 183.661C548.278 184.673 548.367 185.739 548.23 186.788L541.44 238.938C541.203 240.728 540.325 242.37 538.969 243.562C537.612 244.753 535.87 245.412 534.065 245.416H431.399C430.341 245.415 429.296 245.189 428.333 244.753C427.369 244.317 426.51 243.68 425.812 242.886V242.886ZM438.19 179.441C436.64 179.445 435.144 180.011 433.98 181.034C432.816 182.056 432.063 183.467 431.859 185.003L425.068 237.154C424.951 238.054 425.027 238.969 425.292 239.838C425.556 240.707 426.003 241.51 426.603 242.192C427.202 242.874 427.94 243.421 428.767 243.796C429.595 244.17 430.492 244.364 431.401 244.364H534.065C535.615 244.361 537.111 243.795 538.276 242.772C539.44 241.75 540.194 240.339 540.398 238.802L547.188 186.652C547.306 185.751 547.229 184.836 546.965 183.967C546.7 183.098 546.254 182.296 545.654 181.613C545.055 180.931 544.317 180.384 543.49 180.009C542.662 179.635 541.765 179.441 540.856 179.441H438.19Z" fill="#292A2E"/>
<path d="M425.593 244.89H528.258C529.936 244.89 531.558 244.279 532.819 243.171C534.08 242.064 534.895 240.535 535.112 238.87L541.903 186.719C542.03 185.744 541.947 184.753 541.661 183.813C541.374 182.872 540.891 182.004 540.242 181.265C539.593 180.527 538.795 179.935 537.899 179.529C537.004 179.124 536.032 178.914 535.049 178.914H432.385C430.707 178.914 429.086 179.525 427.825 180.633C426.563 181.74 425.748 183.269 425.532 184.933L418.741 237.084C418.614 238.059 418.696 239.05 418.982 239.99C419.268 240.931 419.751 241.799 420.4 242.538C421.049 243.277 421.847 243.869 422.743 244.275C423.638 244.68 424.61 244.89 425.593 244.89V244.89Z" fill="white"/>
<path d="M420.005 242.886C419.307 242.091 418.786 241.157 418.478 240.145C418.169 239.133 418.081 238.067 418.217 237.018L425.008 184.867C425.245 183.077 426.123 181.434 427.48 180.243C428.837 179.052 430.58 178.393 432.385 178.39H535.05C536.107 178.389 537.153 178.615 538.117 179.051C539.081 179.488 539.94 180.124 540.638 180.919C541.336 181.714 541.857 182.649 542.165 183.661C542.473 184.673 542.562 185.739 542.425 186.788L535.634 238.938C535.397 240.728 534.519 242.37 533.163 243.562C531.806 244.753 530.064 245.412 528.259 245.416H425.593C424.535 245.416 423.49 245.19 422.526 244.754C421.562 244.317 420.703 243.681 420.005 242.886V242.886ZM432.385 179.441C430.835 179.445 429.339 180.01 428.175 181.033C427.01 182.056 426.256 183.466 426.053 185.003L419.262 237.154C419.144 238.054 419.221 238.969 419.485 239.838C419.75 240.707 420.197 241.51 420.796 242.192C421.395 242.874 422.133 243.421 422.961 243.796C423.788 244.17 424.686 244.364 425.594 244.364H528.258C529.808 244.361 531.304 243.795 532.468 242.772C533.633 241.75 534.387 240.339 534.59 238.802L541.381 186.652C541.498 185.752 541.422 184.836 541.157 183.967C540.893 183.099 540.446 182.296 539.847 181.614C539.247 180.931 538.509 180.384 537.682 180.01C536.855 179.635 535.957 179.441 535.049 179.441H432.385Z" fill="#292A2E"/>
<path d="M348.001 448.216C348.001 448.216 345.182 462.831 331.499 463.645C317.816 464.46 320.783 475.36 320.783 475.36H373.073V449.235L348.001 448.216Z" fill="#171DCE"/>
<path d="M394.918 438.989C394.918 438.989 398.839 453.347 386.921 460.118C375.003 466.889 382.476 475.36 382.476 475.36L429.396 452.277L417.865 428.837L394.918 438.989Z" fill="#171DCE"/>
<path d="M423.979 434.933L384.412 310.109H456.134C470.541 310.109 476.547 297.892 476.547 283.485C476.547 269.079 462.384 256.45 447.977 256.45H351.179C342.392 256.45 332.539 261.824 327.717 269.169C322.894 276.515 324.197 287.898 327.691 295.96L391.053 449.85" fill="#262626"/>
<path opacity="0.8" d="M423.979 434.933L384.412 310.109H456.134C470.541 310.109 476.547 297.892 476.547 283.485C476.547 269.079 462.384 256.45 447.977 256.45H351.179C342.392 256.45 332.539 261.824 327.717 269.169C322.894 276.515 324.197 287.898 327.691 295.96L391.053 449.85" fill="#0A0A0A"/>
<path d="M377.161 458.692L389.675 310.109L476.545 310.103C496.901 308.508 506.222 297.352 505.926 282.949C505.634 268.728 498.434 254.682 484.276 254.682H367.194C356.72 254.898 344.594 264.806 344.594 276.201L338.509 456.966" fill="#262626"/>
<path d="M511.853 254.857C511.853 254.857 515.711 280.015 509.596 294.002C501.962 311.465 473.342 310.104 473.342 310.104L474.955 254.682L511.853 254.857Z" fill="#262626"/>
<path d="M516.105 252.013L516.217 252.019C516.217 252.019 516.136 249.876 516.105 252.013Z" fill="#333333"/>
<path d="M515.965 252.013L516.077 252.019C516.077 252.019 515.996 249.876 515.965 252.013Z" fill="#333333"/>
<path d="M329.728 150.016C329.933 149.611 330.258 149.279 330.66 149.066C331.061 148.854 331.518 148.771 331.969 148.83C331.965 148.79 331.974 148.75 331.994 148.715C332.015 148.688 332.042 148.667 332.074 148.654C332.106 148.641 332.14 148.637 332.174 148.642L330.654 147.552C330.2 147.241 329.874 146.776 329.736 146.243C329.598 145.71 329.658 145.145 329.903 144.653C330.162 144.174 330.59 143.808 331.103 143.627C331.616 143.445 332.178 143.461 332.681 143.67C332.677 143.649 332.691 143.628 332.694 143.606L332.07 143.158C331.643 142.864 331.332 142.431 331.187 141.932C331.043 141.434 331.075 140.901 331.278 140.424C331.412 140.127 331.61 139.864 331.858 139.653C332.106 139.442 332.398 139.289 332.713 139.204C333.027 139.12 333.356 139.106 333.677 139.164C333.997 139.222 334.3 139.351 334.565 139.54L336.006 140.573C336.011 140.565 336.006 140.555 336.012 140.547C336.018 140.539 336.033 140.536 336.042 140.527C335.711 140.155 335.516 139.681 335.49 139.184C335.464 138.687 335.607 138.195 335.897 137.79C336.577 136.696 338.147 136.919 339.079 137.587L347.561 143.446L346.046 140.888C345.741 140.397 345.633 139.808 345.745 139.241C345.857 138.673 346.18 138.17 346.65 137.831C346.898 137.665 347.177 137.552 347.471 137.497C347.765 137.443 348.066 137.448 348.358 137.514C348.649 137.58 348.924 137.705 349.165 137.881C349.407 138.056 349.61 138.279 349.762 138.536L358.04 152.47C359.011 154.105 359.307 156.054 358.864 157.903C358.421 159.753 357.274 161.356 355.667 162.373V162.373C353.804 163.553 351.631 164.15 349.427 164.087C347.222 164.023 345.087 163.303 343.295 162.018L330.486 152.837C330.06 152.521 329.754 152.07 329.617 151.558C329.479 151.046 329.518 150.503 329.728 150.016Z" fill="#E98862"/>
<g opacity="0.25">
<path d="M344.4 146.358C344.369 146.401 344.322 146.43 344.27 146.439C344.218 146.447 344.164 146.435 344.12 146.405L336.062 140.824C336.018 140.793 335.988 140.746 335.979 140.693C335.969 140.641 335.981 140.586 336.012 140.542C336.042 140.498 336.089 140.468 336.141 140.458C336.194 140.448 336.248 140.46 336.293 140.49L344.352 146.072C344.374 146.087 344.393 146.107 344.407 146.129C344.422 146.151 344.432 146.176 344.437 146.203C344.442 146.229 344.441 146.256 344.436 146.282C344.43 146.308 344.42 146.333 344.404 146.355L344.4 146.358Z" fill="#0C0C0C"/>
</g>
<g opacity="0.25">
<path d="M342.037 149.98C342.005 150.023 341.959 150.052 341.906 150.061C341.854 150.07 341.8 150.058 341.757 150.028L332.765 143.798C332.721 143.768 332.691 143.721 332.681 143.668C332.671 143.615 332.682 143.56 332.713 143.516C332.744 143.473 332.791 143.444 332.843 143.434C332.896 143.424 332.95 143.435 332.995 143.463L341.989 149.693C342.011 149.708 342.03 149.727 342.045 149.749C342.059 149.772 342.069 149.797 342.074 149.823C342.079 149.849 342.079 149.876 342.073 149.902C342.067 149.928 342.057 149.953 342.042 149.975L342.037 149.98Z" fill="#0C0C0C"/>
</g>
<g opacity="0.25">
<path d="M339.499 153.918C339.468 153.961 339.421 153.99 339.369 153.999C339.317 154.008 339.263 153.996 339.219 153.966L332.045 148.997C332.003 148.965 331.974 148.919 331.965 148.866C331.956 148.814 331.968 148.761 331.999 148.717C332.029 148.674 332.075 148.644 332.127 148.634C332.179 148.624 332.232 148.634 332.277 148.663L339.451 153.632C339.473 153.647 339.492 153.667 339.506 153.689C339.521 153.711 339.531 153.736 339.536 153.763C339.541 153.789 339.54 153.816 339.535 153.842C339.529 153.868 339.519 153.893 339.503 153.915L339.499 153.918Z" fill="#0C0C0C"/>
</g>
<path d="M362.925 149.298L387.234 190.7L416.898 151.793L441.531 174.002L399.46 228.486L399.185 228.873C397.501 231.18 395.258 233.019 392.666 234.219C390.075 235.419 387.221 235.939 384.373 235.73C381.525 235.522 378.777 234.592 376.387 233.028C373.998 231.464 372.047 229.317 370.716 226.79L336.147 164.188L362.925 149.298Z" fill="#171DCE"/>
<path d="M389.616 195.679C389.669 195.679 389.721 195.665 389.767 195.64C389.813 195.614 389.852 195.576 389.879 195.531C389.907 195.486 389.922 195.435 389.924 195.382C389.926 195.329 389.915 195.277 389.891 195.23L387.508 190.56C387.469 190.49 387.404 190.438 387.328 190.414C387.251 190.391 387.168 190.398 387.097 190.434C387.025 190.471 386.971 190.534 386.945 190.609C386.919 190.685 386.923 190.768 386.957 190.841L389.341 195.511C389.367 195.561 389.406 195.604 389.455 195.634C389.503 195.663 389.559 195.679 389.616 195.679V195.679Z" fill="#0C0C0C"/>
<path d="M418.606 190.466L417.989 190.5L418.731 203.577L419.348 203.542L418.606 190.466Z" fill="#0C0C0C"/>
<path d="M496.938 95.8253C496.938 95.8253 498.077 110.381 501.416 115.628C511.027 130.733 513.958 147.818 504.613 156.869C495.268 165.92 435.007 166.743 430.204 146.23C426.159 128.959 434.386 127.002 436.228 112.694C437.061 106.22 439.402 92.6383 439.402 92.6383" fill="#0A0A0A"/>
<path d="M445.545 142.949C445.65 142.935 446.803 162.088 469.056 160.42C484.463 159.266 489.955 142.921 490.308 142.921C488.647 142.568 485.85 142.055 485.112 141.659C482.686 140.356 479.685 139 478.903 134.289C478.452 131.574 479.218 117.683 478.981 114.936L455.334 120.214C455.664 126.016 457.977 139.466 449.871 141.846C448.523 142.242 447.07 142.605 445.545 142.949Z" fill="#E98862"/>
<path opacity="0.52" d="M455.002 136.352C455.373 135.158 455.611 133.927 455.714 132.681C455.974 129.839 455.922 126.976 455.559 124.145C460.366 123.497 464.894 121.513 468.629 118.419C469.068 120.041 471.483 127.127 470.814 128.668C469.55 131.581 463.611 136.352 455.002 136.352Z" fill="#0C0C0C"/>
<path d="M458.137 130.323C467.47 131.117 479.489 127.248 481.844 114.805L483.969 103.576C486.324 91.1322 481.697 79.8092 469.982 77.5903C458.266 75.3729 447.599 83.8034 445.244 96.2474L444.303 101.218C443.398 105.993 441.485 128.906 458.137 130.323Z" fill="#E98862"/>
<path d="M447.641 101.76C448.452 101.76 449.11 101.103 449.11 100.291C449.11 99.4804 448.452 98.8229 447.641 98.8229C446.83 98.8229 446.172 99.4804 446.172 100.291C446.172 101.103 446.83 101.76 447.641 101.76Z" fill="#0C0C0C"/>
<path d="M462.688 103.77C463.499 103.77 464.156 103.112 464.156 102.301C464.156 101.49 463.499 100.833 462.688 100.833C461.877 100.833 461.219 101.49 461.219 102.301C461.219 103.112 461.877 103.77 462.688 103.77Z" fill="#0C0C0C"/>
<path d="M454.43 113.069C454.423 113.068 454.415 113.067 454.408 113.066C453.933 112.972 453.464 112.853 453.003 112.708C452.313 112.486 451.411 112.119 451.53 111.498C451.664 110.789 455.053 103.506 455.44 102.679C455.474 102.606 455.535 102.55 455.61 102.523C455.685 102.496 455.768 102.499 455.84 102.533C455.912 102.566 455.969 102.627 455.996 102.702C456.023 102.777 456.02 102.86 455.986 102.933C454.54 106.035 452.212 111.135 452.122 111.609C452.199 111.83 453.343 112.25 454.521 112.474C454.598 112.487 454.666 112.531 454.712 112.594C454.758 112.658 454.777 112.737 454.765 112.814C454.754 112.892 454.712 112.962 454.65 113.009C454.588 113.056 454.509 113.078 454.432 113.068L454.43 113.069Z" fill="#0C0C0C"/>
<path d="M456.166 118.442C454.254 118.193 452.428 117.5 450.834 116.416C450.768 116.373 450.721 116.304 450.704 116.226C450.688 116.148 450.703 116.067 450.747 116C450.79 115.933 450.859 115.886 450.937 115.87C451.015 115.853 451.096 115.868 451.163 115.912C454.612 118.159 458.04 118.523 461.074 116.964C461.135 116.93 461.198 116.9 461.263 116.874C461.338 116.847 461.421 116.85 461.493 116.884C461.565 116.918 461.621 116.979 461.648 117.054C461.675 117.129 461.671 117.212 461.638 117.284C461.604 117.357 461.543 117.412 461.468 117.439C461.444 117.449 461.404 117.471 461.349 117.499C459.754 118.322 457.949 118.65 456.166 118.442V118.442Z" fill="#0C0C0C"/>
<path d="M493.342 107.489L482.839 105.564C474.885 102.345 472.48 88.5747 472.48 88.5747C472.48 88.5747 462.818 97.9921 439.406 92.6362C439.406 92.6362 444.101 59.9828 478.693 69.477C489.846 72.5388 497.852 83.7793 496.855 98.8009C496.152 109.328 493.342 107.489 493.342 107.489Z" fill="#0A0A0A"/>
<path d="M480.399 118.458C483.959 119.132 487.566 115.869 488.24 112.306C488.914 108.743 486.4 106.235 482.839 105.562L480.552 107.6L477.337 117.876L480.399 118.458Z" fill="#E98862"/>
<path d="M453.293 96.7264C452.255 96.0556 451.055 95.6768 449.819 95.6296C449.211 95.6025 448.603 95.6668 448.014 95.8204C447.43 95.9703 446.868 96.1931 446.34 96.4835C446.273 96.524 446.223 96.5883 446.2 96.6638C446.178 96.7392 446.184 96.8203 446.218 96.8912C446.253 96.9621 446.312 97.0176 446.385 97.0469C446.458 97.0761 446.54 97.077 446.613 97.0493L446.636 97.0393C447.124 96.8005 447.64 96.6239 448.171 96.5135C448.697 96.4009 449.237 96.3686 449.773 96.4178C450.835 96.5063 451.855 96.8748 452.729 97.4857L452.757 97.5062C452.807 97.5478 452.865 97.5786 452.927 97.5969C452.989 97.6152 453.055 97.6205 453.119 97.6124C453.183 97.6044 453.245 97.5832 453.301 97.5502C453.357 97.5172 453.405 97.4731 453.443 97.4206C453.482 97.3681 453.508 97.3083 453.522 97.245C453.536 97.1816 453.537 97.1161 453.525 97.0524C453.512 96.9888 453.487 96.9283 453.45 96.8749C453.414 96.8214 453.366 96.7761 453.311 96.7417L453.293 96.7264Z" fill="#0C0C0C"/>
<path d="M462.66 98.9317C463.696 98.6785 464.78 98.7033 465.803 99.0037C466.32 99.1517 466.811 99.377 467.261 99.672C467.717 99.9677 468.134 100.32 468.502 100.719L468.519 100.736C468.578 100.789 468.654 100.817 468.733 100.817C468.811 100.816 468.887 100.785 468.944 100.732C469.002 100.678 469.037 100.605 469.044 100.526C469.05 100.448 469.027 100.37 468.979 100.308C468.591 99.8465 468.147 99.4358 467.658 99.0852C467.164 98.7291 466.62 98.4491 466.043 98.2544C464.874 97.8522 463.618 97.7721 462.407 98.0225C462.291 98.0555 462.193 98.1311 462.131 98.234C462.069 98.337 462.049 98.4596 462.074 98.5769C462.099 98.6943 462.168 98.7977 462.267 98.8663C462.365 98.9348 462.486 98.9632 462.605 98.9459L462.625 98.9411L462.66 98.9317Z" fill="#0C0C0C"/>
<path d="M455.759 121.267C455.413 121.227 455.07 121.159 454.736 121.061C454.659 121.039 454.594 120.988 454.556 120.918C454.517 120.848 454.508 120.766 454.53 120.689C454.552 120.612 454.604 120.547 454.673 120.509C454.743 120.47 454.826 120.461 454.902 120.483C456.916 121.061 458.062 120.295 458.11 120.262C458.175 120.216 458.256 120.198 458.335 120.211C458.413 120.225 458.483 120.27 458.529 120.335C458.575 120.4 458.593 120.481 458.579 120.56C458.566 120.638 458.521 120.708 458.456 120.754C457.643 121.232 456.69 121.413 455.759 121.267V121.267Z" fill="#0C0C0C"/>
<path d="M482.816 105.431L482.921 105.14C469.614 100.363 472.868 87.3037 472.902 87.1722L472.604 87.0939C472.568 87.228 469.239 100.556 482.816 105.431Z" fill="#0C0C0C"/>
<path opacity="0.1" d="M466.874 112.243C466.995 111.116 465.848 110.069 464.311 109.904C462.775 109.738 461.431 110.518 461.31 111.645C461.189 112.772 462.336 113.819 463.872 113.984C465.409 114.15 466.752 113.37 466.874 112.243Z" fill="#0C0C0C"/>
<path opacity="0.1" d="M447.611 109.674C447.486 110.8 446.143 111.578 444.607 111.415C444.341 111.386 444.079 111.33 443.825 111.248C443.739 109.908 443.72 108.618 443.745 107.426C444.17 107.314 444.611 107.283 445.047 107.334C446.582 107.497 447.731 108.545 447.611 109.674Z" fill="#0C0C0C"/>
<path d="M417.897 185.12C418.598 193.355 422.007 244.537 422.682 254.683L511.853 254.872C512.379 245.723 518.44 205.722 520.429 187.833C522.329 170.763 526.056 162.216 523.321 157.169C518.858 148.921 506.662 144.155 498.345 143.029C493.267 142.342 485.629 141.849 485.629 141.849C485.629 141.849 484.983 154.931 469.563 155.659C448.571 156.649 449.973 141.849 449.869 141.849C446.469 141.849 427.042 144.001 422.289 146.819C409.341 154.486 416.409 167.669 417.897 185.12Z" fill="#171DCE"/>
<path d="M360.016 190.872L368.611 232.65C368.786 233.499 369.246 234.261 369.915 234.812C370.584 235.362 371.421 235.666 372.287 235.673L431.474 236.177C432.039 236.182 432.597 236.06 433.109 235.821C433.62 235.582 434.072 235.232 434.431 234.796C434.789 234.36 435.046 233.849 435.181 233.301C435.317 232.753 435.328 232.181 435.215 231.628L426.619 189.85C426.444 189.002 425.984 188.239 425.315 187.689C424.646 187.139 423.809 186.835 422.943 186.828L363.756 186.324C363.192 186.319 362.633 186.44 362.122 186.679C361.61 186.918 361.158 187.269 360.8 187.705C360.441 188.141 360.185 188.652 360.049 189.2C359.913 189.748 359.902 190.319 360.016 190.872Z" fill="#292A2E"/>
<path d="M415.206 220.548C415.175 221.098 415.343 221.641 415.68 222.077C416.018 222.512 416.501 222.812 417.041 222.919L418.863 223.321C418.83 223.332 418.801 223.35 418.777 223.375C418.754 223.4 418.736 223.43 418.727 223.463C418.723 223.502 418.731 223.541 418.752 223.574C418.314 223.697 417.925 223.954 417.639 224.308C417.354 224.662 417.186 225.096 417.158 225.551C417.156 226.08 417.332 226.595 417.658 227.012C417.984 227.429 418.441 227.723 418.956 227.848L434.341 231.266C435.128 231.442 435.932 231.53 436.738 231.529C438.533 231.529 440.302 231.092 441.891 230.256C443.481 229.42 444.843 228.21 445.86 226.73C446.939 225.165 447.365 223.24 447.046 221.365C446.728 219.491 445.691 217.815 444.155 216.693L431.068 207.123C430.78 206.912 430.445 206.775 430.092 206.722L431.296 212.571L430.975 212.497L430.907 212.485L420.87 210.443C419.752 210.196 418.22 210.601 418.023 211.876C417.917 212.363 417.978 212.872 418.198 213.319C418.418 213.767 418.782 214.127 419.232 214.341C419.226 214.346 419.213 214.353 419.213 214.365C419.213 214.378 419.219 214.384 419.219 214.396L417.484 214.013C417.167 213.943 416.838 213.944 416.521 214.016C416.204 214.088 415.907 214.23 415.652 214.431C415.396 214.631 415.188 214.886 415.043 215.177C414.897 215.467 414.818 215.787 414.811 216.112C414.811 216.631 414.991 217.134 415.319 217.536C415.648 217.938 416.106 218.213 416.615 218.316L417.362 218.483C417.368 218.508 417.362 218.533 417.374 218.551C416.83 218.555 416.306 218.762 415.905 219.131C415.504 219.5 415.255 220.005 415.206 220.548V220.548Z" fill="#E98862"/>
<g opacity="0.25">
<path d="M429.212 216.423C429.201 216.475 429.169 216.52 429.125 216.549C429.08 216.577 429.026 216.588 428.974 216.577L419.371 214.607C419.344 214.603 419.318 214.593 419.296 214.578C419.273 214.563 419.253 214.544 419.238 214.521C419.223 214.499 419.212 214.474 419.207 214.447C419.202 214.421 419.202 214.393 419.207 214.367C419.213 214.34 419.223 214.315 419.239 214.293C419.254 214.27 419.274 214.251 419.297 214.237C419.319 214.222 419.345 214.212 419.372 214.207C419.398 214.203 419.426 214.204 419.452 214.21L429.056 216.179C429.082 216.185 429.107 216.195 429.129 216.21C429.151 216.225 429.17 216.244 429.184 216.266C429.199 216.289 429.209 216.313 429.214 216.34C429.219 216.366 429.219 216.393 429.213 216.419L429.212 216.423Z" fill="#0C0C0C"/>
</g>
<g opacity="0.25">
<path d="M428.461 220.683C428.449 220.735 428.417 220.779 428.373 220.808C428.328 220.837 428.274 220.847 428.222 220.836L417.505 218.638C417.479 218.633 417.454 218.622 417.432 218.608C417.41 218.593 417.391 218.573 417.376 218.551C417.362 218.529 417.351 218.504 417.346 218.478C417.341 218.452 417.342 218.425 417.347 218.399C417.36 218.347 417.391 218.302 417.436 218.273C417.48 218.244 417.534 218.232 417.587 218.241L428.304 220.439C428.357 220.45 428.403 220.481 428.432 220.526C428.462 220.571 428.472 220.626 428.462 220.679L428.461 220.683Z" fill="#0C0C0C"/>
</g>
<g opacity="0.25">
<path d="M427.673 225.301C427.661 225.352 427.63 225.397 427.585 225.426C427.541 225.455 427.487 225.465 427.435 225.454L418.885 223.701C418.833 223.69 418.788 223.658 418.759 223.613C418.73 223.569 418.719 223.514 418.73 223.462C418.741 223.41 418.772 223.364 418.816 223.334C418.861 223.305 418.915 223.294 418.967 223.304L427.516 225.057C427.569 225.068 427.615 225.099 427.644 225.144C427.674 225.189 427.685 225.243 427.674 225.296L427.673 225.301Z" fill="#0C0C0C"/>
</g>
<path d="M435.293 237.352L518.766 252.436C521.37 252.72 524.005 252.396 526.464 251.49C528.923 250.584 531.138 249.121 532.936 247.215C534.734 245.309 536.066 243.012 536.827 240.505C537.588 237.998 537.758 235.349 537.323 232.765L525.638 163.304C525.274 161.103 524.48 158.995 523.3 157.101C522.12 155.207 520.578 153.565 518.763 152.268C516.947 150.971 514.893 150.046 512.719 149.544C510.545 149.042 508.294 148.975 506.093 149.345C503.893 149.715 501.788 150.516 499.897 151.701C498.007 152.886 496.369 154.433 495.078 156.253C493.787 158.072 492.867 160.128 492.372 162.304C491.877 164.479 491.816 166.731 492.192 168.93L500.163 216.748L438.963 209.062L435.293 237.352Z" fill="#171DCE"/>
<path d="M518.766 252.745C518.843 252.744 518.917 252.715 518.973 252.663C519.029 252.61 519.064 252.539 519.07 252.463C519.077 252.386 519.055 252.31 519.008 252.249C518.962 252.188 518.894 252.146 518.819 252.132L435.634 237.1L439.227 209.407L500.117 217.054C500.165 217.061 500.214 217.056 500.26 217.04C500.305 217.024 500.347 216.997 500.38 216.962C500.413 216.927 500.438 216.886 500.452 216.84C500.466 216.794 500.47 216.746 500.462 216.699L495.4 186.14C495.394 186.1 495.38 186.061 495.358 186.027C495.337 185.992 495.309 185.962 495.276 185.938C495.243 185.915 495.205 185.898 495.166 185.889C495.126 185.88 495.085 185.879 495.045 185.886C494.964 185.899 494.892 185.945 494.844 186.011C494.797 186.078 494.778 186.161 494.791 186.241L499.786 216.392L439.002 208.759C438.921 208.749 438.839 208.772 438.775 208.821C438.71 208.871 438.668 208.944 438.657 209.025L434.987 237.314C434.977 237.393 434.997 237.472 435.044 237.536C435.091 237.6 435.16 237.644 435.238 237.658L518.711 252.74C518.729 252.743 518.748 252.745 518.766 252.745V252.745Z" fill="#0C0C0C"/>
<path d="M500.212 216.446L500.114 217.056L505.483 217.916L505.581 217.305L500.212 216.446Z" fill="#0C0C0C"/>
<path d="M574.631 475.689H1.26602C1.1684 475.689 1.07478 475.65 1.00576 475.581C0.936728 475.512 0.897949 475.418 0.897949 475.321C0.897949 475.223 0.936728 475.129 1.00576 475.06C1.07478 474.991 1.1684 474.953 1.26602 474.953H574.63C574.727 474.953 574.821 474.991 574.89 475.06C574.959 475.129 574.998 475.223 574.998 475.321C574.998 475.418 574.959 475.512 574.89 475.581C574.821 475.65 574.727 475.689 574.63 475.689H574.631Z" fill="#292A2E"/>
<g opacity="0.65">
<path d="M574.631 475.689H1.26602C1.1684 475.689 1.07478 475.65 1.00576 475.581C0.936728 475.512 0.897949 475.418 0.897949 475.321C0.897949 475.223 0.936728 475.129 1.00576 475.06C1.07478 474.991 1.1684 474.953 1.26602 474.953H574.63C574.727 474.953 574.821 474.991 574.89 475.06C574.959 475.129 574.998 475.223 574.998 475.321C574.998 475.418 574.959 475.512 574.89 475.581C574.821 475.65 574.727 475.689 574.63 475.689H574.631Z" fill="#292A2E"/>
</g>
<path d="M36.5244 476L35.4917 475.801L51.6322 315.41L52.665 315.609L36.5244 476Z" fill="#494949"/>
<path d="M96.6245 476L95.5918 475.801L111.732 315.41L112.765 315.609L96.6245 476Z" fill="#494949"/>
<path d="M229.472 476L230.505 475.801L214.364 315.41L213.332 315.609L229.472 476Z" fill="#494949"/>
<path d="M169.372 476L170.405 475.801L154.265 315.41L153.232 315.609L169.372 476Z" fill="#494949"/>
<path d="M147.967 244.822L146.924 244.961L156.353 315.581L157.396 315.441L147.967 244.822Z" fill="#494949"/>
<path d="M39.7401 244.821L38.6978 244.96L48.1267 315.58L49.1691 315.441L39.7401 244.821Z" fill="#494949"/>
<path d="M157.306 310.338H51.4478C48.5917 310.338 46.2764 312.653 46.2764 315.509V315.51C46.2764 318.366 48.5917 320.681 51.4478 320.681H157.306C160.162 320.681 162.477 318.366 162.477 315.51V315.509C162.477 312.653 160.162 310.338 157.306 310.338Z" fill="#292A2E"/>
<path opacity="0.8" d="M157.306 310.338H51.4478C48.5917 310.338 46.2764 312.653 46.2764 315.509V315.51C46.2764 318.366 48.5917 320.681 51.4478 320.681H157.306C160.162 320.681 162.477 318.366 162.477 315.51V315.509C162.477 312.653 160.162 310.338 157.306 310.338Z" fill="white"/>
<path d="M157.306 321.207H51.4477C50.6996 321.207 49.9587 321.059 49.2675 320.773C48.5763 320.487 47.9482 320.067 47.4192 319.538C46.8901 319.009 46.4705 318.381 46.1842 317.69C45.8978 316.998 45.7505 316.258 45.7505 315.509C45.7505 314.761 45.8978 314.02 46.1842 313.329C46.4705 312.638 46.8901 312.01 47.4192 311.481C47.9482 310.952 48.5763 310.532 49.2675 310.246C49.9587 309.959 50.6996 309.812 51.4477 309.812H157.306C158.817 309.812 160.266 310.412 161.334 311.481C162.403 312.549 163.003 313.998 163.003 315.509C163.003 317.02 162.403 318.469 161.334 319.538C160.266 320.606 158.817 321.207 157.306 321.207ZM51.4477 310.864C50.8377 310.864 50.2336 310.984 49.6699 311.218C49.1063 311.451 48.5942 311.794 48.1628 312.225C47.7314 312.656 47.3892 313.168 47.1558 313.732C46.9223 314.296 46.8021 314.9 46.8021 315.51C46.8021 316.12 46.9223 316.724 47.1558 317.288C47.3892 317.851 47.7314 318.363 48.1628 318.795C48.5942 319.226 49.1063 319.568 49.6699 319.802C50.2336 320.035 50.8377 320.155 51.4477 320.155H157.306C158.538 320.155 159.719 319.666 160.591 318.795C161.462 317.924 161.951 316.742 161.951 315.51C161.951 314.278 161.462 313.096 160.591 312.225C159.719 311.354 158.538 310.864 157.306 310.864H51.4477Z" fill="#292A2E"/>
<path d="M215.406 310.338H109.548C106.692 310.338 104.377 312.653 104.377 315.509V315.51C104.377 318.366 106.692 320.681 109.548 320.681H215.406C218.262 320.681 220.578 318.366 220.578 315.51V315.509C220.578 312.653 218.262 310.338 215.406 310.338Z" fill="white"/>
<path d="M215.406 321.207H109.548C108.8 321.207 108.059 321.059 107.368 320.773C106.677 320.487 106.049 320.067 105.52 319.538C104.991 319.009 104.571 318.381 104.285 317.69C103.998 316.998 103.851 316.258 103.851 315.509C103.851 314.761 103.998 314.02 104.285 313.329C104.571 312.638 104.991 312.01 105.52 311.481C106.049 310.952 106.677 310.532 107.368 310.246C108.059 309.959 108.8 309.812 109.548 309.812H215.406C216.154 309.812 216.895 309.959 217.586 310.246C218.278 310.532 218.906 310.952 219.435 311.481C219.964 312.01 220.384 312.638 220.67 313.329C220.956 314.02 221.104 314.761 221.104 315.509C221.104 316.258 220.956 316.998 220.67 317.69C220.384 318.381 219.964 319.009 219.435 319.538C218.906 320.067 218.278 320.487 217.586 320.773C216.895 321.059 216.154 321.207 215.406 321.207V321.207ZM109.548 310.864C108.938 310.864 108.334 310.984 107.771 311.218C107.207 311.451 106.695 311.794 106.263 312.225C105.832 312.656 105.49 313.168 105.256 313.732C105.023 314.296 104.903 314.9 104.903 315.51C104.903 316.12 105.023 316.724 105.256 317.288C105.49 317.851 105.832 318.363 106.263 318.795C106.695 319.226 107.207 319.568 107.771 319.802C108.334 320.035 108.938 320.155 109.548 320.155H215.406C216.016 320.155 216.62 320.035 217.184 319.802C217.748 319.568 218.26 319.226 218.691 318.795C219.123 318.363 219.465 317.851 219.698 317.288C219.932 316.724 220.052 316.12 220.052 315.51C220.052 314.9 219.932 314.296 219.698 313.732C219.465 313.168 219.123 312.656 218.691 312.225C218.26 311.794 217.748 311.451 217.184 311.218C216.62 310.984 216.016 310.864 215.406 310.864H109.548Z" fill="#292A2E"/>
<path d="M142.168 244.89H39.5031C37.8246 244.89 36.2034 244.279 34.9422 243.171C33.681 242.063 32.8659 240.535 32.6491 238.87L25.8581 186.718C25.7312 185.744 25.8137 184.753 26.1001 183.813C26.3865 182.872 26.8701 182.004 27.5188 181.265C28.1675 180.526 28.9663 179.935 29.8619 179.529C30.7574 179.124 31.7292 178.914 32.7122 178.914H135.377C137.055 178.914 138.676 179.525 139.938 180.633C141.199 181.74 142.014 183.269 142.231 184.933L149.021 237.084C149.149 238.059 149.066 239.05 148.78 239.99C148.494 240.931 148.01 241.8 147.362 242.538C146.713 243.277 145.914 243.869 145.018 244.275C144.123 244.68 143.151 244.89 142.168 244.89V244.89Z" fill="#292A2E"/>
<path opacity="0.8" d="M142.168 244.89H39.5031C37.8246 244.89 36.2034 244.279 34.9422 243.171C33.681 242.063 32.8659 240.535 32.6491 238.87L25.8581 186.718C25.7312 185.744 25.8137 184.753 26.1001 183.813C26.3865 182.872 26.8701 182.004 27.5188 181.265C28.1675 180.526 28.9663 179.935 29.8619 179.529C30.7574 179.124 31.7292 178.914 32.7122 178.914H135.377C137.055 178.914 138.676 179.525 139.938 180.633C141.199 181.74 142.014 183.269 142.231 184.933L149.021 237.084C149.149 238.059 149.066 239.05 148.78 239.99C148.494 240.931 148.01 241.8 147.362 242.538C146.713 243.277 145.914 243.869 145.018 244.275C144.123 244.68 143.151 244.89 142.168 244.89V244.89Z" fill="white"/>
<path d="M142.168 245.415H39.5034C37.6982 245.411 35.9558 244.753 34.5994 243.561C33.2431 242.37 32.3648 240.727 32.1277 238.938L25.3373 186.788C25.2006 185.739 25.2892 184.673 25.5973 183.661C25.9053 182.649 26.4258 181.714 27.1238 180.919C27.8218 180.124 28.6814 179.487 29.6451 179.051C30.6089 178.615 31.6546 178.389 32.7124 178.389H135.377C137.182 178.393 138.925 179.052 140.281 180.243C141.637 181.434 142.515 183.077 142.752 184.867L149.543 237.018C149.68 238.067 149.591 239.133 149.283 240.145C148.975 241.156 148.454 242.091 147.756 242.886C147.058 243.681 146.199 244.317 145.235 244.754C144.271 245.19 143.226 245.415 142.168 245.415V245.415ZM32.7124 179.441C31.8042 179.441 30.9064 179.635 30.079 180.009C29.2516 180.384 28.5136 180.931 27.9143 181.613C27.3149 182.295 26.8681 183.098 26.6035 183.967C26.3389 184.836 26.2627 185.751 26.38 186.651L33.1709 238.802C33.3744 240.339 34.1283 241.749 35.2929 242.772C36.4574 243.795 37.9535 244.36 39.5034 244.364H142.168C143.076 244.364 143.974 244.17 144.801 243.795C145.629 243.421 146.367 242.874 146.966 242.192C147.565 241.509 148.012 240.707 148.277 239.838C148.542 238.969 148.618 238.054 148.5 237.153L141.712 185.003C141.509 183.466 140.755 182.056 139.59 181.033C138.426 180.01 136.93 179.444 135.38 179.441H32.7124Z" fill="#292A2E"/>
<path d="M147.973 244.89H45.3088C43.6303 244.89 42.0092 244.279 40.748 243.171C39.4869 242.064 38.6719 240.535 38.4552 238.87L31.6643 186.719C31.5374 185.744 31.6199 184.753 31.9062 183.813C32.1926 182.872 32.6763 182.004 33.325 181.265C33.9737 180.527 34.7725 179.935 35.668 179.529C36.5636 179.124 37.5353 178.914 38.5183 178.914H141.183C142.861 178.914 144.483 179.525 145.744 180.633C147.005 181.74 147.82 183.269 148.036 184.933L154.827 237.084C154.955 238.059 154.872 239.05 154.586 239.99C154.3 240.931 153.816 241.8 153.167 242.539C152.519 243.277 151.72 243.869 150.824 244.275C149.928 244.68 148.957 244.89 147.973 244.89Z" fill="white"/>
<path d="M147.973 245.416H45.3084C43.5033 245.411 41.7609 244.753 40.4047 243.561C39.0484 242.37 38.1703 240.728 37.9333 238.938L31.1423 186.788C31.0058 185.739 31.0945 184.673 31.4027 183.661C31.7109 182.649 32.2314 181.714 32.9294 180.919C33.6275 180.124 34.487 179.488 35.4507 179.051C36.4144 178.615 37.4601 178.389 38.518 178.389H141.182C142.987 178.393 144.73 179.052 146.086 180.243C147.442 181.435 148.321 183.077 148.558 184.867L155.349 237.018C155.485 238.067 155.396 239.133 155.088 240.145C154.78 241.157 154.259 242.091 153.561 242.886C152.863 243.681 152.004 244.317 151.04 244.754C150.076 245.19 149.031 245.416 147.973 245.416V245.416ZM38.518 179.441C37.6096 179.441 36.7116 179.635 35.884 180.009C35.0564 180.384 34.3182 180.93 33.7187 181.613C33.1192 182.295 32.6723 183.098 32.4076 183.967C32.1429 184.836 32.0667 185.751 32.184 186.652L38.9744 238.802C39.1781 240.339 39.9323 241.75 41.0971 242.772C42.262 243.795 43.7583 244.361 45.3084 244.364H147.973C148.881 244.364 149.779 244.17 150.606 243.796C151.434 243.421 152.172 242.874 152.771 242.192C153.371 241.509 153.817 240.707 154.082 239.838C154.347 238.969 154.423 238.054 154.305 237.153L147.515 185.003C147.311 183.466 146.557 182.056 145.393 181.033C144.228 180.01 142.732 179.444 141.182 179.441H38.518Z" fill="#292A2E"/>
<path d="M136.657 98.454C136.657 98.454 143.48 93.3046 145.17 81.4516C146.479 72.2739 138.013 78.2199 138.013 78.2199C138.013 78.2199 138.891 71.6025 134.07 72.2592C129.248 72.916 126.55 79.8673 126.55 79.8673" fill="#0C0C0C"/>
<path d="M109.151 73.0359C109.151 73.0359 85.2294 75.6008 93.877 108.017L95.9934 108.158L100.29 108.446" fill="#0C0C0C"/>
<path d="M132.65 141.866C132.545 141.852 131.378 161.216 108.88 159.529C93.3057 158.363 87.752 141.838 87.3955 141.838C89.0744 141.481 91.1499 140.94 91.9743 140.754C93.7719 140.336 95.3998 139.382 96.6415 138.017C97.8833 136.652 98.68 134.941 98.9257 133.112C99.381 130.368 98.6102 116.324 98.8463 113.547L122.754 118.887C122.419 124.753 120.081 138.351 128.275 140.758C129.64 141.153 131.108 141.52 132.65 141.866Z" fill="#E98862"/>
<path opacity="0.52" d="M123.089 135.198C122.715 133.991 122.474 132.747 122.37 131.488C122.108 128.614 122.161 125.72 122.528 122.857C117.669 122.201 113.091 120.196 109.315 117.069C108.87 118.708 106.429 125.871 107.106 127.43C108.381 130.375 114.386 135.198 123.089 135.198Z" fill="#0C0C0C"/>
<path d="M118.155 131.365C108.724 130.519 97.4349 124.56 97.2719 111.757L97.1226 100.205C96.9596 87.4018 103.552 76.9374 115.607 76.7844C127.661 76.6309 136.804 86.8954 136.967 99.698L137.031 104.813C137.023 106.569 136.895 108.323 136.648 110.061C136.03 114.662 135.071 121.657 131.949 126.39C129.002 130.857 124.18 131.906 118.155 131.365Z" fill="#E98862"/>
<path d="M122.531 119.662C124.477 119.751 126.417 119.38 128.194 118.581C128.231 118.565 128.264 118.542 128.292 118.514C128.32 118.485 128.342 118.451 128.357 118.414C128.372 118.377 128.379 118.338 128.379 118.298C128.379 118.258 128.37 118.218 128.355 118.182C128.339 118.145 128.316 118.112 128.288 118.084C128.259 118.056 128.225 118.034 128.188 118.019C128.151 118.004 128.112 117.996 128.072 117.997C128.032 117.997 127.992 118.006 127.956 118.021C124.127 119.651 120.651 119.415 117.903 117.33C117.848 117.286 117.79 117.245 117.73 117.207C117.661 117.175 117.583 117.169 117.51 117.192C117.437 117.215 117.375 117.265 117.337 117.331C117.299 117.397 117.287 117.475 117.304 117.55C117.321 117.624 117.365 117.69 117.428 117.733C117.45 117.747 117.485 117.775 117.533 117.813C118.977 118.914 120.718 119.558 122.531 119.662V119.662Z" fill="#0C0C0C"/>
<path d="M122.44 122.547C122.792 122.568 123.145 122.56 123.495 122.522C123.573 122.511 123.645 122.47 123.694 122.408C123.743 122.346 123.765 122.267 123.757 122.188C123.748 122.109 123.709 122.037 123.648 121.986C123.587 121.935 123.509 121.91 123.43 121.917C121.324 122.141 120.318 121.175 120.275 121.134C120.218 121.08 120.141 121.05 120.062 121.051C119.983 121.052 119.907 121.083 119.851 121.139C119.795 121.195 119.763 121.271 119.761 121.35C119.76 121.429 119.79 121.506 119.844 121.564C120.57 122.181 121.487 122.529 122.44 122.547V122.547Z" fill="#0C0C0C"/>
<path d="M132.987 107.275C133.807 107.275 134.472 106.61 134.472 105.79C134.472 104.97 133.807 104.305 132.987 104.305C132.167 104.305 131.502 104.97 131.502 105.79C131.502 106.61 132.167 107.275 132.987 107.275Z" fill="#0C0C0C"/>
<path d="M118.481 106.364C119.301 106.364 119.965 105.699 119.965 104.879C119.965 104.059 119.301 103.394 118.481 103.394C117.66 103.394 116.996 104.059 116.996 104.879C116.996 105.699 117.66 106.364 118.481 106.364Z" fill="#0C0C0C"/>
<path d="M98.0694 115.648C94.4066 115.695 91.3868 111.813 91.339 108.15C91.2911 104.487 94.2367 102.429 97.9001 102.382L99.8188 104.813L101.218 115.608L98.0694 115.648Z" fill="#E98862"/>
<path d="M101.714 109.761C101.714 109.761 102.951 91.6451 108.445 90.5267C112.104 89.7816 120.976 94.9709 129.194 93.4039C132.789 92.7204 136.202 93.608 136.549 95.3064C136.687 95.9789 138.926 86.3148 133.296 78.9823C128.814 73.1457 114.145 71.4946 107.471 73.4086C88.9917 78.7094 97.1462 103.179 97.1462 103.179L97.9701 109.425L101.714 109.761Z" fill="#0C0C0C"/>
<path d="M124.745 115.387H124.769C125.949 115.375 127.928 115.224 127.92 114.341C127.912 113.609 125.83 105.73 125.592 104.834C125.572 104.757 125.521 104.691 125.452 104.651C125.383 104.611 125.301 104.6 125.224 104.621C125.147 104.641 125.081 104.691 125.041 104.76C125.001 104.829 124.99 104.911 125.01 104.988C125.936 108.478 127.313 113.849 127.319 114.348C127.205 114.558 125.985 114.774 124.763 114.787C124.685 114.787 124.61 114.817 124.554 114.872C124.498 114.926 124.465 115.001 124.463 115.079C124.46 115.157 124.488 115.233 124.541 115.291C124.594 115.348 124.667 115.383 124.745 115.388V115.387Z" fill="#0C0C0C"/>
<path d="M128.773 97.7384C130.014 97.3973 131.324 97.3973 132.564 97.7384C133.174 97.9026 133.755 98.1571 134.289 98.4934C134.817 98.8232 135.3 99.2182 135.729 99.6692C135.808 99.7495 135.853 99.8572 135.855 99.9699C135.857 100.083 135.815 100.192 135.738 100.274C135.661 100.357 135.556 100.407 135.443 100.414C135.331 100.42 135.22 100.383 135.134 100.311L135.108 100.288C134.711 99.9202 134.269 99.6041 133.793 99.3468C133.326 99.0912 132.823 98.9077 132.301 98.8026C131.274 98.5874 130.208 98.6469 129.211 98.9751L129.17 98.9898C129.088 99.0186 129.002 99.0311 128.916 99.0265C128.829 99.0219 128.745 99.0004 128.667 98.9632C128.589 98.926 128.519 98.8737 128.461 98.8095C128.403 98.7453 128.359 98.6703 128.33 98.5889C128.301 98.5074 128.289 98.4211 128.293 98.3348C128.298 98.2486 128.319 98.164 128.357 98.0861C128.394 98.0081 128.446 97.9383 128.51 97.8805C128.575 97.8227 128.65 97.7782 128.731 97.7494C128.745 97.7462 128.76 97.742 128.773 97.7384Z" fill="#0C0C0C"/>
<path d="M119.988 98.4856C119.044 98.0269 117.995 97.8257 116.948 97.9025C116.417 97.937 115.894 98.0519 115.397 98.2432C114.892 98.4351 114.413 98.6897 113.971 99.0009L113.942 99.0193C113.848 99.0835 113.732 99.1079 113.619 99.0874C113.506 99.0669 113.406 99.0032 113.34 98.9097C113.274 98.8163 113.247 98.7007 113.265 98.5877C113.283 98.4747 113.345 98.3733 113.437 98.3053C113.922 97.9152 114.454 97.588 115.021 97.3315C115.595 97.0692 116.205 96.8945 116.831 96.813C118.106 96.6398 119.404 96.8138 120.589 97.3167C120.749 97.3865 120.875 97.517 120.939 97.6798C121.003 97.8425 121 98.024 120.931 98.1843C120.861 98.3447 120.73 98.4708 120.568 98.5349C120.405 98.599 120.223 98.5958 120.063 98.5261C120.05 98.5209 120.038 98.5151 120.026 98.5088L119.988 98.4856Z" fill="#0C0C0C"/>
<path d="M127.007 85.2665C129.719 84.7 131.241 81.0053 130.407 77.0142C129.573 73.0232 126.699 70.247 123.987 70.8136C121.276 71.3801 119.754 75.0748 120.587 79.0658C121.421 83.0569 124.295 85.833 127.007 85.2665Z" fill="#0C0C0C"/>
<path d="M278.24 448.216C278.24 448.216 281.06 462.83 294.743 463.645C308.427 464.459 305.46 475.36 305.46 475.36H253.169V449.235L278.24 448.216Z" fill="#171DCE"/>
<path d="M178.762 438.989C178.762 438.989 174.839 453.347 186.759 460.118C198.68 466.889 191.204 475.36 191.204 475.36L144.284 452.276L155.816 428.835L178.762 438.989Z" fill="#171DCE"/>
<path d="M149.701 434.933L189.268 310.109H117.547C103.139 310.109 97.1338 297.891 97.1338 283.485C97.1338 269.079 111.297 256.45 125.703 256.45H222.501C231.288 256.45 241.141 261.823 245.964 269.169C250.787 276.515 249.483 287.898 245.989 295.96L182.628 449.85" fill="#262626"/>
<path opacity="0.8" d="M149.701 434.933L189.268 310.109H117.547C103.139 310.109 97.1338 297.891 97.1338 283.485C97.1338 269.079 111.297 256.45 125.703 256.45H222.501C231.288 256.45 241.141 261.823 245.964 269.169C250.787 276.515 249.483 287.898 245.989 295.96L182.628 449.85" fill="#0A0A0A"/>
<path d="M250.163 461.788L184.005 310.109L97.1346 310.103C76.7791 308.508 67.4574 297.352 67.7534 282.949C68.0458 268.728 75.2463 254.682 89.4035 254.682H206.487C216.961 254.897 225.202 266.473 229.087 276.201L284.088 452.502" fill="#262626"/>
<path d="M61.8271 254.856C61.8271 254.856 57.9692 280.015 64.0844 294.002C71.7188 311.465 100.338 310.104 100.338 310.104L98.7254 254.682L61.8271 254.856Z" fill="#262626"/>
<path d="M231.575 254.362L170.212 241.646C167.655 241.116 165.273 239.95 163.286 238.255C161.299 236.561 159.772 234.392 158.845 231.951L134.71 168.351C133.986 166.445 133.646 164.415 133.707 162.376C133.768 160.338 134.23 158.332 135.066 156.472C135.903 154.613 137.097 152.936 138.582 151.538C140.066 150.14 141.812 149.049 143.718 148.325C145.624 147.602 147.655 147.261 149.693 147.322C151.731 147.383 153.737 147.845 155.597 148.682C157.456 149.518 159.133 150.713 160.531 152.197C161.929 153.682 163.021 155.427 163.744 157.333L184.857 212.965L237.877 223.951C237.877 223.951 232.639 254.581 231.575 254.362Z" fill="#171DCE"/>
<path d="M160.602 184.502C159.893 192.827 154.871 244.767 154.187 255.021H61.867C61.3365 245.772 59.6144 206.505 57.6031 188.42C55.6829 171.162 54.9867 161.313 57.1983 155.95C61.0988 146.491 70.8596 143.087 79.2669 141.949C84.401 141.254 92.1227 140.755 92.1227 140.755C92.1227 140.755 92.7762 153.981 108.366 154.717C129.588 155.716 128.171 140.755 128.275 140.755C131.714 140.755 150.428 143.256 155.107 146.306C161.716 150.613 163.669 156.484 163.747 161.877C163.835 168.087 161.407 175.06 160.602 184.502Z" fill="#171DCE"/>
<path d="M156.972 226.943C156.965 226.944 156.958 226.944 156.95 226.943C156.881 226.938 156.816 226.904 156.771 226.851C156.726 226.798 156.704 226.729 156.71 226.66L159.107 197.869C159.109 197.834 159.118 197.8 159.133 197.769C159.149 197.738 159.17 197.71 159.197 197.688C159.224 197.665 159.254 197.649 159.288 197.638C159.321 197.628 159.356 197.625 159.39 197.629C159.46 197.635 159.524 197.668 159.569 197.721C159.614 197.774 159.636 197.843 159.63 197.912L157.234 226.704C157.228 226.769 157.198 226.83 157.15 226.874C157.101 226.919 157.038 226.943 156.972 226.943Z" fill="#0C0C0C"/>
<path d="M200.944 244.221L221.201 181.952C221.557 180.858 222.25 179.904 223.181 179.228C224.112 178.552 225.233 178.188 226.384 178.188H308.912C309.772 178.188 310.62 178.392 311.387 178.782C312.153 179.173 312.816 179.739 313.322 180.435C313.827 181.132 314.161 181.937 314.295 182.787C314.43 183.637 314.361 184.506 314.095 185.324L293.838 247.593C293.482 248.688 292.789 249.641 291.858 250.317C290.927 250.993 289.806 251.358 288.655 251.358H206.125C205.265 251.357 204.417 251.154 203.651 250.763C202.884 250.372 202.222 249.805 201.716 249.109C201.211 248.413 200.877 247.608 200.743 246.758C200.609 245.909 200.677 245.039 200.944 244.221V244.221Z" fill="#292A2E"/>
<path d="M200.944 244.221L221.201 181.952C221.557 180.858 222.25 179.904 223.181 179.228C224.112 178.552 225.233 178.188 226.384 178.188H308.912C309.772 178.188 310.62 178.392 311.387 178.782C312.153 179.173 312.816 179.739 313.322 180.435C313.827 181.132 314.161 181.937 314.295 182.787C314.43 183.637 314.361 184.506 314.095 185.324L293.838 247.593C293.482 248.688 292.789 249.641 291.858 250.317C290.927 250.993 289.806 251.358 288.655 251.358H206.125C205.265 251.357 204.417 251.154 203.651 250.763C202.884 250.372 202.222 249.805 201.716 249.109C201.211 248.413 200.877 247.608 200.743 246.758C200.609 245.909 200.677 245.039 200.944 244.221V244.221Z" fill="#292A2E"/>
<path d="M217.468 246.309H162.224C160.847 246.309 159.731 247.425 159.731 248.801V248.865C159.731 250.242 160.847 251.358 162.224 251.358H217.468C218.845 251.358 219.961 250.242 219.961 248.865V248.801C219.961 247.425 218.845 246.309 217.468 246.309Z" fill="#292A2E"/>
<path d="M217.468 246.309H162.224C160.847 246.309 159.731 247.425 159.731 248.801V248.865C159.731 250.242 160.847 251.358 162.224 251.358H217.468C218.845 251.358 219.961 250.242 219.961 248.865V248.801C219.961 247.425 218.845 246.309 217.468 246.309Z" fill="#292A2E"/>
<path d="M257.519 226.466C262.3 226.466 266.175 222.591 266.175 217.811C266.175 213.03 262.3 209.155 257.519 209.155C252.739 209.155 248.864 213.03 248.864 217.811C248.864 222.591 252.739 226.466 257.519 226.466Z" fill="white"/>
<path d="M196.326 229.634L182.538 224.802L184.518 224.665C185.156 224.608 185.749 224.311 186.176 223.834C186.604 223.357 186.834 222.736 186.821 222.095C186.802 221.765 186.717 221.442 186.57 221.146C186.422 220.85 186.216 220.587 185.964 220.373C185.712 220.159 185.418 219.999 185.102 219.902C184.786 219.805 184.453 219.774 184.124 219.81L159.731 222.401L160.362 230.24C160.559 232.675 161.479 234.995 163.003 236.904C164.527 238.813 166.587 240.223 168.918 240.954L179.481 244.244C180.026 244.426 180.618 244.413 181.155 244.209C181.693 244.004 182.143 243.62 182.43 243.122C182.68 242.667 182.777 242.144 182.708 241.629C182.64 241.115 182.408 240.636 182.048 240.262C182.071 240.245 182.091 240.224 182.106 240.2C182.12 240.175 182.13 240.148 182.134 240.119C182.138 240.091 182.136 240.062 182.128 240.035C182.121 240.007 182.108 239.981 182.09 239.959L184.035 240.569C184.643 240.773 185.305 240.739 185.888 240.474C186.471 240.208 186.931 239.731 187.176 239.139C187.376 238.602 187.38 238.012 187.188 237.472C186.996 236.932 186.619 236.478 186.124 236.188C186.147 236.176 186.168 236.16 186.184 236.14L186.985 236.391C187.53 236.573 188.122 236.56 188.659 236.356C189.197 236.151 189.647 235.767 189.934 235.269C190.237 234.716 190.314 234.068 190.149 233.46C189.984 232.851 189.591 232.331 189.05 232.006C189.055 231.99 189.057 231.974 189.058 231.957L194.799 233.97C195.374 234.171 196.006 234.136 196.555 233.872C197.104 233.608 197.525 233.137 197.727 232.562C197.928 231.987 197.893 231.356 197.629 230.807C197.365 230.258 196.894 229.836 196.319 229.634H196.326Z" fill="#E98862"/>
<path opacity="0.2" d="M188.839 232.181C188.812 232.182 188.786 232.177 188.761 232.168L183.207 230.151C183.15 230.13 183.103 230.087 183.078 230.032C183.052 229.977 183.05 229.914 183.071 229.857C183.092 229.8 183.134 229.754 183.189 229.728C183.244 229.703 183.307 229.7 183.364 229.721L188.918 231.74C188.969 231.759 189.011 231.794 189.038 231.841C189.065 231.887 189.075 231.942 189.065 231.995C189.056 232.048 189.028 232.096 188.987 232.131C188.946 232.165 188.894 232.184 188.84 232.184L188.839 232.181Z" fill="#0A0A0A"/>
<path opacity="0.2" d="M186.031 236.22C186.005 236.22 185.98 236.215 185.955 236.207L181.577 234.653C181.549 234.643 181.523 234.628 181.5 234.608C181.478 234.588 181.46 234.563 181.447 234.536C181.434 234.509 181.427 234.48 181.425 234.45C181.424 234.42 181.428 234.39 181.438 234.361C181.448 234.333 181.464 234.307 181.484 234.285C181.504 234.262 181.528 234.244 181.555 234.231C181.582 234.218 181.612 234.211 181.642 234.209C181.672 234.208 181.702 234.212 181.73 234.222L186.108 235.775C186.159 235.793 186.202 235.829 186.229 235.875C186.256 235.922 186.266 235.977 186.257 236.03C186.248 236.083 186.22 236.131 186.179 236.166C186.137 236.201 186.085 236.22 186.031 236.22Z" fill="#0A0A0A"/>
<path opacity="0.2" d="M181.909 240.317C181.881 240.317 181.854 240.312 181.827 240.302L179.777 239.52C179.747 239.51 179.72 239.495 179.697 239.474C179.674 239.454 179.655 239.429 179.642 239.401C179.629 239.373 179.621 239.343 179.62 239.312C179.619 239.281 179.624 239.25 179.635 239.221C179.646 239.192 179.663 239.166 179.684 239.144C179.706 239.122 179.732 239.104 179.76 239.092C179.789 239.08 179.819 239.074 179.85 239.074C179.881 239.074 179.911 239.081 179.94 239.093L181.99 239.875C182.04 239.894 182.082 239.93 182.108 239.977C182.134 240.023 182.143 240.077 182.133 240.13C182.124 240.182 182.096 240.23 182.055 240.264C182.014 240.298 181.962 240.317 181.909 240.317H181.909Z" fill="#0A0A0A"/>
<path d="M170.527 217.762L112.687 217.724L90.8059 164.346L58.1641 178.07L85.4651 241.42L85.7322 242.051C87.0679 245.13 89.3176 247.725 92.1769 249.483C95.0361 251.241 98.3665 252.078 101.717 251.88L171.403 247.763L170.527 217.762Z" fill="#171DCE"/>
<path d="M100.758 252.17C97.5154 252.164 94.3447 251.214 91.6334 249.436C88.9221 247.657 86.7876 245.127 85.4908 242.155L85.2232 241.524L61.9609 187.544L62.4436 187.336L85.9741 241.948C87.2946 244.973 89.5096 247.521 92.3213 249.249C95.1331 250.978 98.4066 251.804 101.702 251.617L171.133 247.515L170.272 218.026L112.512 217.988L95.6854 176.946L96.1718 176.746L112.863 217.462L170.782 217.501L171.672 248.011L171.417 248.025L101.732 252.143C101.406 252.161 101.082 252.17 100.758 252.17Z" fill="#0C0C0C"/>
<path d="M448.369 256.396L447.322 256.502L469.489 475.952L470.536 475.847L448.369 256.396Z" fill="#494949"/>
<path d="M36.4237 256.399L14.2412 475.848L15.2875 475.953L37.47 256.505L36.4237 256.399Z" fill="#494949"/>
<path d="M128.073 256.399L105.891 475.847L106.937 475.953L129.119 256.504L128.073 256.399Z" fill="#494949"/>
<path d="M540.018 256.396L538.972 256.502L561.139 475.952L562.186 475.846L540.018 256.396Z" fill="#494949"/>
<path d="M560.007 252.142H17.8862C15.5066 252.142 13.5776 254.071 13.5776 256.45C13.5776 258.829 15.5066 260.758 17.8862 260.758H560.007C562.387 260.758 564.316 258.829 564.316 256.45C564.316 254.071 562.387 252.142 560.007 252.142Z" fill="#292A2E"/>
<path opacity="0.8" d="M560.007 252.142H17.8862C15.5066 252.142 13.5776 254.071 13.5776 256.45C13.5776 258.829 15.5066 260.758 17.8862 260.758H560.007C562.387 260.758 564.316 258.829 564.316 256.45C564.316 254.071 562.387 252.142 560.007 252.142Z" fill="white"/>
<path d="M560.008 261.284H17.8887C17.2496 261.291 16.6156 261.171 16.0232 260.931C15.4309 260.691 14.892 260.336 14.4377 259.886C13.9835 259.437 13.6229 258.902 13.3767 258.312C13.1306 257.722 13.0039 257.089 13.0039 256.45C13.0039 255.811 13.1306 255.178 13.3767 254.588C13.6229 253.999 13.9835 253.463 14.4377 253.014C14.892 252.564 15.4309 252.209 16.0232 251.969C16.6156 251.729 17.2496 251.609 17.8887 251.616H560.008C561.282 251.629 562.498 252.144 563.394 253.05C564.29 253.955 564.792 255.177 564.792 256.45C564.792 257.724 564.29 258.946 563.394 259.851C562.498 260.756 561.282 261.271 560.008 261.284V261.284ZM17.8887 252.668C17.3882 252.662 16.8916 252.755 16.4275 252.943C15.9634 253.13 15.5411 253.408 15.1851 253.76C14.8291 254.111 14.5465 254.53 14.3536 254.992C14.1607 255.454 14.0614 255.95 14.0614 256.45C14.0614 256.951 14.1607 257.446 14.3536 257.908C14.5465 258.37 14.8291 258.789 15.1851 259.141C15.5411 259.492 15.9634 259.77 16.4275 259.958C16.8916 260.145 17.3882 260.238 17.8887 260.233H560.008C561.004 260.221 561.954 259.817 562.654 259.109C563.354 258.401 563.747 257.446 563.747 256.45C563.747 255.455 563.354 254.499 562.654 253.791C561.954 253.083 561.004 252.679 560.008 252.668H17.8887Z" fill="#292A2E"/>
<path d="M560.008 252.142H113.04C110.66 252.142 108.731 254.071 108.731 256.45C108.731 258.83 110.66 260.758 113.04 260.758H560.008C562.388 260.758 564.317 258.83 564.317 256.45C564.317 254.071 562.388 252.142 560.008 252.142Z" fill="white"/>
<path d="M560.008 261.284H113.039C111.765 261.271 110.549 260.756 109.653 259.851C108.757 258.945 108.255 257.723 108.255 256.45C108.255 255.177 108.757 253.955 109.653 253.049C110.549 252.144 111.765 251.629 113.039 251.616H560.008C561.282 251.629 562.498 252.144 563.394 253.049C564.29 253.955 564.792 255.177 564.792 256.45C564.792 257.723 564.29 258.945 563.394 259.851C562.498 260.756 561.282 261.271 560.008 261.284V261.284ZM113.039 252.667C112.043 252.679 111.093 253.083 110.393 253.791C109.693 254.499 109.301 255.454 109.301 256.45C109.301 257.445 109.693 258.401 110.393 259.109C111.093 259.817 112.043 260.221 113.039 260.232H560.008C561.004 260.221 561.954 259.817 562.654 259.109C563.354 258.401 563.747 257.445 563.747 256.45C563.747 255.454 563.354 254.499 562.654 253.791C561.954 253.083 561.004 252.679 560.008 252.667H113.039Z" fill="#292A2E"/>
</g>
<defs>
<clipPath id="clip0_69_1043">
<rect width="574.102" height="476" fill="white" transform="translate(0.897949)"/>
</clipPath>
</defs>
</svg>
