<svg width="218" height="218" viewBox="0 0 218 218" fill="none" xmlns="http://www.w3.org/2000/svg">
<g clip-path="url(#clip0_175_1901)">
<g clip-path="url(#clip1_175_1901)">
<path d="M223 -5H-5V223H223V-5Z" fill="#181D2B"/>
<path opacity="0.07" d="M137.867 127.161C70.795 40.7983 119.309 9.6119 137.886 60.2081C156.464 31.0439 204.978 118.259 137.867 127.161Z" fill="url(#paint0_linear_175_1901)"/>
<path opacity="0.4" d="M131.523 135.091C64.451 48.7285 112.965 17.5421 131.542 68.1383C150.12 38.9741 198.634 126.189 131.523 135.091Z" fill="url(#paint1_linear_175_1901)"/>
<path opacity="0.2" d="M54.5378 97.1837C55.7274 97.8578 56.679 99.5232 56.679 100.891V106.938L60.6839 109.238C61.8734 109.912 62.8251 111.577 62.8251 112.945C62.8251 114.313 61.8734 114.869 60.6839 114.195L56.679 111.895V117.942C56.679 119.31 55.7274 119.865 54.5378 119.191C53.3482 118.517 52.3966 116.851 52.3966 115.483V109.436L48.3917 107.136C47.2021 106.462 46.2505 104.797 46.2505 103.429C46.2505 102.061 47.2021 101.506 48.3917 102.18L52.3966 104.48V98.4328C52.3966 97.045 53.3482 96.4898 54.5378 97.1837Z" fill="url(#paint2_linear_175_1901)"/>
<path opacity="0.25" d="M70.8745 90.8591L107.929 112.251V180.909L70.8745 159.497V90.8591Z" fill="url(#paint3_linear_175_1901)"/>
<path opacity="0.15" d="M74.5225 131.602L104.281 148.771V151.467L74.5225 134.298V131.602Z" fill="white"/>
<path opacity="0.15" d="M76.6042 138.006L102.2 152.776V155.472L76.6042 140.702V138.006Z" fill="white"/>
<path fill-rule="evenodd" clip-rule="evenodd" d="M87.4094 150.952L61.6355 136.063V143.735L87.4094 158.625V150.952Z" fill="#F2C94C"/>
<path fill-rule="evenodd" clip-rule="evenodd" d="M93.6148 117.842C93.6148 121.173 91.6916 122.739 89.3125 121.352C86.9334 119.964 85.0103 116.157 85.0103 112.826C85.0103 109.496 86.9334 107.929 89.3125 109.317C91.6916 110.705 93.6148 114.512 93.6148 117.842ZM89.3125 124.028C85.4861 121.788 82.3337 123.889 81.7588 128.707C81.6596 129.54 82.2941 130.65 83.0673 131.086L95.5379 138.382C96.3111 138.838 96.9456 138.462 96.8464 137.53C96.3111 132.038 93.1389 126.249 89.3125 124.028Z" fill="#F2C94C"/>
<path opacity="0.25" d="M176.171 151.309L117.149 117.248V147.998L176.171 182.059V151.309Z" fill="url(#paint4_linear_175_1901)"/>
<path opacity="0.15" d="M136.32 139.235L153.311 149.049V151.745L136.32 141.931V139.235Z" fill="white"/>
<path opacity="0.15" d="M136.32 144.409L170.996 164.414V167.11L136.32 147.106V144.409Z" fill="white"/>
<path fill-rule="evenodd" clip-rule="evenodd" d="M182.793 160.905L157.019 146.015V153.688L182.793 168.577V160.905Z" fill="#F2994A"/>
<path fill-rule="evenodd" clip-rule="evenodd" d="M131.126 140.345C131.126 143.755 129.123 145.381 126.665 143.954C124.207 142.526 122.204 138.6 122.204 135.19C122.204 131.78 124.207 130.155 126.665 131.582C129.123 133.01 131.126 136.935 131.126 140.345Z" fill="#F2994A"/>
<path opacity="0.25" d="M94.2891 77.9523L35.2668 43.8911V74.6414L94.2891 108.703V77.9523Z" fill="url(#paint5_linear_175_1901)"/>
<path opacity="0.15" d="M54.4585 66.1162L83.4641 82.8693V85.5656L54.4585 68.8126V66.1162Z" fill="white"/>
<path opacity="0.15" d="M54.4585 71.291L89.1343 91.2955V93.9919L54.4585 73.9874V71.291Z" fill="white"/>
<path fill-rule="evenodd" clip-rule="evenodd" d="M46.429 60.0296C46.429 59.6926 46.1911 59.2961 45.9135 59.1375L43.6335 57.829C43.356 57.6703 43.118 57.7893 43.118 58.1263V60.3865C43.118 60.8425 42.6224 61.1399 42.2259 60.902L40.8182 60.0891C40.5406 59.9305 40.3027 60.0495 40.3027 60.3865V63.7768C40.3027 64.1138 40.5406 64.5103 40.8182 64.669L42.8206 65.8189C42.9991 65.918 43.118 66.1163 43.118 66.3343V69.2884C43.118 69.6255 43.356 70.022 43.6335 70.1806L45.9135 71.4891C46.1911 71.6477 46.429 71.5288 46.429 71.1917V68.9316C46.429 68.4756 46.9246 68.1782 47.3212 68.4161L48.7288 69.229C49.0064 69.3876 49.2443 69.2686 49.2443 68.9316V65.5413C49.2443 65.2043 49.0064 64.8077 48.7288 64.6491L46.7264 63.4992C46.548 63.4001 46.429 63.2018 46.429 62.9837V60.0296Z" fill="#F2994A"/>
</g>
</g>
<defs>
<linearGradient id="paint0_linear_175_1901" x1="156.476" y1="58.431" x2="118.029" y2="79.9536" gradientUnits="userSpaceOnUse">
<stop stop-color="white"/>
<stop offset="1" stop-color="white" stop-opacity="0"/>
</linearGradient>
<linearGradient id="paint1_linear_175_1901" x1="150.131" y1="66.3612" x2="111.685" y2="87.8839" gradientUnits="userSpaceOnUse">
<stop stop-color="white"/>
<stop offset="1" stop-color="white" stop-opacity="0"/>
</linearGradient>
<linearGradient id="paint2_linear_175_1901" x1="56.7701" y1="104.907" x2="49.3433" y2="110.768" gradientUnits="userSpaceOnUse">
<stop stop-color="white"/>
<stop offset="1" stop-color="white" stop-opacity="0"/>
</linearGradient>
<linearGradient id="paint3_linear_175_1901" x1="93.212" y1="96.9006" x2="67.1467" y2="142.059" gradientUnits="userSpaceOnUse">
<stop stop-color="white"/>
<stop offset="1" stop-color="white" stop-opacity="0"/>
</linearGradient>
<linearGradient id="paint4_linear_175_1901" x1="146.623" y1="123.66" x2="146.71" y2="174.813" gradientUnits="userSpaceOnUse">
<stop stop-color="white"/>
<stop offset="1" stop-color="white" stop-opacity="0"/>
</linearGradient>
<linearGradient id="paint5_linear_175_1901" x1="64.7414" y1="50.3029" x2="64.8282" y2="101.457" gradientUnits="userSpaceOnUse">
<stop stop-color="white"/>
<stop offset="1" stop-color="white" stop-opacity="0"/>
</linearGradient>
<clipPath id="clip0_175_1901">
<rect width="218" height="218" fill="white"/>
</clipPath>
<clipPath id="clip1_175_1901">
<rect width="218" height="218" fill="white"/>
</clipPath>
</defs>
</svg>
