<svg width="492" height="355" viewBox="0 0 492 355" fill="none" xmlns="http://www.w3.org/2000/svg">
<path opacity="0.2" d="M164.046 51.0061L163.736 50.9277L65.0671 257.509L412.894 284.361L413.286 284.391L426.031 116.694L426.056 116.364L164.046 51.0061ZM263.966 183.857L66.4361 256.462L164.028 52.136L263.966 183.857ZM264.546 184.479L411.474 283.463L67.4914 256.91L264.546 184.479ZM264.727 183.563L164.937 52.0349L424.397 116.756L264.727 183.563ZM412.585 283.267L265.421 184.123L425.199 117.271L412.585 283.267Z" fill="url(#paint0_radial_189_3809)" fill-opacity="0.8"/>
<path opacity="0.25" d="M396.083 56.6741L446.943 86.0364V180.274L396.083 150.884V56.6741Z" fill="url(#paint1_linear_189_3809)"/>
<path opacity="0.15" d="M401.089 112.596L441.935 136.162V139.863L401.089 116.297V112.596Z" fill="white"/>
<path opacity="0.15" d="M403.947 121.385L439.078 141.659V145.36L403.947 125.086V121.385Z" fill="white"/>
<path fill-rule="evenodd" clip-rule="evenodd" d="M427.296 93.7101C427.296 98.2818 424.657 100.432 421.391 98.5267C418.126 96.6218 415.486 91.397 415.486 86.8253C415.486 82.2536 418.126 80.1038 421.391 82.0087C424.657 83.9136 427.296 89.1384 427.296 93.7101ZM421.391 102.2C416.139 99.1254 411.812 102.01 411.023 108.623C410.887 109.766 411.758 111.289 412.819 111.888L429.936 121.902C430.997 122.528 431.868 122.011 431.732 120.732C430.997 113.194 426.643 105.248 421.391 102.2Z" fill="#F2C94C"/>
<path opacity="0.25" d="M221.072 104.602L297.266 148.59V289.767L221.072 245.739V104.602Z" fill="url(#paint2_linear_189_3809)"/>
<path opacity="0.15" d="M228.572 188.379L289.764 223.683V229.228L228.572 193.923V188.379Z" fill="white"/>
<path opacity="0.15" d="M232.853 201.546L285.484 231.918V237.463L232.853 207.091V201.546Z" fill="white"/>
<path fill-rule="evenodd" clip-rule="evenodd" d="M267.834 160.086C267.834 166.935 263.879 170.155 258.987 167.302C254.095 164.448 250.141 156.621 250.141 149.772C250.141 142.923 254.095 139.702 258.987 142.556C263.879 145.41 267.834 153.237 267.834 160.086ZM258.987 172.805C251.119 168.199 244.637 172.52 243.455 182.426C243.251 184.139 244.555 186.422 246.145 187.319L271.788 202.321C273.378 203.259 274.683 202.484 274.479 200.568C273.378 189.275 266.855 177.371 258.987 172.805Z" fill="#EEB035"/>
<path opacity="0.25" d="M45 206.118L95.8603 235.48V329.717L45 300.328V206.118Z" fill="url(#paint3_linear_189_3809)"/>
<path opacity="0.15" d="M50.0066 262.04L90.8527 285.606V289.307L50.0066 265.74V262.04Z" fill="white"/>
<path opacity="0.15" d="M52.8643 270.829L87.9957 291.102V294.803L52.8643 274.53V270.829Z" fill="white"/>
<path fill-rule="evenodd" clip-rule="evenodd" d="M76.2139 243.154C76.2139 247.726 73.5743 249.875 70.3088 247.971C67.0433 246.066 64.4037 240.841 64.4037 236.269C64.4037 231.697 67.0433 229.548 70.3088 231.453C73.5743 233.357 76.2139 238.582 76.2139 243.154ZM70.3088 251.644C65.0568 248.569 60.73 251.454 59.9408 258.066C59.8047 259.209 60.6755 260.733 61.7368 261.332L78.8535 271.346C79.9148 271.972 80.7856 271.455 80.6496 270.176C79.9148 262.638 75.5608 254.692 70.3088 251.644Z" fill="#F2C94C"/>
<path opacity="0.25" d="M142.336 0.0583496L193.196 29.4207V123.658L142.336 94.2683V0.0583496Z" fill="url(#paint4_linear_189_3809)"/>
<path opacity="0.15" d="M147.343 55.9802L188.189 79.5463V83.2472L147.343 59.6811V55.9802Z" fill="white"/>
<path opacity="0.15" d="M150.2 64.7698L185.332 85.0431V88.7441L150.2 68.4707V64.7698Z" fill="white"/>
<path fill-rule="evenodd" clip-rule="evenodd" d="M173.55 37.0944C173.55 41.6661 170.91 43.8159 167.645 41.911C164.379 40.0061 161.74 34.7813 161.74 30.2096C161.74 25.6379 164.379 23.4881 167.645 25.393C170.91 27.2979 173.55 32.5227 173.55 37.0944ZM167.645 45.5847C162.393 42.5097 158.066 45.3942 157.277 52.0069C157.141 53.1498 158.011 54.6737 159.073 55.2724L176.189 65.2866C177.251 65.9125 178.122 65.3955 177.986 64.1165C177.251 56.5786 172.897 48.6325 167.645 45.5847Z" fill="#F2C94C"/>
<path opacity="0.25" d="M386.877 230.804L437.738 260.167V354.404L386.877 325.014V230.804Z" fill="url(#paint5_linear_189_3809)"/>
<path opacity="0.15" d="M391.884 286.726L432.73 310.292V313.993L391.884 290.427V286.726Z" fill="white"/>
<path opacity="0.15" d="M394.741 295.516L429.873 315.789V319.49L394.741 299.217V295.516Z" fill="white"/>
<path fill-rule="evenodd" clip-rule="evenodd" d="M418.091 267.84C418.091 272.412 415.451 274.562 412.186 272.657C408.92 270.752 406.281 265.527 406.281 260.956C406.281 256.384 408.92 254.234 412.186 256.139C415.451 258.044 418.091 263.269 418.091 267.84ZM412.186 276.331C406.934 273.256 402.607 276.14 401.818 282.753C401.682 283.896 402.553 285.42 403.614 286.018L420.73 296.033C421.792 296.659 422.663 296.142 422.527 294.863C421.792 287.325 417.438 279.379 412.186 276.331Z" fill="#F2C94C"/>
<defs>
<radialGradient id="paint0_radial_189_3809" cx="0" cy="0" r="1" gradientUnits="userSpaceOnUse" gradientTransform="translate(245.561 167.659) rotate(90) scale(116.732 180.494)">
<stop offset="0.476627" stop-color="#E1E1E1" stop-opacity="0"/>
<stop offset="1" stop-color="#E1E1E1"/>
</radialGradient>
<linearGradient id="paint1_linear_189_3809" x1="426.742" y1="64.9664" x2="390.966" y2="126.949" gradientUnits="userSpaceOnUse">
<stop stop-color="white"/>
<stop offset="1" stop-color="white" stop-opacity="0"/>
</linearGradient>
<linearGradient id="paint2_linear_189_3809" x1="267.003" y1="117.024" x2="213.407" y2="209.881" gradientUnits="userSpaceOnUse">
<stop stop-color="white"/>
<stop offset="1" stop-color="white" stop-opacity="0"/>
</linearGradient>
<linearGradient id="paint3_linear_189_3809" x1="75.6596" y1="214.41" x2="39.8834" y2="276.393" gradientUnits="userSpaceOnUse">
<stop stop-color="white"/>
<stop offset="1" stop-color="white" stop-opacity="0"/>
</linearGradient>
<linearGradient id="paint4_linear_189_3809" x1="172.996" y1="8.35064" x2="137.219" y2="70.3332" gradientUnits="userSpaceOnUse">
<stop stop-color="white"/>
<stop offset="1" stop-color="white" stop-opacity="0"/>
</linearGradient>
<linearGradient id="paint5_linear_189_3809" x1="417.537" y1="239.096" x2="381.761" y2="301.079" gradientUnits="userSpaceOnUse">
<stop stop-color="white"/>
<stop offset="1" stop-color="white" stop-opacity="0"/>
</linearGradient>
</defs>
</svg>
