<svg width="49" height="49" viewBox="0 0 49 49" fill="none" xmlns="http://www.w3.org/2000/svg">
<g clip-path="url(#clip0_170_1396)">
<path opacity="0.4" d="M24.4658 48.9311C37.9777 48.9311 48.9313 37.9775 48.9313 24.4655C48.9313 10.9536 37.9777 0 24.4658 0C10.9538 0 0.000244141 10.9536 0.000244141 24.4655C0.000244141 37.9775 10.9538 48.9311 24.4658 48.9311Z" fill="url(#paint0_linear_170_1396)"/>
<path d="M39.452 17.5827C38.3847 18.0556 37.2524 18.3656 36.093 18.5024C37.3144 17.772 38.2285 16.6223 38.6648 15.2677C37.5169 15.9489 36.2609 16.4287 34.9512 16.6864C34.4039 16.1027 33.7425 15.6377 33.0081 15.3201C32.2736 15.0026 31.4818 14.8393 30.6816 14.8403C27.4526 14.8403 24.8337 17.4592 24.8337 20.6883C24.8337 21.1467 24.8856 21.5928 24.9859 22.0211C20.1257 21.7773 15.8164 19.4493 12.9319 15.9101C12.4118 16.8026 12.1384 17.8175 12.1399 18.8505C12.1399 20.8789 13.1731 22.6696 14.7414 23.718C13.8127 23.6894 12.9044 23.4383 12.0928 22.9858L12.0924 23.0599C12.0924 25.8934 14.109 28.2567 16.7837 28.7936C16.2818 28.9305 15.7637 28.9996 15.2434 28.999C14.8657 28.999 14.4998 28.9628 14.143 28.8948C14.887 31.2176 17.0463 32.9084 19.6059 32.9559C17.5342 34.5819 14.9758 35.4636 12.3423 35.4593C11.8713 35.4593 11.4046 35.4318 10.948 35.3773C13.6214 37.0961 16.7333 38.0084 19.9116 38.0049C30.6681 38.0049 36.5505 29.0941 36.5505 21.3656C36.5505 21.1122 36.5448 20.8597 36.5335 20.6094C37.6788 19.7823 38.6672 18.7573 39.452 17.5827V17.5827Z" fill="#F7F8F4"/>
</g>
<defs>
<linearGradient id="paint0_linear_170_1396" x1="29.6804" y1="16.9267" x2="11.7603" y2="43.1396" gradientUnits="userSpaceOnUse">
<stop stop-color="white"/>
<stop offset="1" stop-color="white" stop-opacity="0"/>
</linearGradient>
<clipPath id="clip0_170_1396">
<rect width="48.9315" height="48.9315" fill="white"/>
</clipPath>
</defs>
</svg>
