<svg width="49" height="49" viewBox="0 0 49 49" fill="none" xmlns="http://www.w3.org/2000/svg">
<g clip-path="url(#clip0_64_2356)">
<path d="M24.466 48.9311C37.978 48.9311 48.9316 37.9775 48.9316 24.4655C48.9316 10.9536 37.978 0 24.466 0C10.9541 0 0.000488281 10.9536 0.000488281 24.4655C0.000488281 37.9775 10.9541 48.9311 24.466 48.9311Z" fill="#EEB035"/>
<path d="M39.4518 17.5827C38.3844 18.0556 37.2521 18.3656 36.0928 18.5024C37.3142 17.772 38.2283 16.6223 38.6646 15.2677C37.5166 15.9489 36.2607 16.4287 34.951 16.6864C34.4037 16.1027 33.7423 15.6377 33.0078 15.3201C32.2734 15.0026 31.4815 14.8392 30.6814 14.8403C27.4523 14.8403 24.8334 17.4592 24.8334 20.6883C24.8334 21.1466 24.8853 21.5928 24.9856 22.0211C20.1255 21.7773 15.8162 19.4493 12.9317 15.9101C12.4115 16.8026 12.1382 17.8174 12.1397 18.8505C12.1397 20.8789 13.1728 22.6696 14.7411 23.718C13.8124 23.6894 12.9041 23.4382 12.0926 22.9858L12.0921 23.0599C12.0921 25.8934 14.1088 28.2567 16.7835 28.7936C16.2815 28.9305 15.7634 28.9996 15.2431 28.999C14.8654 28.999 14.4995 28.9628 14.1428 28.8948C14.8868 31.2176 17.046 32.9084 19.6056 32.9559C17.534 34.5819 14.9756 35.4636 12.342 35.4593C11.871 35.4593 11.4044 35.4318 10.9478 35.3773C13.6211 37.0961 16.7331 38.0083 19.9114 38.0049C30.6679 38.0049 36.5503 29.0941 36.5503 21.3656C36.5503 21.1122 36.5446 20.8597 36.5332 20.6093C37.6786 19.7823 38.667 18.7573 39.4518 17.5827Z" fill="#F7F8F4"/>
</g>
<defs>
<clipPath id="clip0_64_2356">
<rect width="48.9315" height="48.9315" fill="white"/>
</clipPath>
</defs>
</svg>
