<svg width="475" height="476" viewBox="0 0 475 476" fill="none" xmlns="http://www.w3.org/2000/svg">
<path d="M385.016 314.564H269.12C264.402 314.564 260.577 318.389 260.577 323.107V385.958C260.577 390.676 264.402 394.501 269.12 394.501H385.016C389.734 394.501 393.559 390.676 393.559 385.958V323.107C393.559 318.389 389.734 314.564 385.016 314.564Z" fill="white"/>
<path d="M385.016 314.564H269.12C264.402 314.564 260.577 318.389 260.577 323.107V385.958C260.577 390.676 264.402 394.501 269.12 394.501H385.016C389.734 394.501 393.559 390.676 393.559 385.958V323.107C393.559 318.389 389.734 314.564 385.016 314.564Z" fill="#EEB035"/>
<path d="M356.928 357.426H346.667C346.042 357.426 345.535 357.932 345.535 358.557V381.303C345.535 381.927 346.042 382.434 346.667 382.434H356.928C357.553 382.434 358.06 381.927 358.06 381.303V358.557C358.06 357.932 357.553 357.426 356.928 357.426Z" fill="white"/>
<path d="M381.658 337.977H371.396C370.771 337.977 370.265 338.483 370.265 339.108V381.303C370.265 381.928 370.771 382.434 371.396 382.434H381.658C382.283 382.434 382.789 381.928 382.789 381.303V339.108C382.789 338.483 382.283 337.977 381.658 337.977Z" fill="white"/>
<path d="M282.739 357.426H272.477C271.853 357.426 271.346 357.932 271.346 358.557V381.303C271.346 381.927 271.853 382.434 272.477 382.434H282.739C283.364 382.434 283.871 381.927 283.871 381.303V358.557C283.871 357.932 283.364 357.426 282.739 357.426Z" fill="white"/>
<path d="M307.469 329.133H297.207C296.583 329.133 296.076 329.64 296.076 330.264V381.303C296.076 381.928 296.583 382.434 297.207 382.434H307.469C308.094 382.434 308.6 381.928 308.6 381.303V330.264C308.6 329.64 308.094 329.133 307.469 329.133Z" fill="white"/>
<path d="M332.199 351.821H321.937C321.312 351.821 320.805 352.327 320.805 352.952V381.303C320.805 381.928 321.312 382.434 321.937 382.434H332.199C332.823 382.434 333.33 381.928 333.33 381.303V352.952C333.33 352.327 332.823 351.821 332.199 351.821Z" fill="white"/>
<path d="M176.432 265.673H29.3401C23.3514 265.673 18.4966 270.528 18.4966 276.517V356.285C18.4966 362.274 23.3514 367.129 29.3401 367.129H176.432C182.421 367.129 187.276 362.274 187.276 356.285V276.517C187.276 270.528 182.421 265.673 176.432 265.673Z" fill="white"/>
<path d="M176.432 265.673H29.3401C23.3514 265.673 18.4966 270.528 18.4966 276.517V356.285C18.4966 362.274 23.3514 367.129 29.3401 367.129H176.432C182.421 367.129 187.276 362.274 187.276 356.285V276.517C187.276 270.528 182.421 265.673 176.432 265.673Z" fill="#EEB035"/>
<path d="M140.785 320.074H127.76C126.968 320.074 126.325 320.716 126.325 321.509V350.378C126.325 351.17 126.968 351.813 127.76 351.813H140.785C141.578 351.813 142.221 351.17 142.221 350.378V321.509C142.221 320.716 141.578 320.074 140.785 320.074Z" fill="white"/>
<path d="M172.171 295.389H159.147C158.354 295.389 157.711 296.032 157.711 296.825V350.378C157.711 351.171 158.354 351.814 159.147 351.814H172.171C172.964 351.814 173.607 351.171 173.607 350.378V296.825C173.607 296.032 172.964 295.389 172.171 295.389Z" fill="white"/>
<path d="M46.6251 320.074H33.6006C32.8077 320.074 32.165 320.716 32.165 321.509V350.378C32.165 351.17 32.8077 351.813 33.6006 351.813H46.6251C47.418 351.813 48.0607 351.17 48.0607 350.378V321.509C48.0607 320.716 47.418 320.074 46.6251 320.074Z" fill="white"/>
<path d="M78.0116 284.165H64.9871C64.1942 284.165 63.5515 284.808 63.5515 285.601V350.378C63.5515 351.17 64.1942 351.813 64.9871 351.813H78.0116C78.8045 351.813 79.4472 351.17 79.4472 350.378V285.601C79.4472 284.808 78.8045 284.165 78.0116 284.165Z" fill="white"/>
<path d="M109.399 312.959H96.3741C95.5812 312.959 94.9385 313.602 94.9385 314.395V350.378C94.9385 351.17 95.5812 351.813 96.3741 351.813H109.399C110.192 351.813 110.834 351.17 110.834 350.378V314.395C110.834 313.602 110.192 312.959 109.399 312.959Z" fill="white"/>
<path d="M455.31 0H286.376C279.498 0 273.922 5.57574 273.922 12.4538V104.068C273.922 110.946 279.498 116.521 286.376 116.521H455.31C462.188 116.521 467.764 110.946 467.764 104.068V12.4538C467.764 5.57574 462.188 0 455.31 0Z" fill="white"/>
<path d="M455.31 0H286.376C279.498 0 273.922 5.57574 273.922 12.4538V104.068C273.922 110.946 279.498 116.521 286.376 116.521H455.31C462.188 116.521 467.764 110.946 467.764 104.068V12.4538C467.764 5.57574 462.188 0 455.31 0Z" fill="#EEB035"/>
<path d="M414.37 62.4785H399.411C398.501 62.4785 397.762 63.2166 397.762 64.1272V97.2828C397.762 98.1933 398.501 98.9315 399.411 98.9315H414.37C415.28 98.9315 416.018 98.1933 416.018 97.2828V64.1272C416.018 63.2166 415.28 62.4785 414.37 62.4785Z" fill="white"/>
<path d="M450.417 34.1281H435.458C434.548 34.1281 433.809 34.8662 433.809 35.7768V97.2829C433.809 98.1935 434.548 98.9316 435.458 98.9316H450.417C451.327 98.9316 452.065 98.1935 452.065 97.2829V35.7768C452.065 34.8662 451.327 34.1281 450.417 34.1281Z" fill="white"/>
<path d="M306.227 62.4785H291.269C290.358 62.4785 289.62 63.2166 289.62 64.1272V97.2828C289.62 98.1933 290.358 98.9315 291.269 98.9315H306.227C307.138 98.9315 307.876 98.1933 307.876 97.2828V64.1272C307.876 63.2166 307.138 62.4785 306.227 62.4785Z" fill="white"/>
<path d="M342.275 21.2376H327.317C326.406 21.2376 325.668 21.9758 325.668 22.8863V97.2828C325.668 98.1933 326.406 98.9315 327.317 98.9315H342.275C343.186 98.9315 343.924 98.1933 343.924 97.2828V22.8863C343.924 21.9758 343.186 21.2376 342.275 21.2376Z" fill="white"/>
<path d="M378.322 54.3072H363.364C362.453 54.3072 361.715 55.0454 361.715 55.956V97.2822C361.715 98.1927 362.453 98.9309 363.364 98.9309H378.322C379.233 98.9309 379.971 98.1927 379.971 97.2822V55.956C379.971 55.0454 379.233 54.3072 378.322 54.3072Z" fill="white"/>
<path d="M88.4856 96.1747H6.07493C2.71984 96.1747 0 98.8945 0 102.25V146.941C0 150.296 2.71984 153.016 6.07493 153.016H88.4856C91.8407 153.016 94.5605 150.296 94.5605 146.941V102.25C94.5605 98.8945 91.8407 96.1747 88.4856 96.1747Z" fill="white"/>
<path d="M88.4856 96.1747H6.07493C2.71984 96.1747 0 98.8945 0 102.25V146.941C0 150.296 2.71984 153.016 6.07493 153.016H88.4856C91.8407 153.016 94.5605 150.296 94.5605 146.941V102.25C94.5605 98.8945 91.8407 96.1747 88.4856 96.1747Z" fill="#EEB035"/>
<path d="M68.5137 126.653H61.2163C60.7722 126.653 60.4122 127.013 60.4122 127.457V143.632C60.4122 144.076 60.7722 144.436 61.2163 144.436H68.5137C68.9579 144.436 69.3179 144.076 69.3179 143.632V127.457C69.3179 127.013 68.9579 126.653 68.5137 126.653Z" fill="white"/>
<path d="M86.0983 112.823H78.8009C78.3568 112.823 77.9967 113.183 77.9967 113.627V143.631C77.9967 144.075 78.3568 144.435 78.8009 144.435H86.0983C86.5424 144.435 86.9024 144.075 86.9024 143.631V113.627C86.9024 113.183 86.5424 112.823 86.0983 112.823Z" fill="white"/>
<path d="M15.7594 126.653H8.46201C8.01789 126.653 7.65787 127.013 7.65787 127.457V143.632C7.65787 144.076 8.01789 144.436 8.46201 144.436H15.7594C16.2035 144.436 16.5636 144.076 16.5636 143.632V127.457C16.5636 127.013 16.2035 126.653 15.7594 126.653Z" fill="white"/>
<path d="M33.3445 106.535H26.0471C25.6029 106.535 25.2429 106.895 25.2429 107.339V143.632C25.2429 144.076 25.6029 144.436 26.0471 144.436H33.3445C33.7886 144.436 34.1486 144.076 34.1486 143.632V107.339C34.1486 106.895 33.7886 106.535 33.3445 106.535Z" fill="white"/>
<path d="M50.9289 122.667H43.6315C43.1874 122.667 42.8274 123.027 42.8274 123.471V143.631C42.8274 144.075 43.1874 144.435 43.6315 144.435H50.9289C51.373 144.435 51.733 144.075 51.733 143.631V123.471C51.733 123.027 51.373 122.667 50.9289 122.667Z" fill="white"/>
<path d="M78.568 297.647H411.415C419.589 297.647 426.215 291.021 426.215 282.847V39.1521C426.215 30.9783 419.589 24.3521 411.415 24.3521H78.568C70.3942 24.3521 63.768 30.9783 63.768 39.1521V282.847C63.768 291.021 70.3942 297.647 78.568 297.647Z" fill="white"/>
<path d="M63.2742 282.847V39.1522C63.2788 35.0975 64.8915 31.2102 67.7586 28.3432C70.6257 25.4761 74.5129 23.8633 78.5676 23.8588H411.415C415.47 23.8633 419.357 25.4761 422.224 28.3432C425.091 31.2102 426.704 35.0975 426.708 39.1522V282.847C426.704 286.902 425.091 290.789 422.224 293.656C419.357 296.524 415.47 298.136 411.415 298.141H78.5676C74.5129 298.136 70.6257 296.524 67.7586 293.656C64.8915 290.789 63.2788 286.902 63.2742 282.847ZM78.5676 24.8454C74.7746 24.8499 71.1382 26.3586 68.4561 29.0407C65.7741 31.7228 64.2653 35.3591 64.2609 39.1522V282.847C64.2652 286.641 65.7739 290.277 68.456 292.959C71.1381 295.641 74.7746 297.15 78.5676 297.154H411.415C415.208 297.15 418.845 295.641 421.527 292.959C424.209 290.277 425.718 286.641 425.722 282.847V39.1522C425.717 35.3591 424.209 31.7226 421.527 29.0405C418.845 26.3584 415.208 24.8498 411.415 24.8454H78.5676Z" fill="#292A2E"/>
<path d="M63.768 39.1506V54.0429H426.214V39.1506C426.214 35.2254 424.654 31.4609 421.879 28.6854C419.103 25.9098 415.339 24.3505 411.413 24.3505H78.5681C74.6429 24.3505 70.8784 25.9098 68.1028 28.6854C65.3273 31.4609 63.768 35.2254 63.768 39.1506Z" fill="#292A2E"/>
<path d="M406.632 68.1942H265.405C261.939 68.1942 259.129 71.0044 259.129 74.4709V174.375C259.129 177.842 261.939 180.652 265.405 180.652H406.632C410.098 180.652 412.908 177.842 412.908 174.375V74.4709C412.908 71.0044 410.098 68.1942 406.632 68.1942Z" fill="white"/>
<path d="M406.632 68.1942H265.405C261.939 68.1942 259.129 71.0044 259.129 74.4709V174.375C259.129 177.842 261.939 180.652 265.405 180.652H406.632C410.098 180.652 412.908 177.842 412.908 174.375V74.4709C412.908 71.0044 410.098 68.1942 406.632 68.1942Z" fill="#EEB035"/>
<path d="M286.731 82.2271H274.526C273.959 82.2271 273.499 82.6867 273.499 83.2537V165.592C273.499 166.159 273.959 166.619 274.526 166.619H286.731C287.298 166.619 287.758 166.159 287.758 165.592V83.2537C287.758 82.6867 287.298 82.2271 286.731 82.2271Z" fill="#FAFAFA"/>
<path d="M273.499 123.595H287.757V165.592C287.757 165.865 287.648 166.126 287.456 166.318C287.263 166.511 287.002 166.619 286.73 166.619L274.526 166.619C274.253 166.619 273.992 166.511 273.8 166.318C273.607 166.126 273.499 165.865 273.499 165.592V123.595Z" fill="#EEB035"/>
<path d="M314.426 82.2271H302.221C301.654 82.2271 301.194 82.6867 301.194 83.2537V165.592C301.194 166.159 301.654 166.619 302.221 166.619H314.426C314.993 166.619 315.453 166.159 315.453 165.592V83.2537C315.453 82.6867 314.993 82.2271 314.426 82.2271Z" fill="#FAFAFA"/>
<path d="M301.194 111.898H315.452V165.592C315.452 165.864 315.343 166.125 315.151 166.318C314.958 166.51 314.697 166.619 314.425 166.619L302.221 166.619C301.948 166.619 301.687 166.51 301.495 166.318C301.302 166.125 301.194 165.865 301.194 165.592L301.194 111.898Z" fill="#EEB035"/>
<path d="M397.511 82.2271H385.306C384.739 82.2271 384.279 82.6867 384.279 83.2537V165.592C384.279 166.159 384.739 166.619 385.306 166.619H397.511C398.078 166.619 398.538 166.159 398.538 165.592V83.2537C398.538 82.6867 398.078 82.2271 397.511 82.2271Z" fill="#FAFAFA"/>
<path d="M384.279 100.098H398.537V165.593C398.537 165.865 398.428 166.127 398.236 166.319C398.043 166.512 397.782 166.62 397.51 166.62L385.306 166.619C385.033 166.619 384.773 166.512 384.58 166.319C384.388 166.127 384.279 165.865 384.279 165.592L384.279 100.098Z" fill="#EEB035"/>
<path d="M342.122 82.2271H329.916C329.349 82.2271 328.889 82.6867 328.889 83.2537V165.592C328.889 166.159 329.349 166.619 329.916 166.619H342.122C342.689 166.619 343.148 166.159 343.148 165.592V83.2537C343.148 82.6867 342.689 82.2271 342.122 82.2271Z" fill="#FAFAFA"/>
<path d="M328.889 142.513H343.147V165.592C343.147 165.865 343.039 166.126 342.846 166.318C342.654 166.511 342.392 166.619 342.12 166.619L329.916 166.619C329.644 166.619 329.383 166.511 329.19 166.318C328.998 166.126 328.889 165.865 328.889 165.592L328.889 142.513Z" fill="#EEB035"/>
<path d="M369.817 82.227H357.611C357.044 82.227 356.584 82.6867 356.584 83.2537V165.592C356.584 166.159 357.044 166.619 357.611 166.619H369.817C370.384 166.619 370.843 166.159 370.843 165.592V83.2537C370.843 82.6867 370.384 82.227 369.817 82.227Z" fill="#FAFAFA"/>
<path d="M356.583 127.766H370.84V165.592C370.84 165.864 370.732 166.126 370.539 166.318C370.347 166.511 370.086 166.619 369.814 166.619L357.611 166.619C357.476 166.619 357.343 166.592 357.218 166.541C357.093 166.489 356.98 166.413 356.885 166.318C356.79 166.223 356.714 166.11 356.662 165.985C356.611 165.86 356.584 165.727 356.584 165.592L356.584 127.766H356.583Z" fill="#EEB035"/>
<path d="M403.923 191.66H266.415C261.452 191.66 257.43 195.683 257.43 200.645V275.104C257.43 280.067 261.452 284.09 266.415 284.09H403.923C408.885 284.09 412.908 280.067 412.908 275.104V200.645C412.908 195.683 408.885 191.66 403.923 191.66Z" fill="#EEB035"/>
<path d="M350.435 214.747C352.279 214.747 353.775 213.252 353.775 211.408C353.775 209.563 352.279 208.068 350.435 208.068C348.59 208.068 347.095 209.563 347.095 211.408C347.095 213.252 348.59 214.747 350.435 214.747Z" fill="#EEB035"/>
<path d="M350.435 231.773C352.279 231.773 353.775 230.278 353.775 228.433C353.775 226.588 352.279 225.093 350.435 225.093C348.59 225.093 347.095 226.588 347.095 228.433C347.095 230.278 348.59 231.773 350.435 231.773Z" fill="#262626"/>
<path d="M350.435 248.799C352.279 248.799 353.775 247.304 353.775 245.459C353.775 243.614 352.279 242.119 350.435 242.119C348.59 242.119 347.095 243.614 347.095 245.459C347.095 247.304 348.59 248.799 350.435 248.799Z" fill="white"/>
<path d="M350.435 265.824C352.279 265.824 353.775 264.329 353.775 262.484C353.775 260.64 352.279 259.144 350.435 259.144C348.59 259.144 347.095 260.64 347.095 262.484C347.095 264.329 348.59 265.824 350.435 265.824Z" fill="#EEB035"/>
<path d="M396.784 211.406C396.784 211.907 396.585 212.388 396.231 212.742C395.876 213.096 395.396 213.296 394.895 213.296H362.791C362.345 213.304 361.909 213.158 361.557 212.883C361.204 212.609 360.957 212.221 360.857 211.786C360.801 211.511 360.807 211.227 360.874 210.955C360.941 210.683 361.068 210.429 361.245 210.211C361.423 209.994 361.646 209.819 361.9 209.699C362.153 209.579 362.43 209.516 362.711 209.517H394.895C395.143 209.516 395.388 209.565 395.618 209.66C395.847 209.755 396.055 209.894 396.231 210.07C396.406 210.245 396.545 210.454 396.64 210.683C396.735 210.912 396.784 211.158 396.784 211.406Z" fill="white"/>
<path d="M396.784 228.432C396.784 228.934 396.585 229.414 396.231 229.769C395.876 230.123 395.396 230.322 394.895 230.322H362.811C362.549 230.326 362.288 230.277 362.046 230.179C361.803 230.08 361.582 229.934 361.397 229.749C361.211 229.564 361.065 229.343 360.966 229.101C360.867 228.858 360.818 228.598 360.822 228.336C360.847 227.852 361.057 227.396 361.409 227.063C361.76 226.729 362.226 226.543 362.711 226.543H394.895C395.143 226.543 395.388 226.592 395.618 226.687C395.847 226.782 396.055 226.921 396.231 227.097C396.406 227.272 396.545 227.48 396.64 227.709C396.735 227.939 396.784 228.184 396.784 228.432Z" fill="white"/>
<path d="M396.784 245.459C396.784 245.96 396.585 246.441 396.231 246.795C395.876 247.149 395.396 247.348 394.895 247.348H362.516C362.066 247.348 361.634 247.17 361.316 246.851C360.998 246.533 360.819 246.101 360.819 245.651V245.267C360.819 244.817 360.998 244.385 361.316 244.067C361.634 243.749 362.066 243.57 362.516 243.57H394.895C395.143 243.57 395.388 243.619 395.618 243.714C395.847 243.808 396.055 243.948 396.231 244.123C396.406 244.298 396.545 244.507 396.64 244.736C396.735 244.965 396.784 245.211 396.784 245.459Z" fill="white"/>
<path d="M396.784 262.485C396.784 262.987 396.585 263.467 396.231 263.821C395.876 264.176 395.396 264.375 394.895 264.375H362.799C362.352 264.383 361.915 264.238 361.561 263.964C361.208 263.689 360.96 263.302 360.857 262.867C360.801 262.592 360.807 262.308 360.874 262.036C360.941 261.764 361.068 261.51 361.245 261.292C361.422 261.075 361.646 260.9 361.899 260.78C362.153 260.66 362.43 260.597 362.71 260.597H394.894C395.142 260.597 395.388 260.646 395.617 260.741C395.846 260.835 396.054 260.974 396.23 261.15C396.406 261.325 396.545 261.533 396.64 261.763C396.735 261.992 396.784 262.237 396.784 262.485Z" fill="white"/>
<path d="M287.768 236.946C287.769 241.017 289.033 244.988 291.384 248.311C293.736 251.635 297.06 254.147 300.899 255.503L295.5 268.67C288.074 265.872 281.866 260.557 277.957 253.651C274.047 246.746 272.684 238.688 274.106 230.881C275.527 223.074 279.643 216.013 285.735 210.928C291.828 205.844 299.511 203.058 307.446 203.057V217.272C302.228 217.271 297.223 219.344 293.533 223.034C289.843 226.723 287.769 231.728 287.768 236.946Z" fill="#EEB035"/>
<path d="M341.339 236.946H327.123C327.123 231.727 325.05 226.722 321.36 223.032C317.67 219.342 312.665 217.269 307.447 217.269V203.054C316.435 203.054 325.056 206.625 331.412 212.981C337.768 219.337 341.339 227.957 341.339 236.946Z" fill="#262626"/>
<path d="M341.339 236.946C341.338 244.625 338.73 252.077 333.942 258.082C329.154 264.086 322.469 268.287 314.982 269.996L312.574 255.945C316.75 254.817 320.438 252.345 323.068 248.91C325.698 245.476 327.123 241.271 327.123 236.946H341.339Z" fill="white"/>
<path d="M314.982 269.996C308.498 271.466 301.725 271.004 295.5 268.669L300.899 255.503C304.657 256.822 308.726 256.977 312.574 255.947L314.982 269.996Z" fill="#EEB035"/>
<path d="M237.701 68.1942H85.9365C81.0321 68.1942 77.0564 72.17 77.0564 77.0743V275.21C77.0564 280.114 81.0321 284.09 85.9365 284.09H237.701C242.605 284.09 246.581 280.114 246.581 275.21V77.0743C246.581 72.17 242.605 68.1942 237.701 68.1942Z" fill="#EEB035"/>
<path d="M207.685 152.454C207.685 162.305 204.764 171.936 199.291 180.127C193.817 188.318 186.038 194.702 176.937 198.472C167.835 202.242 157.82 203.229 148.158 201.307C138.496 199.385 129.621 194.641 122.655 187.675C115.689 180.709 110.945 171.834 109.023 162.172C107.101 152.51 108.087 142.495 111.857 133.393C115.627 124.292 122.011 116.512 130.202 111.039C138.394 105.566 148.024 102.645 157.875 102.645V152.454H207.685Z" fill="#FAFAFA"/>
<path d="M213.792 145.984H163.985V96.1747C177.194 96.1752 189.863 101.423 199.204 110.764C208.544 120.105 213.792 132.774 213.792 145.984Z" fill="#EEB035"/>
<path d="M106.226 230.519C108.07 230.519 109.566 229.024 109.566 227.179C109.566 225.335 108.07 223.84 106.226 223.84C104.381 223.84 102.886 225.335 102.886 227.179C102.886 229.024 104.381 230.519 106.226 230.519Z" fill="#EEB035"/>
<path d="M106.226 247.545C108.07 247.545 109.566 246.05 109.566 244.205C109.566 242.361 108.07 240.866 106.226 240.866C104.381 240.866 102.886 242.361 102.886 244.205C102.886 246.05 104.381 247.545 106.226 247.545Z" fill="#FAFAFA"/>
<path d="M220.655 227.181C220.655 227.682 220.456 228.163 220.101 228.517C219.747 228.871 219.267 229.07 218.765 229.07H118.582C118.136 229.079 117.7 228.933 117.347 228.658C116.995 228.383 116.748 227.996 116.647 227.56C116.592 227.285 116.597 227.002 116.665 226.729C116.732 226.457 116.859 226.203 117.036 225.986C117.214 225.769 117.437 225.594 117.691 225.473C117.944 225.353 118.221 225.291 118.502 225.291H218.765C219.014 225.291 219.259 225.34 219.489 225.435C219.718 225.53 219.926 225.669 220.102 225.845C220.277 226.02 220.416 226.228 220.511 226.458C220.606 226.687 220.655 226.933 220.655 227.181Z" fill="#EEB035"/>
<path d="M220.655 244.205C220.655 244.706 220.456 245.187 220.102 245.541C219.747 245.895 219.267 246.095 218.765 246.095H118.602C118.34 246.098 118.079 246.05 117.836 245.951C117.594 245.853 117.373 245.707 117.187 245.522C117.002 245.337 116.856 245.116 116.757 244.873C116.658 244.631 116.609 244.37 116.612 244.108C116.638 243.624 116.848 243.169 117.2 242.835C117.551 242.502 118.017 242.316 118.502 242.316H218.765C219.014 242.316 219.259 242.364 219.489 242.459C219.718 242.554 219.926 242.694 220.102 242.869C220.277 243.044 220.416 243.253 220.511 243.482C220.606 243.711 220.655 243.957 220.655 244.205Z" fill="white"/>
<path d="M62.5821 422.817C62.5289 422.817 62.4761 422.807 62.4269 422.787C62.3777 422.766 62.333 422.736 62.2955 422.698C61.7237 422.127 60.7928 411.644 58.2842 380.432C57.2575 367.661 56.2877 355.598 55.5802 348.267C55.5309 347.743 55.3266 347.682 55.26 347.663C54.2916 347.371 51.3459 349.693 49.7016 351.727C49.6681 351.769 49.6268 351.803 49.58 351.829C49.5332 351.854 49.4818 351.87 49.4289 351.876C49.3759 351.881 49.3223 351.876 49.2712 351.861C49.2201 351.846 49.1725 351.821 49.1311 351.788C49.0897 351.754 49.0552 351.713 49.0298 351.666C49.0043 351.619 48.9883 351.568 48.9827 351.515C48.9771 351.462 48.982 351.408 48.9971 351.357C49.0121 351.306 49.0372 351.259 49.0707 351.217C50.156 349.872 53.7026 346.347 55.4934 346.886C55.7627 346.978 55.995 347.155 56.1561 347.389C56.3172 347.624 56.3984 347.905 56.3878 348.189C57.0957 355.526 58.0651 367.593 59.0928 380.367C60.6172 399.334 62.3438 420.821 62.9117 422.175C62.9548 422.236 62.9804 422.307 62.9858 422.381C62.9911 422.455 62.9759 422.53 62.9419 422.596C62.9079 422.662 62.8564 422.718 62.7929 422.757C62.7295 422.795 62.6565 422.817 62.5821 422.817Z" fill="#494949"/>
<path d="M54.5394 361.72C61.2688 356.326 63.4992 347.93 59.5212 342.967C55.5431 338.004 46.863 338.354 40.1336 343.748C33.4042 349.142 31.1738 357.538 35.1518 362.501C39.1299 367.464 47.81 367.114 54.5394 361.72Z" fill="#0CBC8B"/>
<path d="M54.5394 361.72C61.2688 356.326 63.4992 347.93 59.5212 342.967C55.5431 338.004 46.863 338.354 40.1336 343.748C33.4042 349.142 31.1738 357.538 35.1518 362.501C39.1299 367.464 47.81 367.114 54.5394 361.72Z" fill="white"/>
<path d="M37.0372 363.763C36.9987 363.763 36.9611 363.752 36.9287 363.731C36.8962 363.71 36.8703 363.681 36.854 363.646C36.8376 363.611 36.8315 363.573 36.8364 363.534C36.8412 363.496 36.8568 363.46 36.8813 363.431L56.0597 340.303C56.0941 340.262 56.1434 340.236 56.197 340.231C56.2506 340.226 56.3039 340.242 56.3453 340.276C56.3868 340.311 56.4128 340.36 56.4178 340.414C56.4228 340.467 56.4063 340.521 56.372 340.562L37.1936 363.69C37.1745 363.713 37.1506 363.731 37.1236 363.744C37.0965 363.756 37.067 363.763 37.0372 363.763Z" fill="white"/>
<path d="M66.765 417.859C66.7004 417.859 66.6367 417.844 66.5793 417.814C66.5219 417.784 66.4724 417.741 66.4349 417.688C66.3975 417.636 66.3732 417.575 66.364 417.511C66.3548 417.447 66.3611 417.382 66.3822 417.32L73.5849 396.603C73.7967 395.994 74.1581 395.448 74.6357 395.015C75.1134 394.582 75.6921 394.276 76.3188 394.124C76.9456 393.973 77.6002 393.982 78.2228 394.149C78.8454 394.317 79.416 394.638 79.8823 395.083L83.6909 398.721C83.7663 398.796 83.8094 398.898 83.8108 399.004C83.8122 399.11 83.7718 399.213 83.6984 399.289C83.6249 399.366 83.5243 399.411 83.4181 399.415C83.3119 399.418 83.2086 399.379 83.1304 399.307L79.3219 395.669C78.9538 395.318 78.5034 395.064 78.0119 394.932C77.5204 394.8 77.0035 394.793 76.5087 394.912C76.0139 395.032 75.557 395.274 75.18 395.615C74.8029 395.957 74.5177 396.388 74.3505 396.869L67.1479 417.589C67.1198 417.668 67.0679 417.737 66.9993 417.785C66.9308 417.833 66.8489 417.859 66.765 417.859Z" fill="#494949"/>
<path d="M94.3311 410.191C99.3182 406.243 99.0218 397.561 93.6691 390.799C88.3163 384.036 79.9342 381.754 74.9471 385.702C69.96 389.649 70.2564 398.332 75.6091 405.094C80.9619 411.856 89.3439 414.138 94.3311 410.191Z" fill="#0CBC8B"/>
<path d="M59.3094 421.496C59.2182 421.496 59.1297 421.465 59.0581 421.409C58.9865 421.353 58.936 421.274 58.9147 421.185L46.828 370.637C46.7456 370.292 46.5697 369.977 46.3197 369.726C46.0697 369.475 45.7552 369.297 45.4109 369.213C45.0666 369.129 44.7058 369.142 44.3683 369.25C44.0307 369.358 43.7294 369.556 43.4975 369.824L39.7708 374.131C39.7365 374.173 39.6941 374.207 39.6462 374.233C39.5983 374.258 39.5458 374.273 39.4918 374.278C39.4378 374.283 39.3834 374.276 39.3319 374.26C39.2803 374.243 39.2326 374.216 39.1916 374.181C39.1506 374.145 39.1172 374.102 39.0932 374.053C39.0692 374.005 39.0552 373.952 39.0521 373.898C39.0489 373.844 39.0566 373.789 39.0747 373.738C39.0929 373.687 39.121 373.64 39.1576 373.6L42.8843 369.293C43.2139 368.913 43.6421 368.63 44.1217 368.477C44.6014 368.324 45.114 368.307 45.6032 368.426C46.0923 368.545 46.5391 368.797 46.8944 369.154C47.2496 369.511 47.4996 369.959 47.6168 370.448L59.7035 420.997C59.716 421.048 59.718 421.102 59.7097 421.155C59.7013 421.207 59.6827 421.258 59.6548 421.303C59.627 421.348 59.5904 421.388 59.5473 421.419C59.5042 421.45 59.4554 421.473 59.4036 421.485C59.3728 421.492 59.3411 421.496 59.3094 421.496Z" fill="#494949"/>
<path d="M54.8486 385.363C56.3182 376.864 52.4289 369.096 46.1616 368.013C39.8942 366.929 33.6222 372.939 32.1526 381.438C30.683 389.936 34.5723 397.704 40.8397 398.788C47.107 399.872 53.379 393.861 54.8486 385.363Z" fill="#0CBC8B"/>
<path d="M62.5821 422.817C62.5656 422.817 62.5496 422.816 62.5333 422.815C62.4265 422.801 62.3294 422.746 62.2632 422.662C62.197 422.577 62.1671 422.469 62.18 422.363L69.8997 359.684C69.9838 359.001 70.2633 358.357 70.7046 357.829C71.1459 357.302 71.7302 356.913 72.3874 356.709C73.0445 356.505 73.7465 356.496 74.4088 356.682C75.0712 356.868 75.6658 357.241 76.1212 357.756L84.945 367.75C84.9803 367.79 85.0073 367.836 85.0247 367.887C85.042 367.937 85.0492 367.99 85.0459 368.043C85.0426 368.097 85.0289 368.149 85.0056 368.197C84.9822 368.244 84.9496 368.287 84.9097 368.322C84.8698 368.358 84.8233 368.385 84.773 368.402C84.7226 368.419 84.6693 368.427 84.6161 368.423C84.563 368.42 84.511 368.406 84.4631 368.383C84.4153 368.36 84.3725 368.327 84.3372 368.287L75.5134 358.294C75.1615 357.895 74.702 357.607 74.1901 357.463C73.6782 357.319 73.1358 357.327 72.6279 357.484C72.12 357.641 71.6684 357.942 71.3272 358.349C70.9861 358.757 70.77 359.255 70.7049 359.783L62.9847 422.461C62.9726 422.559 62.9251 422.65 62.8511 422.716C62.777 422.781 62.6811 422.817 62.5821 422.817Z" fill="#494949"/>
<path d="M93.9939 373.304C97.0725 367.738 93.4503 359.842 85.9034 355.668C78.3566 351.493 69.7429 352.621 66.6643 358.186C63.5857 363.752 67.2079 371.648 74.7548 375.823C82.3017 379.997 90.9153 378.869 93.9939 373.304Z" fill="#0CBC8B"/>
<path d="M94.3311 410.191C99.3182 406.243 99.0218 397.561 93.6691 390.799C88.3163 384.036 79.9342 381.754 74.9471 385.702C69.96 389.649 70.2564 398.332 75.6091 405.094C80.9619 411.856 89.3439 414.138 94.3311 410.191Z" fill="white"/>
<path d="M54.8486 385.363C56.3182 376.864 52.4289 369.096 46.1616 368.013C39.8942 366.929 33.6222 372.939 32.1526 381.438C30.683 389.936 34.5723 397.704 40.8397 398.788C47.107 399.872 53.379 393.861 54.8486 385.363Z" fill="white"/>
<path d="M93.9939 373.304C97.0725 367.738 93.4503 359.842 85.9034 355.668C78.3566 351.493 69.7429 352.621 66.6643 358.186C63.5857 363.752 67.2079 371.648 74.7548 375.823C82.3017 379.997 90.9153 378.869 93.9939 373.304Z" fill="white"/>
<path d="M72.4562 476H52.708L49.4357 412.816H75.7285L72.4562 476Z" fill="#292A2E"/>
<path d="M72.4562 476H52.708L49.4357 412.816H75.7285L72.4562 476Z" fill="white"/>
<path d="M94.3332 410.392C94.3025 410.392 94.2722 410.385 94.2446 410.372C94.217 410.359 94.1928 410.339 94.1738 410.315L74.7897 385.827C74.7732 385.806 74.7609 385.782 74.7536 385.756C74.7463 385.73 74.7441 385.704 74.7471 385.677C74.7502 385.651 74.7584 385.625 74.7713 385.602C74.7843 385.579 74.8017 385.558 74.8225 385.542C74.8434 385.525 74.8673 385.513 74.8929 385.505C74.9185 385.498 74.9453 385.496 74.9718 385.499C74.9982 385.502 75.0238 385.51 75.0471 385.523C75.0704 385.536 75.0909 385.554 75.1074 385.574L94.4921 410.064C94.5253 410.106 94.5405 410.159 94.5342 410.213C94.5279 410.266 94.5007 410.315 94.4585 410.348C94.4229 410.377 94.3787 410.392 94.3332 410.392Z" fill="white"/>
<path d="M92.7052 375.266C92.6623 375.266 92.6205 375.252 92.5858 375.227L67.7809 357.115C67.7586 357.099 67.7395 357.079 67.7249 357.057C67.7103 357.034 67.7004 357.008 67.6958 356.982C67.6913 356.955 67.6921 356.927 67.6983 356.901C67.7045 356.875 67.7159 356.85 67.7318 356.828C67.7478 356.806 67.768 356.788 67.7912 356.774C67.8145 356.76 67.8403 356.75 67.8671 356.747C67.8939 356.743 67.9213 356.744 67.9475 356.751C67.9737 356.758 67.9982 356.77 68.0197 356.787L92.8251 374.899C92.8597 374.924 92.8854 374.96 92.8985 375.001C92.9117 375.042 92.9116 375.085 92.8983 375.126C92.885 375.167 92.8591 375.202 92.8244 375.227C92.7897 375.252 92.748 375.266 92.7052 375.266Z" fill="white"/>
<path d="M39.8339 398.522C39.8161 398.523 39.7983 398.52 39.7812 398.516C39.7295 398.502 39.6855 398.468 39.6586 398.422C39.6317 398.376 39.6242 398.321 39.6376 398.269L47.5339 368.684C47.5483 368.632 47.5821 368.589 47.6281 368.562C47.6742 368.535 47.7289 368.527 47.7806 368.54C47.8323 368.554 47.8764 368.587 47.9033 368.634C47.9302 368.68 47.9377 368.735 47.9241 368.787L40.0293 398.372C40.0179 398.415 39.9925 398.453 39.9572 398.48C39.9219 398.508 39.8785 398.522 39.8339 398.522Z" fill="white"/>
<path d="M442.753 476H38.011C37.9194 476 37.8316 475.964 37.7668 475.899C37.7021 475.834 37.6657 475.746 37.6657 475.655C37.6657 475.563 37.7021 475.475 37.7668 475.41C37.8316 475.346 37.9194 475.309 38.011 475.309H442.753C442.844 475.309 442.932 475.346 442.997 475.41C443.062 475.475 443.098 475.563 443.098 475.655C443.098 475.746 443.062 475.834 442.997 475.899C442.932 475.964 442.844 476 442.753 476Z" fill="#292A2E"/>
<path d="M140.983 453.862C140.983 453.862 143.21 465.409 154.019 466.054C164.828 466.699 162.485 475.309 162.485 475.309H121.175V454.668L140.983 453.862Z" fill="#EEB035"/>
<path d="M118.374 243.243C118.374 243.243 121.463 239.772 121.436 247.645C121.334 277.013 119.352 461.231 119.352 461.231L146.498 461.003L162.943 242.049L118.374 243.243Z" fill="#262626"/>
<path d="M187.337 453.862C187.337 453.862 189.565 465.409 200.375 466.052C211.185 466.695 208.841 475.307 208.841 475.307H167.53V454.668L187.337 453.862Z" fill="#EEB035"/>
<path d="M192.588 245.523C192.588 245.523 195.979 345.895 195.627 350.801L192.438 460.469L165.74 460.963L161.435 346.833C161.435 346.833 158.613 315.35 151.007 286.116C147.115 271.112 144.773 255.749 144.017 240.267L192.588 245.523Z" fill="#262626"/>
<path d="M157.368 316.687L159.594 282.642C159.594 282.642 161.88 296.796 161.88 308.995C161.88 314.958 160.652 338.566 160.652 338.566L157.368 316.687Z" fill="#0A0A0A"/>
<path d="M118.079 243.239L117.99 243.244C117.99 243.244 118.055 241.533 118.079 243.239Z" fill="#333333"/>
<path d="M118.19 243.239L118.101 243.244C118.101 243.244 118.166 241.532 118.19 243.239Z" fill="#333333"/>
<path d="M266.944 161.771C266.78 161.447 266.52 161.182 266.2 161.012C265.879 160.843 265.514 160.777 265.154 160.823C265.157 160.792 265.15 160.759 265.134 160.732C265.117 160.71 265.095 160.693 265.07 160.683C265.045 160.673 265.017 160.669 264.99 160.673L266.204 159.803C266.568 159.554 266.829 159.182 266.939 158.756C267.05 158.33 267.002 157.878 266.805 157.484C266.598 157.101 266.257 156.809 265.846 156.664C265.436 156.519 264.987 156.531 264.585 156.699C264.589 156.682 264.577 156.666 264.574 156.65L265.073 156.293C265.414 156.057 265.664 155.71 265.779 155.312C265.894 154.914 265.868 154.488 265.705 154.106C265.598 153.869 265.44 153.659 265.242 153.49C265.044 153.322 264.811 153.2 264.56 153.132C264.309 153.065 264.046 153.054 263.79 153.1C263.534 153.146 263.291 153.249 263.08 153.4L261.929 154.226C261.926 154.219 261.929 154.211 261.925 154.204C261.92 154.198 261.907 154.195 261.901 154.189C262.165 153.891 262.321 153.513 262.342 153.116C262.363 152.718 262.248 152.326 262.016 152.002C261.474 151.128 260.219 151.307 259.475 151.84L252.7 156.52L253.911 154.481C254.154 154.089 254.24 153.619 254.15 153.165C254.061 152.712 253.803 152.31 253.429 152.04C253.231 151.907 253.007 151.816 252.773 151.773C252.538 151.729 252.297 151.734 252.065 151.786C251.832 151.839 251.612 151.939 251.419 152.079C251.227 152.219 251.064 152.397 250.942 152.602L244.332 163.733C243.556 165.039 243.32 166.596 243.674 168.073C244.028 169.55 244.943 170.831 246.227 171.643C247.715 172.586 249.451 173.062 251.211 173.012C252.972 172.961 254.678 172.386 256.11 171.36L266.34 164.026C266.68 163.773 266.925 163.413 267.034 163.004C267.144 162.594 267.112 162.16 266.944 161.771Z" fill="#E98862"/>
<path d="M255.225 158.85C255.25 158.884 255.287 158.907 255.329 158.914C255.37 158.921 255.413 158.912 255.448 158.888L261.885 154.429C261.902 154.417 261.917 154.402 261.929 154.384C261.94 154.366 261.948 154.346 261.952 154.325C261.956 154.304 261.956 154.283 261.951 154.262C261.947 154.241 261.938 154.221 261.926 154.204C261.914 154.186 261.898 154.171 261.88 154.16C261.863 154.148 261.843 154.14 261.822 154.137C261.801 154.133 261.779 154.133 261.758 154.138C261.738 154.142 261.718 154.151 261.7 154.163L255.263 158.621C255.228 158.646 255.204 158.683 255.196 158.725C255.189 158.768 255.198 158.811 255.222 158.847L255.225 158.85Z" fill="#0C0C0C"/>
<path d="M257.113 161.743C257.138 161.777 257.175 161.8 257.217 161.807C257.259 161.814 257.301 161.805 257.336 161.78L264.52 156.805C264.555 156.781 264.579 156.743 264.587 156.701C264.594 156.659 264.585 156.615 264.56 156.58C264.535 156.546 264.498 156.522 264.456 156.515C264.414 156.507 264.371 156.516 264.335 156.539L257.151 161.514C257.116 161.539 257.092 161.576 257.084 161.619C257.077 161.661 257.086 161.705 257.111 161.74L257.113 161.743Z" fill="#0C0C0C"/>
<path d="M259.14 164.888C259.164 164.922 259.202 164.945 259.243 164.952C259.285 164.96 259.328 164.95 259.363 164.926L265.093 160.957C265.128 160.933 265.153 160.895 265.16 160.853C265.168 160.811 265.159 160.767 265.134 160.732C265.11 160.696 265.072 160.672 265.03 160.664C264.988 160.657 264.944 160.666 264.909 160.691L259.178 164.66C259.143 164.684 259.119 164.722 259.111 164.764C259.103 164.806 259.113 164.85 259.137 164.885L259.14 164.888Z" fill="#0C0C0C"/>
<path d="M240.43 161.198L221.014 194.267L197.322 163.191L177.645 180.93L211.246 224.447L211.466 224.757C212.811 226.599 214.603 228.069 216.673 229.027C218.743 229.985 221.023 230.4 223.297 230.234C225.572 230.067 227.767 229.324 229.675 228.075C231.584 226.826 233.143 225.111 234.205 223.093L261.816 173.091L240.43 161.198Z" fill="#EEB035"/>
<path d="M219.11 198.244C219.068 198.244 219.026 198.233 218.989 198.212C218.952 198.192 218.921 198.162 218.899 198.126C218.877 198.09 218.865 198.049 218.863 198.007C218.861 197.964 218.871 197.922 218.89 197.885L220.794 194.155C220.824 194.096 220.875 194.052 220.938 194.032C221 194.012 221.067 194.018 221.126 194.048C221.184 194.077 221.228 194.129 221.248 194.191C221.268 194.254 221.263 194.321 221.233 194.38L219.329 198.109C219.309 198.15 219.277 198.184 219.239 198.207C219.2 198.231 219.155 198.244 219.11 198.244Z" fill="#0C0C0C"/>
<path d="M195.954 194.078L195.361 204.523L195.854 204.551L196.447 194.106L195.954 194.078Z" fill="#0C0C0C"/>
<path d="M133.388 118.488C133.388 118.488 132.478 130.114 129.812 134.305C122.135 146.37 119.794 160.016 127.257 167.245C134.721 174.474 182.854 175.134 186.691 158.745C189.921 144.95 183.35 143.387 181.879 131.957C181.213 126.786 179.344 115.938 179.344 115.938" fill="#0A0A0A"/>
<path d="M174.437 156.126C174.354 156.116 173.432 171.415 155.658 170.082C143.353 169.16 138.965 156.105 138.684 156.105C140.01 155.823 142.245 155.414 142.834 155.098C144.771 154.057 147.169 152.974 147.793 149.211C148.153 147.041 147.543 135.948 147.731 133.753L166.618 137.969C166.355 142.603 164.507 153.347 170.981 155.248C172.059 155.563 173.219 155.852 174.437 156.126Z" fill="#E98862"/>
<path d="M166.883 150.858C166.587 149.904 166.397 148.921 166.315 147.926C166.107 145.656 166.149 143.369 166.438 141.108C162.6 140.59 158.983 139.005 155.999 136.534C155.649 137.83 153.72 143.49 154.254 144.72C155.263 147.047 160.007 150.858 166.883 150.858Z" fill="#0C0C0C"/>
<path d="M164.379 146.042C156.925 146.676 147.325 143.586 145.444 133.647L143.746 124.679C141.865 114.74 145.561 105.694 154.92 103.923C164.278 102.152 172.798 108.886 174.679 118.825L175.43 122.795C176.152 126.609 177.681 144.91 164.379 146.042Z" fill="#E98862"/>
<path d="M172.763 123.228C173.411 123.228 173.936 122.703 173.936 122.055C173.936 121.407 173.411 120.882 172.763 120.882C172.115 120.882 171.59 121.407 171.59 122.055C171.59 122.703 172.115 123.228 172.763 123.228Z" fill="#0C0C0C"/>
<path d="M160.745 124.834C161.393 124.834 161.918 124.308 161.918 123.66C161.918 123.013 161.393 122.487 160.745 122.487C160.097 122.487 159.572 123.013 159.572 123.66C159.572 124.308 160.097 124.834 160.745 124.834Z" fill="#0C0C0C"/>
<path d="M167.339 132.263L167.358 132.26C167.737 132.186 168.111 132.091 168.48 131.975C169.03 131.798 169.751 131.505 169.657 131.008C169.55 130.441 166.842 124.624 166.534 123.963C166.521 123.934 166.502 123.909 166.479 123.887C166.455 123.865 166.428 123.849 166.398 123.838C166.369 123.827 166.337 123.822 166.305 123.823C166.273 123.824 166.242 123.832 166.214 123.845C166.185 123.858 166.159 123.877 166.138 123.901C166.116 123.924 166.1 123.952 166.089 123.982C166.078 124.011 166.073 124.043 166.075 124.075C166.077 124.106 166.084 124.137 166.098 124.166C167.253 126.644 169.112 130.716 169.184 131.097C169.123 131.274 168.209 131.61 167.268 131.788C167.206 131.798 167.151 131.833 167.115 131.884C167.078 131.935 167.063 131.998 167.072 132.06C167.081 132.122 167.114 132.178 167.164 132.216C167.214 132.254 167.277 132.271 167.339 132.263Z" fill="#0C0C0C"/>
<path d="M165.954 136.552C167.481 136.354 168.939 135.8 170.212 134.934C170.266 134.899 170.303 134.845 170.316 134.782C170.329 134.72 170.317 134.655 170.282 134.602C170.248 134.548 170.193 134.511 170.131 134.498C170.068 134.485 170.003 134.497 169.95 134.532C167.195 136.326 164.458 136.617 162.034 135.37C161.985 135.344 161.934 135.32 161.883 135.298C161.823 135.277 161.757 135.28 161.699 135.307C161.641 135.334 161.597 135.383 161.575 135.443C161.553 135.503 161.556 135.569 161.584 135.627C161.611 135.684 161.66 135.729 161.72 135.751C161.738 135.759 161.769 135.775 161.814 135.8C163.088 136.457 164.53 136.719 165.954 136.552Z" fill="#0C0C0C"/>
<path d="M136.259 127.804L144.649 126.266C151.002 123.695 152.923 112.697 152.923 112.697C152.923 112.697 160.641 120.219 179.343 115.94C179.343 115.94 175.593 89.8587 147.963 97.4402C139.054 99.8857 132.66 108.863 133.457 120.862C134.016 129.273 136.259 127.804 136.259 127.804Z" fill="#0A0A0A"/>
<path d="M146.598 136.565C143.755 137.103 140.873 134.497 140.333 131.653C139.793 128.809 141.805 126.805 144.649 126.266L146.473 127.894L149.041 136.102L146.598 136.565Z" fill="#E98862"/>
<path d="M168.248 119.208C169.078 118.672 170.036 118.369 171.023 118.332C171.509 118.31 171.995 118.361 172.465 118.484C172.931 118.604 173.38 118.781 173.802 119.013C173.861 119.043 173.907 119.094 173.928 119.157C173.95 119.219 173.946 119.288 173.917 119.348C173.888 119.407 173.837 119.453 173.775 119.475C173.712 119.497 173.644 119.494 173.584 119.466L173.566 119.457C173.176 119.266 172.764 119.124 172.339 119.036C171.919 118.945 171.488 118.919 171.06 118.959C170.212 119.03 169.397 119.324 168.699 119.812L168.677 119.828C168.637 119.857 168.591 119.878 168.543 119.89C168.495 119.902 168.445 119.904 168.396 119.896C168.347 119.888 168.3 119.871 168.257 119.845C168.215 119.819 168.178 119.785 168.149 119.745C168.12 119.705 168.099 119.659 168.088 119.611C168.076 119.563 168.074 119.513 168.082 119.464C168.089 119.415 168.107 119.368 168.133 119.326C168.159 119.283 168.193 119.247 168.233 119.218L168.248 119.208Z" fill="#0C0C0C"/>
<path d="M160.767 120.969C159.94 120.766 159.074 120.786 158.257 121.027C157.844 121.145 157.451 121.325 157.092 121.56C156.728 121.797 156.395 122.079 156.101 122.399L156.087 122.412C156.041 122.458 155.979 122.485 155.914 122.486C155.849 122.487 155.786 122.463 155.738 122.418C155.691 122.374 155.662 122.313 155.659 122.248C155.655 122.182 155.677 122.119 155.72 122.07C156.029 121.701 156.384 121.373 156.775 121.093C157.17 120.808 157.604 120.585 158.065 120.43C158.999 120.109 160.002 120.045 160.969 120.244C161.067 120.265 161.153 120.324 161.208 120.409C161.262 120.493 161.281 120.596 161.26 120.694C161.239 120.792 161.18 120.878 161.095 120.932C161.011 120.987 160.909 121.005 160.81 120.984L160.795 120.98L160.767 120.969Z" fill="#0C0C0C"/>
<path d="M166.279 138.809C166.556 138.777 166.829 138.722 167.096 138.645C167.157 138.627 167.209 138.586 167.24 138.53C167.271 138.474 167.278 138.408 167.261 138.347C167.243 138.286 167.202 138.234 167.146 138.203C167.09 138.172 167.025 138.165 166.963 138.182C165.355 138.646 164.44 138.034 164.402 138.006C164.35 137.969 164.285 137.955 164.222 137.966C164.159 137.977 164.103 138.013 164.067 138.065C164.03 138.117 164.016 138.182 164.027 138.245C164.038 138.308 164.073 138.364 164.126 138.4C164.775 138.781 165.536 138.926 166.279 138.809Z" fill="#0C0C0C"/>
<path d="M144.668 126.16L144.585 125.927C155.214 122.112 152.614 111.681 152.587 111.576L152.825 111.514C152.853 111.621 155.512 122.267 144.668 126.16Z" fill="#0C0C0C"/>
<path d="M159.759 132.954C160.986 132.822 161.902 131.986 161.805 131.086C161.708 130.186 160.635 129.563 159.408 129.695C158.181 129.827 157.265 130.664 157.362 131.564C157.459 132.464 158.532 133.086 159.759 132.954Z" fill="#0C0C0C"/>
<path d="M172.787 129.55C172.886 130.449 173.959 131.07 175.187 130.94C175.399 130.917 175.608 130.872 175.811 130.806C175.88 129.736 175.895 128.707 175.875 127.754C175.536 127.665 175.183 127.64 174.835 127.681C173.607 127.81 172.692 128.647 172.787 129.55Z" fill="#0C0C0C"/>
<path d="M196.521 189.81C195.961 196.387 193.238 237.422 192.699 245.523H121.475C121.056 238.216 116.215 206.265 114.626 191.977C113.108 178.342 110.132 171.516 112.314 167.485C115.879 160.897 125.62 157.09 132.262 156.19C136.318 155.642 142.419 155.248 142.419 155.248C142.419 155.248 142.935 165.697 155.252 166.279C172.018 167.068 170.899 155.248 170.981 155.248C173.698 155.248 189.214 156.967 193.01 159.218C203.353 165.343 197.709 175.874 196.521 189.81Z" fill="#EEB035"/>
<path d="M242.752 194.405L235.886 227.773C235.747 228.451 235.381 229.06 234.847 229.5C234.313 229.94 233.645 230.184 232.953 230.19L185.679 230.593C185.228 230.597 184.781 230.5 184.373 230.309C183.964 230.118 183.604 229.838 183.317 229.49C183.031 229.141 182.826 228.733 182.717 228.295C182.609 227.858 182.6 227.401 182.691 226.96L189.556 193.59C189.696 192.913 190.063 192.304 190.598 191.864C191.132 191.425 191.801 191.182 192.492 191.176L239.767 190.773C240.217 190.77 240.663 190.867 241.071 191.058C241.479 191.249 241.839 191.529 242.126 191.877C242.412 192.225 242.616 192.633 242.725 193.07C242.833 193.507 242.842 193.963 242.752 194.405Z" fill="#292A2E"/>
<path d="M198.67 218.107C198.695 218.546 198.56 218.98 198.291 219.328C198.022 219.676 197.636 219.915 197.204 220.001L195.749 220.322C195.775 220.331 195.799 220.346 195.817 220.365C195.836 220.385 195.85 220.409 195.858 220.436C195.861 220.467 195.854 220.498 195.838 220.524C196.188 220.623 196.498 220.828 196.726 221.11C196.954 221.393 197.089 221.74 197.111 222.103C197.113 222.526 196.972 222.937 196.712 223.27C196.451 223.603 196.086 223.838 195.675 223.938L183.386 226.666C182.758 226.808 182.116 226.879 181.472 226.879C180.038 226.878 178.625 226.529 177.355 225.862C176.086 225.194 174.998 224.227 174.185 223.045C173.324 221.795 172.984 220.258 173.238 218.76C173.492 217.263 174.321 215.924 175.547 215.029L186.001 207.387C186.231 207.218 186.498 207.108 186.78 207.066L185.818 211.738L186.075 211.679L186.129 211.669L194.146 210.036C195.039 209.839 196.262 210.164 196.42 211.181C196.505 211.57 196.455 211.976 196.28 212.333C196.104 212.691 195.813 212.978 195.453 213.149C195.458 213.154 195.468 213.159 195.468 213.169C195.468 213.179 195.463 213.184 195.463 213.193L196.849 212.888C197.103 212.831 197.366 212.832 197.619 212.89C197.872 212.947 198.11 213.06 198.314 213.221C198.518 213.381 198.685 213.585 198.801 213.817C198.917 214.05 198.98 214.305 198.985 214.565C198.985 214.98 198.842 215.381 198.579 215.702C198.317 216.023 197.951 216.244 197.545 216.326L196.948 216.459C196.943 216.479 196.948 216.499 196.938 216.514C197.373 216.517 197.791 216.682 198.111 216.976C198.431 217.271 198.63 217.674 198.67 218.107Z" fill="#E98862"/>
<path d="M187.483 214.813C187.492 214.854 187.518 214.89 187.553 214.913C187.589 214.936 187.632 214.944 187.673 214.935L195.344 213.362C195.364 213.358 195.384 213.349 195.402 213.337C195.419 213.326 195.435 213.31 195.446 213.293C195.458 213.275 195.466 213.255 195.47 213.234C195.474 213.213 195.474 213.192 195.47 213.171C195.465 213.15 195.457 213.13 195.445 213.113C195.433 213.095 195.418 213.08 195.4 213.068C195.382 213.057 195.363 213.048 195.342 213.044C195.321 213.04 195.299 213.041 195.279 213.045L187.608 214.618C187.566 214.626 187.529 214.651 187.505 214.687C187.482 214.723 187.473 214.767 187.482 214.809L187.483 214.813Z" fill="#0C0C0C"/>
<path d="M188.083 218.215C188.093 218.256 188.118 218.292 188.154 218.315C188.189 218.338 188.232 218.346 188.274 218.337L196.834 216.582C196.876 216.573 196.913 216.548 196.937 216.512C196.96 216.477 196.969 216.433 196.96 216.391C196.95 216.349 196.925 216.313 196.889 216.29C196.854 216.266 196.811 216.257 196.769 216.264L188.207 218.02C188.187 218.024 188.167 218.033 188.149 218.045C188.132 218.056 188.117 218.072 188.105 218.089C188.093 218.107 188.085 218.127 188.081 218.148C188.077 218.169 188.077 218.19 188.081 218.211L188.083 218.215Z" fill="#0C0C0C"/>
<path d="M188.712 221.902C188.722 221.943 188.747 221.979 188.782 222.002C188.818 222.025 188.861 222.033 188.902 222.025L195.731 220.624C195.751 220.62 195.771 220.611 195.789 220.6C195.806 220.588 195.822 220.572 195.833 220.555C195.845 220.537 195.853 220.517 195.857 220.496C195.861 220.475 195.861 220.454 195.857 220.433C195.852 220.412 195.844 220.392 195.832 220.375C195.82 220.357 195.805 220.342 195.787 220.33C195.769 220.319 195.75 220.31 195.729 220.306C195.708 220.302 195.686 220.303 195.666 220.307L188.837 221.707C188.795 221.716 188.758 221.741 188.735 221.777C188.711 221.812 188.702 221.856 188.711 221.898L188.712 221.902Z" fill="#0C0C0C"/>
<path d="M182.625 231.529L115.954 243.577C113.873 243.803 111.769 243.544 109.806 242.821C107.842 242.097 106.073 240.928 104.637 239.406C103.202 237.883 102.138 236.049 101.53 234.047C100.922 232.045 100.787 229.929 101.134 227.865L110.465 172.386C110.759 170.631 111.395 168.951 112.339 167.442C113.282 165.933 114.514 164.625 115.963 163.592C117.413 162.56 119.051 161.823 120.785 161.424C122.52 161.024 124.315 160.971 126.07 161.266C127.825 161.561 129.505 162.2 131.013 163.144C132.521 164.089 133.828 165.321 134.86 166.772C135.892 168.222 136.627 169.861 137.025 171.595C137.423 173.33 137.475 175.126 137.178 176.88L130.814 215.072L179.694 208.933L182.625 231.529Z" fill="#EEB035"/>
<path d="M115.953 243.824C115.892 243.824 115.832 243.801 115.787 243.759C115.742 243.718 115.713 243.661 115.708 243.599C115.703 243.538 115.72 243.477 115.758 243.428C115.795 243.379 115.849 243.346 115.91 243.335L182.351 231.328L179.481 209.209L130.845 215.317C130.807 215.322 130.768 215.318 130.732 215.305C130.695 215.292 130.663 215.271 130.636 215.243C130.61 215.216 130.59 215.182 130.578 215.145C130.567 215.109 130.564 215.07 130.571 215.032L134.616 190.622C134.621 190.59 134.632 190.56 134.649 190.532C134.666 190.504 134.689 190.48 134.715 190.461C134.742 190.442 134.771 190.429 134.803 190.422C134.835 190.415 134.868 190.414 134.9 190.42C134.932 190.425 134.962 190.436 134.99 190.454C135.017 190.471 135.041 190.493 135.06 190.519C135.079 190.546 135.092 190.576 135.1 190.607C135.107 190.639 135.108 190.671 135.103 190.703L131.111 214.786L179.663 208.688C179.728 208.68 179.793 208.698 179.845 208.738C179.896 208.778 179.93 208.837 179.938 208.902L182.87 231.496C182.878 231.559 182.861 231.622 182.824 231.674C182.787 231.725 182.731 231.759 182.669 231.771L115.998 243.82C115.983 243.823 115.968 243.824 115.953 243.824Z" fill="#0C0C0C"/>
<path d="M130.776 214.829L126.488 215.516L126.566 216.003L130.854 215.317L130.776 214.829Z" fill="#0C0C0C"/>
<path d="M463.18 272.939H317.274C311.214 272.939 306.301 277.852 306.301 283.913V333.87C306.301 339.931 311.214 344.844 317.274 344.844H463.18C469.241 344.844 474.154 339.931 474.154 333.87V283.913C474.154 277.852 469.241 272.939 463.18 272.939Z" fill="white"/>
<path d="M463.18 272.939H317.274C311.214 272.939 306.301 277.852 306.301 283.913V333.87C306.301 339.931 311.214 344.844 317.274 344.844H463.18C469.241 344.844 474.154 339.931 474.154 333.87V283.913C474.154 277.852 469.241 272.939 463.18 272.939Z" fill="#EEB035"/>
<path d="M463.18 345.335H317.274C314.234 345.331 311.319 344.122 309.17 341.972C307.02 339.822 305.811 336.908 305.807 333.868V283.914C305.811 280.874 307.02 277.96 309.17 275.81C311.319 273.66 314.234 272.451 317.274 272.447H463.18C466.22 272.451 469.135 273.66 471.285 275.81C473.434 277.96 474.644 280.874 474.647 283.914V333.87C474.643 336.909 473.434 339.824 471.284 341.973C469.134 344.122 466.22 345.331 463.18 345.335ZM317.274 273.432C314.495 273.435 311.831 274.541 309.866 276.506C307.901 278.471 306.796 281.135 306.794 283.914V333.87C306.797 336.648 307.903 339.311 309.868 341.276C311.832 343.24 314.496 344.345 317.274 344.348H463.18C465.959 344.345 468.623 343.24 470.587 341.275C472.552 339.31 473.657 336.646 473.66 333.868V283.914C473.657 281.136 472.552 278.472 470.587 276.507C468.623 274.542 465.959 273.437 463.18 273.434L317.274 273.432Z" fill="#292A2E"/>
<path d="M321.352 329.523C321.219 329.523 321.089 329.487 320.975 329.419C320.86 329.351 320.766 329.254 320.703 329.137C320.639 329.021 320.608 328.889 320.613 328.756C320.617 328.624 320.658 328.494 320.73 328.383C320.89 328.136 337.015 303.48 362.641 303.48C376.031 303.48 384.144 308.646 391.99 313.642C399.253 318.268 406.113 322.637 416.728 322.637C438.431 322.637 455.915 291.117 456.089 290.799C456.183 290.627 456.342 290.499 456.53 290.444C456.719 290.388 456.921 290.41 457.093 290.504C457.266 290.599 457.393 290.757 457.449 290.946C457.504 291.134 457.482 291.337 457.388 291.509C456.66 292.841 439.301 324.118 416.728 324.118C405.682 324.118 398.645 319.637 391.195 314.893C383.528 310.009 375.6 304.961 362.641 304.961C337.834 304.961 322.131 328.941 321.975 329.183C321.908 329.288 321.816 329.373 321.707 329.433C321.598 329.492 321.476 329.523 321.352 329.523Z" fill="white"/>
<path d="M456.946 294.051C458.545 294.051 459.842 292.754 459.842 291.155C459.842 289.556 458.545 288.259 456.946 288.259C455.346 288.259 454.05 289.556 454.05 291.155C454.05 292.754 455.346 294.051 456.946 294.051Z" fill="white"/>
</svg>
