<svg width="644" height="476" viewBox="0 0 644 476" fill="none" xmlns="http://www.w3.org/2000/svg">
<g clip-path="url(#clip0_69_1344)">
<path d="M16.9988 361.902C-20.1869 286.529 2.94374 201.01 93.213 170.971C162.574 147.89 268.949 145.956 313.213 75.053C384.965 -39.8816 564.177 -27.0297 628.544 142.919C687.114 297.558 565.471 543.288 400.957 458.762C263.865 388.327 241.808 466.629 152.681 460.934C83.9474 456.542 29.5433 387.329 16.9988 361.902Z" fill="#F3F5FD"/>
<path d="M16.9988 361.902C-20.1869 286.529 2.94374 201.01 93.213 170.971C162.574 147.89 268.949 145.956 313.213 75.053C384.965 -39.8816 564.177 -27.0297 628.544 142.919C687.114 297.558 565.471 543.288 400.957 458.762C263.865 388.327 241.808 466.629 152.681 460.934C83.9474 456.542 29.5433 387.329 16.9988 361.902Z" fill="#171DCE"/>
<g opacity="0.75">
<path d="M16.9988 361.902C-20.1869 286.529 2.94374 201.01 93.213 170.971C162.574 147.89 268.949 145.956 313.213 75.053C384.965 -39.8816 564.177 -27.0297 628.544 142.919C687.114 297.558 565.471 543.288 400.957 458.762C263.865 388.327 241.808 466.629 152.681 460.934C83.9474 456.542 29.5433 387.329 16.9988 361.902Z" fill="#292A2E"/>
</g>
<g opacity="0.18">
<path d="M213.045 174.615C214.518 174.615 215.713 173.421 215.713 171.947C215.713 170.474 214.518 169.279 213.045 169.279C211.571 169.279 210.377 170.474 210.377 171.947C210.377 173.421 211.571 174.615 213.045 174.615Z" fill="white"/>
<path d="M238.022 226.21C240.7 226.21 242.872 224.039 242.872 221.36C242.872 218.682 240.7 216.51 238.022 216.51C235.343 216.51 233.171 218.682 233.171 221.36C233.171 224.039 235.343 226.21 238.022 226.21Z" fill="white"/>
<path d="M391.357 90.9561C394.036 90.9561 396.207 88.7846 396.207 86.1059C396.207 83.4272 394.036 81.2557 391.357 81.2557C388.678 81.2557 386.507 83.4272 386.507 86.1059C386.507 88.7846 388.678 90.9561 391.357 90.9561Z" fill="white"/>
<path d="M237.612 361.167C238.999 361.167 240.124 360.042 240.124 358.655C240.124 357.268 238.999 356.144 237.612 356.144C236.225 356.144 235.101 357.268 235.101 358.655C235.101 360.042 236.225 361.167 237.612 361.167Z" fill="white"/>
<path d="M458.992 304.106C462.896 304.106 466.06 300.942 466.06 297.039C466.06 293.135 462.896 289.971 458.992 289.971C455.089 289.971 451.925 293.135 451.925 297.039C451.925 300.942 455.089 304.106 458.992 304.106Z" fill="white"/>
<path d="M209.109 425.193C211.283 425.193 213.045 423.431 213.045 421.257C213.045 419.083 211.283 417.321 209.109 417.321C206.936 417.321 205.174 419.083 205.174 421.257C205.174 423.431 206.936 425.193 209.109 425.193Z" fill="white"/>
<path d="M511.595 65.8709C515.473 65.8709 518.616 62.7277 518.616 58.8503C518.616 54.9728 515.473 51.8296 511.595 51.8296C507.718 51.8296 504.575 54.9728 504.575 58.8503C504.575 62.7277 507.718 65.8709 511.595 65.8709Z" fill="white"/>
<path d="M466.106 189.916C468.07 189.916 469.662 188.324 469.662 186.359C469.662 184.395 468.07 182.803 466.106 182.803C464.142 182.803 462.549 184.395 462.549 186.359C462.549 188.324 464.142 189.916 466.106 189.916Z" fill="white"/>
<path d="M36.0022 268.152C37.9663 268.152 39.5585 266.56 39.5585 264.596C39.5585 262.632 37.9663 261.04 36.0022 261.04C34.038 261.04 32.4458 262.632 32.4458 264.596C32.4458 266.56 34.038 268.152 36.0022 268.152Z" fill="white"/>
<path d="M341.298 270.024C343.879 270.024 345.971 267.932 345.971 265.351C345.971 262.77 343.879 260.677 341.298 260.677C338.717 260.677 336.625 262.77 336.625 265.351C336.625 267.932 338.717 270.024 341.298 270.024Z" fill="white"/>
<path d="M292.891 401.566C294.83 401.566 296.401 399.994 296.401 398.056C296.401 396.117 294.83 394.546 292.891 394.546C290.953 394.546 289.381 396.117 289.381 398.056C289.381 399.994 290.953 401.566 292.891 401.566Z" fill="white"/>
<path d="M535.476 215.848C539.554 215.848 542.86 212.542 542.86 208.464C542.86 204.386 539.554 201.08 535.476 201.08C531.399 201.08 528.093 204.386 528.093 208.464C528.093 212.542 531.399 215.848 535.476 215.848Z" fill="white"/>
<path d="M575.004 116.092C577.403 116.092 579.348 114.147 579.348 111.748C579.348 109.349 577.403 107.405 575.004 107.405C572.605 107.405 570.661 109.349 570.661 111.748C570.661 114.147 572.605 116.092 575.004 116.092Z" fill="white"/>
<path d="M331.902 361.774C334.51 361.774 336.624 359.66 336.624 357.053C336.624 354.445 334.51 352.331 331.902 352.331C329.295 352.331 327.181 354.445 327.181 357.053C327.181 359.66 329.295 361.774 331.902 361.774Z" fill="white"/>
<path d="M483.278 434.888C486.359 434.888 488.856 432.391 488.856 429.31C488.856 426.23 486.359 423.732 483.278 423.732C480.198 423.732 477.7 426.23 477.7 429.31C477.7 432.391 480.198 434.888 483.278 434.888Z" fill="white"/>
<path d="M597.867 295.316C601.745 295.316 604.888 292.173 604.888 288.295C604.888 284.418 601.745 281.275 597.867 281.275C593.99 281.275 590.847 284.418 590.847 288.295C590.847 292.173 593.99 295.316 597.867 295.316Z" fill="white"/>
<path d="M587.199 194.837C589.597 194.837 591.542 192.892 591.542 190.494C591.542 188.095 589.597 186.15 587.199 186.15C584.8 186.15 582.855 188.095 582.855 190.494C582.855 192.892 584.8 194.837 587.199 194.837Z" fill="white"/>
<path d="M421.652 418.077C423.691 418.077 425.344 416.425 425.344 414.386C425.344 412.347 423.691 410.694 421.652 410.694C419.614 410.694 417.961 412.347 417.961 414.386C417.961 416.425 419.614 418.077 421.652 418.077Z" fill="white"/>
</g>
<path d="M478.528 146.659C487.976 149.908 497.614 152.58 507.387 154.661C502.965 159.014 497.419 162.052 491.37 163.435C485.321 164.818 479.006 164.491 473.132 162.491C467.258 160.491 462.056 156.896 458.107 152.109C454.159 147.322 451.62 141.532 450.773 135.384C459.788 139.701 469.056 143.467 478.528 146.659V146.659Z" fill="#0CBC8B"/>
<path d="M515.575 141.613C514.321 145.31 512.426 148.757 509.977 151.797C499.674 149.731 489.522 146.969 479.593 143.528C469.625 140.194 459.895 136.187 450.469 131.536C450.384 127.633 450.986 123.745 452.25 120.051C453.045 117.714 454.096 115.472 455.383 113.365C456.012 112.333 456.698 111.337 457.438 110.381C461.705 104.862 467.589 100.815 474.269 98.8059C480.949 96.7964 488.09 96.9248 494.693 99.1732C501.296 101.422 507.032 105.678 511.097 111.346C515.163 117.014 517.355 123.811 517.368 130.787C517.37 131.996 517.304 133.204 517.172 134.405C516.906 136.859 516.371 139.277 515.575 141.613V141.613Z" fill="#0CBC8B"/>
<path d="M541.319 152.457C539.257 158.511 525.084 158.321 507.387 154.661C508.307 153.76 509.172 152.803 509.977 151.798C526.759 155.042 537.172 154.38 538.19 151.391C539.184 148.473 531.731 141.85 517.171 134.406C517.303 133.204 517.369 131.996 517.366 130.787C532.772 138.46 543.314 146.597 541.319 152.457Z" fill="white"/>
<path d="M509.977 151.798C509.172 152.803 508.307 153.76 507.387 154.661C497.614 152.58 487.976 149.908 478.528 146.659C469.057 143.467 459.788 139.703 450.773 135.387C450.595 134.112 450.493 132.826 450.469 131.539C459.895 136.191 469.625 140.198 479.593 143.532C489.522 146.972 499.674 149.733 509.977 151.798V151.798Z" fill="white"/>
<path d="M450.774 135.387C434.519 127.488 423.176 118.989 425.237 112.935C427.232 107.075 440.558 107.064 457.436 110.384C456.696 111.34 456.01 112.336 455.382 113.369C439.305 110.383 429.36 111.084 428.366 114C427.349 116.988 435.202 123.87 450.469 131.539C450.493 132.826 450.595 134.112 450.774 135.387V135.387Z" fill="white"/>
<path d="M341.298 204.656C357.889 204.656 371.338 191.206 371.338 174.615C371.338 158.024 357.889 144.575 341.298 144.575C324.707 144.575 311.257 158.024 311.257 174.615C311.257 191.206 324.707 204.656 341.298 204.656Z" fill="#171DCE"/>
<g opacity="0.79">
<path d="M341.298 204.656C357.889 204.656 371.338 191.206 371.338 174.615C371.338 158.024 357.889 144.575 341.298 144.575C324.707 144.575 311.257 158.024 311.257 174.615C311.257 191.206 324.707 204.656 341.298 204.656Z" fill="white"/>
</g>
<g opacity="0.18">
<path d="M357.623 168.582C361.089 168.582 363.898 165.772 363.898 162.307C363.898 158.842 361.089 156.033 357.623 156.033C354.158 156.033 351.349 158.842 351.349 162.307C351.349 165.772 354.158 168.582 357.623 168.582Z" fill="#171DCE"/>
</g>
<g opacity="0.18">
<path d="M352.728 146.83C352.693 147.465 352.518 148.083 352.215 148.642C351.913 149.2 351.49 149.685 350.978 150.061C350.466 150.436 349.877 150.694 349.254 150.815C348.63 150.936 347.987 150.918 347.372 150.761C346.756 150.604 346.183 150.313 345.693 149.908C345.204 149.504 344.81 148.995 344.54 148.42C344.27 147.845 344.131 147.218 344.132 146.583C344.134 145.947 344.276 145.32 344.549 144.747C347.361 145.048 350.115 145.75 352.728 146.83V146.83Z" fill="#171DCE"/>
</g>
<g opacity="0.18">
<path d="M330.78 181.932C338.152 181.932 344.129 175.956 344.129 168.583C344.129 161.21 338.152 155.234 330.78 155.234C323.407 155.234 317.43 161.21 317.43 168.583C317.43 175.956 323.407 181.932 330.78 181.932Z" fill="#171DCE"/>
</g>
<path opacity="0.18" d="M363.456 194.898C360.516 198.126 356.901 200.667 352.868 202.34C352.288 201.651 351.858 200.849 351.605 199.984C351.351 199.12 351.28 198.213 351.396 197.32C351.512 196.427 351.813 195.568 352.279 194.797C352.745 194.026 353.366 193.361 354.102 192.843C354.839 192.325 355.676 191.966 356.559 191.789C357.442 191.611 358.352 191.62 359.231 191.813C360.111 192.006 360.941 192.38 361.668 192.911C362.395 193.442 363.004 194.119 363.456 194.898Z" fill="#171DCE"/>
<path d="M571.041 324.879C571.572 326.747 571.918 328.663 572.074 330.599C572.604 337.346 570.783 344.068 566.919 349.625C563.055 355.181 557.387 359.229 550.878 361.081C544.368 362.933 537.418 362.474 531.208 359.784C524.998 357.093 519.911 352.336 516.811 346.32C514.843 342.485 513.738 338.267 513.573 333.96C513.339 327.41 515.307 320.97 519.163 315.669C523.019 310.369 528.54 306.514 534.845 304.721C541.149 302.927 547.873 303.299 553.941 305.776C560.01 308.253 565.073 312.693 568.321 318.386C569.485 320.434 570.398 322.614 571.041 324.879V324.879Z" fill="#171DCE"/>
<g opacity="0.64">
<path d="M571.041 324.879C571.572 326.747 571.918 328.663 572.074 330.599C572.604 337.346 570.783 344.068 566.919 349.625C563.055 355.181 557.387 359.229 550.878 361.081C544.368 362.933 537.418 362.474 531.208 359.784C524.998 357.093 519.911 352.336 516.811 346.32C514.843 342.485 513.738 338.267 513.573 333.96C513.339 327.41 515.307 320.97 519.163 315.669C523.019 310.369 528.54 306.514 534.845 304.721C541.149 302.927 547.873 303.299 553.941 305.776C560.01 308.253 565.073 312.693 568.321 318.386C569.485 320.434 570.398 322.614 571.041 324.879V324.879Z" fill="white"/>
</g>
<g opacity="0.28">
<path d="M568.321 318.386L513.573 333.963C513.417 329.788 514.163 325.629 515.76 321.769L560.043 309.17C563.432 311.611 566.256 314.755 568.321 318.386V318.386Z" fill="white"/>
</g>
<g opacity="0.28">
<path d="M572.074 330.599C572.397 334.671 571.862 338.766 570.504 342.619L524.473 355.713C521.29 353.153 518.68 349.952 516.811 346.32L572.074 330.599Z" fill="white"/>
</g>
<path d="M203.479 231.826C203.288 231.802 201.168 266.975 160.307 263.908C132.019 261.789 121.932 231.777 121.284 231.777C124.335 231.128 128.104 230.145 129.601 229.807C134.578 228.686 140.791 224.579 142.226 215.928C143.054 210.943 141.65 185.436 142.082 180.392L185.504 190.084C184.897 200.738 180.651 225.436 195.534 229.807C198.011 230.53 200.678 231.194 203.479 231.826Z" fill="#E98862"/>
<path opacity="0.52" d="M186.113 219.713C185.433 217.521 184.995 215.261 184.807 212.974C184.33 207.754 184.425 202.498 185.091 197.299C176.266 196.108 167.951 192.465 161.092 186.785C160.286 189.763 155.852 202.774 157.08 205.604C159.4 210.954 170.305 219.713 186.113 219.713Z" fill="#0C0C0C"/>
<path d="M199.695 142.015C199.695 142.015 209.674 130.123 207.839 108.455C206.418 91.678 193.856 105.648 193.856 105.648C193.856 105.648 192.715 93.5776 184.455 96.7044C176.196 99.8313 174.241 113.234 174.241 113.234" fill="#0C0C0C"/>
<path d="M140.657 108.222C140.657 108.222 99.3593 122.503 127.866 176.358L131.671 175.747L139.393 174.506" fill="#0C0C0C"/>
<path d="M180.347 207.803C163.31 210.147 140.901 204.196 135.399 181.601L130.434 161.214C124.933 138.618 132.34 117.412 153.615 112.231C174.889 107.051 195.25 121.496 200.752 144.091L202.95 153.117C203.651 156.229 204.138 159.386 204.41 162.564C205.189 170.96 206.341 183.731 202.74 193.379C199.341 202.486 191.233 206.306 180.347 207.803Z" fill="#E98862"/>
<path opacity="0.52" d="M183.327 185.308C186.808 184.671 190.091 183.225 192.911 181.087C193.029 181 193.108 180.87 193.131 180.725C193.153 180.58 193.117 180.433 193.031 180.314C192.944 180.196 192.814 180.116 192.669 180.094C192.524 180.071 192.376 180.107 192.258 180.194C186.146 184.643 179.896 185.635 174.184 183.066C174.068 183.011 173.949 182.962 173.828 182.919C173.688 182.879 173.539 182.896 173.412 182.965C173.285 183.035 173.19 183.152 173.148 183.29C173.106 183.429 173.12 183.579 173.187 183.707C173.254 183.836 173.369 183.932 173.507 183.977C173.552 183.993 173.626 184.027 173.73 184.074C176.735 185.432 180.076 185.861 183.327 185.308V185.308Z" fill="#0C0C0C"/>
<path opacity="0.52" d="M184.341 190.45C184.973 190.345 185.594 190.187 186.198 189.976C186.33 189.923 186.437 189.822 186.496 189.693C186.556 189.564 186.563 189.416 186.517 189.282C186.47 189.147 186.374 189.036 186.248 188.971C186.121 188.905 185.975 188.891 185.838 188.931C182.2 190.186 180.028 188.887 179.936 188.831C179.812 188.759 179.665 188.738 179.526 188.772C179.387 188.806 179.266 188.894 179.19 189.015C179.114 189.136 179.088 189.283 179.117 189.423C179.147 189.563 179.23 189.687 179.349 189.767C180.884 190.565 182.648 190.806 184.341 190.45V190.45Z" fill="#0C0C0C"/>
<path d="M197.126 155.414C198.616 155.414 199.823 154.206 199.823 152.717C199.823 151.228 198.616 150.02 197.126 150.02C195.637 150.02 194.43 151.228 194.43 152.717C194.43 154.206 195.637 155.414 197.126 155.414Z" fill="#0C0C0C"/>
<path d="M171.489 161.461C172.978 161.461 174.186 160.254 174.186 158.764C174.186 157.275 172.978 156.068 171.489 156.068C170 156.068 168.792 157.275 168.792 158.764C168.792 160.254 170 161.461 171.489 161.461Z" fill="#0C0C0C"/>
<path d="M138.396 188.163C131.934 189.737 125.006 184.097 123.431 177.632C121.857 171.167 126.23 166.325 132.695 164.75L137.083 168.271L143.956 186.81L138.396 188.163Z" fill="#E98862"/>
<path d="M142.45 176.26C142.45 176.26 137.263 143.69 146.53 139.473C152.702 136.666 170.519 142.237 184.427 136.116C190.511 133.44 196.915 133.624 198.221 136.488C198.738 137.623 198.768 119.607 185.818 108.919C175.504 100.41 148.87 103.465 137.838 109.572C107.288 126.479 131.686 166.47 131.686 166.47L135.689 177.19L142.45 176.26Z" fill="#0C0C0C"/>
<g opacity="0.52">
<path d="M185.506 176.839L185.548 176.83C187.633 176.329 191.073 175.254 190.7 173.697C190.388 172.405 183.493 159.308 182.707 157.819C182.638 157.694 182.522 157.602 182.385 157.562C182.249 157.522 182.102 157.536 181.976 157.603C181.85 157.669 181.755 157.782 181.711 157.918C181.667 158.053 181.678 158.201 181.741 158.328C184.8 164.128 189.426 173.075 189.64 173.953C189.524 174.37 187.454 175.251 185.295 175.771C185.158 175.804 185.04 175.889 184.965 176.008C184.889 176.127 184.863 176.27 184.89 176.408C184.918 176.546 184.997 176.668 185.112 176.749C185.228 176.829 185.369 176.862 185.508 176.841L185.506 176.839Z" fill="#0C0C0C"/>
</g>
<path d="M188.683 148.109C190.164 146.973 191.919 146.247 193.769 146.005C194.711 145.873 195.666 145.886 196.604 146.041C197.559 146.195 198.492 146.468 199.379 146.854L199.449 146.882C199.675 146.973 199.929 146.973 200.155 146.881C200.382 146.79 200.564 146.614 200.663 146.39C200.763 146.167 200.772 145.914 200.688 145.684C200.605 145.454 200.436 145.266 200.216 145.159C199.205 144.624 198.13 144.219 197.018 143.954C195.886 143.68 194.72 143.578 193.558 143.651C192.392 143.711 191.241 143.93 190.135 144.303C188.993 144.676 187.91 145.209 186.92 145.888C186.609 146.101 186.396 146.429 186.327 146.799C186.258 147.169 186.339 147.552 186.552 147.862C186.766 148.173 187.093 148.386 187.464 148.455C187.834 148.523 188.216 148.442 188.527 148.229C188.556 148.209 188.585 148.187 188.613 148.164L188.683 148.109Z" fill="#0C0C0C"/>
<path d="M172.692 149.086C171.51 148.873 170.304 148.83 169.11 148.958C167.948 149.071 166.807 149.342 165.719 149.765C164.631 150.175 163.61 150.746 162.691 151.459C161.784 152.157 160.969 152.967 160.265 153.869C160.109 154.057 160.032 154.298 160.05 154.541C160.068 154.785 160.179 155.012 160.361 155.175C160.542 155.338 160.78 155.424 161.024 155.416C161.268 155.407 161.499 155.305 161.669 155.13L161.724 155.073C162.375 154.357 163.113 153.726 163.921 153.194C164.713 152.668 165.58 152.265 166.492 151.998C168.279 151.461 170.177 151.404 171.993 151.833L172.077 151.855C172.442 151.951 172.829 151.898 173.154 151.709C173.479 151.519 173.716 151.208 173.812 150.844C173.908 150.479 173.855 150.092 173.665 149.767C173.475 149.441 173.164 149.205 172.8 149.109C172.765 149.1 172.726 149.095 172.692 149.086Z" fill="#0C0C0C"/>
<path d="M177.244 122.602C181.812 120.495 183.002 113.335 179.901 106.61C176.799 99.8854 170.582 96.1419 166.013 98.2489C161.444 100.356 160.255 107.515 163.356 114.24C166.457 120.965 172.675 124.708 177.244 122.602Z" fill="#0C0C0C"/>
<path d="M242.774 237.797C234.047 232.627 201.78 229.807 195.533 229.807C195.343 229.807 197.915 256.982 159.375 255.167C131.057 253.829 129.869 229.807 129.869 229.807C129.869 229.807 115.847 230.714 106.519 231.974C91.2506 234.043 77.0787 243.012 68.4947 257.942C59.891 272.903 62.4891 282.897 65.9749 314.244C69.154 342.823 72.8422 402.128 74.3762 428.122C76.1779 429.525 78.01 430.903 79.8726 432.254C81.0163 433.083 82.172 433.901 83.3396 434.708C83.4244 434.767 83.508 434.827 83.5935 434.885C84.7407 435.678 85.8989 436.458 87.0683 437.226C87.125 437.263 87.1799 437.302 87.236 437.339C106.534 450.008 128.737 459.412 152.681 460.937C191.175 463.398 217.156 450.186 245.297 440.061C245.239 438.292 245.206 437.346 245.206 437.346L244.994 437.339H245.461C246.694 418.715 250.957 324.382 252.249 309.263C254.981 277.218 266.555 251.884 242.774 237.797Z" fill="#171DCE"/>
<path d="M401.191 274.129C401.438 273.45 401.82 272.828 402.315 272.302C402.809 271.775 403.406 271.355 404.069 271.067C404.731 270.778 405.445 270.628 406.168 270.625C406.89 270.622 407.606 270.766 408.271 271.049C409.539 271.64 410.535 272.691 411.058 273.989C411.581 275.287 411.591 276.735 411.088 278.04L408.641 284.791L424.028 269.101C425.941 267.093 429.572 265.852 431.683 268.145C433.511 269.887 437.74 270.423 438.426 273.687C438.45 273.704 438.406 303.577 436.633 305.439C429.106 313.343 410.913 314.872 400.764 310.857L384.79 304.541L401.191 274.129Z" fill="#E98862"/>
<g opacity="0.1">
<path d="M401.191 274.129C401.438 273.45 401.82 272.828 402.315 272.302C402.809 271.775 403.406 271.355 404.069 271.067C404.731 270.778 405.445 270.628 406.168 270.625C406.89 270.622 407.606 270.766 408.271 271.049C409.539 271.64 410.535 272.691 411.058 273.989C411.581 275.287 411.591 276.735 411.088 278.04L408.641 284.791L424.028 269.101C425.941 267.093 429.572 265.852 431.683 268.145C433.511 269.887 437.74 270.423 438.426 273.687C438.45 273.704 438.406 303.577 436.633 305.439C429.106 313.343 410.913 314.872 400.764 310.857L384.79 304.541L401.191 274.129Z" fill="#0C0C0C"/>
</g>
<path d="M462.548 247.7C462.548 246.807 462.363 245.924 462.004 245.107C461.645 244.29 461.12 243.556 460.462 242.952C459.805 242.348 459.029 241.888 458.184 241.599C457.339 241.311 456.444 241.201 455.554 241.277L424.475 243.931C421.7 244.168 419.116 245.437 417.233 247.488C415.349 249.539 414.304 252.222 414.304 255.007V307.982C414.304 309.692 414.983 311.331 416.192 312.54C417.401 313.749 419.04 314.428 420.75 314.429V314.429C421.596 314.429 422.434 314.262 423.217 313.938C423.999 313.614 424.709 313.139 425.308 312.541C425.906 311.942 426.381 311.231 426.705 310.449C427.029 309.667 427.195 308.829 427.195 307.982V266.665C427.195 265.75 427.391 264.845 427.768 264.01C428.145 263.176 428.696 262.432 429.383 261.827C430.07 261.222 430.879 260.77 431.754 260.502C432.629 260.234 433.552 260.156 434.46 260.272L455.284 262.938C456.192 263.054 457.115 262.976 457.99 262.707C458.866 262.439 459.674 261.988 460.361 261.383C461.049 260.778 461.599 260.033 461.976 259.199C462.353 258.364 462.548 257.459 462.548 256.543V247.7Z" fill="#F2F2F2"/>
<path d="M420.75 315.081C418.868 315.079 417.064 314.33 415.733 312.999C414.402 311.669 413.654 309.864 413.652 307.982V255.007C413.635 252.053 414.737 249.203 416.734 247.028C418.732 244.854 421.479 243.514 424.422 243.28L455.502 240.627C456.482 240.543 457.468 240.664 458.398 240.981C459.329 241.299 460.183 241.806 460.908 242.471C461.632 243.136 462.21 243.944 462.605 244.844C463.001 245.744 463.205 246.717 463.205 247.7V256.543C463.205 257.552 462.99 258.549 462.575 259.467C462.16 260.386 461.553 261.206 460.796 261.872C460.039 262.539 459.149 263.036 458.185 263.331C457.221 263.626 456.205 263.712 455.204 263.584L434.381 260.918C433.565 260.813 432.736 260.884 431.949 261.125C431.163 261.366 430.437 261.772 429.819 262.315C429.202 262.859 428.707 263.527 428.368 264.277C428.029 265.026 427.853 265.839 427.853 266.662V307.982C427.85 309.865 427.101 311.67 425.769 313.001C424.438 314.332 422.633 315.08 420.75 315.081V315.081ZM456.12 241.904C455.95 241.904 455.781 241.912 455.61 241.926L424.53 244.579C421.913 244.788 419.473 245.979 417.697 247.913C415.922 249.846 414.943 252.38 414.957 255.005V307.982C414.973 309.508 415.591 310.966 416.675 312.039C417.76 313.112 419.224 313.714 420.75 313.714C422.276 313.714 423.74 313.112 424.825 312.039C425.91 310.966 426.527 309.508 426.543 307.982V266.665C426.543 265.657 426.758 264.66 427.173 263.741C427.588 262.823 428.195 262.003 428.952 261.337C429.709 260.67 430.599 260.173 431.563 259.878C432.527 259.583 433.543 259.496 434.543 259.624L455.367 262.291C456.183 262.395 457.012 262.324 457.798 262.083C458.585 261.842 459.311 261.436 459.928 260.893C460.546 260.35 461.04 259.681 461.379 258.932C461.719 258.182 461.894 257.369 461.895 256.547V247.7C461.895 246.167 461.287 244.696 460.204 243.609C459.121 242.523 457.652 241.911 456.119 241.906L456.12 241.904Z" fill="#0C0C0C"/>
<path d="M416.262 292.809C416.521 291.896 417.07 291.092 417.827 290.52C418.584 289.948 419.507 289.639 420.456 289.639C420.444 289.564 420.362 289.388 420.494 289.374L417.225 287.787C416.252 287.34 415.473 286.556 415.033 285.58C414.593 284.604 414.521 283.501 414.83 282.476C415.169 281.474 415.868 280.633 416.791 280.117C417.714 279.601 418.797 279.446 419.828 279.682C419.814 279.642 419.834 279.598 419.833 279.554L418.49 278.902C417.575 278.477 416.835 277.749 416.395 276.841C415.955 275.933 415.842 274.901 416.075 273.919C416.234 273.307 416.527 272.737 416.933 272.251C417.339 271.766 417.847 271.376 418.422 271.111C418.996 270.846 419.622 270.711 420.255 270.717C420.888 270.723 421.511 270.87 422.081 271.146L425.181 272.651C425.186 272.633 425.175 272.615 425.181 272.598C425.187 272.581 425.218 272.571 425.23 272.551C424.475 271.947 423.947 271.103 423.733 270.159C423.52 269.215 423.633 268.227 424.055 267.356C424.999 265.036 428.08 264.948 430.084 265.92L436.16 269.476C437.097 270.025 437.885 270.797 438.451 271.724C439.018 272.651 439.347 273.704 439.409 274.789C439.951 284.174 440.78 308.721 434.382 305.615L418.636 297.969C417.723 297.495 416.994 296.73 416.565 295.796C416.135 294.862 416.028 293.811 416.262 292.809V292.809Z" fill="#E98862"/>
<path d="M389.434 279.947L309.608 343.744L255.034 250.472L201.195 281.974L273.98 406.365L274.528 407.313C276.829 411.187 279.961 414.503 283.699 417.02C287.436 419.537 291.685 421.194 296.14 421.87C300.596 422.546 305.145 422.224 309.461 420.929C313.777 419.633 317.751 417.396 321.098 414.379L423.251 323.338L389.434 279.947Z" fill="#171DCE"/>
<path d="M316.278 302.755C316.278 301.862 316.092 300.979 315.733 300.162C315.374 299.345 314.849 298.611 314.192 298.007C313.534 297.403 312.758 296.943 311.913 296.655C311.069 296.366 310.173 296.257 309.284 296.333L278.204 298.986C275.43 299.223 272.845 300.492 270.962 302.543C269.079 304.594 268.034 307.277 268.034 310.062V363.037C268.034 364.746 268.713 366.386 269.922 367.595C271.13 368.804 272.77 369.483 274.479 369.483V369.483C275.326 369.483 276.164 369.316 276.946 368.992C277.728 368.668 278.439 368.193 279.037 367.595C279.636 366.996 280.11 366.286 280.434 365.504C280.758 364.721 280.925 363.883 280.925 363.037V321.72C280.925 320.805 281.12 319.9 281.497 319.065C281.874 318.231 282.425 317.487 283.112 316.882C283.8 316.277 284.608 315.825 285.483 315.557C286.359 315.289 287.281 315.211 288.19 315.327L309.013 317.993C309.922 318.109 310.844 318.031 311.719 317.762C312.595 317.494 313.403 317.043 314.09 316.438C314.778 315.833 315.328 315.089 315.705 314.254C316.082 313.42 316.278 312.515 316.278 311.599V302.755Z" fill="#F2F2F2"/>
<path d="M274.479 370.136C272.597 370.134 270.792 369.386 269.461 368.055C268.13 366.724 267.381 364.92 267.379 363.037V310.062C267.363 307.108 268.464 304.258 270.462 302.083C272.46 299.908 275.206 298.569 278.15 298.335L309.23 295.682C310.209 295.598 311.195 295.719 312.126 296.037C313.056 296.354 313.911 296.861 314.635 297.526C315.359 298.191 315.937 298.999 316.333 299.899C316.728 300.799 316.932 301.772 316.932 302.755V311.6C316.932 312.608 316.718 313.605 316.302 314.523C315.887 315.442 315.281 316.262 314.524 316.928C313.767 317.594 312.877 318.091 311.913 318.387C310.949 318.682 309.933 318.768 308.933 318.64L288.109 315.974C287.293 315.869 286.464 315.94 285.677 316.181C284.891 316.422 284.164 316.828 283.547 317.371C282.929 317.915 282.435 318.583 282.096 319.333C281.757 320.082 281.581 320.896 281.581 321.718V363.035C281.579 364.918 280.83 366.723 279.499 368.055C278.168 369.386 276.362 370.134 274.479 370.136ZM309.848 296.959C309.68 296.959 309.51 296.967 309.339 296.981L278.26 299.634C275.642 299.843 273.2 301.033 271.424 302.968C269.649 304.902 268.67 307.436 268.685 310.062V363.037C268.701 364.563 269.318 366.021 270.403 367.094C271.488 368.167 272.952 368.769 274.478 368.769C276.004 368.769 277.468 368.167 278.553 367.094C279.637 366.021 280.255 364.563 280.271 363.037V321.72C280.271 320.712 280.486 319.715 280.901 318.796C281.316 317.877 281.923 317.058 282.68 316.391C283.437 315.725 284.327 315.228 285.291 314.933C286.255 314.638 287.271 314.551 288.271 314.679L309.095 317.345C309.911 317.45 310.74 317.379 311.527 317.138C312.313 316.897 313.039 316.492 313.657 315.948C314.275 315.405 314.769 314.736 315.108 313.986C315.447 313.237 315.623 312.423 315.623 311.601V302.755C315.623 301.221 315.015 299.75 313.932 298.664C312.849 297.578 311.38 296.966 309.846 296.961L309.848 296.959Z" fill="#0C0C0C"/>
<path d="M259.96 318.942C260.191 318.303 260.551 317.718 261.017 317.222C261.482 316.727 262.044 316.331 262.667 316.06C263.291 315.788 263.963 315.647 264.643 315.644C265.323 315.641 265.996 315.777 266.622 316.042C267.815 316.599 268.753 317.588 269.245 318.81C269.737 320.031 269.747 321.394 269.273 322.622L267.925 326.338L278.784 320.148C281.29 318.402 284.953 317.69 287.335 319.028C289.833 320.43 291.689 323.687 292.335 326.759C292.357 326.775 294.14 340.655 291.035 347.639C286.862 357.024 267.788 365.286 258.236 361.509L243.203 355.565L259.96 318.942Z" fill="#E98862"/>
<path d="M250.672 341.165H250.653C250.579 341.163 250.505 341.146 250.437 341.115C250.369 341.084 250.308 341.04 250.257 340.986C250.206 340.931 250.166 340.867 250.14 340.797C250.114 340.727 250.102 340.652 250.105 340.578L251.239 305.866C251.247 305.716 251.313 305.576 251.422 305.473C251.532 305.371 251.677 305.315 251.826 305.317C251.901 305.32 251.974 305.337 252.042 305.367C252.11 305.398 252.172 305.442 252.223 305.497C252.274 305.551 252.313 305.616 252.339 305.686C252.365 305.756 252.377 305.83 252.375 305.905L251.241 340.617C251.236 340.764 251.174 340.904 251.068 341.006C250.961 341.109 250.82 341.166 250.672 341.165V341.165Z" fill="#0C0C0C"/>
<path d="M253.949 322.026L160.037 349.835L127.985 265.228L65.4526 290.449L112.204 399.614L112.846 401.116C115.896 408.176 121.52 413.809 128.576 416.87C135.631 419.93 143.588 420.188 150.827 417.59L271.1 374.44L253.949 322.026Z" fill="#171DCE"/>
<path d="M140.649 419.935C134.629 419.937 128.74 418.177 123.707 414.873C118.675 411.569 114.719 406.865 112.327 401.341L111.685 399.839L70.056 313.246C69.9944 313.111 69.9882 312.957 70.0388 312.817C70.0893 312.678 70.1926 312.564 70.3263 312.499C70.4601 312.435 70.6137 312.426 70.7543 312.473C70.8949 312.521 71.0112 312.622 71.0782 312.754L112.717 399.372L113.369 400.897C116.369 407.819 121.889 413.341 128.809 416.343C135.73 419.345 143.534 419.602 150.637 417.062L270.387 374.095L253.581 322.729L160.198 350.381C160.065 350.42 159.923 350.409 159.798 350.351C159.672 350.293 159.573 350.191 159.517 350.064L133.428 290.181C133.372 290.044 133.371 289.89 133.427 289.753C133.483 289.615 133.59 289.505 133.726 289.446C133.862 289.386 134.016 289.383 134.155 289.436C134.293 289.488 134.406 289.593 134.468 289.728L160.354 349.152L253.785 321.483C253.926 321.441 254.079 321.455 254.21 321.524C254.34 321.593 254.439 321.71 254.485 321.85L271.634 374.264C271.68 374.404 271.669 374.557 271.604 374.69C271.54 374.822 271.425 374.924 271.286 374.974L151.02 418.127C147.693 419.323 144.185 419.934 140.649 419.935Z" fill="#0C0C0C"/>
<path d="M143.955 355.431C143.818 355.432 143.685 355.385 143.581 355.296C143.476 355.208 143.407 355.085 143.387 354.949C143.366 354.814 143.395 354.676 143.469 354.56C143.542 354.445 143.655 354.36 143.786 354.321L159.868 349.294C160.009 349.255 160.161 349.273 160.29 349.343C160.419 349.414 160.516 349.532 160.56 349.672C160.604 349.813 160.592 349.965 160.525 350.096C160.459 350.228 160.345 350.328 160.206 350.377L144.123 355.403C144.069 355.421 144.012 355.43 143.955 355.431V355.431Z" fill="#0C0C0C"/>
<path d="M159.907 161.742L129.239 165.578C128.849 165.627 128.453 165.599 128.074 165.494C127.695 165.39 127.34 165.212 127.03 164.971C126.719 164.73 126.46 164.43 126.265 164.088C126.071 163.746 125.946 163.37 125.897 162.98C125.799 162.192 126.017 161.397 126.505 160.771C126.992 160.144 127.708 159.737 128.496 159.638L159.164 155.802L159.907 161.742Z" fill="#F2F2F2"/>
<path d="M128.865 166.254C127.937 166.253 127.045 165.899 126.369 165.264C125.693 164.628 125.285 163.759 125.228 162.833C125.17 161.908 125.468 160.995 126.06 160.281C126.652 159.567 127.494 159.105 128.415 158.99L159.083 155.154C159.168 155.142 159.255 155.148 159.337 155.17C159.42 155.193 159.498 155.232 159.565 155.284C159.633 155.337 159.689 155.402 159.732 155.477C159.774 155.551 159.802 155.634 159.812 155.719L160.555 161.659C160.577 161.831 160.529 162.004 160.423 162.14C160.317 162.277 160.16 162.366 159.989 162.387L129.32 166.224C129.169 166.243 129.017 166.253 128.865 166.254V166.254ZM158.598 156.527L128.577 160.283C127.961 160.361 127.401 160.679 127.02 161.169C126.639 161.659 126.468 162.28 126.545 162.896C126.622 163.512 126.941 164.072 127.431 164.453C127.921 164.834 128.542 165.005 129.158 164.928L159.179 161.173L158.598 156.527Z" fill="#0C0C0C"/>
<path d="M211.934 158.27L210.283 145.07C210.001 142.819 208.837 140.771 207.046 139.379C205.255 137.986 202.984 137.362 200.733 137.643L158.461 142.931C158.132 142.973 157.805 143.035 157.482 143.116L151.246 143.896C150.131 144.035 149.054 144.393 148.078 144.948C147.101 145.503 146.243 146.245 145.554 147.132C144.864 148.019 144.356 149.033 144.058 150.117C143.761 151.2 143.68 152.331 143.819 153.446L145.47 166.646C145.609 167.761 145.967 168.837 146.522 169.814C147.078 170.791 147.82 171.648 148.707 172.338C149.594 173.028 150.608 173.536 151.691 173.833C152.774 174.131 153.906 174.212 155.021 174.072L197.291 168.785C197.621 168.742 197.948 168.68 198.271 168.599L204.507 167.816C205.621 167.677 206.697 167.32 207.674 166.765C208.65 166.21 209.508 165.468 210.198 164.581C210.888 163.695 211.396 162.681 211.694 161.598C211.992 160.515 212.073 159.384 211.934 158.27V158.27Z" fill="#F2F2F2"/>
<path d="M153.953 174.792C151.711 174.788 149.547 173.967 147.867 172.482C146.186 170.998 145.104 168.952 144.823 166.728L143.172 153.528C142.869 151.105 143.541 148.661 145.04 146.733C146.539 144.806 148.742 143.552 151.165 143.249L157.366 142.474C157.701 142.391 158.04 142.327 158.382 142.284L200.654 136.996C201.854 136.846 203.071 136.933 204.237 137.253C205.403 137.574 206.495 138.121 207.449 138.863C208.404 139.605 209.203 140.528 209.8 141.58C210.398 142.631 210.783 143.789 210.932 144.989L212.583 158.189C212.734 159.389 212.646 160.606 212.326 161.772C212.006 162.938 211.459 164.03 210.717 164.985C209.974 165.939 209.051 166.738 208 167.336C206.949 167.934 205.79 168.318 204.59 168.468L198.389 169.244C198.054 169.325 197.715 169.389 197.373 169.433L155.101 174.721C154.72 174.769 154.337 174.792 153.953 174.792V174.792ZM201.81 138.229C201.477 138.23 201.144 138.252 200.814 138.294L158.542 143.581C158.238 143.621 157.936 143.678 157.638 143.753C157.613 143.759 157.589 143.764 157.564 143.767L151.327 144.547C149.248 144.809 147.359 145.885 146.073 147.539C144.787 149.193 144.21 151.289 144.467 153.369L146.118 166.568C146.381 168.647 147.457 170.536 149.111 171.822C150.765 173.108 152.861 173.685 154.94 173.428L197.212 168.14C197.516 168.101 197.818 168.043 198.116 167.969C198.141 167.963 198.166 167.958 198.191 167.955L204.426 167.175C206.505 166.913 208.394 165.836 209.68 164.183C210.967 162.529 211.544 160.432 211.286 158.353V158.353L209.635 145.154C209.396 143.246 208.469 141.491 207.029 140.218C205.588 138.944 203.733 138.239 201.81 138.234V138.229Z" fill="#0C0C0C"/>
<path d="M208.334 136.757L166.064 142.044C161.376 142.631 158.051 146.907 158.637 151.595L160.288 164.794C160.875 169.482 165.15 172.807 169.838 172.221L212.109 166.933C216.797 166.347 220.122 162.071 219.536 157.383L217.885 144.184C217.298 139.495 213.022 136.17 208.334 136.757Z" fill="#F2F2F2"/>
<path d="M168.759 172.94C166.518 172.934 164.356 172.113 162.677 170.628C160.999 169.143 159.919 167.097 159.641 164.874L157.99 151.674C157.839 150.474 157.927 149.256 158.247 148.09C158.567 146.923 159.114 145.832 159.856 144.877C160.598 143.922 161.521 143.123 162.573 142.525C163.624 141.927 164.783 141.542 165.983 141.393L208.255 136.105C210.677 135.805 213.119 136.478 215.046 137.977C216.973 139.475 218.227 141.677 218.533 144.098L220.184 157.298C220.485 159.721 219.812 162.163 218.313 164.09C216.815 166.017 214.613 167.271 212.191 167.577L169.92 172.864C169.535 172.913 169.147 172.938 168.759 172.94V172.94ZM209.403 137.341C209.073 137.341 208.744 137.361 208.416 137.403L166.145 142.69C165.115 142.819 164.121 143.149 163.219 143.662C162.317 144.175 161.525 144.86 160.888 145.679C160.251 146.498 159.781 147.435 159.506 148.436C159.231 149.436 159.156 150.481 159.285 151.511L160.936 164.711C161.065 165.74 161.395 166.735 161.908 167.637C162.421 168.539 163.107 169.331 163.926 169.968C164.745 170.605 165.682 171.075 166.683 171.349C167.683 171.624 168.728 171.699 169.758 171.57L212.03 166.282C214.108 166.02 215.997 164.944 217.283 163.29C218.569 161.636 219.147 159.54 218.889 157.461L217.237 144.265C216.997 142.355 216.069 140.599 214.626 139.325C213.184 138.05 211.327 137.345 209.403 137.341V137.341Z" fill="#0C0C0C"/>
</g>
<defs>
<clipPath id="clip0_69_1344">
<rect width="643.473" height="476" fill="white"/>
</clipPath>
</defs>
</svg>
