<svg width="218" height="218" viewBox="0 0 218 218" fill="none" xmlns="http://www.w3.org/2000/svg">
<g clip-path="url(#clip0_175_1841)">
<path d="M218 0H0V218H218V0Z" fill="#181D2B"/>
<path opacity="0.07" d="M178.286 109.664C175.879 108.261 174.135 108.223 173.054 109.55C171.974 110.858 171.443 113.076 171.443 116.204V133.056C171.443 136.26 171.139 138.913 170.552 141.018C169.964 143.198 168.959 144.752 167.576 145.662C166.23 146.591 164.41 146.837 162.097 146.401C159.841 145.984 157.017 144.809 153.643 142.856L152.031 141.928V128.658L154.041 129.814C156.448 131.217 158.059 131.388 158.875 130.364C159.728 129.378 160.164 127.312 160.164 124.184V109.341C160.164 105.474 160.543 102.422 161.301 100.166C162.059 97.9105 163.557 96.4888 165.813 95.8443C163.557 92.6027 162.059 89.437 161.301 86.3281C160.543 83.2192 160.183 79.7312 160.183 75.8641V61.0212C160.183 57.8933 159.747 55.3532 158.894 53.3627C158.097 51.4102 156.486 49.742 154.06 48.3392L152.05 47.1829V33.9133L153.662 34.8422C157.036 36.7947 159.86 38.861 162.116 41.0599C164.429 43.2779 166.249 45.6474 167.595 48.1307C168.997 50.6519 169.983 53.3438 170.571 56.2062C171.158 58.9928 171.462 62.0069 171.462 65.1916V82.0439C171.462 85.1718 171.992 88.0152 173.073 90.5554C174.154 93.1145 175.898 95.086 178.305 96.4698L178.286 109.664Z" fill="url(#paint0_linear_175_1841)"/>
<path opacity="0.07" d="M117.151 60.8504C119.559 62.2532 121.303 62.2911 122.383 60.9642C123.464 59.6562 123.995 57.4383 123.995 54.3104V37.4581C123.995 34.2544 124.298 31.6005 124.886 29.4963C125.473 27.3163 126.44 25.743 127.786 24.8141C129.189 23.9042 131.009 23.6577 133.264 24.0748C135.577 24.5108 138.42 25.705 141.795 27.6576L143.406 28.5864V41.856L141.397 40.6996C138.989 39.2969 137.34 39.1073 136.487 40.093C135.691 41.1167 135.274 43.183 135.274 46.3108V61.1537C135.274 65.0209 134.895 68.0729 134.136 70.3287C133.378 72.5656 131.88 74.0063 129.625 74.6508C131.88 77.8923 133.378 81.0581 134.136 84.167C134.895 87.2758 135.255 90.7638 135.255 94.631V109.474C135.255 112.602 135.653 115.142 136.468 117.094C137.321 119.085 138.97 120.772 141.378 122.156L143.387 123.312V136.582L141.776 135.653C138.402 133.7 135.558 131.615 133.245 129.397C130.99 127.198 129.17 124.848 127.767 122.326C126.421 119.843 125.454 117.17 124.867 114.289C124.279 111.502 123.976 108.488 123.976 105.303V88.4511C123.976 85.3233 123.445 82.4798 122.364 79.9397C121.284 77.3805 119.54 75.409 117.132 74.0252L117.151 60.8504Z" fill="url(#paint1_linear_175_1841)"/>
<path opacity="0.4" d="M170.704 115.35C168.296 113.948 166.552 113.91 165.472 115.237C164.391 116.545 163.86 118.763 163.86 121.89V138.743C163.86 141.946 163.557 144.6 162.969 146.704C162.382 148.884 161.377 150.439 159.993 151.349C158.647 152.278 156.827 152.524 154.515 152.088C152.259 151.671 149.434 150.496 146.06 148.543L144.449 147.614V134.345L146.458 135.501C148.866 136.904 150.477 137.075 151.292 136.051C152.145 135.065 152.581 132.999 152.581 129.871V115.028C152.581 111.161 152.96 108.109 153.718 105.853C154.477 103.597 155.974 102.176 158.23 101.531C155.974 98.2895 154.477 95.1237 153.718 92.0149C152.96 88.906 152.6 85.418 152.6 81.5509V66.7079C152.6 63.5801 152.164 61.0399 151.311 59.0495C150.515 57.097 148.904 55.4288 146.477 54.026L144.468 52.8697V39.6001L146.079 40.529C149.453 42.4815 152.278 44.5477 154.534 46.7467C156.846 48.9646 158.666 51.3342 160.012 53.8175C161.415 56.3387 162.401 59.0305 162.988 61.893C163.576 64.6796 163.879 67.6937 163.879 70.8784V87.7307C163.879 90.8585 164.41 93.702 165.49 96.2422C166.571 98.8013 168.315 100.773 170.722 102.157L170.704 115.35Z" fill="url(#paint2_linear_175_1841)"/>
<path opacity="0.4" d="M109.569 66.5374C111.976 67.9402 113.72 67.9781 114.801 66.6512C115.881 65.3432 116.412 63.1253 116.412 59.9974V43.1451C116.412 39.9414 116.715 37.2875 117.303 35.1834C117.891 33.0034 118.857 31.43 120.203 30.5011C121.606 29.5912 123.426 29.3447 125.682 29.7618C127.995 30.1978 130.838 31.3921 134.212 33.3446L135.824 34.2734V47.543L133.814 46.3867C131.407 44.9839 129.757 44.7943 128.904 45.7801C128.108 46.8037 127.691 48.87 127.691 51.9978V66.8407C127.691 70.7079 127.312 73.7599 126.554 76.0157C125.796 78.2526 124.298 79.6933 122.042 80.3378C124.298 83.5794 125.796 86.7451 126.554 89.854C127.312 92.9628 127.672 96.4508 127.672 100.318V115.161C127.672 118.289 128.07 120.829 128.885 122.781C129.739 124.772 131.388 126.459 133.795 127.843L135.805 128.999V142.269L134.193 141.34C130.819 139.387 127.976 137.302 125.663 135.084C123.407 132.885 121.587 130.535 120.184 128.013C118.839 125.53 117.872 122.857 117.284 119.976C116.696 117.189 116.393 114.175 116.393 110.99V94.1381C116.393 91.0103 115.862 88.1668 114.782 85.6267C113.701 83.0675 111.957 81.0961 109.55 79.7122L109.569 66.5374Z" fill="url(#paint3_linear_175_1841)"/>
<path opacity="0.15" d="M67.4853 26.198L99.882 44.9081L99.863 122.497L67.4663 103.787L67.4853 26.198Z" fill="url(#paint4_linear_175_1841)"/>
<path fill-rule="evenodd" clip-rule="evenodd" d="M61.4001 38.1216L87.1621 53.0025V60.1491L61.4001 45.2682V38.1216Z" fill="#F2C94C"/>
<path opacity="0.15" d="M71.4851 69.1345L96.2423 83.4277V94.5363L71.4851 80.243V69.1345Z" fill="white"/>
<path opacity="0.15" d="M71.4661 55.6943L96.2612 70.0065V72.5846L71.4661 58.2914V55.6943Z" fill="white"/>
<path opacity="0.15" d="M71.4661 60.7366L92.9059 73.1152V75.6933L71.4661 63.3147V60.7366Z" fill="white"/>
<path opacity="0.2" d="M67.4851 26.198L99.8818 44.9081V55.3152L67.4851 36.6051V26.198Z" fill="url(#paint5_linear_175_1841)"/>
<path opacity="0.2" d="M75.5796 36.1312C75.5796 37.7046 74.6508 38.4439 73.5134 37.7994C72.376 37.1359 71.4661 35.335 71.4661 33.7616C71.4661 32.1882 72.3949 31.4489 73.5323 32.0935C74.6508 32.7569 75.5796 34.5578 75.5796 36.1312Z" fill="white"/>
<path opacity="0.15" d="M107.294 98.1379L139.691 116.848L139.672 194.437L107.275 175.727L107.294 98.1379Z" fill="url(#paint6_linear_175_1841)"/>
<path fill-rule="evenodd" clip-rule="evenodd" d="M119.635 120.715L145.397 135.577V142.705L119.616 127.843L119.635 120.715Z" fill="#F2994A"/>
<path opacity="0.15" d="M111.294 128.089L136.07 142.402V153.491L111.294 139.179V128.089Z" fill="white"/>
<path opacity="0.15" d="M111.256 143.937L136.051 158.249V160.827L111.256 146.534V143.937Z" fill="white"/>
<path opacity="0.15" d="M111.256 148.6L132.696 160.979V163.557L111.256 151.178V148.6Z" fill="white"/>
<path opacity="0.2" d="M107.294 98.1379L139.691 116.848V127.255L107.294 108.545V98.1379Z" fill="url(#paint7_linear_175_1841)"/>
<path opacity="0.2" d="M115.388 108.09C115.388 109.664 114.46 110.403 113.322 109.758C112.185 109.095 111.275 107.294 111.275 105.721C111.275 104.147 112.204 103.408 113.341 104.052C114.46 104.697 115.388 106.517 115.388 108.09Z" fill="white"/>
<path opacity="0.3" d="M101.683 108.886L45.2871 76.3379L45.3061 105.739L96.7351 135.425L101.721 142.799L101.683 108.886Z" fill="url(#paint8_linear_175_1841)"/>
<path opacity="0.15" d="M87.1809 107.673L74.8213 100.545V103.123L87.1809 110.251V107.673Z" fill="white"/>
<path opacity="0.15" d="M87.181 112.848L56.5852 95.1807V97.7588L87.2 115.426L87.181 112.848Z" fill="white"/>
<path opacity="0.15" d="M87.1999 118.023L50.2537 96.6973V99.2754L87.1999 120.601V118.023Z" fill="white"/>
<path fill-rule="evenodd" clip-rule="evenodd" d="M90.2332 112.128C90.2332 114.554 91.6738 117.341 93.4368 118.364C95.1998 119.388 96.6405 118.251 96.6405 115.824C96.6405 113.398 95.1998 110.611 93.4368 109.588C91.6549 108.564 90.2332 109.701 90.2332 112.128Z" fill="#F2994A"/>
<path opacity="0.15" d="M50.8605 55.6941L43.3916 51.372V48.8508L50.8605 53.1729C51.4671 53.5331 52.358 54.2345 53.1163 55.334C53.9314 56.5093 54.5191 57.9879 54.5191 59.5992C54.5191 61.3811 54.0641 62.3858 53.2111 62.6891C52.3959 62.9545 51.4481 62.4995 50.8605 62.1583L47.7895 60.3764L47.7706 60.3574C47.5052 60.2058 47.0881 60.0541 46.7659 60.1489C46.5005 60.2247 46.1782 60.5091 46.1782 61.4948C46.1782 62.4806 46.4815 63.0872 46.7469 63.4474C47.0692 63.9023 47.4862 64.2246 47.7516 64.3573L47.7895 64.3762L57.1919 69.7978V72.319L47.8464 66.9164C47.2019 66.5752 46.273 65.8738 45.4768 64.7554C44.6048 63.5232 43.9982 61.9687 43.9982 60.2247C43.9982 58.4997 44.6048 57.6087 45.4579 57.3623C46.254 57.1348 47.1829 57.476 47.8274 57.8552L50.8794 59.6181C51.3154 59.8646 51.6566 59.9783 51.8652 59.9025C52.0358 59.8456 52.3391 59.5992 52.3391 58.3291C52.3391 57.495 52.0737 56.9642 51.8083 56.5851C51.505 56.168 51.1069 55.8268 50.8605 55.6941Z" fill="white"/>
<path fill-rule="evenodd" clip-rule="evenodd" d="M45.6095 51.6375C45.6095 53.7986 44.3394 54.8033 42.785 53.9123C41.2305 53.0213 39.9604 50.538 39.9604 48.377C39.9604 46.216 41.2305 45.2113 42.785 46.1022C44.3394 47.0121 45.6095 49.4954 45.6095 51.6375ZM60.5851 72.4897C60.5851 74.6507 59.3151 75.6554 57.7606 74.7645C56.2062 73.8735 54.9361 71.3902 54.9361 69.2292C54.9361 67.0681 56.2062 66.0634 57.7606 66.9544C59.3151 67.8643 60.5851 70.3476 60.5851 72.4897Z" fill="#F2C94C"/>
<path opacity="0.2" d="M80.7358 138.402C81.8732 139.065 82.7831 140.638 82.7831 141.965V147.747L86.6124 149.946C87.7497 150.61 88.6597 152.183 88.6597 153.51C88.6597 154.818 87.7308 155.349 86.6124 154.704L82.7831 152.505V158.287C82.7831 159.595 81.8543 160.126 80.7358 159.481C79.5984 158.818 78.6885 157.244 78.6885 155.917V150.136L74.8593 147.937C73.7219 147.273 72.812 145.7 72.812 144.373C72.812 143.065 73.7409 142.534 74.8593 143.179L78.6885 145.378V139.596C78.6885 138.269 79.5984 137.738 80.7358 138.402Z" fill="url(#paint9_linear_175_1841)"/>
</g>
<defs>
<linearGradient id="paint0_linear_175_1841" x1="166.529" y1="37.7428" x2="130.811" y2="99.6459" gradientUnits="userSpaceOnUse">
<stop stop-color="white"/>
<stop offset="1" stop-color="white" stop-opacity="0"/>
</linearGradient>
<linearGradient id="paint1_linear_175_1841" x1="132.305" y1="24.4225" x2="96.5936" y2="86.3137" gradientUnits="userSpaceOnUse">
<stop stop-color="white"/>
<stop offset="1" stop-color="white" stop-opacity="0"/>
</linearGradient>
<linearGradient id="paint2_linear_175_1841" x1="158.947" y1="43.4295" x2="123.228" y2="105.333" gradientUnits="userSpaceOnUse">
<stop stop-color="white"/>
<stop offset="1" stop-color="white" stop-opacity="0"/>
</linearGradient>
<linearGradient id="paint3_linear_175_1841" x1="124.722" y1="30.1095" x2="89.0111" y2="92.0007" gradientUnits="userSpaceOnUse">
<stop stop-color="white"/>
<stop offset="1" stop-color="white" stop-opacity="0"/>
</linearGradient>
<linearGradient id="paint4_linear_175_1841" x1="85.5779" y1="45.2402" x2="61.4856" y2="86.9781" gradientUnits="userSpaceOnUse">
<stop stop-color="white"/>
<stop offset="1" stop-color="white" stop-opacity="0"/>
</linearGradient>
<linearGradient id="paint5_linear_175_1841" x1="78.6043" y1="29.1231" x2="86.7787" y2="52.3006" gradientUnits="userSpaceOnUse">
<stop stop-color="white"/>
<stop offset="1" stop-color="white" stop-opacity="0"/>
</linearGradient>
<linearGradient id="paint6_linear_175_1841" x1="125.387" y1="117.179" x2="101.294" y2="158.918" gradientUnits="userSpaceOnUse">
<stop stop-color="white"/>
<stop offset="1" stop-color="white" stop-opacity="0"/>
</linearGradient>
<linearGradient id="paint7_linear_175_1841" x1="118.414" y1="101.066" x2="126.589" y2="124.244" gradientUnits="userSpaceOnUse">
<stop stop-color="white"/>
<stop offset="1" stop-color="white" stop-opacity="0"/>
</linearGradient>
<linearGradient id="paint8_linear_175_1841" x1="84.9593" y1="97.1284" x2="60.8708" y2="115.989" gradientUnits="userSpaceOnUse">
<stop stop-color="white"/>
<stop offset="1" stop-color="white" stop-opacity="0"/>
</linearGradient>
<linearGradient id="paint9_linear_175_1841" x1="82.8634" y1="145.804" x2="75.7734" y2="151.395" gradientUnits="userSpaceOnUse">
<stop stop-color="white"/>
<stop offset="1" stop-color="white" stop-opacity="0"/>
</linearGradient>
<clipPath id="clip0_175_1841">
<rect width="218" height="218" fill="white"/>
</clipPath>
</defs>
</svg>
